<svg width="1200" height="1200" viewBox="0 0 1200 1200" fill="none" xmlns="http://www.w3.org/2000/svg">
<path d="M600 0C269.221 0 0 269.221 0 600C0 930.779 269.221 1200 600 1200C930.779 1200 1200 930.779 1200 600C1200 269.221 930.779 0 600 0ZM600 100C876.735 100 1100 323.265 1100 600C1100 876.735 876.735 1100 600 1100C323.265 1100 100 876.735 100 600C100 323.265 323.265 100 600 100ZM847.461 400L534.961 712.5L372.461 550L302.539 620.02L534.961 852.539L917.48 470.02L847.461 400Z" fill="#4F9F8C"/>
</svg>
