<svg width="100" height="43" viewBox="0 0 100 43" fill="none" xmlns="http://www.w3.org/2000/svg">
<path d="M31.7188 21.7188C31.7188 24.4896 31.4375 27.1354 30.875 29.6562C30.3333 32.1771 29.4271 34.4062 28.1562 36.3438C26.9062 38.2812 25.2812 39.8333 23.2812 41C21.3021 42.1458 18.8854 42.7188 16.0312 42.7188C13.1771 42.7188 10.7604 42.1354 8.78125 40.9688C6.80208 39.7812 5.17708 38.2188 3.90625 36.2812C2.65625 34.3438 1.75 32.1042 1.1875 29.5625C0.645833 27.0208 0.375 24.3854 0.375 21.6562C0.375 18.9271 0.645833 16.2917 1.1875 13.75C1.75 11.2083 2.65625 8.95833 3.90625 7C5.17708 5.04167 6.80208 3.47917 8.78125 2.3125C10.7604 1.125 13.1771 0.53125 16.0312 0.53125C16.8438 0.53125 17.6771 0.645833 18.5312 0.875C19.3854 1.10417 20.1979 1.45833 20.9688 1.9375C21.7396 2.39583 22.4167 2.96875 23 3.65625C23.6042 4.34375 24.0312 5.13542 24.2812 6.03125V1.21875H30.125V15.6875H24.2812C24.2812 14.4167 24.0833 13.2188 23.6875 12.0938C23.2917 10.9479 22.7292 9.94792 22 9.09375C21.2708 8.23958 20.3958 7.57292 19.375 7.09375C18.3542 6.59375 17.2396 6.34375 16.0312 6.34375C14.1979 6.34375 12.6979 6.80208 11.5312 7.71875C10.3646 8.63542 9.42708 9.82292 8.71875 11.2812C8.01042 12.7396 7.51042 14.375 7.21875 16.1875C6.94792 18 6.8125 19.8229 6.8125 21.6562C6.8125 23.4896 6.94792 25.3125 7.21875 27.125C7.51042 28.9375 8 30.5729 8.6875 32.0312C9.375 33.4688 10.3125 34.6354 11.5 35.5312C12.6875 36.4271 14.1979 36.875 16.0312 36.875C18.6771 36.875 20.8125 36.0312 22.4375 34.3438C24.0625 32.6562 25.1771 30.0417 25.7812 26.5H17.1875V20.6875H31.7188V21.7188ZM63.5312 42H57.0625V14.4062L52.9688 29.0625H47.9688L43.9375 14.4062V42H37.4688V1.21875H45.1562L50.4688 19.6562L55.7812 1.21875H63.5312V42ZM99.9375 16.0938H94.1562V7.0625H88.6562V36.1875H95.125V42H75.75V36.1875H82.1875V7.0625H76.625V16.0938H70.875V1.21875H99.9375V16.0938Z" fill="#CF3333"/>
</svg>
