<svg width="21" height="25" viewBox="0 0 21 25" fill="none" xmlns="http://www.w3.org/2000/svg">
<path d="M10.1312 0C4.54544 0 0 4.24915 0 9.47196C5.34321e-07 13.917 3.89175 19.6199 7.15698 23.6214C7.87137 24.4976 8.95519 25 10.1312 25C11.3073 25 12.3911 24.498 13.1055 23.6223C16.3707 19.6204 20.2625 13.917 20.2625 9.47196C20.2625 4.24915 15.717 0 10.1312 0ZM10.1312 1.9982C14.5388 1.9982 18.1252 5.35116 18.1252 9.47196C18.1252 13.5643 13.9162 19.3348 11.4075 22.4105C11.1003 22.7867 10.6356 23.0028 10.1312 23.0028C9.62683 23.0028 9.16161 22.7867 8.85491 22.4105C6.34627 19.3348 2.13728 13.5643 2.13728 9.47196C2.13729 5.35116 5.72361 1.9982 10.1312 1.9982ZM6.511 5.49604C6.23782 5.50946 5.97007 5.62075 5.77317 5.82582C3.76733 7.90895 3.76685 11.0591 5.77109 13.1542C5.98214 13.375 6.27347 13.4879 6.56735 13.4879C6.82115 13.4879 7.07551 13.4036 7.27908 13.2332C7.71883 12.8651 7.75687 12.2345 7.36361 11.8234C6.08765 10.4901 6.08717 8.48582 7.36153 7.16251C7.75692 6.75238 7.72089 6.12084 7.28221 5.75167C7.06287 5.56683 6.78417 5.48261 6.511 5.49604ZM13.7515 5.49701C13.4783 5.48353 13.1996 5.56683 12.9802 5.75167C12.5416 6.12084 12.5061 6.75238 12.9009 7.16251C14.1753 8.48582 14.1748 10.4901 12.8988 11.8234C12.5051 12.235 12.5436 12.8656 12.9834 13.2332C13.1875 13.4036 13.4413 13.4879 13.6951 13.4879C13.989 13.4879 14.2803 13.375 14.4914 13.1542C16.4956 11.0591 16.4951 7.90845 14.4893 5.82582C14.2924 5.621 14.0246 5.5105 13.7515 5.49701ZM10.1312 7.99282C9.24586 7.99282 8.52827 8.66372 8.52827 9.49147C8.52827 10.3192 9.24586 10.9901 10.1312 10.9901C11.0166 10.9901 11.7342 10.3192 11.7342 9.49147C11.7342 8.66372 11.0166 7.99282 10.1312 7.99282Z" fill="#646464"/>
</svg>
