<svg width="21" height="18" viewBox="0 0 21 18" fill="none" xmlns="http://www.w3.org/2000/svg">
<path d="M6.20455 0C4.8887 0 3.81818 1.00935 3.81818 2.25V4.5H2.38636C1.07052 4.5 0 5.50935 0 6.75V15.3C0 16.789 1.28434 18 2.86364 18H18.1364C19.7157 18 21 16.789 21 15.3V2.25C21 1.00935 19.9295 0 18.6136 0H6.20455ZM6.20455 1.8H18.6136C18.8771 1.8 19.0909 2.00205 19.0909 2.25V15.3C19.0909 15.7963 18.6628 16.2 18.1364 16.2H5.56321C5.66916 15.9183 5.72727 15.6154 5.72727 15.3V2.25C5.72727 2.00205 5.94109 1.8 6.20455 1.8ZM8.11364 3.6C7.58673 3.6 7.15909 4.00275 7.15909 4.5C7.15909 4.99725 7.58673 5.4 8.11364 5.4H16.7045C17.2315 5.4 17.6591 4.99725 17.6591 4.5C17.6591 4.00275 17.2315 3.6 16.7045 3.6H8.11364ZM2.38636 6.3H3.81818V15.3C3.81818 15.7963 3.39007 16.2 2.86364 16.2C2.3372 16.2 1.90909 15.7963 1.90909 15.3V6.75C1.90909 6.50205 2.12291 6.3 2.38636 6.3ZM8.11364 6.75C7.58673 6.75 7.15909 7.15275 7.15909 7.65C7.15909 8.14725 7.58673 8.55 8.11364 8.55H16.7045C17.2315 8.55 17.6591 8.14725 17.6591 7.65C17.6591 7.15275 17.2315 6.75 16.7045 6.75H8.11364ZM8.11364 9.9C7.58625 9.9 7.15909 10.3027 7.15909 10.8V13.95C7.15909 14.4472 7.58625 14.85 8.11364 14.85H10.9773C11.5047 14.85 11.9318 14.4472 11.9318 13.95V10.8C11.9318 10.3027 11.5047 9.9 10.9773 9.9H8.11364ZM14.3182 9.9C13.7913 9.9 13.3636 10.3027 13.3636 10.8C13.3636 11.2972 13.7913 11.7 14.3182 11.7H16.7045C17.2315 11.7 17.6591 11.2972 17.6591 10.8C17.6591 10.3027 17.2315 9.9 16.7045 9.9H14.3182ZM14.3182 13.05C13.7913 13.05 13.3636 13.4527 13.3636 13.95C13.3636 14.4472 13.7913 14.85 14.3182 14.85H16.7045C17.2315 14.85 17.6591 14.4472 17.6591 13.95C17.6591 13.4527 17.2315 13.05 16.7045 13.05H14.3182Z" fill="#646464"/>
</svg>
