<svg width="42" height="43" viewBox="0 0 42 43" fill="none" xmlns="http://www.w3.org/2000/svg">
<path d="M22.76 32.84C24.84 32.84 26.648 33.096 28.184 33.608C29.72 34.088 31.192 34.84 32.6 35.864L27.848 42.056C26.024 40.008 24.152 38.424 22.232 37.304C20.312 36.216 17.928 35.672 15.08 35.672C12.104 35.672 9.528 35 7.352 33.656C5.176 32.28 3.496 30.296 2.312 27.704C1.16 25.112 0.584 21.992 0.584 18.344C0.584 14.76 1.176 11.656 2.36 9.032C3.576 6.408 5.304 4.408 7.544 3.032C9.784 1.624 12.456 0.919998 15.56 0.919998C20.296 0.919998 23.976 2.44 26.6 5.48C29.256 8.52 30.584 12.808 30.584 18.344C30.584 25.128 27.976 29.96 22.76 32.84ZM8.84 18.344C8.84 22.44 9.4 25.416 10.52 27.272C11.64 29.128 13.32 30.056 15.56 30.056C17.864 30.056 19.56 29.144 20.648 27.32C21.768 25.464 22.328 22.472 22.328 18.344C22.328 14.216 21.768 11.24 20.648 9.416C19.528 7.592 17.832 6.68 15.56 6.68C13.288 6.68 11.592 7.608 10.472 9.464C9.384 11.288 8.84 14.248 8.84 18.344ZM36.9631 27.128C38.1471 27.128 39.1551 27.56 39.9871 28.424C40.8511 29.256 41.2831 30.264 41.2831 31.448C41.2831 32.664 40.8511 33.704 39.9871 34.568C39.1551 35.4 38.1471 35.816 36.9631 35.816C35.7471 35.816 34.7071 35.4 33.8431 34.568C33.0111 33.704 32.5951 32.664 32.5951 31.448C32.5951 30.264 33.0111 29.256 33.8431 28.424C34.7071 27.56 35.7471 27.128 36.9631 27.128Z" fill="black"/>
</svg>
