<svg width="48" height="71" viewBox="0 0 48 71" fill="none" xmlns="http://www.w3.org/2000/svg">
<mask id="path-1-inside-1_492_50" fill="white">
<path d="M24 0C10.7637 0 0 10.8445 0 24.1803C0 27.7636 1.51172 32.2502 3.65625 37.1677C5.80078 42.0852 8.60742 47.3629 11.4375 52.2804C17.0977 62.1095 22.7812 70.3683 22.7812 70.3683C23.0625 70.7639 23.5195 71 24 71C24.4805 71 24.9375 70.7639 25.2188 70.3683C25.2188 70.3683 30.9023 62.1095 36.5625 52.2804C39.3926 47.3629 42.1992 42.0852 44.3438 37.1677C46.4883 32.2502 48 27.7636 48 24.1803C48 10.8445 37.2363 0 24 0ZM24 3.02253C35.6133 3.02253 45 12.4798 45 24.1803C45 26.8545 43.6992 31.1876 41.625 35.9398C39.5508 40.692 36.7324 45.9165 33.9375 50.7691C28.9512 59.4235 25.0254 65.2206 24 66.7319C22.9746 65.2206 19.0488 59.4235 14.0625 50.7691C11.2676 45.9165 8.44922 40.692 6.375 35.9398C4.30078 31.1876 3 26.8545 3 24.1803C3 12.4798 12.3867 3.02253 24 3.02253ZM24 10.5789C16.5645 10.5789 10.5 16.6889 10.5 24.1803C10.5 31.6717 16.5645 37.7817 24 37.7817C31.4355 37.7817 37.5 31.6717 37.5 24.1803C37.5 16.6889 31.4355 10.5789 24 10.5789ZM24 13.6014C29.8184 13.6014 34.5 18.3182 34.5 24.1803C34.5 30.0423 29.8184 34.7591 24 34.7591C18.1816 34.7591 13.5 30.0423 13.5 24.1803C13.5 18.3182 18.1816 13.6014 24 13.6014ZM24 18.1352C20.6836 18.1352 18 20.8389 18 24.1803C18 27.5216 20.6836 30.2253 24 30.2253C27.3164 30.2253 30 27.5216 30 24.1803C30 23.3302 29.8418 22.5509 29.5312 21.8189C29.1211 22.3443 28.4707 22.669 27.75 22.669C26.5078 22.669 25.5 21.6536 25.5 20.4021C25.5 19.676 25.8223 19.0207 26.3438 18.6075C25.6172 18.2946 24.8438 18.1352 24 18.1352Z"/>
</mask>
<path d="M24 0C10.7637 0 0 10.8445 0 24.1803C0 27.7636 1.51172 32.2502 3.65625 37.1677C5.80078 42.0852 8.60742 47.3629 11.4375 52.2804C17.0977 62.1095 22.7812 70.3683 22.7812 70.3683C23.0625 70.7639 23.5195 71 24 71C24.4805 71 24.9375 70.7639 25.2188 70.3683C25.2188 70.3683 30.9023 62.1095 36.5625 52.2804C39.3926 47.3629 42.1992 42.0852 44.3438 37.1677C46.4883 32.2502 48 27.7636 48 24.1803C48 10.8445 37.2363 0 24 0ZM24 3.02253C35.6133 3.02253 45 12.4798 45 24.1803C45 26.8545 43.6992 31.1876 41.625 35.9398C39.5508 40.692 36.7324 45.9165 33.9375 50.7691C28.9512 59.4235 25.0254 65.2206 24 66.7319C22.9746 65.2206 19.0488 59.4235 14.0625 50.7691C11.2676 45.9165 8.44922 40.692 6.375 35.9398C4.30078 31.1876 3 26.8545 3 24.1803C3 12.4798 12.3867 3.02253 24 3.02253ZM24 10.5789C16.5645 10.5789 10.5 16.6889 10.5 24.1803C10.5 31.6717 16.5645 37.7817 24 37.7817C31.4355 37.7817 37.5 31.6717 37.5 24.1803C37.5 16.6889 31.4355 10.5789 24 10.5789ZM24 13.6014C29.8184 13.6014 34.5 18.3182 34.5 24.1803C34.5 30.0423 29.8184 34.7591 24 34.7591C18.1816 34.7591 13.5 30.0423 13.5 24.1803C13.5 18.3182 18.1816 13.6014 24 13.6014ZM24 18.1352C20.6836 18.1352 18 20.8389 18 24.1803C18 27.5216 20.6836 30.2253 24 30.2253C27.3164 30.2253 30 27.5216 30 24.1803C30 23.3302 29.8418 22.5509 29.5312 21.8189C29.1211 22.3443 28.4707 22.669 27.75 22.669C26.5078 22.669 25.5 21.6536 25.5 20.4021C25.5 19.676 25.8223 19.0207 26.3438 18.6075C25.6172 18.2946 24.8438 18.1352 24 18.1352Z" fill="#F6F4F0"/>
<path d="M3.65625 37.1677L-466.574 242.235L-466.574 242.235L3.65625 37.1677ZM11.4375 52.2804L-433.188 308.166L-433.154 308.224L-433.121 308.282L11.4375 52.2804ZM22.7812 70.3683L-399.817 361.194L-397.582 364.441L-395.298 367.654L22.7812 70.3683ZM25.2188 70.3683L443.298 367.654L445.582 364.441L447.817 361.194L25.2188 70.3683ZM36.5625 52.2804L481.121 308.282L481.154 308.224L481.188 308.166L36.5625 52.2804ZM44.3438 37.1677L-425.886 -167.9L-425.886 -167.9L44.3438 37.1677ZM41.625 35.9398L-428.541 -169.275L-428.541 -169.275L41.625 35.9398ZM33.9375 50.7691L478.437 306.873L478.456 306.84L478.475 306.807L33.9375 50.7691ZM24 66.7319L-400.51 354.761L24 980.422L448.51 354.761L24 66.7319ZM14.0625 50.7691L-430.475 306.807L-430.456 306.84L-430.437 306.873L14.0625 50.7691ZM6.375 35.9398L-463.791 241.155L-463.791 241.155L6.375 35.9398ZM29.5312 21.8189L501.791 -178.529L161.435 -980.817L-374.842 -293.856L29.5312 21.8189ZM26.3438 18.6075L344.952 420.674L1018.19 -112.818L229.243 -452.562L26.3438 18.6075ZM24 -513C-276.171 -513 -513 -268.852 -513 24.1803H513C513 290.541 297.698 513 24 513V-513ZM-513 24.1803C-513 144.281 -469.575 235.353 -466.574 242.235L473.886 -167.9C477.233 -160.225 485.298 -141.227 492.96 -115.317C499.922 -91.7773 513 -41.5724 513 24.1803H-513ZM-466.574 242.235C-453.865 271.378 -440.855 294.843 -433.188 308.166L456.063 -203.606C457.552 -201.017 459.825 -196.97 462.57 -191.685C465.206 -186.607 469.274 -178.477 473.886 -167.9L-466.574 242.235ZM-433.121 308.282C-424.621 323.042 -416.856 335.361 -411.621 343.461C-408.857 347.738 -406.422 351.418 -404.461 354.348C-403.473 355.824 -402.583 357.14 -401.809 358.28C-401.421 358.851 -401.06 359.38 -400.728 359.866C-400.562 360.109 -400.403 360.341 -400.251 360.562C-400.175 360.673 -400.101 360.781 -400.029 360.886C-399.993 360.939 -399.957 360.991 -399.922 361.042C-399.904 361.068 -399.887 361.093 -399.869 361.118C-399.861 361.131 -399.848 361.15 -399.843 361.156C-399.83 361.175 -399.817 361.194 22.7812 70.3683C445.38 -220.457 445.393 -220.438 445.406 -220.42C445.41 -220.413 445.423 -220.395 445.431 -220.382C445.448 -220.358 445.465 -220.333 445.482 -220.308C445.516 -220.259 445.55 -220.21 445.583 -220.161C445.65 -220.064 445.716 -219.968 445.781 -219.873C445.911 -219.684 446.037 -219.499 446.16 -219.319C446.407 -218.96 446.64 -218.617 446.861 -218.292C447.302 -217.642 447.703 -217.047 448.07 -216.499C448.789 -215.426 449.449 -214.424 450.085 -213.44C451.063 -211.927 453.156 -208.652 455.996 -203.721L-433.121 308.282ZM-395.298 367.654C-299.447 502.45 -143.681 584 24 584V-442C190.72 -442 345.572 -360.923 440.86 -226.918L-395.298 367.654ZM24 584C191.681 584 347.448 502.45 443.298 367.654L-392.86 -226.918C-297.573 -360.922 -142.72 -442 24 -442V584ZM25.2188 70.3683C447.817 361.194 447.83 361.175 447.843 361.156C447.848 361.15 447.861 361.131 447.869 361.118C447.887 361.093 447.904 361.068 447.922 361.042C447.957 360.991 447.993 360.939 448.029 360.886C448.101 360.781 448.175 360.673 448.251 360.562C448.403 360.341 448.562 360.109 448.728 359.866C449.06 359.38 449.421 358.851 449.809 358.28C450.583 357.14 451.473 355.824 452.461 354.348C454.422 351.418 456.857 347.738 459.621 343.461C464.856 335.361 472.621 323.042 481.121 308.282L-407.996 -203.721C-405.156 -208.652 -403.063 -211.927 -402.085 -213.44C-401.449 -214.424 -400.789 -215.426 -400.07 -216.499C-399.703 -217.047 -399.302 -217.642 -398.861 -218.292C-398.64 -218.617 -398.406 -218.96 -398.16 -219.319C-398.037 -219.499 -397.911 -219.684 -397.781 -219.873C-397.716 -219.968 -397.65 -220.064 -397.583 -220.161C-397.55 -220.21 -397.516 -220.259 -397.482 -220.308C-397.465 -220.333 -397.448 -220.358 -397.431 -220.382C-397.423 -220.395 -397.41 -220.413 -397.406 -220.42C-397.393 -220.438 -397.38 -220.457 25.2188 70.3683ZM481.188 308.166C488.855 294.844 501.865 271.378 514.574 242.235L-425.886 -167.9C-421.274 -178.477 -417.206 -186.607 -414.57 -191.685C-411.825 -196.97 -409.552 -201.017 -408.063 -203.606L481.188 308.166ZM514.574 242.235C517.575 235.353 561 144.281 561 24.1803H-465C-465 -41.5723 -451.922 -91.7773 -444.96 -115.317C-437.298 -141.227 -429.233 -160.225 -425.886 -167.9L514.574 242.235ZM561 24.1803C561 -268.852 324.171 -513 24 -513V513C-249.698 513 -465 290.541 -465 24.1803H561ZM24 516.023C-251.321 516.023 -468 292.176 -468 24.1803H558C558 -267.216 322.548 -509.977 24 -509.977V516.023ZM-468 24.1803C-468 -14.3727 -463.557 -45.3387 -460.103 -64.5046C-456.43 -84.887 -452.074 -101.679 -448.537 -113.854C-441.59 -137.762 -434.079 -156.587 -428.541 -169.275L511.791 241.155C516.649 230.023 558 141.307 558 24.1803H-468ZM-428.541 -169.275C-423.385 -181.087 -418.895 -189.919 -416.366 -194.745C-413.676 -199.881 -411.587 -203.555 -410.6 -205.269L478.475 306.807C484.7 295.999 498.462 271.691 511.791 241.155L-428.541 -169.275ZM-410.562 -205.335C-408.752 -208.476 -406.955 -211.414 -405.17 -214.216C-404.259 -215.645 -403.347 -217.046 -402.442 -218.413C-401.99 -219.096 -401.567 -219.729 -401.186 -220.296C-400.804 -220.864 -400.507 -221.3 -400.51 -221.297L448.51 354.761C453.259 347.761 464.791 330.558 478.437 306.873L-410.562 -205.335ZM448.51 -221.297C448.507 -221.3 448.804 -220.864 449.186 -220.296C449.567 -219.729 449.99 -219.096 450.442 -218.413C451.347 -217.046 452.259 -215.645 453.17 -214.216C454.955 -211.414 456.752 -208.476 458.562 -205.335L-430.437 306.873C-416.791 330.558 -405.259 347.761 -400.51 354.761L448.51 -221.297ZM458.6 -205.269C459.587 -203.555 461.676 -199.881 464.366 -194.745C466.895 -189.919 471.385 -181.087 476.541 -169.275L-463.791 241.155C-450.462 271.691 -436.7 295.999 -430.475 306.807L458.6 -205.269ZM476.541 -169.275C482.079 -156.587 489.59 -137.762 496.537 -113.854C500.074 -101.679 504.43 -84.8871 508.103 -64.5047C511.557 -45.3387 516 -14.3727 516 24.1803H-510C-510 141.307 -468.649 230.023 -463.791 241.155L476.541 -169.275ZM516 24.1803C516 292.176 299.321 516.023 24 516.023V-509.977C-274.548 -509.977 -510 -267.216 -510 24.1803H516ZM24 -502.421C-270.37 -502.421 -502.5 -263.007 -502.5 24.1803H523.5C523.5 296.385 303.499 523.579 24 523.579V-502.421ZM-502.5 24.1803C-502.5 311.368 -270.37 550.782 24 550.782V-475.218C303.499 -475.218 523.5 -248.025 523.5 24.1803H-502.5ZM24 550.782C318.37 550.782 550.5 311.368 550.5 24.1803H-475.5C-475.5 -248.025 -255.499 -475.218 24 -475.218V550.782ZM550.5 24.1803C550.5 -263.007 318.37 -502.421 24 -502.421V523.579C-255.499 523.579 -475.5 296.385 -475.5 24.1803H550.5ZM24 526.601C-257.116 526.601 -478.5 298.014 -478.5 24.1803H547.5C547.5 -261.378 316.753 -499.399 24 -499.399V526.601ZM-478.5 24.1803C-478.5 -249.654 -257.116 -478.241 24 -478.241V547.759C316.753 547.759 547.5 309.739 547.5 24.1803H-478.5ZM24 -478.241C305.116 -478.241 526.5 -249.654 526.5 24.1803H-499.5C-499.5 309.739 -268.753 547.759 24 547.759V-478.241ZM526.5 24.1803C526.5 298.014 305.116 526.601 24 526.601V-499.399C-268.753 -499.399 -499.5 -261.378 -499.5 24.1803H526.5ZM24 -494.865C-266.251 -494.865 -495 -258.857 -495 24.1803H531C531 300.535 307.618 531.135 24 531.135V-494.865ZM-495 24.1803C-495 307.218 -266.251 543.225 24 543.225V-482.775C307.618 -482.775 531 -252.175 531 24.1803H-495ZM24 543.225C314.251 543.225 543 307.218 543 24.1803H-483C-483 -252.175 -259.618 -482.775 24 -482.775V543.225ZM543 24.1803C543 -42.9945 529.952 -112.149 501.791 -178.529L-442.729 222.167C-470.268 157.251 -483 89.6549 -483 24.1803H543ZM-374.842 -293.856C-276.203 -420.211 -126.511 -490.331 27.75 -490.331V535.669C183.452 535.669 334.446 464.9 433.905 337.494L-374.842 -293.856ZM27.75 -490.331C313.442 -490.331 538.5 -258.043 538.5 20.4021H-487.5C-487.5 301.35 -260.427 535.669 27.75 535.669V-490.331ZM538.5 20.4021C538.5 171.666 470.851 320.909 344.952 420.674L-292.265 -383.459C-419.206 -282.867 -487.5 -132.314 -487.5 20.4021H538.5ZM229.243 -452.562C162.28 -481.399 92.2357 -494.865 24 -494.865V531.135C-42.5482 531.135 -111.045 517.988 -176.556 489.777L229.243 -452.562Z" fill="#F6F4F0" mask="url(#path-1-inside-1_492_50)"/>
</svg>
