<svg width="65" height="65" viewBox="0 0 65 65" fill="none" xmlns="http://www.w3.org/2000/svg">
<mask id="path-1-inside-1_492_47" fill="white">
<path d="M31.2022 0C13.9964 0 0 13.9964 0 31.2022C0 48.408 13.9964 62.4044 31.2022 62.4044C32.0391 62.4044 32.8663 62.3611 33.6869 62.2962C32.1782 60.9024 30.8805 59.2884 29.8503 57.4985V59.5527C25.8351 58.674 22.2755 53.9308 20.049 47.1875C22.3242 46.7198 24.7251 46.3993 27.2072 46.2317C27.2613 45.3083 27.3602 44.3962 27.5346 43.5094C24.6726 43.6797 21.8992 44.0417 19.2806 44.5946C18.3315 40.9566 17.766 36.8613 17.6646 32.5568H29.8503V37.3518C30.6128 36.027 31.5226 34.8022 32.5541 33.6869V32.5541H33.6842C34.7996 31.5226 36.027 30.6128 37.3518 29.8503H32.5541V18.9981C36.2394 18.9169 39.8036 18.5128 43.1239 17.8125C43.8877 20.7407 44.3899 23.9711 44.6157 27.363C45.5066 27.2386 46.4094 27.1558 47.3327 27.1518C47.1016 23.5922 46.5828 20.2262 45.796 17.1682C48.7945 16.3571 51.5195 15.2947 53.8731 14.005C57.2556 18.4527 59.3508 23.9114 59.632 29.8503H57.4985C59.2898 30.8805 60.905 32.1782 62.2988 33.6869C62.3637 32.8663 62.4044 32.0391 62.4044 31.2022C62.4031 13.9964 48.408 0 31.2022 0ZM29.8503 2.85169V16.2942C26.4611 16.2145 23.1582 15.838 20.0569 15.1932C22.2848 8.46199 25.8392 3.72908 29.8503 2.85169ZM32.5541 2.85169C36.5693 3.73043 40.1289 8.47359 42.3555 15.2169C39.2812 15.8496 35.9785 16.2158 32.5541 16.2942V2.85169ZM39.1526 3.85242C44.1871 5.31924 48.635 8.14233 52.104 11.8952C50.0302 12.9795 47.6499 13.8763 45.0461 14.5779C43.5982 10.0936 41.5739 6.39942 39.1526 3.85242ZM23.2518 3.85506C20.8346 6.39665 18.8128 10.0807 17.3663 14.5542C14.7868 13.8579 12.4042 12.9685 10.2925 11.9032C13.7628 8.1462 18.2132 5.32188 23.2518 3.85506ZM8.51546 14.0261C10.911 15.2942 13.6449 16.3401 16.6164 17.1445C15.6308 20.9731 15.0397 25.2687 14.9423 29.8503H2.77247C3.05232 23.9208 5.14244 18.4712 8.51546 14.0261ZM19.2859 17.7914C22.6345 18.5038 26.2001 18.9156 29.8503 18.9981V29.8503H17.662C17.7647 25.5377 18.3328 21.4348 19.2859 17.7914ZM47.4252 29.8503C37.7347 29.8503 29.8503 37.7347 29.8503 47.4252C29.8503 57.1157 37.7347 65 47.4252 65C57.1157 65 65 57.1157 65 47.4252C65 37.7347 57.1157 29.8503 47.4252 29.8503ZM2.77247 32.5541H14.9423C15.0397 37.1263 15.627 41.413 16.6084 45.2362C13.6099 46.0474 10.885 47.1098 8.5313 48.3995C5.14882 43.9503 3.05232 38.4931 2.77247 32.5541ZM47.4252 32.5541C55.6245 32.5541 62.2962 39.2258 62.2962 47.4252C62.2962 55.6245 55.6245 62.2962 47.4252 62.2962C39.2258 62.2962 32.5541 55.6245 32.5541 47.4252C32.5541 39.2258 39.2258 32.5541 47.4252 32.5541ZM47.4252 35.258C46.6775 35.258 46.0732 35.8623 46.0732 36.6099V46.7017L38.5638 51.708C37.9419 52.123 37.7738 52.9608 38.1889 53.5827C38.4484 53.9734 38.8797 54.1847 39.3163 54.1847C39.5732 54.1847 39.8324 54.1104 40.0636 53.9576L48.175 48.55C48.5509 48.2985 48.7771 47.8767 48.7771 47.4252V36.6099C48.7771 35.8623 48.1728 35.258 47.4252 35.258ZM17.3583 47.8265C18.8062 52.3108 20.8305 56.005 23.2518 58.552C18.2173 57.0852 13.7694 54.2621 10.3004 50.5092C12.3742 49.425 14.7545 48.5281 17.3583 47.8265Z"/>
</mask>
<path d="M31.2022 0C13.9964 0 0 13.9964 0 31.2022C0 48.408 13.9964 62.4044 31.2022 62.4044C32.0391 62.4044 32.8663 62.3611 33.6869 62.2962C32.1782 60.9024 30.8805 59.2884 29.8503 57.4985V59.5527C25.8351 58.674 22.2755 53.9308 20.049 47.1875C22.3242 46.7198 24.7251 46.3993 27.2072 46.2317C27.2613 45.3083 27.3602 44.3962 27.5346 43.5094C24.6726 43.6797 21.8992 44.0417 19.2806 44.5946C18.3315 40.9566 17.766 36.8613 17.6646 32.5568H29.8503V37.3518C30.6128 36.027 31.5226 34.8022 32.5541 33.6869V32.5541H33.6842C34.7996 31.5226 36.027 30.6128 37.3518 29.8503H32.5541V18.9981C36.2394 18.9169 39.8036 18.5128 43.1239 17.8125C43.8877 20.7407 44.3899 23.9711 44.6157 27.363C45.5066 27.2386 46.4094 27.1558 47.3327 27.1518C47.1016 23.5922 46.5828 20.2262 45.796 17.1682C48.7945 16.3571 51.5195 15.2947 53.8731 14.005C57.2556 18.4527 59.3508 23.9114 59.632 29.8503H57.4985C59.2898 30.8805 60.905 32.1782 62.2988 33.6869C62.3637 32.8663 62.4044 32.0391 62.4044 31.2022C62.4031 13.9964 48.408 0 31.2022 0ZM29.8503 2.85169V16.2942C26.4611 16.2145 23.1582 15.838 20.0569 15.1932C22.2848 8.46199 25.8392 3.72908 29.8503 2.85169ZM32.5541 2.85169C36.5693 3.73043 40.1289 8.47359 42.3555 15.2169C39.2812 15.8496 35.9785 16.2158 32.5541 16.2942V2.85169ZM39.1526 3.85242C44.1871 5.31924 48.635 8.14233 52.104 11.8952C50.0302 12.9795 47.6499 13.8763 45.0461 14.5779C43.5982 10.0936 41.5739 6.39942 39.1526 3.85242ZM23.2518 3.85506C20.8346 6.39665 18.8128 10.0807 17.3663 14.5542C14.7868 13.8579 12.4042 12.9685 10.2925 11.9032C13.7628 8.1462 18.2132 5.32188 23.2518 3.85506ZM8.51546 14.0261C10.911 15.2942 13.6449 16.3401 16.6164 17.1445C15.6308 20.9731 15.0397 25.2687 14.9423 29.8503H2.77247C3.05232 23.9208 5.14244 18.4712 8.51546 14.0261ZM19.2859 17.7914C22.6345 18.5038 26.2001 18.9156 29.8503 18.9981V29.8503H17.662C17.7647 25.5377 18.3328 21.4348 19.2859 17.7914ZM47.4252 29.8503C37.7347 29.8503 29.8503 37.7347 29.8503 47.4252C29.8503 57.1157 37.7347 65 47.4252 65C57.1157 65 65 57.1157 65 47.4252C65 37.7347 57.1157 29.8503 47.4252 29.8503ZM2.77247 32.5541H14.9423C15.0397 37.1263 15.627 41.413 16.6084 45.2362C13.6099 46.0474 10.885 47.1098 8.5313 48.3995C5.14882 43.9503 3.05232 38.4931 2.77247 32.5541ZM47.4252 32.5541C55.6245 32.5541 62.2962 39.2258 62.2962 47.4252C62.2962 55.6245 55.6245 62.2962 47.4252 62.2962C39.2258 62.2962 32.5541 55.6245 32.5541 47.4252C32.5541 39.2258 39.2258 32.5541 47.4252 32.5541ZM47.4252 35.258C46.6775 35.258 46.0732 35.8623 46.0732 36.6099V46.7017L38.5638 51.708C37.9419 52.123 37.7738 52.9608 38.1889 53.5827C38.4484 53.9734 38.8797 54.1847 39.3163 54.1847C39.5732 54.1847 39.8324 54.1104 40.0636 53.9576L48.175 48.55C48.5509 48.2985 48.7771 47.8767 48.7771 47.4252V36.6099C48.7771 35.8623 48.1728 35.258 47.4252 35.258ZM17.3583 47.8265C18.8062 52.3108 20.8305 56.005 23.2518 58.552C18.2173 57.0852 13.7694 54.2621 10.3004 50.5092C12.3742 49.425 14.7545 48.5281 17.3583 47.8265Z" fill="#F6F4F0"/>
<path d="M33.6869 62.2962L72.3931 551.768L1191.31 463.287L366.87 -298.356L33.6869 62.2962ZM29.8503 57.4985L455.404 -187.42L-461.15 -1779.96V57.4985H29.8503ZM29.8503 59.5527L-75.123 539.2L520.85 669.632V59.5527H29.8503ZM20.049 47.1875L-78.8256 -433.754L-619.15 -322.671L-446.192 201.137L20.049 47.1875ZM27.2072 46.2317L60.2928 536.116L492.066 506.955L517.367 74.938L27.2072 46.2317ZM27.5346 43.5094L509.308 138.248L631.734 -484.32L-1.63717 -446.623L27.5346 43.5094ZM19.2806 44.5946L-455.819 168.534L-337.583 621.773L120.719 525.002L19.2806 44.5946ZM17.6646 32.5568V-458.443H-485.037L-473.199 44.1192L17.6646 32.5568ZM29.8503 32.5568H520.85V-458.443H29.8503V32.5568ZM29.8503 37.3518H-461.15V1874.86L455.407 282.264L29.8503 37.3518ZM32.5541 33.6869L393.024 367.067L523.554 225.93V33.6869H32.5541ZM32.5541 32.5541V-458.446H-458.446V32.5541H32.5541ZM33.6842 32.5541V523.554H225.928L367.065 393.024L33.6842 32.5541ZM37.3518 29.8503L282.264 455.407L1874.86 -461.15H37.3518V29.8503ZM32.5541 29.8503H-458.446V520.85H32.5541V29.8503ZM32.5541 18.9981L21.7497 -471.883L-458.446 -461.314V18.9981H32.5541ZM43.1239 17.8125L518.226 -106.118L400.023 -559.264L-58.2047 -462.618L43.1239 17.8125ZM44.6157 27.363L-445.3 59.972L-410.246 586.626L112.504 513.647L44.6157 27.363ZM47.3327 27.1518L49.4894 518.147L571.106 515.856L537.301 -4.66916L47.3327 27.1518ZM45.796 17.1682L-82.418 -456.796L-550.561 -330.157L-429.717 139.515L45.796 17.1682ZM53.8731 14.005L444.697 -283.211L188.741 -619.78L-182.075 -416.587L53.8731 14.005ZM59.632 29.8503V520.85H574.43L550.083 6.62843L59.632 29.8503ZM57.4985 29.8503V-461.15H-1781.17L-187.281 455.484L57.4985 29.8503ZM62.2988 33.6869L-298.353 366.87L463.29 1191.31L551.771 72.3931L62.2988 33.6869ZM62.4044 31.2022H553.404V31.1829V31.1636L62.4044 31.2022ZM29.8503 2.85169H520.85V-607.159L-75.07 -476.807L29.8503 2.85169ZM29.8503 16.2942L18.2983 507.158L520.85 518.985V16.2942H29.8503ZM20.0569 15.1932L-446.073 -139.091L-619.14 383.785L-79.9006 495.911L20.0569 15.1932ZM32.5541 2.85169L137.527 -476.796L-458.446 -607.228V2.85169H32.5541ZM42.3555 15.2169L141.331 496.138L681.517 384.965L508.596 -138.732L42.3555 15.2169ZM32.5541 16.2942H-458.446V518.666L43.794 507.166L32.5541 16.2942ZM39.1526 3.85242L176.497 -467.547L-1570.23 -976.461L-316.709 342.148L39.1526 3.85242ZM52.104 11.8952L279.592 447.016L848.167 149.756L412.663 -321.388L52.104 11.8952ZM45.0461 14.5779L-422.202 165.444L-278.567 610.296L172.799 488.667L45.0461 14.5779ZM23.2518 3.85506L379.037 342.23L1632.87 -976.119L-113.99 -467.574L23.2518 3.85506ZM17.3663 14.5542L-110.584 488.59L340.724 610.405L484.549 165.623L17.3663 14.5542ZM10.2925 11.9032L-350.382 -321.256L-792.17 157.018L-210.86 450.278L10.2925 11.9032ZM8.51546 14.0261L238.226 -419.926L-130.459 -615.087L-382.622 -282.777L8.51546 14.0261ZM16.6164 17.1445L492.115 139.545L613.005 -330.085L144.913 -456.798L16.6164 17.1445ZM14.9423 29.8503V520.85H495.622L505.832 40.2794L14.9423 29.8503ZM2.77247 29.8503L-487.682 6.70302L-511.947 520.85H2.77247V29.8503ZM19.2859 17.7914L121.463 -462.459L-337.084 -560.019L-455.73 -106.471L19.2859 17.7914ZM29.8503 18.9981H520.85V-461.034L40.9404 -471.877L29.8503 18.9981ZM29.8503 29.8503V520.85H520.85V29.8503H29.8503ZM17.662 29.8503L-473.199 18.1558L-485.175 520.85H17.662V29.8503ZM2.77247 32.5541V-458.446H-511.908L-487.683 55.6646L2.77247 32.5541ZM14.9423 32.5541L505.831 22.1035L495.601 -458.446H14.9423V32.5541ZM16.6084 45.2362L144.822 519.201L612.712 392.63L492.187 -76.8536L16.6084 45.2362ZM8.5313 48.3995L-382.336 345.559L-126.392 682.214L244.479 478.992L8.5313 48.3995ZM46.0732 46.7017L318.431 455.238L537.073 309.477V46.7017H46.0732ZM38.5638 51.708L-233.794 -356.829L-233.896 -356.76L-233.999 -356.692L38.5638 51.708ZM38.1889 53.5827L447.16 -218.122L446.875 -218.551L446.589 -218.98L38.1889 53.5827ZM40.0636 53.9576L310.761 463.597L311.592 463.047L312.421 462.494L40.0636 53.9576ZM48.175 48.55L320.533 457.087L320.872 456.861L321.211 456.634L48.175 48.55ZM17.3583 47.8265L484.606 -103.039L340.971 -547.892L-110.395 -426.262L17.3583 47.8265ZM23.2518 58.552L-114.092 529.952L1632.63 1038.87L379.113 -279.743L23.2518 58.552ZM10.3004 50.5092L-217.188 -384.612L-785.762 -87.3518L-350.259 383.793L10.3004 50.5092ZM31.2022 -491C-257.175 -491 -491 -257.175 -491 31.2022H491C491 285.168 285.168 491 31.2022 491V-491ZM-491 31.2022C-491 319.58 -257.175 553.404 31.2022 553.404V-428.596C285.168 -428.596 491 -222.764 491 31.2022H-491ZM31.2022 553.404C48.7509 553.404 63.1337 552.5 72.3931 551.768L-5.0193 -427.176C2.59881 -427.778 15.3272 -428.596 31.2022 -428.596V553.404ZM366.87 -298.356C401.037 -266.791 431.142 -229.576 455.404 -187.42L-395.703 302.417C-369.381 348.152 -336.681 388.596 -299.496 422.948L366.87 -298.356ZM-461.15 57.4985V59.5527H520.85V57.4985H-461.15ZM134.824 -420.095C284.046 -387.437 372.124 -296.746 411.254 -246.642C453.396 -192.679 474.997 -140.962 486.29 -106.762L-446.192 201.137C-432.673 242.081 -408.179 299.54 -362.696 357.78C-320.226 412.162 -228.361 505.663 -75.123 539.2L134.824 -420.095ZM118.923 528.129C98.0008 532.431 78.3398 534.897 60.2928 536.116L-5.87837 -443.652C-28.8896 -442.098 -53.3523 -438.991 -78.8256 -433.754L118.923 528.129ZM517.367 74.938C516.515 89.4906 514.544 111.62 509.308 138.248L-454.239 -51.2296C-459.824 -22.8275 -461.992 1.12606 -462.953 17.5254L517.367 74.938ZM-1.63717 -446.623C-26.5971 -445.138 -53.6626 -441.83 -82.158 -435.813L120.719 525.002C97.4611 529.913 75.9424 532.497 56.7064 533.642L-1.63717 -446.623ZM494.381 -79.3446C503.82 -43.1601 507.815 -9.30234 508.528 20.9943L-473.199 44.1192C-472.283 83.0249 -467.157 125.073 -455.819 168.534L494.381 -79.3446ZM17.6646 523.557H29.8503V-458.443H17.6646V523.557ZM-461.15 32.5568V37.3518H520.85V32.5568H-461.15ZM455.407 282.264C437.151 313.986 415.957 342.27 393.024 367.067L-327.916 -299.693C-352.912 -272.666 -375.926 -241.932 -395.707 -207.561L455.407 282.264ZM523.554 33.6869V32.5541H-458.446V33.6869H523.554ZM32.5541 523.554H33.6842V-458.446H32.5541V523.554ZM367.065 393.024C342.014 416.192 313.697 437.318 282.264 455.407L-207.561 -395.707C-241.643 -376.092 -272.415 -353.147 -299.696 -327.916L367.065 393.024ZM37.3518 -461.15H32.5541V520.85H37.3518V-461.15ZM523.554 29.8503V18.9981H-458.446V29.8503H523.554ZM43.3586 509.879C75.5205 509.171 109.491 505.617 144.452 498.243L-58.2047 -462.618C-29.8836 -468.591 -3.04162 -471.337 21.7497 -471.883L43.3586 509.879ZM-431.979 141.743C-439.986 111.046 -443.745 83.3311 -445.3 59.972L534.532 -5.24599C532.525 -35.389 527.761 -69.5642 518.226 -106.118L-431.979 141.743ZM112.504 513.647C98.2259 515.64 76.3519 518.029 49.4894 518.147L45.1761 -463.844C16.4669 -463.717 -7.21266 -461.163 -23.2722 -458.921L112.504 513.647ZM537.301 -4.66916C535.329 -35.0274 530.611 -69.0222 521.309 -105.179L-429.717 139.515C-437.446 109.475 -441.126 82.2118 -442.635 58.9727L537.301 -4.66916ZM174.01 491.133C207.984 481.942 247.941 467.546 289.821 444.597L-182.075 -416.587C-144.902 -436.956 -110.395 -449.228 -82.418 -456.796L174.01 491.133ZM-336.951 311.221C-391.889 238.98 -426.254 149.475 -430.819 53.0722L550.083 6.62843C544.956 -101.653 506.4 -202.075 444.697 -283.211L-336.951 311.221ZM59.632 -461.15H57.4985V520.85H59.632V-461.15ZM-187.281 455.484C-229.413 431.254 -266.69 401.143 -298.353 366.87L422.951 -299.496C388.5 -336.787 347.993 -369.493 302.278 -395.783L-187.281 455.484ZM551.771 72.3931C552.597 61.9497 553.404 47.8535 553.404 31.2022H-428.596C-428.596 16.2246 -427.869 3.78288 -427.173 -5.0193L551.771 72.3931ZM553.404 31.1636C553.382 -257.149 319.615 -491 31.2022 -491V491C-222.799 491 -428.576 285.142 -428.596 31.2408L553.404 31.1636ZM-461.15 2.85169V16.2942H520.85V2.85169H-461.15ZM41.4024 -474.57C66.4478 -473.98 92.7876 -471.186 120.014 -465.525L-79.9006 495.911C-46.4713 502.862 -13.5257 506.409 18.2983 507.158L41.4024 -474.57ZM486.187 169.478C474.889 203.611 453.273 255.295 411.112 309.227C371.935 359.342 283.866 449.898 134.771 482.511L-75.07 -476.807C-228.176 -443.317 -320.028 -349.956 -362.542 -295.573C-408.04 -237.372 -432.547 -179.956 -446.073 -139.091L486.187 169.478ZM-72.4192 482.499C-221.642 449.841 -309.72 359.151 -348.849 309.046C-390.992 255.083 -412.593 203.367 -423.885 169.166L508.596 -138.732C495.077 -179.676 470.583 -237.136 425.1 -295.376C382.631 -349.757 290.765 -443.259 137.527 -476.796L-72.4192 482.499ZM-56.6203 -465.704C-28.7726 -471.435 -2.59385 -474.03 21.3143 -474.577L43.794 507.166C74.5509 506.461 107.335 503.134 141.331 496.138L-56.6203 -465.704ZM523.554 16.2942V2.85169H-458.446V16.2942H523.554ZM-98.1913 475.252C-181.4 451.009 -253.357 404.786 -308.455 345.179L412.663 -321.388C350.628 -388.501 269.774 -440.37 176.497 -467.547L-98.1913 475.252ZM-175.384 -423.226C-140.174 -441.634 -108.036 -452.685 -82.7068 -459.511L172.799 488.667C203.336 480.438 240.235 467.593 279.592 447.016L-175.384 -423.226ZM512.294 -136.288C495.783 -187.423 462.716 -263.225 395.014 -334.443L-316.709 342.148C-379.568 276.024 -408.587 207.61 -422.202 165.444L512.294 -136.288ZM-332.534 -334.52C-400.149 -263.426 -433.253 -187.735 -449.816 -136.514L484.549 165.623C470.879 207.897 441.818 276.219 379.037 342.23L-332.534 -334.52ZM145.316 -459.482C170.209 -452.762 199.708 -442.483 231.445 -426.472L-210.86 450.278C-174.899 468.42 -140.636 480.478 -110.584 488.59L145.316 -459.482ZM370.966 345.063C315.798 404.787 243.753 451.046 160.494 475.284L-113.99 -467.574C-207.326 -440.402 -288.273 -388.494 -350.382 -321.256L370.966 345.063ZM-221.195 447.978C-181.733 468.867 -144.11 482.308 -111.68 491.087L144.913 -456.798C171.4 -449.627 203.555 -438.278 238.226 -419.926L-221.195 447.978ZM-458.882 -105.256C-469.959 -62.227 -475.106 -20.1774 -475.947 19.4213L505.832 40.2794C505.185 70.7148 501.22 104.173 492.115 139.545L-458.882 -105.256ZM14.9423 -461.15H2.77247V520.85H14.9423V-461.15ZM493.227 52.9976C488.677 149.394 454.345 238.755 399.653 310.829L-382.622 -282.777C-444.06 -201.813 -482.572 -101.552 -487.682 6.70302L493.227 52.9976ZM-82.8911 498.042C-48.2629 505.41 -14.143 509.129 18.7602 509.873L40.9404 -471.877C66.5433 -471.298 93.532 -468.402 121.463 -462.459L-82.8911 498.042ZM-461.15 18.9981V29.8503H520.85V18.9981H-461.15ZM29.8503 -461.15H17.662V520.85H29.8503V-461.15ZM508.523 41.5448C507.801 71.8482 503.793 105.769 494.302 142.053L-455.73 -106.471C-467.128 -62.8999 -472.271 -20.7727 -473.199 18.1558L508.523 41.5448ZM47.4252 -461.15C-233.437 -461.15 -461.15 -233.437 -461.15 47.4252H520.85C520.85 308.906 308.906 520.85 47.4252 520.85V-461.15ZM-461.15 47.4252C-461.15 328.287 -233.437 556 47.4252 556V-426C308.906 -426 520.85 -214.056 520.85 47.4252H-461.15ZM47.4252 556C328.287 556 556 328.287 556 47.4252H-426C-426 -214.056 -214.056 -426 47.4252 -426V556ZM556 47.4252C556 -233.437 328.287 -461.15 47.4252 -461.15V520.85C-214.056 520.85 -426 308.906 -426 47.4252H556ZM2.77247 523.554H14.9423V-458.446H2.77247V523.554ZM-475.946 43.0047C-475.108 82.3934 -470.008 124.329 -458.97 167.326L492.187 -76.8536C501.262 -41.5034 505.187 -8.14079 505.831 22.1035L-475.946 43.0047ZM-111.606 -428.728C-145.58 -419.538 -185.537 -405.141 -227.416 -382.193L244.479 478.992C207.307 499.361 172.8 511.632 144.822 519.201L-111.606 -428.728ZM399.399 -248.76C454.223 -176.647 488.677 -87.1518 493.228 9.44365L-487.683 55.6646C-482.572 164.138 -443.925 264.547 -382.336 345.559L399.399 -248.76ZM47.4252 523.554C-215.547 523.554 -428.704 310.398 -428.704 47.4252H553.296C553.296 -231.946 326.796 -458.446 47.4252 -458.446V523.554ZM-428.704 47.4252C-428.704 -215.547 -215.547 -428.704 47.4252 -428.704V553.296C326.796 553.296 553.296 326.796 553.296 47.4252H-428.704ZM47.4252 -428.704C310.398 -428.704 523.554 -215.547 523.554 47.4252H-458.446C-458.446 326.796 -231.946 553.296 47.4252 553.296V-428.704ZM523.554 47.4252C523.554 310.398 310.398 523.554 47.4252 523.554V-458.446C-231.946 -458.446 -458.446 -231.946 -458.446 47.4252H523.554ZM47.4252 -455.742C-224.494 -455.742 -444.927 -235.31 -444.927 36.6099H537.073C537.073 307.034 317.849 526.258 47.4252 526.258V-455.742ZM-444.927 36.6099V46.7017H537.073V36.6099H-444.927ZM-226.285 -361.835L-233.794 -356.829L310.922 460.245L318.431 455.238L-226.285 -361.835ZM-233.999 -356.692C-459.64 -206.101 -521.514 99.4366 -370.211 326.145L446.589 -218.98C597.062 6.485 535.524 310.347 311.126 460.108L-233.999 -356.692ZM-370.783 325.287C-274.945 469.542 -117.116 545.185 39.3163 545.185V-436.815C194.875 -436.815 351.842 -361.596 447.16 -218.122L-370.783 325.287ZM39.3163 545.185C135.137 545.185 229.647 517.198 310.761 463.597L-230.634 -355.681C-149.982 -408.977 -55.9909 -436.815 39.3163 -436.815V545.185ZM312.421 462.494L320.533 457.087L-224.183 -359.987L-232.294 -354.579L312.421 462.494ZM321.211 456.634C457.135 365.692 539.777 212.543 539.777 47.4252H-442.223C-442.223 -116.79 -360.033 -269.095 -224.861 -359.534L321.211 456.634ZM539.777 47.4252V36.6099H-442.223V47.4252H539.777ZM539.777 36.6099C539.777 -235.31 319.345 -455.742 47.4252 -455.742V526.258C-222.999 526.258 -442.223 307.034 -442.223 36.6099H539.777ZM-449.889 198.692C-433.379 249.827 -400.311 325.63 -332.61 396.847L379.113 -279.743C441.973 -213.62 470.991 -145.205 484.606 -103.039L-449.889 198.692ZM160.596 -412.848C243.805 -388.604 315.762 -342.381 370.86 -282.774L-350.259 383.793C-288.223 450.906 -207.37 502.775 -114.092 529.952L160.596 -412.848ZM237.789 485.63C202.579 504.038 170.44 515.09 145.111 521.915L-110.395 -426.262C-140.931 -418.034 -177.83 -405.188 -217.188 -384.612L237.789 485.63Z" fill="#F6F4F0" mask="url(#path-1-inside-1_492_47)"/>
</svg>
