<svg xmlns="http://www.w3.org/2000/svg"  viewBox="0 0 50 50" width="1600px" height="1600px"><path d="M 0 17 L 0 33 L 16 33 L 16 17 Z M 17 17 L 17 33 L 33 33 L 33 17 Z M 34 17 L 34 33.03125 L 49.9375 33.03125 L 49.9375 17 Z M 42.40625 20.25 C 42.746094 20.238281 43.125 20.238281 43.5625 20.28125 C 43.5625 20.28125 44.640625 20.394531 46.15625 21.03125 L 46.15625 22.75 C 46.15625 22.75 44.472656 21.707031 42.625 21.6875 C 42.625 21.6875 39.1875 21.632813 39.03125 25.03125 C 39.03125 25.03125 38.90625 28.132813 42.59375 28.3125 C 42.59375 28.3125 44.121094 28.507813 46.21875 27.15625 L 46.21875 28.9375 C 46.21875 28.9375 43.417969 30.640625 40.15625 29.34375 C 40.15625 29.34375 37.417969 28.339844 37.3125 25.03125 C 37.3125 25.03125 37.1875 21.601563 40.84375 20.46875 C 40.84375 20.46875 41.390625 20.285156 42.40625 20.25 Z M 4.625 20.34375 L 7.875 20.34375 C 10.820313 20.613281 10.65625 22.84375 10.65625 22.84375 C 10.667969 24.199219 9.46875 24.71875 9.46875 24.71875 C 11.578125 25.25 11.5 27.03125 11.5 27.03125 C 11.5 29.671875 8.375 29.65625 8.375 29.65625 L 4.625 29.65625 Z M 21.625 20.34375 L 24.875 20.34375 C 27.820313 20.613281 27.65625 22.84375 27.65625 22.84375 C 27.667969 24.199219 26.46875 24.71875 26.46875 24.71875 C 28.578125 25.25 28.5 27.03125 28.5 27.03125 C 28.5 29.671875 25.375 29.65625 25.375 29.65625 L 21.625 29.65625 Z M 6.28125 21.78125 L 6.28125 24.1875 L 7.40625 24.1875 C 7.40625 24.1875 8.9375 24.191406 8.9375 22.90625 C 8.9375 22.90625 9.011719 21.855469 7.625 21.78125 Z M 23.28125 21.78125 L 23.28125 24.1875 L 24.40625 24.1875 C 24.40625 24.1875 25.9375 24.191406 25.9375 22.90625 C 25.9375 22.90625 26.011719 21.855469 24.625 21.78125 Z M 6.28125 25.6875 L 6.28125 28.21875 L 8.03125 28.21875 C 8.03125 28.21875 9.78125 28.316406 9.78125 26.90625 C 9.78125 26.90625 9.835938 25.679688 8.03125 25.6875 Z M 23.28125 25.6875 L 23.28125 28.21875 L 25.03125 28.21875 C 25.03125 28.21875 26.78125 28.316406 26.78125 26.90625 C 26.78125 26.90625 26.835938 25.679688 25.03125 25.6875 Z"/></svg>