<svg width="900" height="420" viewBox="0 0 900 420" fill="none" xmlns="http://www.w3.org/2000/svg">
<g clip-path="url(#clip0_605_3)">
<path d="M280 120H210C186.131 120 163.239 129.482 146.36 146.36C129.482 163.239 120 186.131 120 210C120 233.869 129.482 256.761 146.36 273.64C163.239 290.518 186.131 300 210 300H288.3C291.403 300 294.379 298.767 296.573 296.573C298.767 294.379 300 291.403 300 288.3V81.7C300.021 63.6983 305.987 46.2075 316.972 31.9453C327.956 17.6831 343.343 7.44799 360.742 2.8302C378.142 -1.78759 396.579 -0.529504 413.19 6.409C429.801 13.3475 443.655 25.5779 452.6 41.2L540 194.1V81.7C540.021 63.6983 545.987 46.2075 556.972 31.9453C567.956 17.6831 583.343 7.44799 600.742 2.8302C618.142 -1.78759 636.579 -0.529504 653.19 6.409C669.801 13.3475 683.655 25.5779 692.6 41.2L780 194.1V0H830L840 10L850 0H900V338.3C899.979 356.302 894.013 373.792 883.028 388.055C872.044 402.317 856.657 412.552 839.258 417.17C821.858 421.788 803.421 420.53 786.81 413.591C770.199 406.653 756.345 394.422 747.4 378.8L660 225.9V338.3C659.979 356.302 654.013 373.792 643.028 388.055C632.044 402.317 616.657 412.552 599.258 417.17C581.858 421.788 563.421 420.53 546.81 413.591C530.199 406.653 516.345 394.422 507.4 378.8L420 225.9V338.3C420 359.968 411.392 380.749 396.071 396.071C380.749 411.392 359.968 420 338.3 420H210C154.305 420 100.89 397.875 61.5076 358.492C22.1249 319.11 0 265.695 0 210C0 154.305 22.1249 100.89 61.5076 61.5076C100.89 22.1249 154.305 0 210 0H280V50L270 60L280 70V120Z" fill="black"/>
<path d="M280 60H210C170.218 60 132.064 75.8035 103.934 103.934C75.8035 132.064 60 170.218 60 210C60 249.782 75.8035 287.936 103.934 316.066C132.064 344.196 170.218 360 210 360H338.3C341.15 360 343.971 359.439 346.604 358.348C349.237 357.258 351.629 355.659 353.644 353.644C355.659 351.629 357.258 349.237 358.348 346.604C359.439 343.971 360 341.15 360 338.3V81.7C360.008 76.9251 361.591 72.2861 364.504 68.5021C367.416 64.7182 371.495 62.0004 376.109 60.7701C380.722 59.5398 385.613 59.8655 390.023 61.697C394.433 63.5284 398.115 66.7632 400.5 70.9L559.5 349.1C561.885 353.237 565.567 356.472 569.977 358.303C574.387 360.134 579.278 360.46 583.891 359.23C588.505 358 592.584 355.282 595.497 351.498C598.409 347.714 599.992 343.075 600 338.3V81.7C600.008 76.9251 601.591 72.2861 604.504 68.5021C607.416 64.7182 611.495 62.0004 616.109 60.7701C620.722 59.5398 625.613 59.8655 630.023 61.697C634.433 63.5284 638.115 66.7632 640.5 70.9L799.5 349.1C801.885 353.237 805.567 356.472 809.977 358.303C814.387 360.134 819.278 360.46 823.891 359.23C828.505 358 832.584 355.282 835.497 351.498C838.409 347.714 839.992 343.075 840 338.3V0" stroke="white" stroke-width="20"/>
</g>
<defs>
<clipPath id="clip0_605_3">
<rect width="900" height="420" fill="white"/>
</clipPath>
</defs>
</svg>
