<svg xmlns="http://www.w3.org/2000/svg"  viewBox="0 0 50 50" width="1600px" height="1600px"><path d="M 33.623047 2 L 33.623047 4 C 35.840047 4 37.564453 4.6244531 37.564453 5.8144531 C 37.564453 6.7994531 36.303422 7.6308594 34.607422 7.6308594 C 32.882422 7.6308594 29.188516 6.6432031 26.478516 5.6582031 C 23.275516 4.4262031 20.319469 3.4414063 17.855469 3.4414062 C 12.928469 3.4414062 9.4785156 7.1381719 9.4785156 11.326172 C 9.4785156 15.022172 12.187828 16.253094 13.173828 16.746094 L 14.34375 15.027344 C 13.85075 14.534344 12.189453 13.754062 12.189453 12.789062 C 12.189453 11.456062 13.174672 11.080078 15.638672 11.080078 C 17.855672 11.080078 20.811906 12.065875 24.753906 13.296875 C 28.202906 14.281875 31.898141 14.72275 33.869141 14.96875 L 34 14.96875 L 34 23.433594 L 30.912109 26.109375 L 30.912109 26.355469 L 34 29.03125 L 34 40.060547 C 28.412874 43.476762 20.851288 41.027514 18.191406 37.607422 L 28 32.822266 L 28 32.820312 L 28 18.164062 L 28.013672 18.158203 L 28 16 L 16.335938 21.115234 C 17.586655 19.091734 19.626433 17.164951 22.820312 15.550781 L 22.039062 13.539062 C 14.649062 15.509062 8 22.409062 8 30.789062 C 8 40.639063 16.13 48.039062 25.25 48.039062 C 35.1 48.039062 41.509766 40.149531 41.509766 32.019531 L 39.560547 32.019531 C 38.766713 34.863754 37.51236 36.96235 36 38.472656 L 36 29.027344 L 39.287109 26.355469 L 39.287109 26.109375 L 36 23.4375 L 36 14.863281 C 39.178473 14.381503 42 12.213868 42 8.1230469 C 42 3.1960469 37.319047 2 33.623047 2 z M 21 21.244141 L 21 34.011719 L 17.107422 35.910156 C 15.975153 33.988255 13.603658 28.931231 15.115234 23.833984 L 21 21.244141 z"/></svg>