<svg width="1052" height="236" viewBox="0 0 1052 236" fill="none" xmlns="http://www.w3.org/2000/svg">
<path d="M789.359 60.0838L788.328 91.0544C752.164 88.5756 741.832 97.8692 741.832 128.218V132.134H710.838V61.9411H741.832V81.9691C751.133 65.6592 763.738 58.2264 789.359 60.0838ZM51.6609 186.032H82.6553V66.2738H51.6609V186.028V186.032ZM205.192 60.2921C183.495 60.2921 170.272 69.9953 163.245 80.7297V14.6607H0V43.5657H134.316V132.134H163.863C163.863 106.739 178.537 88.7839 196.513 88.7839C212.014 88.7839 219.037 96.4215 219.037 123.882V186.032H250.032V112.735C250.032 77.6364 232.056 60.2921 205.192 60.2921ZM327.108 162.282C308.306 162.282 296.114 150.926 294.048 132.138H264.911C267.803 165.174 289.5 188.507 326.903 188.507C355.832 188.507 372.156 175.499 380.63 155.884L354.384 144.32C350.458 156.089 343.227 162.282 327.108 162.282ZM325.869 60.9066C314.805 60.6623 303.859 63.2191 294.048 68.3394L308.924 89.3985C314.503 86.51 320.498 85.0624 326.903 85.2672C344.261 85.2672 353.145 96.6264 354.384 111.489H324.421V132.138H383.522C383.935 129.041 384.143 126.149 384.143 123.056C384.348 78.0427 354.593 60.9066 325.869 60.9066V60.9066ZM632.727 162.282C613.925 162.282 601.732 150.926 599.667 132.138H570.53C573.422 165.174 595.119 188.507 632.522 188.507C661.451 188.507 677.774 175.499 686.249 155.884L660.003 144.32C655.872 156.089 648.641 162.282 632.727 162.282ZM631.696 60.9066C620.631 60.6617 609.684 63.2186 599.872 68.3394L614.751 89.3985C620.33 86.51 626.322 85.0624 632.727 85.2672C650.085 85.2672 658.972 96.6264 660.212 111.489H630.248V132.138H689.349C689.762 129.041 689.967 126.149 689.967 123.056C690.175 78.0427 660.416 60.9066 631.696 60.9066V60.9066ZM994.964 162.282C976.162 162.282 963.97 150.926 961.904 132.138H932.767C935.659 165.174 957.356 188.507 994.759 188.507C1023.69 188.507 1040.01 175.499 1048.49 155.884L1022.24 144.32C1018.11 156.089 1010.88 162.282 994.964 162.282ZM993.312 60.9066C982.248 60.6621 971.302 63.219 961.491 68.3394L976.367 89.3985C981.949 86.51 987.941 85.0624 994.346 85.2672C1011.7 85.2672 1020.59 96.6264 1021.83 111.489H991.867V132.138H1050.96C1051.38 129.041 1051.59 126.149 1051.59 123.056C1051.79 78.0427 1022.04 60.9066 993.312 60.9066V60.9066ZM400.053 0L455.801 132.134H489.691L447.166 27.0476H502.132V0.208269L400.053 0.0034143V0ZM565.364 0.204854L501.511 161.873L492.006 186.032H524.448L601.111 0.208269H565.364V0.204854ZM850.32 183.14C863.543 183.14 874.496 179.422 882.141 173.023L869.743 153.409C865.817 155.061 861.478 155.679 857.138 155.679C840.193 155.679 830.48 145.563 827.175 132.141H796.798C800.933 160.841 821.596 183.14 850.32 183.14V183.14ZM888.546 79.2855C881.523 68.138 867.261 60.0838 847.425 60.0838C828.001 59.8789 810.025 70.4084 800.52 87.5445L826.348 104.063C831.101 94.1511 840.401 87.5445 854.659 87.5445C874.909 87.5445 888.546 103.236 888.546 121.817C888.546 125.33 888.133 128.84 887.102 132.141H919.544V62.1494H888.546V79.2855ZM858.586 211.219C838.541 211.219 831.101 201.515 829.653 190.159H800.107C800.725 211.84 815.191 235.583 859.204 235.583C888.959 235.583 908.382 220.717 916.443 198.419L888.546 188.715C884.619 203.168 873.875 211.219 858.586 211.219V211.219Z" fill="black"/>
</svg>
