<svg width="38" height="16" viewBox="0 0 38 16" fill="none" xmlns="http://www.w3.org/2000/svg">
<path d="M37.9999 7.97922C37.9967 7.77887 37.9474 7.58182 37.8557 7.40278C37.764 7.22374 37.6322 7.06734 37.4703 6.94525C37.4676 6.94351 37.465 6.94178 37.4623 6.94006L30.8052 0.408953C30.6803 0.281297 30.5306 0.17938 30.3651 0.10917C30.1995 0.0389601 30.0213 0.00186861 29.8409 6.847e-05C29.6605 -0.00173167 29.4816 0.0317963 29.3146 0.0986869C29.1476 0.165578 28.9959 0.264487 28.8683 0.389623C28.7408 0.514759 28.64 0.663605 28.5718 0.827446C28.5036 0.991286 28.4694 1.16683 28.4713 1.34379C28.4731 1.52075 28.5109 1.69557 28.5825 1.85801C28.654 2.02046 28.7579 2.16726 28.888 2.28983L33.3526 6.66988L1.3751 6.66988C1.19544 6.66738 1.01707 6.69995 0.850349 6.76567C0.68363 6.8314 0.531887 6.92898 0.403942 7.05274C0.275997 7.1765 0.174402 7.32397 0.105056 7.48659C0.035711 7.64921 -3.41986e-07 7.82372 -3.49691e-07 8C-3.57396e-07 8.17627 0.035711 8.35079 0.105056 8.51341C0.174402 8.67602 0.275997 8.8235 0.403942 8.94726C0.531887 9.07102 0.68363 9.1686 0.850349 9.23432C1.01707 9.30005 1.19544 9.33261 1.37509 9.33012L33.3526 9.33012L28.888 13.7102C28.7579 13.8327 28.654 13.9795 28.5825 14.142C28.5109 14.3044 28.4731 14.4793 28.4713 14.6562C28.4694 14.8332 28.5036 15.0087 28.5718 15.1726C28.64 15.3364 28.7408 15.4852 28.8683 15.6104C28.9959 15.7355 29.1476 15.8344 29.3146 15.9013C29.4816 15.9682 29.6605 16.0017 29.8409 15.9999C30.0213 15.9981 30.1995 15.961 30.3651 15.8908C30.5306 15.8206 30.6803 15.7187 30.8052 15.591L37.4703 9.05215C37.6375 8.92605 37.7725 8.7634 37.8644 8.57714C37.9564 8.39088 38.0028 8.18615 37.9999 7.97922V7.97922Z" fill="#646464"/>
</svg>
