<svg width="17" height="20" viewBox="0 0 17 20" fill="none" xmlns="http://www.w3.org/2000/svg">
<path d="M8.5 0C7.80089 0 7.225 0.589144 7.225 1.30435C7.225 1.55561 7.30363 1.74469 7.39351 1.95397C7.48338 2.16326 7.59608 2.3761 7.70728 2.57218C7.72311 2.6001 7.7347 2.61721 7.75044 2.64436C3.41153 3.03375 0 6.76563 0 11.3043C0 16.1017 3.81061 20 8.5 20C13.1894 20 17 16.1017 17 11.3043C17 6.76563 13.5885 3.03375 9.24956 2.64436C9.2653 2.61721 9.27689 2.6001 9.29272 2.57218C9.40392 2.3761 9.51662 2.16326 9.60649 1.95397C9.69637 1.74469 9.775 1.55561 9.775 1.30435C9.775 0.589144 9.19911 0 8.5 0ZM8.5 0.869565C8.74014 0.869565 8.925 1.05868 8.925 1.30435C8.925 1.2933 8.89738 1.44227 8.82788 1.60411C8.75838 1.76595 8.65858 1.95706 8.55728 2.1357C8.52866 2.18616 8.52811 2.18151 8.5 2.22911C8.47189 2.18151 8.47134 2.18616 8.44272 2.1357C8.34142 1.95706 8.24162 1.76595 8.17212 1.60411C8.10262 1.44227 8.075 1.2933 8.075 1.30435C8.075 1.05868 8.25986 0.869565 8.5 0.869565ZM8.5 3.47826C12.73 3.47826 16.15 6.97697 16.15 11.3043C16.15 15.6317 12.73 19.1304 8.5 19.1304C4.26998 19.1304 0.85 15.6317 0.85 11.3043C0.85 6.97697 4.26998 3.47826 8.5 3.47826ZM8.49336 4.77666C8.38079 4.77846 8.27351 4.82588 8.19508 4.90851C8.11664 4.99114 8.07346 5.10222 8.075 5.21739V10.0764C7.90685 10.1375 7.75311 10.2341 7.62373 10.3598C7.49435 10.4855 7.3922 10.6376 7.3239 10.8063C7.25559 10.9749 7.22265 11.1563 7.22721 11.3388C7.23176 11.5213 7.27371 11.7008 7.35034 11.8657L5.22451 14.0404C5.18372 14.0805 5.15116 14.1285 5.12872 14.1816C5.10629 14.2347 5.09444 14.2918 5.09386 14.3497C5.09329 14.4075 5.104 14.4649 5.12537 14.5184C5.14675 14.572 5.17835 14.6206 5.21833 14.6616C5.25832 14.7025 5.30588 14.7348 5.35823 14.7567C5.41058 14.7785 5.46667 14.7895 5.52321 14.7889C5.57975 14.7883 5.63561 14.7762 5.68752 14.7532C5.73942 14.7303 5.78633 14.697 5.82549 14.6552L7.95049 12.4813C8.12208 12.5652 8.30984 12.6087 8.5 12.6087C8.8007 12.6086 9.0917 12.4998 9.32158 12.3015C9.55146 12.1032 9.70542 11.8281 9.75627 11.5249C9.80713 11.2217 9.75159 10.9099 9.59948 10.6445C9.44737 10.3792 9.20848 10.1774 8.925 10.0747V5.21739C8.92578 5.15922 8.91514 5.10148 8.89371 5.0476C8.87229 4.99371 8.84051 4.94477 8.80026 4.90367C8.76001 4.86258 8.71211 4.83016 8.65939 4.80834C8.60668 4.78653 8.55022 4.77576 8.49336 4.77666Z" fill="#646464"/>
</svg>
