<svg width="389" height="416" viewBox="0 0 389 416" fill="none" xmlns="http://www.w3.org/2000/svg">
<g clip-path="url(#clip0_685_317)">
<path d="M348.629 1.9624H156C151.665 1.9624 148.151 5.47654 148.151 9.81145V142.591C148.151 146.926 151.665 150.44 156 150.44H348.629C352.964 150.44 356.478 146.926 356.478 142.591V9.81145C356.478 5.47654 352.964 1.9624 348.629 1.9624Z" fill="white"/>
<path d="M348.629 152.402H156C153.399 152.399 150.905 151.365 149.066 149.525C147.226 147.686 146.192 145.192 146.189 142.591V9.81131C146.192 7.21009 147.226 4.71626 149.066 2.87692C150.905 1.03758 153.399 0.00294305 156 0H348.629C351.23 0.00294305 353.724 1.03758 355.563 2.87692C357.402 4.71626 358.437 7.21009 358.44 9.81131V142.591C358.437 145.192 357.402 147.686 355.563 149.525C353.724 151.365 351.23 152.399 348.629 152.402ZM156 3.92452C154.439 3.92634 152.943 4.54714 151.839 5.65073C150.736 6.75432 150.115 8.2506 150.113 9.81131V142.591C150.115 144.152 150.736 145.648 151.839 146.752C152.943 147.855 154.439 148.476 156 148.478H348.629C350.189 148.476 351.686 147.855 352.789 146.752C353.893 145.648 354.514 144.152 354.515 142.591V9.81131C354.514 8.2506 353.893 6.75432 352.789 5.65073C351.686 4.54714 350.189 3.92634 348.629 3.92452H156Z" fill="black"/>
<path d="M189.835 0.27042L251.155 -44.5908L253.472 -41.4231L192.153 3.43817L189.835 0.27042Z" fill="black"/>
<path d="M251.156 -41.4216L253.473 -44.5894L314.794 0.270576L312.477 3.43832L251.156 -41.4216Z" fill="black"/>
<path d="M252.314 -35.3208C250.794 -35.3208 249.308 -35.7716 248.044 -36.6161C246.781 -37.4606 245.796 -38.6609 245.214 -40.0652C244.632 -41.4696 244.48 -43.0149 244.776 -44.5057C245.073 -45.9966 245.805 -47.366 246.88 -48.4409C247.955 -49.5157 249.324 -50.2477 250.815 -50.5442C252.306 -50.8408 253.851 -50.6886 255.255 -50.1069C256.66 -49.5252 257.86 -48.5401 258.705 -47.2762C259.549 -46.0123 260 -44.5264 260 -43.0064C259.997 -40.9688 259.187 -39.0153 257.746 -37.5745C256.305 -36.1336 254.352 -35.3232 252.314 -35.3208ZM252.314 -46.7674C251.57 -46.7674 250.843 -46.5468 250.225 -46.1335C249.606 -45.7203 249.124 -45.1329 248.84 -44.4456C248.555 -43.7584 248.48 -43.0022 248.626 -42.2726C248.771 -41.5431 249.129 -40.8729 249.655 -40.3469C250.181 -39.8209 250.851 -39.4627 251.581 -39.3176C252.31 -39.1725 253.066 -39.247 253.754 -39.5316C254.441 -39.8163 255.028 -40.2984 255.441 -40.9169C255.855 -41.5354 256.075 -42.2625 256.075 -43.0064C256.074 -44.0035 255.678 -44.9595 254.972 -45.6646C254.267 -46.3696 253.311 -46.7662 252.314 -46.7674ZM340.78 136.704H163.849C163.329 136.704 162.829 136.497 162.461 136.129C162.093 135.761 161.887 135.262 161.887 134.742V17.6603C161.887 17.1398 162.093 16.6407 162.461 16.2727C162.829 15.9047 163.329 15.698 163.849 15.698H340.78C341.3 15.698 341.799 15.9047 342.167 16.2727C342.535 16.6407 342.742 17.1398 342.742 17.6603V134.742C342.742 135.262 342.535 135.761 342.167 136.129C341.799 136.497 341.3 136.704 340.78 136.704ZM165.811 132.78H338.817V19.6225H165.811V132.78Z" fill="black"/>
</g>
<g clip-path="url(#clip1_685_317)">
<path d="M94.9485 242.933C128.038 245.6 167.725 256.784 180.321 277.514C191.872 296.526 188.271 353.318 190.078 372.633C190.078 372.633 176.29 372.972 167.17 373.055C167.17 373.055 155.793 323.726 154.447 304.646" fill="#C04040"/>
<path d="M167.17 375.025C166.725 375.025 166.293 374.874 165.945 374.596C165.597 374.319 165.353 373.931 165.253 373.497C164.788 371.478 153.827 323.8 152.486 304.787C152.468 304.529 152.5 304.269 152.582 304.024C152.664 303.779 152.793 303.552 152.962 303.357C153.132 303.161 153.338 303.001 153.569 302.886C153.8 302.77 154.051 302.701 154.309 302.683C154.566 302.665 154.825 302.697 155.07 302.779C155.314 302.861 155.541 302.991 155.736 303.16C155.931 303.33 156.09 303.536 156.206 303.768C156.321 303.999 156.39 304.251 156.408 304.509C157.595 321.331 166.807 362.572 168.733 371.07C175.467 370.993 184.063 370.804 187.953 370.714C187.598 365.461 187.516 358.245 187.423 350.051C187.146 325.514 186.766 291.911 178.642 278.54C173.122 269.455 161.366 261.42 144.644 255.3C130.214 250.019 112.508 246.324 94.79 244.896C94.5313 244.877 94.279 244.807 94.0475 244.69C93.8161 244.573 93.61 244.411 93.4413 244.213C93.2725 244.016 93.1444 243.787 93.0643 243.54C92.9841 243.293 92.9536 243.033 92.9744 242.774C92.9952 242.515 93.067 242.262 93.1855 242.031C93.3041 241.8 93.4671 241.595 93.6652 241.427C93.8633 241.259 94.0925 241.133 94.3397 241.054C94.5869 240.976 94.8471 240.947 95.1055 240.969C126.785 243.523 168.551 254.358 181.999 276.49C190.684 290.784 191.071 325.011 191.354 350.005C191.459 359.268 191.55 367.268 192.034 372.449C192.059 372.718 192.029 372.989 191.945 373.245C191.861 373.502 191.726 373.739 191.546 373.941C191.367 374.143 191.149 374.305 190.904 374.419C190.66 374.533 190.395 374.595 190.125 374.602C189.987 374.605 176.217 374.942 167.187 375.025H167.17Z" fill="#C04040"/>
<path d="M167.17 373.055C167.207 381.024 170.3 407.566 170.857 407.923C171.156 408.115 222.612 407.972 222.612 407.972C223.277 400.776 220.599 394.29 216.786 391.738C212.974 389.187 191.888 387.41 190.078 372.632L167.17 373.055Z" fill="white"/>
<path d="M189.335 409.993C185.255 409.993 181.817 409.989 179.063 409.981C170.381 409.957 170.381 409.957 169.796 409.581C168.885 408.996 168.544 408.778 166.864 393.561C166.48 390.089 165.228 378.351 165.203 373.066C165.201 372.548 165.402 372.05 165.763 371.68C166.124 371.309 166.616 371.096 167.133 371.087L190.041 370.664C190.527 370.656 190.998 370.828 191.365 371.148C191.732 371.467 191.968 371.911 192.028 372.394C193.247 382.346 204.608 385.722 212.125 387.959C214.79 388.752 216.716 389.324 217.878 390.102C222.513 393.204 225.264 400.628 224.568 408.155C224.523 408.643 224.298 409.096 223.937 409.427C223.576 409.758 223.105 409.942 222.616 409.943C222.487 409.943 209.603 409.979 196.847 409.99C194.145 409.992 191.641 409.993 189.335 409.993ZM172.417 406.003C178.481 406.084 203.025 406.054 220.746 406.007C220.818 399.974 218.379 395.174 215.693 393.376C215.027 392.93 212.983 392.322 211.006 391.735C203.409 389.476 190.942 385.769 188.432 374.633L169.188 374.988C169.539 383.214 171.584 401.059 172.417 406.003H172.417Z" fill="black"/>
<path d="M222.281 403.288H177.226C176.704 403.288 176.204 403.081 175.836 402.711C175.467 402.342 175.26 401.841 175.26 401.318C175.26 400.796 175.467 400.295 175.836 399.926C176.204 399.556 176.704 399.349 177.226 399.349H222.281C222.802 399.349 223.302 399.556 223.671 399.926C224.039 400.295 224.247 400.796 224.247 401.318C224.247 401.841 224.039 402.342 223.671 402.711C223.302 403.081 222.802 403.288 222.281 403.288Z" fill="black"/>
<path d="M210.213 403.288H210.206C209.948 403.288 209.693 403.236 209.455 403.136C209.216 403.036 209 402.89 208.818 402.707C208.636 402.523 208.492 402.306 208.394 402.066C208.296 401.827 208.246 401.571 208.247 401.312L208.284 390.061C208.286 389.54 208.494 389.04 208.862 388.673C209.231 388.305 209.73 388.098 210.25 388.098H210.257C210.778 388.1 211.277 388.309 211.645 388.679C212.012 389.05 212.218 389.552 212.216 390.074L212.179 401.325C212.177 401.847 211.969 402.346 211.601 402.714C211.232 403.082 210.733 403.288 210.213 403.288ZM186.072 383.303C185.626 383.303 185.193 383.152 184.844 382.873C184.495 382.594 184.251 382.204 184.153 381.768C184.054 381.332 184.107 380.875 184.302 380.473C184.497 380.071 184.823 379.747 185.226 379.555L190.684 376.95C190.917 376.839 191.17 376.775 191.428 376.761C191.686 376.748 191.944 376.786 192.187 376.872C192.43 376.959 192.654 377.092 192.846 377.265C193.038 377.439 193.194 377.648 193.305 377.881C193.416 378.115 193.48 378.368 193.493 378.626C193.506 378.885 193.469 379.143 193.383 379.387C193.296 379.631 193.163 379.855 192.99 380.047C192.817 380.24 192.608 380.396 192.375 380.507L186.916 383.111C186.653 383.238 186.364 383.303 186.072 383.303ZM191.172 389.428C190.787 389.428 190.411 389.315 190.09 389.103C189.769 388.891 189.517 388.589 189.366 388.235C189.214 387.881 189.169 387.49 189.237 387.111C189.305 386.731 189.483 386.38 189.748 386.101L194.033 381.589C194.392 381.21 194.887 380.99 195.408 380.977C195.929 380.964 196.434 381.159 196.812 381.519C197.19 381.879 197.409 382.375 197.422 382.897C197.435 383.42 197.24 383.926 196.881 384.304L192.596 388.817C192.413 389.01 192.192 389.164 191.947 389.27C191.702 389.375 191.438 389.429 191.172 389.428ZM198.487 392.298C198.162 392.298 197.842 392.217 197.555 392.062C197.269 391.907 197.025 391.684 196.846 391.411C196.667 391.139 196.559 390.827 196.53 390.502C196.501 390.177 196.554 389.85 196.682 389.551L198.438 385.454C198.538 385.213 198.685 384.995 198.869 384.812C199.054 384.629 199.273 384.484 199.514 384.386C199.755 384.288 200.013 384.239 200.273 384.242C200.533 384.245 200.789 384.299 201.028 384.402C201.267 384.504 201.483 384.654 201.664 384.841C201.845 385.028 201.987 385.249 202.082 385.491C202.177 385.733 202.224 385.992 202.218 386.253C202.213 386.513 202.156 386.77 202.051 387.008L200.295 391.105C200.143 391.459 199.891 391.761 199.57 391.973C199.248 392.185 198.872 392.298 198.487 392.298Z" fill="black"/>
<path d="M50.0458 242.933C45.4916 254.6 43.3196 281.306 56.3694 291.049C71.0993 302.047 121.833 298.181 136.636 302.809C134.285 327.947 140.059 361.293 145.13 379.172L170.004 377.049C170.266 370.566 183.888 299.788 170.914 279.924C160.464 263.924 148.49 259.851 133.242 253.688" fill="#C04040"/>
<path d="M145.13 381.141C144.703 381.141 144.287 381.001 143.946 380.743C143.605 380.485 143.357 380.122 143.24 379.71C137.658 360.026 132.645 328.329 134.538 304.279C128.745 302.907 118.601 302.412 107.915 301.892C87.6997 300.907 64.7889 299.79 55.1974 292.629C47.2845 286.722 45.0902 275.878 44.643 267.821C44.1571 259.068 45.5604 249.017 48.2143 242.215C48.3083 241.974 48.4488 241.754 48.6277 241.567C48.8066 241.381 49.0204 241.231 49.2569 241.128C49.4934 241.024 49.748 240.968 50.0061 240.963C50.2642 240.958 50.5208 241.004 50.7613 241.098C51.0017 241.192 51.2212 241.333 51.4074 241.512C51.5935 241.691 51.7426 241.905 51.8462 242.142C51.9497 242.379 52.0056 242.634 52.0107 242.893C52.0159 243.152 51.9701 243.409 51.8761 243.65C47.4892 254.887 45.5692 280.529 57.5456 289.47C66.1771 295.914 89.4254 297.046 108.106 297.957C120.572 298.564 131.338 299.089 137.223 300.929C137.653 301.063 138.024 301.342 138.274 301.718C138.523 302.093 138.637 302.544 138.595 302.993C136.297 327.557 141.969 360.053 146.589 377.07L168.205 375.226C168.395 373.655 168.735 371.327 169.175 368.309C172.028 348.759 179.605 296.828 169.269 281.003C159.767 266.455 148.902 262.095 135.145 256.578C134.276 256.229 133.397 255.875 132.506 255.516C132.025 255.319 131.642 254.939 131.439 254.46C131.237 253.98 131.233 253.439 131.427 252.956C131.621 252.473 131.999 252.087 132.477 251.882C132.955 251.677 133.494 251.67 133.977 251.863C134.864 252.221 135.741 252.574 136.607 252.921C150.436 258.469 162.379 263.262 172.559 278.847C183.711 295.922 176.251 347.049 173.066 368.881C172.476 372.925 172.009 376.119 171.968 377.13C171.949 377.609 171.756 378.065 171.425 378.412C171.094 378.759 170.648 378.972 170.171 379.013L145.299 381.136C145.242 381.139 145.186 381.141 145.13 381.141Z" fill="#C04040"/>
<path d="M170.004 379.019H169.968C169.447 379.009 168.951 378.793 168.589 378.417C168.227 378.041 168.029 377.536 168.038 377.014C168.063 375.619 168.543 372.216 169.271 367.063C172.209 346.243 179.092 297.486 169.226 280.935C162.116 269.005 150.607 263.769 137.28 257.705C135.679 256.977 134.056 256.238 132.414 255.476C131.941 255.256 131.574 254.857 131.394 254.367C131.215 253.877 131.237 253.335 131.456 252.861C131.675 252.387 132.073 252.019 132.563 251.839C133.052 251.659 133.593 251.682 134.066 251.901C135.699 252.659 137.314 253.394 138.906 254.118C152.831 260.454 164.859 265.928 172.6 278.915C177.258 286.728 179.022 300.867 177.993 322.134C177.165 339.26 174.659 357.01 173.162 367.615C172.507 372.262 171.989 375.932 171.968 377.085C171.958 377.601 171.747 378.092 171.38 378.454C171.013 378.815 170.519 379.018 170.004 379.019Z" fill="black"/>
<path d="M135.923 305.082C135.427 305.082 134.948 304.894 134.585 304.555C134.221 304.216 133.999 303.752 133.962 303.256C133.608 298.389 136.379 293.585 141.376 290.405C141.816 290.125 142.349 290.031 142.858 290.145C143.367 290.259 143.81 290.57 144.089 291.011C144.369 291.452 144.462 291.986 144.349 292.496C144.236 293.006 143.925 293.45 143.484 293.73C140.787 295.447 138.916 297.795 138.195 300.238C141.344 299.351 145.501 298.649 147.774 298.998C148.289 299.078 148.752 299.359 149.06 299.78C149.369 300.201 149.498 300.728 149.419 301.244C149.34 301.761 149.059 302.224 148.639 302.533C148.219 302.843 147.693 302.972 147.178 302.893C145.054 302.567 138.977 303.845 136.764 304.893C136.501 305.017 136.214 305.082 135.923 305.082Z" fill="black"/>
<path d="M145.131 379.172C143.895 390.539 144.653 411.607 145.054 411.689C145.39 411.759 199.755 411.738 199.755 411.738C200.398 404.542 197.813 397.727 194.133 395.176C190.453 392.625 171.751 391.828 170.003 377.049L145.131 379.172Z" fill="white"/>
<path d="M178.898 413.712C145.101 413.712 144.876 413.664 144.651 413.617C143.158 413.305 143.024 411.868 142.934 410.917C142.874 410.274 142.815 409.383 142.76 408.27C142.641 405.887 142.553 402.839 142.513 399.687C142.451 394.797 142.454 385.602 143.177 378.959C143.226 378.505 143.432 378.082 143.758 377.763C144.084 377.444 144.51 377.248 144.964 377.21L169.837 375.087C170.345 375.043 170.851 375.199 171.246 375.522C171.641 375.845 171.896 376.31 171.956 376.818C173.123 386.69 183.137 389.585 189.764 391.5C192.275 392.226 194.089 392.75 195.251 393.557C199.672 396.621 202.389 404.342 201.714 411.913C201.67 412.403 201.445 412.859 201.083 413.191C200.72 413.523 200.247 413.707 199.756 413.708C191.673 413.711 184.775 413.712 178.898 413.712ZM146.776 409.739C154.064 409.775 183.773 409.773 197.888 409.769C197.966 403.577 195.557 398.56 193.014 396.796C192.38 396.357 190.496 395.811 188.674 395.286C181.886 393.324 170.766 390.11 168.366 379.167L146.929 380.996C146.111 390.447 146.443 405.021 146.776 409.739Z" fill="black"/>
<path d="M199.139 406.596H144.815C144.293 406.596 143.793 406.389 143.425 406.019C143.056 405.65 142.849 405.149 142.849 404.626C142.849 404.104 143.056 403.603 143.425 403.234C143.793 402.864 144.293 402.657 144.815 402.657H199.138C199.66 402.657 200.16 402.864 200.528 403.234C200.897 403.603 201.104 404.104 201.104 404.626C201.104 405.149 200.897 405.65 200.528 406.019C200.16 406.389 199.66 406.596 199.138 406.596H199.139Z" fill="black"/>
<path d="M187.896 406.596C187.374 406.596 186.874 406.389 186.506 406.019C186.137 405.65 185.93 405.149 185.93 404.626V393.465C185.93 392.942 186.137 392.441 186.506 392.072C186.874 391.702 187.374 391.495 187.896 391.495C188.417 391.495 188.917 391.702 189.286 392.072C189.654 392.441 189.862 392.942 189.862 393.465V404.626C189.862 405.149 189.654 405.65 189.286 406.019C188.917 406.389 188.417 406.596 187.896 406.596ZM164.881 387.241C164.422 387.242 163.977 387.081 163.623 386.787C163.269 386.494 163.029 386.085 162.945 385.633C162.861 385.18 162.937 384.712 163.161 384.31C163.385 383.908 163.743 383.598 164.172 383.433L169.783 381.257C170.268 381.072 170.807 381.086 171.282 381.298C171.757 381.51 172.129 381.901 172.316 382.387C172.504 382.872 172.492 383.412 172.283 383.889C172.074 384.366 171.685 384.74 171.202 384.931L165.59 387.106C165.364 387.195 165.124 387.24 164.881 387.241ZM175.017 397.424C174.693 397.424 174.375 397.344 174.089 397.191C173.804 397.038 173.561 396.816 173.381 396.546C173.202 396.276 173.092 395.966 173.061 395.643C173.03 395.321 173.079 394.995 173.203 394.696L175.35 389.537C175.552 389.058 175.936 388.679 176.417 388.483C176.898 388.286 177.436 388.288 177.916 388.488C178.395 388.689 178.776 389.071 178.975 389.551C179.174 390.032 179.175 390.572 178.979 391.053L176.832 396.211C176.683 396.571 176.431 396.878 176.108 397.093C175.785 397.309 175.405 397.424 175.017 397.424ZM158.42 406.596C157.919 406.596 157.438 406.404 157.074 406.061C156.71 405.717 156.49 405.247 156.459 404.747C156.302 402.168 155.168 393.745 147.178 393.65C146.656 393.647 146.157 393.437 145.791 393.065C145.424 392.694 145.22 392.192 145.223 391.669C145.226 391.147 145.436 390.647 145.807 390.28C146.178 389.913 146.679 389.708 147.201 389.711H147.224C151.76 389.764 155.387 391.779 157.713 395.534C159.763 398.842 160.266 402.575 160.384 404.505C160.4 404.763 160.365 405.022 160.281 405.267C160.197 405.511 160.065 405.737 159.894 405.93C159.723 406.124 159.516 406.282 159.284 406.396C159.051 406.509 158.799 406.576 158.542 406.591C158.501 406.595 158.461 406.596 158.42 406.596ZM168.504 393.588C168.123 393.588 167.75 393.477 167.431 393.269C167.112 393.06 166.86 392.763 166.707 392.414C166.553 392.065 166.504 391.678 166.565 391.302C166.626 390.925 166.795 390.574 167.052 390.292L172.462 384.343C172.635 384.148 172.844 383.99 173.079 383.877C173.313 383.764 173.568 383.698 173.828 383.685C174.088 383.671 174.348 383.709 174.593 383.797C174.838 383.885 175.063 384.02 175.255 384.196C175.447 384.372 175.603 384.584 175.713 384.82C175.823 385.056 175.885 385.312 175.895 385.573C175.906 385.833 175.865 386.093 175.774 386.338C175.683 386.582 175.545 386.806 175.368 386.996L169.958 392.945C169.774 393.148 169.549 393.31 169.299 393.421C169.049 393.532 168.778 393.589 168.504 393.588Z" fill="black"/>
<path d="M99.207 119.749C97.1985 134.902 109.457 145.008 112.196 153.634C119.923 177.967 122.081 236.341 118.45 241.799C112.85 250.624 57.6184 260.744 45.3956 253.939C46.0109 250.173 47.8405 247.901 47.8405 243.87C41.1935 233.74 41.7715 220.307 45.4637 205.532C47.6046 196.963 35.5387 162.53 57.8641 135.668C60.6045 132.371 65.8311 127.691 67.6551 125.278C70.8539 121.043 70.8569 116.965 71.5213 108.977" fill="white"/>
<path d="M66.0752 248.407C58.5112 248.407 51.4852 247.656 47.0407 245.669C46.5645 245.457 46.1923 245.063 46.0058 244.575C45.8193 244.087 45.8339 243.545 46.0463 243.068C46.2587 242.591 46.6516 242.218 47.1385 242.031C47.6254 241.844 48.1664 241.859 48.6425 242.072C61.9718 248.029 106.697 242.31 118 233.202C118.406 232.875 118.926 232.722 119.444 232.779C119.963 232.835 120.437 233.096 120.764 233.503C121.091 233.91 121.243 234.43 121.186 234.95C121.13 235.469 120.87 235.945 120.464 236.272C113.608 241.797 97.4305 245.522 84.577 247.166C78.4411 247.961 72.2621 248.375 66.0752 248.407ZM98.2748 139.461C88.5942 139.461 77.0041 134.913 66.4605 126.841C66.0517 126.522 65.7851 126.054 65.7188 125.539C65.6525 125.024 65.7918 124.504 66.1064 124.091C66.421 123.679 66.8855 123.407 67.3988 123.336C67.9121 123.265 68.4327 123.399 68.8474 123.711C80.0073 132.254 92.2412 136.589 101.568 135.304C102.084 135.233 102.608 135.371 103.023 135.686C103.439 136.002 103.712 136.47 103.783 136.988C103.854 137.505 103.717 138.03 103.402 138.446C103.086 138.862 102.619 139.136 102.103 139.207C100.834 139.379 99.555 139.464 98.2748 139.461Z" fill="black"/>
<path d="M63.5376 258.221C57.083 258.221 50.4089 257.586 46.3946 255.423C46.034 255.229 45.7429 254.926 45.5621 254.558C45.3812 254.19 45.3196 253.775 45.3858 253.37C45.8949 250.254 45.8884 248.409 45.8772 245.353C45.8772 245.062 45.8753 244.76 45.8746 244.446C40.1638 235.231 41.5386 223.052 42.8691 211.268C43.089 209.319 43.3164 207.304 43.507 205.341C43.6686 203.678 43.318 200.714 42.8747 196.962C41.1818 182.646 38.0305 155.997 56.3668 134.392C57.234 133.371 58.583 132.025 60.0108 130.6C62.2195 128.398 64.7224 125.9 65.9628 124.105C68.4316 120.53 68.969 115.943 69.561 108.813C69.6042 108.293 69.8521 107.811 70.2501 107.473C70.6481 107.136 71.1636 106.97 71.6832 107.014C72.2028 107.057 72.6839 107.305 73.0208 107.704C73.3576 108.103 73.5225 108.619 73.4793 109.14C72.8329 116.922 72.2225 121.964 69.196 126.346C67.7511 128.438 65.1129 131.07 62.785 133.392C61.4161 134.758 60.1235 136.047 59.3618 136.945C51.8191 145.831 47.4473 156.287 45.9955 168.909C44.7731 179.536 45.9326 189.34 46.7792 196.499C47.2504 200.486 47.6229 203.636 47.4204 205.722C47.2268 207.716 46.9978 209.746 46.776 211.71C45.4411 223.536 44.18 234.706 49.483 242.788C49.6941 243.11 49.8065 243.487 49.8063 243.872C49.8063 244.392 49.808 244.88 49.8096 245.341C49.8188 248.007 49.8253 249.906 49.4859 252.514C54.665 254.517 65.0729 254.863 77.9055 253.414C91.0824 251.925 104.204 248.775 111.335 245.39C115.965 243.19 116.467 241.701 116.52 241.425C117.619 235.77 117.866 227.75 117.958 213.991C117.961 213.471 118.17 212.973 118.538 212.606C118.906 212.24 119.404 212.034 119.924 212.034H119.937C120.195 212.036 120.45 212.089 120.688 212.189C120.926 212.29 121.142 212.436 121.323 212.62C121.505 212.804 121.648 213.023 121.745 213.262C121.842 213.502 121.892 213.758 121.89 214.017C121.797 228.019 121.538 236.219 120.38 242.178C119.908 244.607 117.5 246.821 113.019 248.949C105.414 252.561 92.1279 255.771 78.3461 257.328C73.4296 257.893 68.4862 258.191 63.5376 258.221ZM118.531 192.32C118.057 192.319 117.599 192.147 117.241 191.835C116.884 191.522 116.651 191.091 116.586 190.62C116.117 187.225 115.724 183.948 115.344 180.778C114.155 170.854 113.129 162.283 110.341 154.283C109.443 151.706 107.597 148.841 105.643 145.808C101.256 138.997 95.7958 130.522 97.2581 119.49C97.3268 118.972 97.598 118.502 98.0121 118.185C98.4263 117.867 98.9494 117.727 99.4664 117.796C99.9835 117.865 100.452 118.136 100.769 118.551C101.086 118.966 101.226 119.491 101.157 120.009C99.8855 129.604 104.7 137.078 108.948 143.672C111.032 146.908 113.001 149.964 114.054 152.984C116.983 161.389 118.084 170.581 119.25 180.309C119.627 183.46 120.018 186.721 120.482 190.08C120.521 190.359 120.499 190.643 120.419 190.913C120.338 191.183 120.201 191.433 120.016 191.645C119.831 191.858 119.603 192.028 119.347 192.144C119.091 192.26 118.812 192.32 118.531 192.32Z" fill="black"/>
<path d="M91.3969 66.4349C96.4944 67.0915 115.053 62.9071 117.975 52.6616C120.232 58.9595 125.237 72.9528 111.794 77.3072" fill="#17ADFF"/>
<path d="M111.794 79.277C111.326 79.2772 110.872 79.1097 110.516 78.8048C110.16 78.4999 109.924 78.0775 109.851 77.6138C109.779 77.1502 109.873 76.6756 110.119 76.2758C110.364 75.8759 110.744 75.5769 111.19 75.4328C114.433 74.3822 116.581 72.708 117.754 70.3164C119.579 66.5946 118.739 61.6801 117.571 57.6724C111.273 65.8875 96.016 69.0144 91.1465 68.3884C90.8904 68.3554 90.6433 68.2722 90.4192 68.1436C90.1951 68.0149 89.9986 67.8433 89.8407 67.6385C89.5219 67.2249 89.3801 66.7014 89.4466 66.1831C89.513 65.6648 89.7822 65.1941 90.195 64.8747C90.6077 64.5553 91.1302 64.4132 91.6475 64.4798C96.5196 65.1078 113.59 60.8706 116.085 52.1191C116.199 51.7183 116.437 51.3641 116.765 51.1076C117.093 50.8511 117.494 50.7054 117.909 50.6915C118.325 50.6777 118.735 50.7963 119.079 51.0304C119.423 51.2645 119.684 51.602 119.825 51.9943C121.492 56.6439 124.594 65.2988 121.283 72.0527C119.639 75.4055 116.65 77.8036 112.399 79.1805C112.204 79.2442 112 79.2767 111.794 79.277Z" fill="#17ADFF"/>
<path d="M59.5141 92.6799C58.4422 86.0499 59.8226 79.2558 63.3961 73.5733C66.9695 67.8908 72.4903 63.7107 78.9219 61.8178C85.3535 59.9249 92.2535 60.4495 98.3265 63.2929C104.399 66.1364 109.228 71.1032 111.904 77.2609C112.8 79.3258 81.7851 115.769 77.5981 114.3C72.9197 112.662 68.7696 109.789 65.5864 105.984C62.4033 102.178 60.3052 97.5816 59.5141 92.6799Z" fill="#17ADFF"/>
<path d="M78.6826 112.684C85.4816 113.043 88.8494 103.423 85.5812 100.622C82.1114 97.6496 80.1039 89.4979 83.8004 86.3115C87.4969 83.1252 92.1183 88.9021 92.8156 90.9109C93.1412 84.9597 103.387 76.6402 111.794 77.3073C119.734 82.1689 118.385 90.643 118.874 94.022C119.486 98.257 124.632 104.265 124.632 104.265C122.78 107.209 121.372 107.353 119.321 107.397C116.915 131.045 93.3156 125.551 86.6821 122.331" fill="white"/>
<path d="M100.307 127.226C94.6166 127.226 89.1017 125.695 85.8253 124.104C85.356 123.877 84.9964 123.471 84.8254 122.978C84.6544 122.484 84.6862 121.943 84.9136 121.472C85.1411 121.002 85.5456 120.642 86.0382 120.471C86.5309 120.299 87.0713 120.331 87.5405 120.559C91.5902 122.526 102.317 125.265 109.624 121.179C114.069 118.694 116.674 113.99 117.365 107.198C117.414 106.72 117.635 106.276 117.988 105.95C118.34 105.624 118.799 105.439 119.278 105.428C120.604 105.4 121.28 105.385 122.162 104.345C120.523 102.244 117.447 97.9008 116.926 94.3034C116.83 93.4946 116.774 92.6814 116.759 91.8669C116.611 87.9845 116.411 82.7027 111.173 79.2445C107.454 79.1273 102.794 81.0639 99.145 84.2614C96.554 86.5312 94.8801 89.1201 94.7765 91.0179C94.7517 91.4736 94.5697 91.9065 94.2616 92.2427C93.9536 92.5788 93.5386 92.7973 93.0876 92.861C92.6366 92.9246 92.1775 92.8293 91.7888 92.5914C91.4001 92.3535 91.1059 91.9877 90.9565 91.5566C90.6161 90.5754 88.6083 87.9271 86.7145 87.4163C86.4327 87.3258 86.1317 87.3141 85.8438 87.3823C85.5558 87.4506 85.292 87.5963 85.0805 87.8037C83.9528 88.7757 83.7873 90.536 83.7883 91.4985C83.7926 94.3041 85.1405 97.6539 86.857 99.1243C88.9674 100.933 89.4127 104.406 87.9897 107.973C86.2876 112.241 82.6022 114.862 78.5768 114.65C78.0587 114.619 77.5739 114.384 77.2282 113.996C76.8824 113.608 76.7037 113.099 76.7311 112.58C76.7585 112.06 76.9897 111.573 77.3743 111.224C77.7589 110.875 78.2657 110.692 78.7842 110.716C81.5934 110.863 83.4895 108.641 84.3381 106.512C85.15 104.477 84.957 102.68 84.3017 102.118C81.6907 99.8814 79.8628 95.5168 79.8566 91.5044C79.8526 88.6332 80.772 86.3211 82.5164 84.8176C83.2122 84.1881 84.0568 83.7471 84.9703 83.5361C85.8838 83.3252 86.8359 83.3513 87.7364 83.6121C89.4186 84.0658 90.9732 85.2361 92.1944 86.5319C93.3379 84.5487 94.8136 82.7775 96.5566 81.2957C100.187 78.1156 106.132 74.8839 111.948 75.3425C112.256 75.3672 112.554 75.4641 112.818 75.6255C120.249 80.1759 120.534 87.6835 120.688 91.7169C120.718 92.5356 120.745 93.2427 120.819 93.7388C121.252 96.7377 124.795 101.428 126.124 102.982C126.397 103.302 126.561 103.7 126.592 104.12C126.623 104.54 126.518 104.959 126.294 105.315C124.528 108.121 122.878 108.974 121.071 109.243C119.986 116.518 116.784 121.685 111.539 124.619C108.154 126.513 104.189 127.226 100.307 127.226Z" fill="black"/>
<path d="M112.215 94.8446C112.693 92.6206 111.765 90.5335 110.141 90.1829C108.518 89.8324 106.814 91.3511 106.336 93.5751C105.857 95.7991 106.786 97.8862 108.409 98.2368C110.033 98.5873 111.736 97.0686 112.215 94.8446Z" fill="black"/>
<path d="M108.877 98.4513C108.708 98.4514 108.54 98.4334 108.375 98.3978C106.665 98.0288 105.679 95.8499 106.175 93.5411C106.672 91.2322 108.467 89.6548 110.176 90.0231C110.613 90.1336 111.018 90.3476 111.355 90.6473C111.693 90.9469 111.954 91.3234 112.116 91.745C112.529 92.7368 112.619 93.8335 112.375 94.8798C111.927 96.9628 110.422 98.4513 108.877 98.4513ZM106.496 93.6103C106.037 95.7422 106.911 97.7468 108.444 98.077C109.977 98.4073 111.596 96.9425 112.055 94.8106C112.284 93.8325 112.201 92.8067 111.817 91.8786C111.675 91.5044 111.446 91.1698 111.148 90.9028C110.851 90.6357 110.493 90.4441 110.107 90.3439C108.576 90.0133 106.954 91.4781 106.496 93.6103ZM120.345 70.8879C120.045 70.8877 119.75 70.819 119.481 70.6872C119.212 70.5554 118.977 70.3639 118.793 70.1273C118.609 69.8906 118.482 69.6151 118.42 69.3216C118.358 69.0281 118.364 68.7244 118.438 68.4336C119.297 65.0362 118.572 61.0974 117.594 57.739C111.369 65.9245 96.0743 69.0245 91.1465 68.3887C90.8904 68.3557 90.6432 68.2725 90.4192 68.1438C90.1951 68.0152 89.9986 67.8436 89.8407 67.6388C89.6829 67.434 89.5668 67.2001 89.4992 66.9504C89.4315 66.7006 89.4137 66.44 89.4466 66.1834C89.4795 65.9267 89.5625 65.6791 89.6909 65.4546C89.8193 65.2301 89.9906 65.0332 90.195 64.875C90.3993 64.7168 90.6328 64.6005 90.882 64.5328C91.1313 64.465 91.3914 64.4471 91.6475 64.4801C93.6153 64.7328 99.1732 64.0592 104.86 61.8094C108.474 60.3797 114.737 57.2246 116.074 52.1578C116.182 51.7516 116.416 51.3905 116.742 51.1271C117.069 50.8637 117.471 50.7118 117.89 50.6937C118.309 50.6756 118.723 50.7922 119.071 51.0264C119.419 51.2606 119.683 51.6002 119.825 51.9956C121.224 55.898 123.828 63.1613 122.25 69.4011C122.142 69.8259 121.897 70.2028 121.552 70.4721C121.207 70.7414 120.782 70.8877 120.345 70.8879Z" fill="black"/>
<path d="M142.565 205.84C149.197 205.455 156.179 201.234 163.691 199.094C167.121 198.116 183.115 203.996 183.907 205.684C185.004 208.024 182.874 210.952 180.027 211.476C176.929 212.046 166.779 212.636 163.048 214.581C159.516 216.423 152.221 222.179 142.512 220.647" fill="white"/>
<path d="M145.791 222.874C144.591 222.874 143.392 222.78 142.206 222.592C141.949 222.554 141.702 222.465 141.479 222.331C141.256 222.197 141.062 222.02 140.908 221.81C140.754 221.601 140.643 221.362 140.581 221.109C140.52 220.856 140.509 220.593 140.549 220.336C140.59 220.079 140.681 219.832 140.817 219.61C140.953 219.388 141.132 219.196 141.343 219.044C141.554 218.892 141.793 218.783 142.046 218.724C142.3 218.665 142.562 218.657 142.818 218.7C150.267 219.875 156.158 216.358 160.056 214.031C160.843 213.56 161.523 213.155 162.14 212.833C165.172 211.252 171.402 210.539 175.95 210.019C177.527 209.838 178.889 209.682 179.672 209.538C180.163 209.445 180.627 209.244 181.031 208.95C181.435 208.656 181.77 208.276 182.01 207.838C182.202 207.503 182.27 207.111 182.201 206.731C181.332 206.091 178.073 204.564 173.536 203.043C168.027 201.196 164.904 200.804 164.228 200.988C161.441 201.837 158.699 202.831 156.015 203.963C151.425 205.808 147.091 207.55 142.679 207.806C142.159 207.837 141.648 207.659 141.258 207.312C140.869 206.964 140.633 206.476 140.602 205.955C140.572 205.433 140.749 204.921 141.096 204.531C141.442 204.14 141.93 203.904 142.45 203.873C146.222 203.654 150.268 202.028 154.551 200.307C157.362 199.121 160.233 198.084 163.152 197.198C165.647 196.488 171.204 198.072 175.427 199.526C184.686 202.714 185.438 204.319 185.685 204.846C186.031 205.603 186.195 206.431 186.164 207.264C186.133 208.096 185.908 208.91 185.507 209.639C184.989 210.613 184.26 211.457 183.373 212.111C182.486 212.764 181.464 213.21 180.382 213.414C179.468 213.583 178.044 213.746 176.396 213.934C172.392 214.394 166.342 215.083 163.955 216.329C163.438 216.598 162.804 216.978 162.069 217.417C158.526 219.53 152.927 222.874 145.791 222.874Z" fill="black"/>
<path d="M93.5521 154.821C100.855 170.744 101.835 186.632 101.835 195.605C121.196 198.313 140.34 203.618 142.565 205.84L142.513 220.646C133.356 222.415 87.706 226.068 77.0893 214.595C70.289 207.247 64.1867 192.277 59.6937 165.962C58.9175 161.415 58.4447 153.744 62.0163 149.502" fill="white"/>
<path d="M114.359 224.598C113.012 224.598 111.661 224.584 110.307 224.555C92.2415 224.165 80.581 221.265 75.648 215.935C67.9857 207.655 61.9662 190.954 57.7559 166.295C56.9722 161.703 56.2878 153.251 60.5137 148.232C60.8499 147.833 61.3307 147.583 61.8502 147.539C62.3697 147.495 62.8855 147.66 63.284 147.996C63.6825 148.333 63.9311 148.815 63.9752 149.336C64.0192 149.856 63.8551 150.373 63.5189 150.772C60.1055 154.826 61.2113 163.17 61.6317 165.63C65.7108 189.523 71.3955 205.547 78.5309 213.256C87.705 223.171 128.048 220.921 140.554 218.984L140.596 206.856C136.908 204.876 119.973 200.13 101.565 197.556C101.095 197.49 100.665 197.256 100.353 196.898C100.042 196.539 99.8704 196.08 99.8704 195.605C99.8704 180.812 97.1437 167.367 91.7664 155.643C91.5487 155.168 91.5281 154.626 91.7092 154.136C91.8903 153.646 92.2582 153.249 92.732 153.03C93.2058 152.812 93.7467 152.792 94.2357 152.973C94.7247 153.154 95.1217 153.523 95.3394 153.998C100.746 165.786 103.586 179.202 103.79 193.896C112.316 195.154 120.771 196.857 129.12 198.998C134.902 200.498 142.168 202.661 143.954 204.444C144.138 204.628 144.284 204.847 144.383 205.087C144.482 205.328 144.533 205.586 144.532 205.846L144.48 220.652C144.478 221.109 144.318 221.55 144.028 221.902C143.737 222.253 143.334 222.493 142.886 222.579C138.352 223.456 126.665 224.598 114.359 224.598Z" fill="black"/>
<path d="M90.6066 200.283C90.1762 200.283 89.7576 200.142 89.4149 199.882C89.0722 199.621 88.8244 199.254 88.7095 198.839C88.5946 198.423 88.619 197.981 88.779 197.581C88.9389 197.181 89.2255 196.844 89.5948 196.623C93.2887 194.408 98.0481 193.267 102.021 193.645C102.54 193.695 103.017 193.949 103.349 194.352C103.68 194.754 103.839 195.272 103.789 195.792C103.74 196.311 103.487 196.79 103.085 197.123C102.684 197.455 102.167 197.615 101.649 197.566C97.8502 197.205 93.9741 198.588 91.6144 200.003C91.31 200.186 90.9616 200.283 90.6066 200.283Z" fill="black"/>
</g>
<g clip-path="url(#clip2_685_317)">
<path d="M220.196 109.943L267.625 109.739C268.965 109.733 270.049 108.642 270.045 107.301L269.86 41.2789C269.856 39.9386 268.767 38.8568 267.426 38.8626L219.998 39.0674C218.657 39.0732 217.574 40.1644 217.577 41.5047L217.762 107.527C217.766 108.867 218.855 109.949 220.196 109.943Z" fill="white"/>
<path d="M216.992 38.3124C217.801 37.542 218.875 37.1116 219.992 37.11L267.421 36.9046C267.997 36.9021 268.568 37.013 269.1 37.2311C269.633 37.4492 270.117 37.7702 270.526 38.1757C270.934 38.5812 271.259 39.0633 271.48 39.5944C271.702 40.1256 271.817 40.6954 271.819 41.2713L272.002 107.293C272.004 108.455 271.545 109.572 270.725 110.398C269.905 111.224 268.792 111.691 267.629 111.697L220.201 111.902C219.625 111.905 219.054 111.794 218.521 111.576C217.989 111.358 217.504 111.037 217.096 110.631C216.687 110.226 216.363 109.744 216.141 109.212C215.919 108.681 215.804 108.111 215.803 107.535L215.62 41.5128C215.616 40.9369 215.728 40.3658 215.946 39.8327C216.165 39.2996 216.488 38.815 216.895 38.4071C216.927 38.375 216.959 38.3435 216.992 38.3124ZM220.003 41.0246C219.941 41.0248 219.88 41.0372 219.824 41.0609C219.767 41.0847 219.715 41.1195 219.672 41.1633C219.628 41.207 219.594 41.2589 219.57 41.3159C219.547 41.3729 219.535 41.434 219.535 41.4956L219.719 107.518C219.72 107.58 219.732 107.641 219.756 107.698C219.779 107.754 219.814 107.806 219.858 107.849C219.901 107.893 219.953 107.927 220.01 107.95C220.067 107.974 220.128 107.986 220.19 107.985L267.619 107.78C267.743 107.78 267.862 107.73 267.95 107.641C268.038 107.553 268.087 107.434 268.087 107.309L267.902 41.2873C267.902 41.2257 267.89 41.1647 267.866 41.1079C267.842 41.051 267.808 40.9994 267.764 40.956C267.72 40.9126 267.668 40.8782 267.611 40.8549C267.554 40.8315 267.493 40.8196 267.432 40.8198L220.003 41.0246Z" fill="black"/>
<path d="M249.678 51.3942C249.875 51.2077 250.108 51.064 250.363 50.9722C250.618 50.8803 250.889 50.8424 251.159 50.8606C251.429 50.8789 251.692 50.953 251.932 51.0783C252.172 51.2036 252.383 51.3774 252.553 51.5886L259.281 60.0022C259.444 60.2025 259.565 60.4332 259.639 60.681C259.712 60.9287 259.736 61.1886 259.708 61.4456C259.68 61.7026 259.602 61.9517 259.477 62.1784C259.353 62.4052 259.185 62.6051 258.983 62.7667C258.781 62.9283 258.549 63.0483 258.301 63.1199C258.052 63.1915 257.792 63.2132 257.535 63.1838C257.279 63.1543 257.03 63.0743 256.805 62.9484C256.579 62.8224 256.381 62.6531 256.221 62.45L250.936 55.8416L238.393 69.8493C238.222 70.041 238.014 70.197 237.782 70.3085C237.55 70.4201 237.299 70.4848 237.042 70.4992C236.786 70.5136 236.529 70.4773 236.286 70.3923C236.044 70.3074 235.82 70.1755 235.629 70.0042C235.437 69.8328 235.282 69.6254 235.17 69.3938C235.059 69.1621 234.995 68.9108 234.981 68.6541C234.967 68.3975 235.004 68.1405 235.089 67.8978C235.174 67.6552 235.306 67.4316 235.478 67.24L249.566 51.5083C249.602 51.4691 249.639 51.431 249.678 51.3942Z" fill="black"/>
<path d="M260.397 94.6108L228.505 94.7486L260.397 94.6108Z" fill="white"/>
<path d="M227.159 93.3296C227.52 92.9856 228 92.793 228.499 92.7915L260.39 92.6528C260.647 92.6517 260.902 92.7013 261.139 92.7986C261.377 92.896 261.593 93.0393 261.776 93.2203C261.958 93.4013 262.103 93.6165 262.202 93.8536C262.301 94.0906 262.352 94.345 262.353 94.6021C262.354 94.8591 262.304 95.1139 262.206 95.3519C262.108 95.5898 261.965 95.8062 261.783 95.9888C261.602 96.1713 261.387 96.3165 261.149 96.4159C260.912 96.5152 260.658 96.567 260.401 96.5681L228.51 96.7068C228.118 96.7085 227.734 96.5924 227.409 96.3735C227.084 96.1545 226.832 95.8428 226.686 95.4788C226.541 95.1148 226.508 94.7153 226.592 94.332C226.676 93.9488 226.873 93.5995 227.158 93.3294L227.159 93.3296Z" fill="black"/>
<path d="M260.36 81.5234L234.995 81.6329L260.36 81.5234Z" fill="white"/>
<path d="M233.649 80.2132C234.011 79.8693 234.49 79.6768 234.989 79.6753L260.355 79.5659C260.612 79.5648 260.866 79.6144 261.104 79.7117C261.342 79.8091 261.558 79.9524 261.741 80.1334C262.109 80.4989 262.316 80.996 262.318 81.5152C262.319 82.0344 262.114 82.5332 261.748 82.9019C261.382 83.2706 260.885 83.4789 260.365 83.4812L235 83.5904C234.608 83.592 234.225 83.4759 233.899 83.2569C233.574 83.038 233.323 82.7263 233.177 82.3624C233.031 81.9984 232.998 81.599 233.083 81.2158C233.167 80.8326 233.364 80.4833 233.649 80.2132Z" fill="black"/>
</g>
<g clip-path="url(#clip3_685_317)">
<path d="M245.283 72.9787C252.173 72.9787 257.758 67.3933 257.758 60.5033C257.758 53.6133 252.173 48.0278 245.283 48.0278C238.393 48.0278 232.807 53.6133 232.807 60.5033C232.807 67.3933 238.393 72.9787 245.283 72.9787Z" fill="white"/>
<path d="M245.283 78.4904C241.725 78.4904 238.248 77.4355 235.289 75.459C232.331 73.4825 230.026 70.6733 228.665 67.3865C227.303 64.0998 226.947 60.4831 227.641 56.9939C228.335 53.5047 230.048 50.2996 232.564 47.784C235.079 45.2684 238.284 43.5553 241.774 42.8613C245.263 42.1672 248.879 42.5234 252.166 43.8848C255.453 45.2463 258.262 47.5518 260.239 50.5098C262.215 53.4678 263.27 56.9455 263.27 60.503C263.265 65.2721 261.369 69.8444 257.996 73.2167C254.624 76.5889 250.052 78.4856 245.283 78.4904ZM245.283 53.5396C243.906 53.5396 242.559 53.948 241.414 54.7131C240.269 55.4783 239.376 56.5658 238.849 57.8382C238.322 59.1106 238.184 60.5108 238.453 61.8615C238.722 63.2123 239.385 64.4531 240.359 65.4269C241.333 66.4008 242.573 67.064 243.924 67.3327C245.275 67.6014 246.675 67.4635 247.948 66.9364C249.22 66.4094 250.308 65.5169 251.073 64.3717C251.838 63.2266 252.246 61.8803 252.246 60.503C252.244 58.6569 251.51 56.887 250.204 55.5815C248.899 54.2761 247.129 53.5418 245.283 53.5396Z" fill="white"/>
</g>
<g clip-path="url(#clip4_685_317)">
<path d="M232.847 29.1091L185.418 29.1976C184.077 29.2001 182.991 30.2887 182.991 31.629L183.014 97.6516C183.014 98.9918 184.101 100.076 185.442 100.074L232.871 99.9854C234.211 99.9829 235.298 98.8943 235.297 97.554L235.275 31.5314C235.274 30.1911 234.187 29.1066 232.847 29.1091Z" fill="white"/>
<path d="M235.875 100.747C235.064 101.516 233.989 101.944 232.872 101.942L185.443 102.032C184.867 102.033 184.296 101.92 183.764 101.701C183.232 101.481 182.748 101.159 182.341 100.753C181.933 100.346 181.61 99.8634 181.39 99.3317C181.169 98.8 181.056 98.23 181.055 97.654L181.034 31.6324C181.035 30.4697 181.497 29.354 182.319 28.5303C183.141 27.7067 184.256 27.2422 185.418 27.239L232.847 27.1502C233.423 27.1489 233.993 27.2612 234.525 27.4806C235.058 27.6999 235.541 28.0221 235.949 28.4286C236.356 28.8351 236.679 29.318 236.9 29.8498C237.12 30.3815 237.234 30.9517 237.234 31.5276L237.255 97.5504C237.257 98.1264 237.144 98.6972 236.924 99.2297C236.704 99.7623 236.38 100.246 235.972 100.653C235.94 100.685 235.908 100.716 235.875 100.747ZM232.87 98.0279C232.932 98.0278 232.993 98.0156 233.05 97.992C233.107 97.9683 233.159 97.9337 233.202 97.89C233.246 97.8464 233.28 97.7946 233.304 97.7376C233.327 97.6807 233.339 97.6196 233.339 97.558L233.317 31.5352C233.317 31.4736 233.305 31.4126 233.282 31.3558C233.258 31.2989 233.223 31.2472 233.18 31.2037C233.136 31.1602 233.085 31.1257 233.028 31.1023C232.971 31.0788 232.91 31.0667 232.848 31.0668L185.418 31.1554C185.294 31.1558 185.175 31.2055 185.087 31.2936C184.999 31.3817 184.95 31.5009 184.95 31.6253L184.972 97.6476C184.972 97.7092 184.984 97.7702 185.008 97.8271C185.031 97.884 185.066 97.9357 185.11 97.9793C185.153 98.0228 185.205 98.0573 185.262 98.0808C185.319 98.1043 185.38 98.1163 185.441 98.1162L232.87 98.0279Z" fill="black"/>
<path d="M203.221 87.5857C203.024 87.7717 202.79 87.9148 202.535 88.006C202.28 88.0972 202.009 88.1345 201.739 88.1156C201.469 88.0967 201.206 88.0219 200.966 87.896C200.726 87.7701 200.516 87.5959 200.347 87.3843L193.639 78.9542C193.477 78.7534 193.356 78.5224 193.283 78.2745C193.21 78.0266 193.188 77.7666 193.216 77.5097C193.244 77.2527 193.323 77.0039 193.448 76.7774C193.573 76.551 193.742 76.3515 193.944 76.1904C194.146 76.0293 194.378 75.9098 194.627 75.8388C194.876 75.7679 195.136 75.7468 195.393 75.7769C195.649 75.807 195.897 75.8876 196.123 76.014C196.348 76.1405 196.546 76.3104 196.705 76.5139L201.973 83.1352L214.551 69.1583C214.723 68.9671 214.931 68.8115 215.163 68.7006C215.395 68.5897 215.647 68.5255 215.904 68.5117C216.16 68.498 216.417 68.5349 216.66 68.6205C216.902 68.706 217.125 68.8385 217.316 69.0103C217.507 69.1821 217.662 69.3899 217.773 69.6218C217.883 69.8537 217.947 70.1052 217.96 70.3619C217.974 70.6186 217.936 70.8755 217.851 71.1179C217.765 71.3604 217.632 71.5836 217.46 71.7748L203.334 87.4719C203.297 87.511 203.26 87.5489 203.221 87.5857Z" fill="black"/>
<path d="M192.608 44.3428L224.5 44.2833L192.608 44.3428Z" fill="white"/>
<path d="M225.843 45.7055C225.481 46.0487 225 46.2401 224.501 46.2403L192.611 46.3008C192.353 46.3012 192.099 46.2511 191.861 46.1531C191.624 46.0552 191.408 45.9114 191.226 45.7299C191.044 45.5485 190.9 45.3329 190.801 45.0956C190.703 44.8582 190.652 44.6038 190.652 44.3467C190.652 44.0896 190.703 43.835 190.801 43.5973C190.899 43.3596 191.043 43.1435 191.225 42.9614C191.407 42.7793 191.623 42.6347 191.86 42.5359C192.098 42.4371 192.352 42.386 192.609 42.3855L224.5 42.3251C224.893 42.3243 225.276 42.4413 225.601 42.6611C225.925 42.8808 226.176 43.1931 226.321 43.5575C226.466 43.9218 226.498 44.3214 226.412 44.7045C226.327 45.0875 226.129 45.4364 225.844 45.7058L225.843 45.7055Z" fill="black"/>
<path d="M192.613 57.4302L217.978 57.383L192.613 57.4302Z" fill="white"/>
<path d="M219.321 58.8059C218.958 59.149 218.478 59.3403 217.979 59.3405L192.614 59.3877C192.356 59.3881 192.102 59.338 191.864 59.24C191.627 59.1421 191.411 58.9983 191.229 58.8168C190.862 58.4504 190.655 57.9528 190.655 57.4336C190.655 56.9144 190.861 56.4161 191.228 56.0483C191.595 55.6805 192.093 55.4733 192.612 55.4724L217.978 55.4255C218.37 55.4247 218.753 55.5418 219.078 55.7616C219.402 55.9813 219.653 56.2936 219.798 56.6579C219.943 57.0222 219.975 57.4217 219.89 57.8047C219.804 58.1877 219.606 58.5365 219.321 58.8059Z" fill="black"/>
</g>
<g clip-path="url(#clip5_685_317)">
<path fill-rule="evenodd" clip-rule="evenodd" d="M204.386 219.915L221.191 220.019L226.676 185.958L230.321 186.741L227.23 179.588L223.773 174.821L200.863 175.489L196.738 180.84L195.707 185.636L198.551 186.247L204.386 219.915Z" fill="white"/>
<path d="M195.493 187.386C195.043 187.29 194.649 187.022 194.394 186.64C194.139 186.259 194.043 185.793 194.128 185.343L195.263 179.305C195.339 178.902 195.553 178.539 195.87 178.278C196.186 178.017 196.585 177.874 196.996 177.875L198.066 177.877L199.029 174.409C199.132 174.039 199.354 173.713 199.661 173.481C199.968 173.249 200.343 173.123 200.729 173.124L224.236 173.164C224.624 173.165 225.002 173.294 225.31 173.53C225.618 173.766 225.84 174.096 225.94 174.47L226.868 177.927L227.864 177.928C228.25 177.928 228.625 178.055 228.933 178.288C229.24 178.521 229.462 178.848 229.565 179.219L231.244 185.262C231.313 185.513 231.326 185.775 231.282 186.031C231.237 186.287 231.136 186.529 230.986 186.741C230.836 186.953 230.64 187.13 230.413 187.257C230.186 187.385 229.934 187.461 229.674 187.479C218.375 188.296 207.029 188.277 195.73 187.421C195.65 187.415 195.571 187.403 195.493 187.386ZM198.462 181.39L197.96 184.061C207.719 184.713 217.509 184.732 227.268 184.119L226.523 181.439L225.514 181.437C225.126 181.436 224.748 181.308 224.44 181.072C224.132 180.836 223.91 180.505 223.81 180.131L222.882 176.675L202.071 176.639L201.109 180.106C201.006 180.477 200.784 180.803 200.477 181.035C200.17 181.267 199.795 181.393 199.409 181.392L198.462 181.39Z" fill="black"/>
<path d="M204.295 221.692C204.17 221.665 204.045 221.637 203.921 221.609C203.578 221.532 203.266 221.355 203.025 221.101C202.783 220.846 202.624 220.526 202.566 220.18L196.889 186.166C196.815 185.708 196.927 185.239 197.199 184.863C197.471 184.487 197.882 184.234 198.342 184.159C198.801 184.083 199.273 184.192 199.652 184.462C200.032 184.731 200.29 185.139 200.369 185.597L205.847 218.424C210.41 219.297 215.095 219.305 219.657 218.446L224.796 185.654C224.828 185.424 224.907 185.203 225.026 185.003C225.146 184.803 225.304 184.629 225.492 184.491C225.68 184.353 225.893 184.253 226.12 184.198C226.347 184.143 226.583 184.133 226.814 184.169C227.045 184.206 227.266 184.287 227.465 184.409C227.664 184.532 227.837 184.692 227.974 184.881C228.11 185.07 228.208 185.284 228.26 185.511C228.313 185.738 228.32 185.973 228.281 186.202L222.953 220.2C222.899 220.55 222.739 220.874 222.496 221.131C222.253 221.389 221.938 221.567 221.591 221.642C215.899 222.9 209.999 222.917 204.295 221.692Z" fill="black"/>
</g>
<g clip-path="url(#clip6_685_317)">
<path d="M334.335 223.736H341.477V411.414H334.335V223.736Z" fill="black"/>
<path d="M341.476 413.383H334.335C333.814 413.383 333.314 413.175 332.946 412.806C332.577 412.437 332.37 411.937 332.37 411.415V223.736C332.37 223.214 332.577 222.713 332.946 222.344C333.314 221.975 333.814 221.768 334.335 221.768H341.476C341.998 221.768 342.497 221.975 342.866 222.344C343.235 222.713 343.442 223.214 343.442 223.736V411.415C343.442 411.937 343.235 412.437 342.866 412.806C342.497 413.175 341.998 413.383 341.476 413.383ZM336.301 409.446H339.511V225.704H336.301V409.446ZM294.025 223.736H301.167V411.415H294.025V223.736Z" fill="black"/>
<path d="M301.167 413.383H294.026C293.504 413.383 293.004 413.175 292.636 412.806C292.267 412.437 292.06 411.937 292.06 411.415V223.736C292.06 223.214 292.267 222.713 292.636 222.344C293.004 221.975 293.504 221.768 294.026 221.768H301.167C301.688 221.768 302.188 221.975 302.556 222.344C302.925 222.713 303.132 223.214 303.132 223.736V411.415C303.132 411.937 302.925 412.437 302.556 412.806C302.188 413.175 301.688 413.383 301.167 413.383ZM295.991 409.446H299.201V225.704H295.991V409.446Z" fill="black"/>
<path d="M233.653 411.405C233.653 410.357 234.052 409.349 234.769 408.586C235.486 407.822 236.467 407.362 237.512 407.298L294.025 402.941H341.477L362.441 407.131C363.496 407.242 364.472 407.74 365.182 408.529C365.892 409.318 366.285 410.343 366.286 411.405H233.654H233.653Z" fill="black"/>
<path d="M366.286 413.374H233.654C233.133 413.374 232.633 413.166 232.264 412.797C231.896 412.428 231.689 411.927 231.689 411.405C231.691 409.857 232.282 408.367 233.341 407.239C234.401 406.112 235.85 405.43 237.393 405.334L293.875 400.979C293.925 400.975 293.976 400.973 294.026 400.973H341.476C341.606 400.973 341.734 400.985 341.861 401.011L362.743 405.185C364.263 405.366 365.664 406.099 366.679 407.246C367.694 408.392 368.253 409.873 368.25 411.405C368.25 411.927 368.043 412.428 367.675 412.797C367.307 413.166 366.807 413.373 366.286 413.374ZM236.92 409.437H363.24C362.937 409.245 362.593 409.126 362.236 409.09C362.176 409.083 362.116 409.074 362.056 409.062L341.282 404.909H294.101L237.663 409.261C237.407 409.276 237.156 409.336 236.92 409.437Z" fill="black"/>
<path d="M341.477 233.296V231.118C341.477 229.227 339.947 227.695 338.059 227.695H249.004C247.117 227.695 245.587 229.227 245.587 231.118V233.296C245.587 235.186 247.117 236.719 249.004 236.719H338.059C339.947 236.719 341.477 235.186 341.477 233.296Z" fill="black"/>
<path d="M338.059 238.687H249.004C247.577 238.685 246.209 238.117 245.2 237.107C244.191 236.096 243.623 234.726 243.621 233.297V231.118C243.623 229.688 244.191 228.318 245.2 227.308C246.209 226.297 247.577 225.729 249.004 225.727H338.059C339.486 225.729 340.855 226.297 341.864 227.308C342.873 228.318 343.44 229.688 343.442 231.118V233.297C343.44 234.726 342.872 236.096 341.863 237.106C340.854 238.117 339.486 238.685 338.059 238.687ZM249.004 229.664C248.619 229.664 248.25 229.817 247.978 230.09C247.706 230.363 247.553 230.732 247.552 231.118V233.297C247.553 233.682 247.706 234.052 247.978 234.324C248.25 234.597 248.619 234.75 249.004 234.75H338.059C338.444 234.75 338.813 234.597 339.085 234.324C339.357 234.052 339.51 233.682 339.511 233.297V231.118C339.51 230.732 339.357 230.363 339.085 230.09C338.813 229.818 338.444 229.664 338.059 229.664H249.004Z" fill="black"/>
<path d="M360.96 220.433H153.48C150.538 220.433 148.154 222.821 148.154 225.767V227.514C148.154 230.46 150.538 232.847 153.48 232.847H360.96C363.902 232.847 366.286 230.46 366.286 227.514V225.767C366.286 222.821 363.902 220.433 360.96 220.433Z" fill="white"/>
<path d="M360.961 234.816H153.479C151.546 234.814 149.693 234.044 148.326 232.675C146.96 231.306 146.191 229.45 146.189 227.514V225.766C146.191 223.83 146.96 221.975 148.326 220.606C149.693 219.237 151.546 218.467 153.479 218.465H360.96C362.893 218.467 364.746 219.237 366.113 220.606C367.48 221.975 368.249 223.83 368.251 225.766V227.514C368.249 229.45 367.48 231.306 366.113 232.675C364.747 234.044 362.893 234.814 360.961 234.816ZM153.479 222.401C152.588 222.402 151.734 222.757 151.105 223.388C150.475 224.019 150.12 224.874 150.119 225.766V227.514C150.12 228.407 150.475 229.262 151.105 229.893C151.734 230.523 152.588 230.878 153.479 230.879H360.96C361.851 230.878 362.705 230.523 363.335 229.893C363.965 229.262 364.319 228.406 364.32 227.514V225.766C364.319 224.874 363.965 224.019 363.335 223.388C362.705 222.757 361.851 222.403 360.961 222.401H153.479Z" fill="black"/>
</g>
<g clip-path="url(#clip7_685_317)">
<path d="M121.92 390.393C120.032 389.171 118.104 388.048 116.167 386.957C114.23 385.865 112.275 384.815 110.308 383.798C106.374 381.764 102.401 379.834 98.387 378.008C94.3808 376.165 90.3308 374.437 86.2587 372.765C83.0764 371.464 76.6592 369.003 76.6592 369.003L70.7485 367.129L64.8358 369.003C64.8358 369.003 58.4183 371.464 55.2363 372.765C51.1642 374.437 47.1146 376.165 43.108 378.008C39.093 379.828 35.1197 381.758 31.1882 383.798C29.2224 384.815 27.2694 385.868 25.3292 386.957C23.3912 388.048 21.4647 389.171 19.5764 390.393C18.8158 390.886 18.2473 391.625 17.9659 392.487C17.6844 393.349 17.7073 394.282 18.0306 395.129C18.3538 395.976 18.9579 396.686 19.7416 397.141C20.5253 397.595 21.4411 397.766 22.3357 397.625C24.5569 397.275 26.7396 396.825 28.9108 396.345C31.082 395.865 33.2377 395.34 35.3803 394.785C39.6655 393.674 43.9113 392.458 48.1178 391.139C52.3303 389.836 56.499 388.418 60.6464 386.946C61.7022 386.569 62.7561 386.187 63.8079 385.799L66.0696 398.974C66.2069 400.153 66.7481 401.247 67.6009 402.072C68.4538 402.896 69.5655 403.398 70.7468 403.494C71.9281 403.398 73.0398 402.896 73.8926 402.072C74.7453 401.247 75.2865 400.153 75.4238 398.974L77.6854 385.799C78.738 386.186 79.7918 386.568 80.847 386.946C84.9944 388.418 89.1631 389.836 93.3756 391.139C97.5796 392.465 101.825 393.68 106.113 394.785C108.256 395.34 110.412 395.86 112.582 396.345C114.753 396.825 116.936 397.276 119.158 397.625C120.052 397.766 120.968 397.595 121.752 397.141C122.535 396.686 123.139 395.976 123.462 395.129C123.786 394.282 123.808 393.349 123.527 392.487C123.246 391.625 122.677 390.886 121.917 390.393H121.92Z" fill="black"/>
<path d="M21.531 414.714C27.2351 414.397 31.603 409.51 31.2871 403.797C30.9712 398.084 26.0911 393.709 20.387 394.026C14.683 394.342 10.3151 399.23 10.631 404.943C10.9469 410.655 15.827 415.03 21.531 414.714Z" fill="black"/>
<path d="M120.801 414.729C126.513 414.729 131.145 410.091 131.145 404.37C131.145 398.648 126.513 394.01 120.801 394.01C115.088 394.01 110.457 398.648 110.457 404.37C110.457 410.091 115.088 414.729 120.801 414.729Z" fill="black"/>
<path d="M70.8797 416C76.5925 416 81.2236 411.362 81.2236 405.64C81.2236 399.919 76.5925 395.28 70.8797 395.28C65.1669 395.28 60.5358 399.919 60.5358 405.64C60.5358 411.362 65.1669 416 70.8797 416Z" fill="black"/>
<path d="M64.3832 318.524H77.9302V371.737H64.3832V318.524Z" fill="white"/>
<path d="M77.9298 373.713H64.3832C63.8598 373.713 63.3578 373.505 62.9877 373.134C62.6176 372.764 62.4097 372.261 62.4097 371.737V318.524C62.4097 318 62.6176 317.497 62.9877 317.127C63.3578 316.756 63.8598 316.548 64.3832 316.548H77.9298C78.4532 316.548 78.9552 316.756 79.3253 317.127C79.6954 317.497 79.9033 318 79.9033 318.524V371.737C79.9033 372.261 79.6954 372.764 79.3253 373.134C78.9552 373.505 78.4532 373.713 77.9298 373.713ZM66.3567 369.76H75.9563V320.501H66.3567V369.76Z" fill="black"/>
<path d="M116.65 318.523H18.4423C15.7866 318.523 13.2398 317.467 11.362 315.586C9.4842 313.705 8.42926 311.155 8.42926 308.495C8.42943 305.835 9.48444 303.285 11.3622 301.404C13.24 299.523 15.7867 298.467 18.4423 298.467H116.65C119.306 298.467 121.853 299.523 123.73 301.404C125.608 303.285 126.663 305.835 126.663 308.495C126.663 308.676 126.658 308.858 126.648 309.039C126.509 311.601 125.395 314.012 123.536 315.776C121.676 317.54 119.212 318.523 116.65 318.523Z" fill="white"/>
<path d="M116.651 320.5H18.4422C15.2633 320.5 12.2146 319.235 9.96673 316.984C7.71888 314.733 6.45605 311.679 6.45605 308.495C6.45605 305.312 7.71888 302.258 9.96673 300.007C12.2146 297.755 15.2633 296.491 18.4422 296.491H116.651C119.828 296.494 122.875 297.76 125.122 300.011C127.369 302.261 128.633 305.312 128.637 308.495C128.637 308.713 128.631 308.931 128.619 309.148C128.452 312.214 127.118 315.1 124.892 317.211C122.666 319.323 119.717 320.5 116.651 320.5ZM18.4422 300.444C16.3101 300.444 14.2653 301.292 12.7577 302.802C11.2501 304.312 10.4031 306.36 10.4031 308.495C10.4031 310.631 11.2501 312.679 12.7577 314.189C14.2653 315.699 16.3101 316.547 18.4422 316.547H116.651C118.707 316.546 120.685 315.757 122.178 314.34C123.67 312.924 124.565 310.989 124.676 308.932C124.684 308.786 124.688 308.64 124.688 308.495C124.686 306.36 123.838 304.314 122.331 302.805C120.824 301.295 118.781 300.446 116.649 300.444H18.4422Z" fill="black"/>
<path d="M18.4422 298.468H32.0457L19.6836 256.514C19.1263 254.648 17.8532 253.079 16.1432 252.151C14.4332 251.223 12.4256 251.011 10.5601 251.562C8.69468 252.114 7.12343 253.383 6.19051 255.092C5.25759 256.801 5.03904 258.811 5.58274 260.682L16.7598 298.613C17.3156 298.518 17.8783 298.469 18.4422 298.468Z" fill="white"/>
<path d="M15.3636 300.859L3.68984 261.241C2.98987 258.866 3.26084 256.309 4.44315 254.133C5.62545 251.958 7.62225 250.342 9.99426 249.641C12.3663 248.94 14.9192 249.211 17.0914 250.395C19.2636 251.579 20.8772 253.579 21.5772 255.955L34.6863 300.444H18.4455C17.9923 300.446 17.54 300.485 17.0933 300.562L15.3636 300.859ZM12.6306 253.212C11.7945 253.212 10.9701 253.408 10.2228 253.784C9.47548 254.159 8.82584 254.704 8.32546 255.374C7.82508 256.045 7.48775 256.824 7.34024 257.648C7.19273 258.472 7.23912 259.319 7.47572 260.122L18.1929 296.494C18.2748 296.494 18.3574 296.491 18.4386 296.491H29.4055L17.7907 257.074C17.4607 255.959 16.7801 254.981 15.8503 254.285C14.9205 253.59 13.7912 253.213 12.6306 253.212Z" fill="black"/>
<path d="M27.2813 217.567L35.229 281.2C35.4613 283.077 34.981 284.973 33.8832 286.512C32.7855 288.051 31.1505 289.121 29.3022 289.51C27.4539 289.899 25.5272 289.578 23.9039 288.611C22.2806 287.645 21.0792 286.102 20.5378 284.29L2.52021 222.776C1.55032 219.549 1.89882 216.069 3.48915 213.1C5.07949 210.131 7.7816 207.916 11.0019 206.941C14.2221 205.965 17.6972 206.31 20.6636 207.9C23.63 209.489 25.8452 212.193 26.8225 215.417L26.8501 215.51C27.0461 216.183 27.1903 216.871 27.2813 217.567Z" fill="white"/>
<path d="M27.7362 291.655C25.6913 291.656 23.7011 290.994 22.0628 289.769C20.4245 288.543 19.2261 286.819 18.6468 284.855L0.624936 223.332C-0.498696 219.602 -0.0967536 215.577 1.74234 212.144C3.58143 208.711 6.70703 206.149 10.4315 205.024C14.156 203.899 18.1744 204.301 21.6025 206.143C25.0307 207.985 27.5878 211.116 28.7115 214.846L28.7391 214.939C28.9658 215.715 29.1327 216.508 29.2384 217.311L29.24 217.322L37.1871 280.955C37.4991 283.46 36.8046 285.987 35.2564 287.98C33.7081 289.973 31.4329 291.268 28.9312 291.58C28.5348 291.63 28.1357 291.655 27.7362 291.655ZM14.6656 208.358C12.9928 208.36 11.3436 208.753 9.84966 209.506C8.35575 210.26 7.05861 211.353 6.06195 212.699C5.06528 214.044 4.39674 215.605 4.10975 217.255C3.82276 218.906 3.9253 220.6 4.40917 222.204L22.4324 283.734C22.8345 285.069 23.7223 286.205 24.9201 286.916C26.118 287.627 27.5386 287.861 28.9011 287.574C30.2636 287.286 31.4686 286.497 32.2779 285.362C33.0871 284.227 33.4416 282.829 33.2713 281.445L25.3239 217.818C25.2456 217.224 25.1223 216.637 24.9552 216.063L24.9322 215.989C24.2632 213.783 22.9044 211.851 21.0559 210.477C19.2075 209.103 16.9673 208.361 14.6656 208.358Z" fill="black"/>
</g>
<g clip-path="url(#clip8_685_317)">
<path d="M212.206 220.39H162.259V213.428C162.259 212.559 163.044 211.835 164.062 211.768L210.098 208.696C211.236 208.62 212.206 209.386 212.206 210.357V220.39Z" fill="white"/>
<path d="M212.206 222.389H162.259C161.727 222.389 161.216 222.179 160.839 221.804C160.463 221.429 160.251 220.92 160.251 220.39V213.428C160.251 211.516 161.866 209.91 163.928 209.772L209.964 206.701C210.527 206.659 211.093 206.733 211.626 206.917C212.159 207.101 212.649 207.392 213.065 207.772C213.426 208.101 213.714 208.5 213.912 208.945C214.109 209.389 214.212 209.87 214.214 210.357V220.39C214.214 220.92 214.002 221.429 213.626 221.804C213.249 222.179 212.738 222.389 212.206 222.389ZM164.267 218.39H210.198V210.693L164.267 213.757V218.39Z" fill="black"/>
</g>
<g clip-path="url(#clip9_685_317)">
<path d="M327.655 211.778V177.598H296.831V211.778H290.795C288.503 211.778 286.306 212.688 284.685 214.308C283.065 215.928 282.155 218.125 282.155 220.417H342.331C342.331 218.125 341.421 215.928 339.801 214.308C338.181 212.688 335.983 211.778 333.692 211.778H327.655Z" fill="white"/>
<path d="M342.331 222.389H282.155C281.632 222.389 281.13 222.182 280.76 221.812C280.39 221.442 280.182 220.94 280.182 220.417C280.185 217.603 281.304 214.906 283.294 212.916C285.283 210.927 287.981 209.808 290.795 209.804H294.858V177.598C294.858 177.075 295.066 176.573 295.436 176.203C295.806 175.833 296.308 175.625 296.831 175.625H327.655C328.178 175.625 328.68 175.833 329.05 176.203C329.42 176.573 329.628 177.075 329.628 177.598V209.804H333.692C336.505 209.808 339.203 210.927 341.193 212.916C343.182 214.906 344.301 217.603 344.305 220.417C344.305 220.94 344.097 221.442 343.727 221.812C343.357 222.182 342.855 222.389 342.331 222.389ZM284.426 218.444H340.06C339.637 217.085 338.791 215.897 337.646 215.052C336.5 214.208 335.115 213.752 333.692 213.75H327.655C327.132 213.75 326.63 213.542 326.26 213.172C325.89 212.802 325.682 212.301 325.682 211.777V179.571H298.804V211.777C298.804 212.301 298.596 212.802 298.226 213.172C297.856 213.542 297.354 213.75 296.831 213.75H290.795C289.372 213.752 287.986 214.208 286.841 215.053C285.695 215.897 284.849 217.085 284.426 218.444Z" fill="black"/>
<path d="M327.655 213.751H296.831C296.308 213.751 295.806 213.543 295.436 213.173C295.066 212.803 294.858 212.301 294.858 211.778C294.858 211.254 295.066 210.753 295.436 210.383C295.806 210.013 296.308 209.805 296.831 209.805H327.655C328.178 209.805 328.68 210.013 329.05 210.383C329.42 210.753 329.628 211.254 329.628 211.778C329.628 212.301 329.42 212.803 329.05 213.173C328.68 213.543 328.178 213.751 327.655 213.751Z" fill="black"/>
<path d="M378.643 200.272L285.169 196.808L295.075 109.412L386.555 130.473L378.643 200.272Z" fill="white"/>
<path d="M378.644 202.245H378.57L285.095 198.78C284.824 198.77 284.557 198.704 284.312 198.586C284.068 198.468 283.85 198.301 283.673 198.095C283.495 197.889 283.363 197.648 283.283 197.389C283.203 197.129 283.177 196.856 283.208 196.586L293.115 109.189C293.146 108.913 293.235 108.647 293.377 108.407C293.518 108.168 293.709 107.961 293.936 107.801C294.163 107.64 294.421 107.529 294.694 107.476C294.966 107.422 295.247 107.426 295.518 107.489L386.998 128.55C387.47 128.658 387.886 128.937 388.166 129.333C388.446 129.728 388.57 130.213 388.516 130.695L380.603 200.494C380.549 200.976 380.319 201.421 379.958 201.743C379.596 202.066 379.128 202.245 378.644 202.245ZM287.369 194.915L376.888 198.233L384.396 132L296.787 111.83L287.369 194.915Z" fill="black"/>
<path d="M285.268 104.011L313.07 107.162C314.008 107.268 314.916 107.558 315.742 108.015C316.569 108.472 317.297 109.088 317.885 109.826C318.473 110.565 318.91 111.412 319.171 112.319C319.432 113.227 319.512 114.177 319.405 115.115L310.158 196.694C310.052 197.632 309.761 198.54 309.304 199.366C308.847 200.192 308.231 200.92 307.492 201.509C306.754 202.097 305.906 202.534 304.999 202.795C304.091 203.055 303.141 203.135 302.203 203.028L274.401 199.878L285.268 104.011Z" fill="white"/>
<path d="M303.019 205.048C302.672 205.047 302.326 205.028 301.981 204.989L274.178 201.838C273.921 201.809 273.672 201.729 273.445 201.604C273.218 201.478 273.019 201.309 272.857 201.107C272.696 200.904 272.576 200.671 272.504 200.422C272.433 200.173 272.411 199.913 272.44 199.655L283.307 103.788C283.366 103.268 283.629 102.793 284.038 102.467C284.448 102.141 284.97 101.991 285.49 102.05L313.292 105.201C315.707 105.475 317.914 106.696 319.428 108.597C320.942 110.498 321.639 112.923 321.365 115.337L312.118 196.916C311.862 199.151 310.794 201.214 309.116 202.713C307.439 204.212 305.269 205.043 303.019 205.048ZM302.425 201.069C303.8 201.223 305.18 200.825 306.261 199.964C307.343 199.102 308.039 197.846 308.197 196.472L317.444 114.895C317.521 114.214 317.464 113.525 317.275 112.866C317.085 112.208 316.768 111.593 316.341 111.057C315.914 110.521 315.386 110.075 314.787 109.743C314.187 109.411 313.528 109.201 312.847 109.123L287.006 106.193L276.583 198.139L302.425 201.069Z" fill="black"/>
</g>
<defs>
<clipPath id="clip0_685_317">
<rect width="212.251" height="152.402" fill="white" transform="translate(146.189)"/>
</clipPath>
<clipPath id="clip1_685_317">
<rect width="183.144" height="363.019" fill="white" transform="translate(41.5346 50.6919)"/>
</clipPath>
<clipPath id="clip2_685_317">
<rect width="88.6288" height="89.2829" fill="white" transform="translate(306.684 76.2993) rotate(136.517)"/>
</clipPath>
<clipPath id="clip3_685_317">
<rect width="35.9748" height="35.9748" fill="white" transform="translate(227.295 42.5156)"/>
</clipPath>
<clipPath id="clip4_685_317">
<rect width="88.6288" height="89.2829" fill="white" transform="translate(146.276 62.5405) rotate(-43.3422)"/>
</clipPath>
<clipPath id="clip5_685_317">
<rect width="36.6289" height="51.6729" fill="white" transform="translate(197.812 167.446) rotate(12.1288)"/>
</clipPath>
<clipPath id="clip6_685_317">
<rect width="222.063" height="194.918" fill="white" transform="translate(146.189 218.465)"/>
</clipPath>
<clipPath id="clip7_685_317">
<rect width="131.145" height="211.597" fill="white" transform="translate(0 204.403)"/>
</clipPath>
<clipPath id="clip8_685_317">
<rect width="53.9622" height="15.6981" fill="white" transform="translate(160.251 206.691)"/>
</clipPath>
<clipPath id="clip9_685_317">
<rect width="116.101" height="120.352" fill="white" transform="translate(272.427 102.038)"/>
</clipPath>
</defs>
</svg>
