<svg width="559" height="369" viewBox="0 0 559 369" fill="none" xmlns="http://www.w3.org/2000/svg">
<g clip-path="url(#clip0_628_257)">
<path d="M233.099 306.095C227.467 289.409 204.451 270.844 192.362 257.075C186.42 250.307 160.436 224.052 154.048 218.812C137.76 205.451 118.768 205.907 108.981 221.898C97.071 242.725 85.8216 285.846 74.9555 312.527L102.495 319.138C117.648 295.417 142.165 273.395 130.316 259.77C133.659 268.871 176.013 356.714 219.686 351.289C227.682 351.668 246.04 332.912 233.099 306.094V306.095Z" fill="#C04040"/>
<path d="M215.79 353.591C206.452 353.591 196.632 349.774 186.533 342.208C177.275 335.273 167.748 325.177 158.217 312.198C148.151 298.493 139.927 284.073 134.638 273.805C134.185 275.4 133.554 277.07 132.744 278.817C129.416 285.996 123.458 293.874 117.149 302.215C112.728 308.06 108.156 314.105 104.231 320.249C104.001 320.61 103.663 320.891 103.266 321.051C102.868 321.212 102.431 321.244 102.014 321.143L74.4747 314.532C74.186 314.463 73.9157 314.332 73.6822 314.149C73.4488 313.965 73.2577 313.734 73.1222 313.469C72.9866 313.205 72.9097 312.914 72.8968 312.618C72.8839 312.321 72.9353 312.025 73.0474 311.75C77.2215 301.501 81.3821 289.022 85.7866 275.811C92.6683 255.172 99.7838 233.83 107.193 220.875C107.203 220.857 107.214 220.839 107.224 220.822C111.705 213.5 118.17 208.938 125.918 207.628C135.407 206.024 145.861 209.43 155.354 217.218C161.927 222.609 187.824 248.782 193.91 255.714C197.285 259.558 201.547 263.804 206.059 268.3C217.645 279.844 230.772 292.924 235.01 305.313C244.183 324.435 237.435 338.219 234.101 343.264C230.094 349.328 224.238 353.451 219.778 353.355C218.454 353.513 217.123 353.591 215.79 353.591ZM135.376 266.08C140.088 275.869 149.448 293.294 161.538 309.756C175.869 329.271 197.546 351.956 219.433 349.243C219.549 349.229 219.667 349.224 219.784 349.23C222.338 349.354 227.019 346.504 230.663 340.99C233.615 336.523 239.581 324.268 231.244 306.991C231.207 306.914 231.174 306.835 231.147 306.755C227.264 295.248 214.453 282.484 203.151 271.222C198.589 266.677 194.279 262.383 190.814 258.436C185.066 251.888 159.105 225.626 152.742 220.407C144.183 213.386 134.901 210.293 126.605 211.694C120.075 212.798 114.595 216.69 110.755 222.949C103.554 235.553 96.5095 256.682 89.6962 277.117C85.5819 289.457 81.6795 301.161 77.7572 311.08L101.557 316.794C105.378 310.945 109.687 305.248 113.863 299.727C123.482 287.01 132.057 275.672 131.325 267.14C129.82 263.985 128.816 261.665 128.382 260.483C128.215 260.03 128.212 259.534 128.374 259.079C128.536 258.625 128.851 258.241 129.266 257.996C129.681 257.75 130.169 257.658 130.645 257.735C131.121 257.813 131.554 258.054 131.87 258.418C133.843 260.686 135.011 263.23 135.377 266.081L135.376 266.08Z" fill="#C04040"/>
<path d="M103.626 317.396C102.282 323.382 96.471 349.087 96.471 349.087L37.634 349.347C37.634 349.347 37.1917 343.564 37.473 340.439C37.8473 336.283 36.9118 331.98 47.3235 329.316C69.4342 323.657 74.6492 312.499 74.6492 312.499L103.626 317.396L103.626 317.396Z" fill="white"/>
<path d="M37.6344 351.409C37.1151 351.409 36.6151 351.213 36.2342 350.86C35.8533 350.507 35.6196 350.023 35.58 349.505C35.5614 349.262 35.128 343.512 35.421 340.254C35.4577 339.847 35.4807 339.438 35.5041 339.03C35.7847 334.134 36.8294 329.873 46.8132 327.318C67.7384 321.962 72.7349 311.728 72.783 311.625C72.9741 311.217 73.2936 310.882 73.6927 310.673C74.0917 310.464 74.5483 310.391 74.9926 310.466L103.97 315.363C104.245 315.409 104.509 315.512 104.744 315.664C104.979 315.816 105.181 316.014 105.337 316.246C105.493 316.479 105.6 316.741 105.652 317.016C105.703 317.291 105.698 317.574 105.637 317.847C104.308 323.767 98.5392 349.285 98.4812 349.542C98.3784 349.996 98.1246 350.403 97.7612 350.695C97.3979 350.987 96.9463 351.147 96.4803 351.149L37.6437 351.409H37.6344V351.409ZM75.6998 314.767C73.4802 318.113 66.2489 326.6 47.8349 331.313C39.9594 333.329 39.8165 335.819 39.6191 339.266C39.5956 339.719 39.5646 340.172 39.526 340.624C39.3605 342.464 39.4673 345.369 39.5696 347.277L94.8236 347.033C96.9312 337.711 99.0364 328.389 101.139 319.066L75.7001 314.767L75.6998 314.767Z" fill="black"/>
<path d="M97.8221 342.777H37.722C37.1755 342.777 36.6513 342.56 36.2649 342.173C35.8785 341.787 35.6614 341.262 35.6614 340.715C35.6614 340.168 35.8785 339.644 36.2649 339.257C36.6513 338.871 37.1755 338.654 37.722 338.654H97.8221C98.3686 338.654 98.8927 338.871 99.2792 339.257C99.6656 339.644 99.8827 340.168 99.8827 340.715C99.8827 341.262 99.6656 341.787 99.2792 342.173C98.8927 342.56 98.3686 342.777 97.8221 342.777Z" fill="black"/>
<path d="M51.8026 342.777C51.2561 342.777 50.7319 342.56 50.3455 342.173C49.9591 341.787 49.742 341.262 49.742 340.715V328.689C49.742 328.142 49.9591 327.617 50.3455 327.231C50.7319 326.844 51.2561 326.627 51.8026 326.627C52.3491 326.627 52.8732 326.844 53.2596 327.231C53.646 327.617 53.8631 328.142 53.8631 328.689V340.715C53.8631 341.262 53.646 341.787 53.2596 342.173C52.8732 342.56 52.3491 342.777 51.8026 342.777ZM62.2188 333.709C61.7658 333.708 61.3257 333.559 60.9663 333.283C60.6069 333.007 60.3482 332.62 60.2303 332.183L58.5705 326.019C58.4284 325.491 58.5016 324.928 58.7742 324.454C59.0468 323.98 59.4963 323.634 60.0239 323.492C61.1229 323.192 62.2535 323.846 62.5495 324.946L64.2093 331.11C64.2917 331.416 64.3027 331.736 64.2413 332.047C64.1799 332.358 64.0478 332.65 63.8553 332.901C63.6628 333.153 63.4149 333.356 63.1311 333.496C62.8472 333.636 62.5349 333.709 62.2184 333.709H62.2188ZM70.0064 330.937C69.6545 330.937 69.3083 330.847 69.001 330.676C68.6936 330.504 68.4353 330.257 68.2508 329.957L64.1296 323.274C63.9875 323.043 63.8922 322.787 63.849 322.52C63.8059 322.253 63.8158 321.979 63.8782 321.716C63.9406 321.453 64.0542 321.204 64.2126 320.984C64.371 320.765 64.5711 320.579 64.8014 320.437C65.0317 320.294 65.2877 320.199 65.5548 320.156C65.822 320.112 66.095 320.122 66.3584 320.185C66.6217 320.247 66.8702 320.361 67.0896 320.519C67.309 320.678 67.495 320.878 67.6371 321.109L71.7582 327.792C71.9509 328.104 72.0568 328.462 72.0649 328.829C72.0731 329.196 71.9833 329.558 71.8048 329.879C71.6262 330.199 71.3654 330.466 71.0493 330.652C70.7331 330.838 70.3731 330.936 70.0064 330.937ZM77.329 324.875C76.9721 324.875 76.6214 324.782 76.3114 324.605L68.985 320.432C68.7498 320.298 68.5433 320.119 68.3773 319.905C68.2112 319.692 68.0888 319.447 68.0172 319.186C67.9456 318.925 67.926 318.652 67.9597 318.383C67.9934 318.115 68.0796 317.855 68.2135 317.62C68.3474 317.385 68.5263 317.178 68.74 317.012C68.9537 316.846 69.198 316.723 69.459 316.652C69.7199 316.58 69.9925 316.56 70.261 316.594C70.5295 316.628 70.7888 316.714 71.024 316.848L78.3503 321.021C78.7459 321.246 79.0559 321.596 79.232 322.016C79.4081 322.435 79.4403 322.902 79.3237 323.342C79.2071 323.782 78.9482 324.171 78.5873 324.448C78.2265 324.726 77.784 324.876 77.329 324.875ZM83.057 342.637C82.7734 342.637 82.4928 342.579 82.2327 342.466C81.9726 342.352 81.7387 342.187 81.5456 341.979C81.3525 341.771 81.2043 341.526 81.1104 341.258C81.0165 340.99 80.9789 340.706 80.9999 340.423C81.1057 338.995 82.0408 335.48 84.8233 332.393C87.399 329.537 92.3259 326.267 101.174 326.892C101.444 326.911 101.707 326.984 101.949 327.105C102.191 327.226 102.407 327.393 102.585 327.598C102.762 327.803 102.897 328.04 102.983 328.297C103.068 328.554 103.102 328.825 103.083 329.095C103.002 330.231 102.018 331.08 100.881 331.006C86.5518 329.99 85.1176 340.62 85.1097 340.727C85.0713 341.246 84.8384 341.731 84.4578 342.085C84.0771 342.439 83.5768 342.636 83.057 342.637Z" fill="black"/>
<path d="M231.134 350.375C191.155 360.168 168.708 332.151 131.232 302.13C128.35 309.919 102.867 318.644 70.8502 324.499L51.4608 310.863C51.4608 310.863 100.859 274.302 120.982 263.13C126.329 260.16 136.465 259.722 142.165 261.939C168.708 272.261 206.178 296.785 223.124 301.411C227.409 304.999 259.407 321.392 251.335 335.509C246.985 343.117 240.979 347.5 231.135 350.375H231.134Z" fill="#C04040"/>
<path d="M215.454 354.423C189.947 354.423 170.912 338.246 147.832 318.632C142.705 314.275 137.42 309.784 131.781 305.219C122.977 316.284 83.7247 324.24 71.2204 326.527C70.9515 326.576 70.6755 326.571 70.4084 326.513C70.1414 326.454 69.8887 326.343 69.665 326.186L50.2757 312.55C50.0086 312.362 49.7899 312.114 49.6377 311.825C49.4854 311.536 49.404 311.215 49.4 310.888C49.3961 310.562 49.4697 310.239 49.6149 309.946C49.7601 309.654 49.9727 309.4 50.2351 309.206C52.2566 307.709 99.972 272.437 119.982 261.327C125.752 258.123 136.467 257.511 142.912 260.017C155.908 265.071 171.155 273.312 185.899 281.282C200.952 289.418 215.17 297.103 223.666 299.423C223.952 299.501 224.218 299.64 224.446 299.831C225.088 300.368 226.722 301.412 228.614 302.621C239.052 309.288 260.77 323.162 253.124 336.533C248.521 344.584 242.117 349.316 231.712 352.355C231.683 352.363 231.654 352.371 231.625 352.378C225.921 353.775 220.556 354.423 215.454 354.423H215.454ZM131.232 300.069C131.695 300.069 132.15 300.225 132.519 300.521C138.9 305.632 144.797 310.644 150.5 315.49C178.336 339.145 198.448 356.239 230.6 348.384C239.984 345.636 245.475 341.607 249.546 334.486C255.243 324.524 235.028 311.611 226.396 306.096C224.504 304.887 223.067 303.97 222.169 303.286C213.189 300.719 198.975 293.037 183.94 284.91C169.307 277 154.175 268.822 141.418 263.861C136.126 261.803 126.679 262.324 121.981 264.932C104.676 274.541 64.9669 303.498 54.9889 310.825L71.3272 322.315C108.372 315.461 127.345 306.695 129.299 301.415C129.445 301.02 129.708 300.679 130.054 300.438C130.399 300.198 130.81 300.069 131.231 300.069L131.232 300.069Z" fill="#C04040"/>
<path d="M71.6301 325.062C71.6301 325.062 66.3444 337.724 64.6784 343.895L62.2899 352.173L2.06023 352.43C2.06023 352.43 2.10556 347.044 2.38648 343.919C2.7203 340.21 5.40283 334.201 14.1915 331.571C17.4486 330.596 21.8967 328.784 25.0865 327.607C34.8382 324.009 51.4601 310.863 51.4601 310.863L71.6298 325.062H71.6301Z" fill="white"/>
<path d="M2.06058 354.492C1.78853 354.492 1.51918 354.438 1.26807 354.333C1.01696 354.228 0.789066 354.075 0.59753 353.881C0.405993 353.688 0.254609 353.459 0.152113 353.207C0.0496167 352.954 -0.00196332 352.685 0.000349104 352.412C0.00206625 352.189 0.0494595 346.906 0.334849 343.734C0.789207 338.683 4.51336 332.316 13.6019 329.596C15.8517 328.922 18.776 327.803 21.3562 326.815C22.4277 326.405 23.4528 326.013 24.3742 325.673C33.7049 322.229 50.0195 309.375 50.1833 309.246C50.5317 308.97 50.9597 308.814 51.4036 308.802C51.8475 308.79 52.2835 308.921 52.6467 309.177L72.8163 323.375C73.2001 323.645 73.4803 324.039 73.6104 324.49C73.7406 324.941 73.7129 325.423 73.532 325.856C73.4795 325.981 68.2796 338.464 66.6683 344.432L66.6586 344.467L64.2701 352.745C64.1465 353.173 63.8877 353.55 63.5324 353.818C63.1771 354.087 62.7444 354.233 62.2991 354.235L2.06951 354.492H2.06058ZM51.522 313.427C47.4578 316.556 34.3041 326.404 25.8001 329.542C24.8931 329.877 23.8835 330.263 22.8284 330.667C20.181 331.68 17.1801 332.829 14.7829 333.546C7.66535 335.677 4.77299 340.397 4.43952 344.104C4.27708 345.909 4.19534 348.537 4.1555 350.359L60.7386 350.119L62.6944 343.34C64.0506 338.327 67.6323 329.384 69.0977 325.799L51.5223 313.427H51.522Z" fill="black"/>
<path d="M64.5094 346.213H2.34871C1.80221 346.213 1.27809 345.996 0.891661 345.609C0.505228 345.223 0.288132 344.698 0.288132 344.152C0.288132 343.605 0.505228 343.08 0.891661 342.694C1.27809 342.307 1.80221 342.09 2.34871 342.09H64.5094C65.0559 342.09 65.58 342.307 65.9665 342.694C66.3529 343.08 66.57 343.605 66.57 344.152C66.57 344.698 66.3529 345.223 65.9665 345.609C65.58 345.996 65.0559 346.213 64.5094 346.213Z" fill="black"/>
<path d="M17.1162 346.213C16.5697 346.213 16.0456 345.996 15.6591 345.609C15.2727 345.223 15.0556 344.698 15.0556 344.151V331.437C15.0556 330.891 15.2727 330.366 15.6591 329.98C16.0456 329.593 16.5697 329.376 17.1162 329.376C17.6627 329.376 18.1868 329.593 18.5732 329.98C18.9597 330.366 19.1768 330.891 19.1768 331.437V344.151C19.1768 344.698 18.9597 345.223 18.5732 345.609C18.1868 345.996 17.6627 346.213 17.1162 346.213ZM30.5103 335.722C30.0906 335.722 29.681 335.594 29.3361 335.355C28.9912 335.116 28.7275 334.777 28.5802 334.384L25.8881 327.195C25.7931 326.941 25.749 326.671 25.7582 326.401C25.7675 326.13 25.8299 325.864 25.9419 325.618C26.0539 325.371 26.2134 325.149 26.4112 324.964C26.6089 324.78 26.8411 324.636 27.0945 324.541C27.3479 324.445 27.6175 324.401 27.888 324.41C28.1585 324.42 28.4245 324.482 28.6708 324.594C28.9172 324.706 29.139 324.866 29.3237 325.064C29.5084 325.262 29.6523 325.494 29.7472 325.748L32.4393 332.937C32.5343 333.19 32.5784 333.46 32.5692 333.731C32.5599 334.001 32.4975 334.267 32.3855 334.514C32.2734 334.76 32.114 334.982 31.9162 335.167C31.7185 335.352 31.4862 335.496 31.2328 335.591C31.0019 335.678 30.7571 335.723 30.5103 335.723V335.722ZM39.2121 331.412C38.869 331.412 38.5312 331.327 38.2295 331.164C37.9277 331 37.6716 330.764 37.4843 330.476L33.2213 323.94C32.9258 323.482 32.8235 322.925 32.9369 322.392C33.0503 321.859 33.3702 321.392 33.8264 321.095C34.2827 320.797 34.8383 320.692 35.3717 320.803C35.9051 320.914 36.3729 321.231 36.6728 321.686L40.9358 328.223C41.1386 328.534 41.2538 328.894 41.2692 329.265C41.2845 329.636 41.1994 330.004 41.0228 330.331C40.8463 330.658 40.5848 330.931 40.2661 331.121C39.9474 331.311 39.5832 331.412 39.2121 331.412ZM47.9108 325.57C47.6367 325.57 47.3653 325.516 47.1126 325.41C46.8599 325.304 46.6309 325.148 46.4392 324.952L40.6583 319.053C40.2756 318.663 40.0637 318.136 40.069 317.589C40.0744 317.042 40.2966 316.52 40.6868 316.137C41.077 315.754 41.6032 315.542 42.1497 315.548C42.6962 315.553 43.2181 315.775 43.6008 316.166L49.3817 322.065C49.6658 322.355 49.8581 322.722 49.9344 323.121C50.0106 323.52 49.9675 323.932 49.8104 324.307C49.6533 324.681 49.3892 325.001 49.0513 325.225C48.7134 325.45 48.3166 325.57 47.9108 325.57ZM47.6842 346.073C47.3868 346.074 47.0929 346.01 46.8226 345.886C46.5523 345.762 46.3121 345.581 46.1183 345.355C45.9246 345.129 45.782 344.864 45.7002 344.578C45.6185 344.292 45.5996 343.992 45.6449 343.698C46.3067 339.394 51.6985 328.614 68.4726 330.392C69.0099 330.457 69.5001 330.731 69.8372 331.155C70.1744 331.578 70.3314 332.118 70.2744 332.656C70.2175 333.195 69.9511 333.689 69.5328 334.033C69.1145 334.377 68.5779 334.542 68.0389 334.493C51.9495 332.782 49.7361 344.209 49.7183 344.325C49.6435 344.811 49.3973 345.255 49.0243 345.575C48.6513 345.896 48.176 346.073 47.6842 346.073ZM205.721 353.592C205.36 353.592 205.006 353.497 204.693 353.317C204.381 353.136 204.121 352.877 203.94 352.565C203.759 352.253 203.663 351.899 203.662 351.538C203.661 351.177 203.754 350.822 203.933 350.508L207.876 343.595C208.122 343.164 208.515 342.836 208.983 342.671L227.814 336.052C228.302 335.88 228.836 335.899 229.311 336.103C229.786 336.307 230.166 336.682 230.378 337.154L235.561 348.731C235.773 349.228 235.782 349.789 235.585 350.292C235.388 350.796 235.001 351.202 234.508 351.423C234.015 351.644 233.455 351.662 232.949 351.474C232.442 351.286 232.03 350.907 231.8 350.417L227.392 340.571L211.074 346.307L207.512 352.552C207.332 352.868 207.071 353.131 206.756 353.314C206.442 353.496 206.084 353.593 205.72 353.592L205.721 353.592ZM204.202 290.381C203.879 290.381 203.561 290.305 203.272 290.159C197.293 287.13 190.808 283.625 183.942 279.913C169.308 272.004 154.176 263.825 141.418 258.863C136.126 256.805 126.68 257.326 121.981 259.935C114.27 264.217 103.094 271.54 86.809 282.98C86.5878 283.139 86.337 283.254 86.0712 283.316C85.8054 283.378 85.5299 283.387 85.2607 283.342C84.9916 283.296 84.734 283.198 84.5031 283.052C84.2722 282.907 84.0726 282.717 83.9157 282.493C83.7589 282.27 83.648 282.017 83.5895 281.75C83.5309 281.484 83.526 281.208 83.5749 280.939C83.6237 280.671 83.7255 280.414 83.8742 280.185C84.0229 279.956 84.2156 279.759 84.4411 279.605C100.848 268.079 112.141 260.684 119.982 256.33C125.752 253.125 136.467 252.514 142.912 255.02C155.909 260.074 171.156 268.315 185.901 276.285C192.743 279.983 199.205 283.476 205.135 286.48C205.548 286.689 205.879 287.032 206.074 287.453C206.269 287.874 206.316 288.348 206.209 288.799C206.101 289.25 205.844 289.652 205.48 289.939C205.116 290.226 204.666 290.382 204.202 290.381H204.202ZM131.478 306.729C131.112 306.729 130.754 306.631 130.438 306.447C130.123 306.262 129.862 305.997 129.683 305.679L126.248 299.58C125.98 299.103 125.912 298.54 126.059 298.013C126.206 297.486 126.556 297.04 127.032 296.771C127.508 296.503 128.071 296.435 128.598 296.582C129.124 296.729 129.571 297.079 129.839 297.555L131.289 300.131L133.383 295.561C133.614 295.069 134.029 294.689 134.539 294.503C135.049 294.316 135.612 294.339 136.105 294.565C136.599 294.791 136.983 295.203 137.175 295.711C137.366 296.219 137.35 296.783 137.129 297.279L133.351 305.526C133.186 305.884 132.922 306.189 132.59 306.402C132.258 306.615 131.872 306.728 131.477 306.728L131.478 306.729Z" fill="black"/>
<path d="M135.493 213.665C133.574 206.514 132.509 203.49 130.219 194.421C128.899 189.193 125.554 183.711 125.554 183.711C125.554 183.711 121.595 183.576 122.151 189.209C122.405 191.775 123.086 195.278 119.983 196.029C114.005 197.476 105.637 181.265 104.462 181.917C101.469 183.577 98.9843 186.171 100.431 189.658C101.336 191.84 100.562 193.693 101.319 195.184C103.061 198.616 100.416 201.9 109.532 210.236C113.556 213.917 117.586 217.592 121.622 221.261L135.493 213.664V213.665Z" fill="white"/>
<path d="M121.622 223.323C121.11 223.324 120.616 223.133 120.237 222.788C120.185 222.741 114.983 218.015 108.141 211.758C101.071 205.292 100.494 201.36 100.073 198.489C99.9339 197.54 99.824 196.792 99.4819 196.118C98.9032 194.979 98.8867 193.836 98.872 192.829C98.8593 191.967 98.8486 191.222 98.5279 190.449C96.8997 186.525 98.6982 182.758 103.463 180.114C105.214 179.143 106.624 180.838 107.154 181.476C107.73 182.17 108.431 183.135 109.243 184.253C110.862 186.483 112.877 189.258 114.954 191.345C117.691 194.094 119.044 194.136 119.498 194.026C120.293 193.833 120.515 193.213 120.175 190.11C120.148 189.872 120.123 189.639 120.101 189.413C119.841 186.784 120.376 184.739 121.691 183.335C123.297 181.622 125.391 181.644 125.625 181.652C125.966 181.663 126.298 181.759 126.593 181.931C126.888 182.104 127.135 182.346 127.313 182.638C127.456 182.873 130.836 188.449 132.217 193.916C133.599 199.392 134.514 202.584 135.482 205.965C136.093 208.099 136.725 210.305 137.483 213.131C137.603 213.577 137.57 214.05 137.388 214.475C137.207 214.9 136.888 215.252 136.483 215.473L122.612 223.07C122.308 223.236 121.968 223.323 121.623 223.323H121.622ZM104.268 184.464C101.36 186.521 102.08 188.255 102.334 188.868C102.957 190.371 102.977 191.7 102.992 192.769C103.002 193.409 103.01 193.963 103.156 194.251C103.803 195.525 103.979 196.728 104.15 197.89C104.518 200.398 104.935 203.24 110.922 208.715C114.584 212.064 118.25 215.408 121.921 218.748L133.079 212.636C132.571 210.788 132.051 208.942 131.52 207.1C130.586 203.838 129.62 200.464 128.221 194.926C127.388 191.626 125.655 188.148 124.622 186.244C124.225 186.757 124.076 187.732 124.202 189.007C124.223 189.219 124.247 189.437 124.271 189.659C124.55 192.197 125.067 196.92 120.468 198.034C120.05 198.134 119.622 198.185 119.193 198.185C114.266 198.186 109.481 191.594 105.909 186.677C105.37 185.935 104.75 185.08 104.268 184.464Z" fill="black"/>
<path d="M227.423 203.466C216.948 201.079 187.891 217.974 175.265 223.744C158.426 215.784 138.944 209.766 133.816 207.681C131.096 210.605 125.404 217.377 121.622 221.261C125 224.565 155.322 255.646 170.699 257.885C190.156 260.717 227.665 249.495 233.094 247.027" fill="white"/>
<path d="M177.63 260.391C175.039 260.391 172.609 260.246 170.403 259.925C157.945 258.111 136.731 239.211 121.129 223.676C120.815 223.361 120.499 223.048 120.182 222.736C119.792 222.355 119.569 221.833 119.562 221.287C119.555 220.741 119.765 220.214 120.146 219.823C122.41 217.498 125.38 214.11 128 211.121C129.729 209.148 131.222 207.444 132.308 206.277C132.592 205.971 132.963 205.758 133.371 205.668C133.779 205.578 134.205 205.614 134.592 205.771C135.946 206.322 138.428 207.188 141.57 208.285C149.694 211.121 163.162 215.822 175.277 221.472C187.167 216.038 196.664 211.69 206.699 206.773C206.942 206.654 207.206 206.584 207.476 206.567C207.747 206.55 208.017 206.586 208.273 206.674C208.529 206.761 208.766 206.899 208.969 207.078C209.172 207.257 209.337 207.474 209.456 207.718C209.575 207.961 209.645 208.225 209.662 208.495C209.679 208.765 209.643 209.036 209.555 209.293C209.468 209.549 209.33 209.785 209.151 209.988C208.972 210.191 208.755 210.357 208.512 210.476C198.184 215.537 188.448 219.986 176.122 225.619C175.85 225.744 175.553 225.807 175.253 225.805C174.953 225.804 174.657 225.736 174.386 225.608C162.248 219.87 148.454 215.055 140.213 212.178C137.851 211.354 135.855 210.657 134.389 210.111C133.449 211.157 132.298 212.47 131.099 213.839C128.953 216.288 126.575 219.001 124.507 221.22C153.094 249.607 165.899 255.102 170.997 255.845C189.976 258.608 226.725 247.658 232.242 245.15C232.74 244.924 233.307 244.905 233.818 245.097C234.33 245.289 234.744 245.676 234.971 246.174C235.083 246.42 235.145 246.686 235.154 246.957C235.164 247.228 235.119 247.497 235.024 247.751C234.929 248.004 234.785 248.237 234.601 248.435C234.416 248.632 234.194 248.792 233.948 248.904C228.88 251.208 198.266 260.389 177.631 260.391H177.63Z" fill="black"/>
<path d="M224.985 192.335C228.118 204.658 218.041 207.304 210.88 221.104C201.161 242.202 204.993 262.934 196.595 284.368C207.376 290.865 243.78 308.962 251.335 335.509C264.259 322.983 281.634 289.698 283.226 258.195C284.926 210.782 278.211 206.176 263.223 195.895C249.96 188.777 244.123 176.667 244.123 176.667" fill="white"/>
<path d="M231.754 168.856C231.754 168.856 236.159 165.203 235.244 159.243C234.639 155.301 230.846 153.418 227.55 154.759C224.398 156.042 223.166 161.556 223.166 161.556C217.585 144.06 201.276 147.15 201.276 147.15C201.276 147.15 199.667 146.837 198.08 145.961C196.493 145.085 194.435 143.375 194.435 143.375C194.435 143.375 186.455 138.295 190.948 126.65C190.948 126.65 194.009 135.014 205.746 136.622L205.768 136.572C205.768 136.572 216.021 124.045 232.102 127.677C243.494 130.249 256.452 138.346 255.504 155.294C254.824 167.455 249.012 174.205 244.749 177.557C235.313 178.654 231.754 168.856 231.754 168.856L231.754 168.856Z" fill="#1FC59D"/>
<path d="M243.324 179.703C235.606 179.703 231.149 173.223 229.818 169.56C229.674 169.162 229.655 168.73 229.765 168.321C229.874 167.913 230.106 167.548 230.43 167.276C230.583 167.146 233.925 164.23 233.208 159.556C233.022 158.347 232.393 157.383 231.437 156.84C230.5 156.308 229.366 156.246 228.327 156.669C226.715 157.325 225.509 160.55 225.176 162.01C225.076 162.451 224.834 162.847 224.486 163.137C224.139 163.427 223.706 163.594 223.255 163.614C222.803 163.634 222.357 163.505 221.987 163.246C221.616 162.987 221.341 162.614 221.203 162.183C219.109 155.618 215.186 151.441 209.543 149.769C205.296 148.512 201.695 149.169 201.659 149.176C201.403 149.225 201.139 149.224 200.883 149.174C200.685 149.136 198.903 148.77 197.085 147.767C195.534 146.911 193.665 145.408 193.216 145.04C189.96 142.888 185.038 136.244 189.026 125.907C189.335 125.106 190.108 124.586 190.966 124.588C191.386 124.591 191.794 124.723 192.136 124.965C192.479 125.206 192.739 125.547 192.883 125.941C192.987 126.212 195.564 132.679 204.943 134.406C207.731 131.465 217.796 122.333 232.556 125.665C239.421 127.215 245.571 130.397 249.874 134.623C255.441 140.09 258.028 147.084 257.562 155.408C256.851 168.113 250.894 175.346 246.022 179.177C245.723 179.413 245.365 179.56 244.987 179.604C244.417 179.67 243.861 179.702 243.323 179.702L243.324 179.703ZM234.209 169.288C235.329 171.46 238.325 175.912 243.943 175.559C248.052 172.162 252.846 165.936 253.448 155.178C254.502 136.332 237.029 130.902 231.649 129.687C217.817 126.562 208.562 136.509 207.47 137.752C207.256 138.078 206.955 138.336 206.6 138.498C206.246 138.659 205.853 138.717 205.467 138.664C198.384 137.694 194.148 134.462 191.752 131.699C190.918 138.481 195.332 141.496 195.556 141.643C195.629 141.69 195.685 141.733 195.752 141.788C195.772 141.804 197.682 143.386 199.075 144.155C199.968 144.648 200.89 144.928 201.36 145.051C202.651 144.877 206.425 144.545 210.714 145.815C214.683 146.991 219.726 149.753 223.15 156.184C224.012 154.796 225.193 153.492 226.774 152.849C228.989 151.947 231.43 152.094 233.471 153.253C235.517 154.414 236.906 156.483 237.281 158.93C238.049 163.931 235.706 167.549 234.209 169.288H234.209Z" fill="#1FC59D"/>
<path d="M231.754 168.856C231.754 168.856 235.314 178.653 244.749 177.557C240.039 183.712 229.098 190.842 220.807 190.679L220.809 190.675C216.741 191.652 211.395 191.853 205.921 188.962C197.637 184.588 196.47 176.765 196.47 176.765C194.442 176.607 191.936 175.287 192.424 173.284C192.994 170.948 196.234 169.263 197.367 163.173C196.765 159.843 194.887 151.602 201.277 147.15C201.277 147.15 217.586 144.06 223.167 161.556C223.167 161.556 224.399 156.042 227.551 154.759C230.846 153.417 234.64 155.301 235.245 159.243C236.16 165.203 231.755 168.855 231.755 168.855L231.754 168.856Z" fill="white"/>
<path d="M215.479 193.408C212.224 193.408 208.628 192.723 204.959 190.786C198.015 187.118 195.57 181.272 194.778 178.547C193.437 178.179 191.997 177.441 191.109 176.215C190.376 175.202 190.132 173.987 190.422 172.796C190.732 171.527 191.472 170.53 192.255 169.476C193.366 167.981 194.618 166.295 195.269 163.161L195.25 163.059C194.551 159.291 192.913 150.466 200.099 145.458C200.338 145.292 200.608 145.178 200.894 145.124C201.08 145.089 205.521 144.277 210.714 145.815C214.683 146.991 219.726 149.753 223.151 156.184C224.012 154.796 225.194 153.493 226.774 152.849C228.99 151.947 231.431 152.095 233.472 153.253C235.517 154.415 236.906 156.483 237.282 158.93C238.05 163.931 235.706 167.55 234.209 169.289C235.365 171.528 238.524 176.203 244.512 175.509C245.642 175.376 246.666 176.188 246.797 177.319C246.828 177.588 246.806 177.861 246.732 178.121C246.658 178.382 246.533 178.625 246.365 178.837C246.197 179.049 245.989 179.226 245.753 179.358C245.516 179.49 245.256 179.574 244.988 179.605C244.435 179.669 243.88 179.702 243.324 179.703C235.606 179.704 231.149 173.223 229.819 169.56C229.673 169.16 229.655 168.726 229.767 168.316C229.878 167.905 230.113 167.539 230.44 167.268C230.573 167.155 233.927 164.237 233.208 159.556C233.022 158.347 232.394 157.383 231.438 156.84C230.501 156.308 229.367 156.246 228.327 156.669C226.716 157.325 225.509 160.551 225.177 162.01C225.077 162.451 224.835 162.847 224.488 163.137C224.14 163.427 223.707 163.594 223.256 163.614C222.804 163.634 222.358 163.505 221.988 163.246C221.617 162.988 221.342 162.614 221.204 162.183C216.687 148.022 204.58 148.794 202.087 149.113C197.511 152.656 198.672 158.908 199.302 162.307L199.394 162.807C199.439 163.053 199.438 163.305 199.392 163.551C198.591 167.859 196.841 170.216 195.563 171.936C195.015 172.674 194.541 173.312 194.427 173.77C194.576 174.058 195.503 174.622 196.63 174.709C197.095 174.745 197.534 174.938 197.875 175.256C198.216 175.574 198.439 175.999 198.508 176.461C198.551 176.73 199.684 183.338 206.883 187.139C216.944 192.452 226.5 186.251 226.901 185.984C227.848 185.356 229.127 185.612 229.757 186.557C230.387 187.503 230.136 188.779 229.192 189.412C228.854 189.639 223.11 193.408 215.479 193.408V193.408ZM194.434 145.436C194.043 145.436 193.66 145.325 193.33 145.114C190.077 143.043 184.992 136.364 189.027 125.907C189.336 125.106 190.109 124.586 190.967 124.588C191.386 124.592 191.794 124.723 192.137 124.965C192.479 125.207 192.74 125.547 192.884 125.941C193.065 126.414 197.657 137.803 217.106 134.081C217.372 134.03 217.645 134.032 217.91 134.087C218.175 134.142 218.427 134.248 218.651 134.4C218.875 134.552 219.066 134.747 219.215 134.973C219.364 135.199 219.467 135.452 219.518 135.718C219.568 135.984 219.567 136.257 219.512 136.523C219.457 136.788 219.351 137.04 219.199 137.264C219.047 137.488 218.852 137.68 218.626 137.828C218.4 137.977 218.147 138.08 217.881 138.131C206.009 140.406 198.839 137.463 194.915 134.593C193.757 133.747 192.697 132.774 191.756 131.691C190.91 138.585 195.487 141.6 195.543 141.635C195.919 141.874 196.208 142.23 196.365 142.648C196.522 143.066 196.54 143.523 196.415 143.952C196.29 144.38 196.03 144.757 195.672 145.025C195.315 145.292 194.881 145.437 194.435 145.436H194.434Z" fill="black"/>
<path d="M207.073 167.897C208.753 167.508 209.681 165.319 209.146 163.008C208.611 160.697 206.816 159.139 205.136 159.528C203.456 159.917 202.528 162.106 203.063 164.417C203.597 166.728 205.393 168.286 207.073 167.897Z" fill="black"/>
<path d="M251.335 337.571C250.887 337.571 250.451 337.425 250.094 337.155C249.736 336.885 249.476 336.505 249.353 336.074C242.851 313.228 213.868 296.655 199.939 288.69C198.215 287.705 196.727 286.854 195.532 286.134C195.115 285.883 194.801 285.492 194.644 285.031C194.488 284.57 194.499 284.069 194.677 283.615C198.558 273.709 199.795 263.706 200.99 254.031C202.351 243.024 203.757 231.642 209.009 220.241C209.023 220.212 209.037 220.183 209.052 220.154C211.78 214.896 214.848 211.273 217.554 208.077C222.018 202.806 224.712 199.624 222.988 192.842C222.854 192.313 222.935 191.751 223.214 191.281C223.494 190.811 223.948 190.471 224.478 190.336C224.74 190.269 225.013 190.255 225.281 190.294C225.548 190.332 225.806 190.423 226.039 190.562C226.271 190.7 226.474 190.883 226.636 191.1C226.798 191.317 226.916 191.564 226.983 191.826C229.23 200.668 225.276 205.337 220.699 210.743C218.14 213.765 215.241 217.187 212.732 222.011C207.765 232.814 206.461 243.366 205.081 254.537C203.918 263.94 202.719 273.647 199.137 283.474C199.986 283.968 200.942 284.514 201.984 285.111C215.724 292.967 243.63 308.923 252.214 331.614C258.178 324.952 264.543 314.591 269.648 303.129C274.405 292.451 280.265 275.968 281.168 258.091C282.823 211.938 276.772 207.689 262.15 197.658C248.513 190.298 243.105 178.908 242.881 178.425C242.764 178.18 242.698 177.913 242.684 177.641C242.671 177.369 242.712 177.098 242.805 176.842C242.897 176.586 243.039 176.351 243.223 176.15C243.406 175.949 243.628 175.787 243.874 175.672C244.121 175.558 244.388 175.493 244.66 175.482C244.931 175.471 245.202 175.514 245.458 175.608C245.713 175.703 245.946 175.847 246.146 176.032C246.345 176.217 246.505 176.44 246.618 176.688C246.667 176.79 251.749 187.397 264.198 194.078C264.263 194.113 264.327 194.152 264.389 194.195C271.896 199.344 277.825 203.412 281.397 212.356C284.956 221.272 286.119 235.003 285.285 258.269C284.349 276.811 278.312 293.809 273.412 304.808C267.437 318.223 259.72 330.253 252.769 336.99C252.385 337.363 251.871 337.571 251.335 337.571H251.335Z" fill="black"/>
<path d="M279.863 210.026C286.363 201.859 276.563 184.158 252.788 189.609C229.013 195.06 212.413 220.132 212.413 220.132C249.389 191.328 272.946 218.716 279.863 210.026Z" fill="white"/>
<path d="M212.414 222.194C212.041 222.194 211.675 222.093 211.356 221.902C211.036 221.71 210.774 221.436 210.598 221.108C210.422 220.779 210.338 220.409 210.355 220.037C210.372 219.665 210.49 219.304 210.695 218.993C211.392 217.942 228.029 193.17 252.328 187.599C267.615 184.094 277.407 189.753 281.473 196.217C284.695 201.339 284.696 207.263 281.475 211.31C278.248 215.365 273.052 213.858 266.473 211.951C254.805 208.568 237.173 203.457 213.679 221.759C213.318 222.041 212.872 222.194 212.414 222.194ZM261.293 190.65C258.854 190.65 256.173 190.948 253.248 191.619C240.33 194.58 229.487 203.713 222.518 211.069C242.231 200.632 257.736 205.125 267.62 207.99C273.447 209.679 276.814 210.546 278.251 208.742C280.366 206.085 280.261 202.031 277.986 198.414C275.407 194.315 269.846 190.65 261.294 190.65L261.293 190.65Z" fill="black"/>
<path d="M104.812 171.365C104.539 170.601 103.7 170.204 102.937 170.477C102.174 170.75 101.776 171.59 102.049 172.354L117.997 216.961C118.27 217.724 119.11 218.121 119.873 217.848C120.636 217.575 121.033 216.735 120.76 215.972L104.812 171.365Z" fill="black"/>
<path d="M119.376 219.999C118.861 219.999 118.349 219.885 117.869 219.658C117.45 219.461 117.074 219.182 116.763 218.839C116.451 218.495 116.211 218.093 116.057 217.656L100.109 173.049C99.9518 172.613 99.8825 172.15 99.9053 171.687C99.928 171.224 100.042 170.769 100.242 170.351C100.439 169.931 100.717 169.555 101.061 169.243C101.404 168.932 101.806 168.692 102.243 168.537C104.073 167.881 106.096 168.839 106.752 170.671L122.699 215.279C122.857 215.715 122.926 216.178 122.903 216.641C122.88 217.104 122.766 217.558 122.567 217.977C122.37 218.397 122.092 218.773 121.748 219.084C121.405 219.396 121.003 219.636 120.566 219.791C120.184 219.928 119.782 219.999 119.376 219.999Z" fill="black"/>
<path d="M134.177 224.017C131.794 217.007 130.368 213.354 126.205 205.381C124.077 201.303 119.037 196.411 119.037 196.411C119.037 196.411 114.972 196.163 115.896 201.748C116.316 204.292 120.594 206.483 117.546 207.435C111.676 209.27 106.493 189.362 105.492 190.257C102.63 192.817 101.871 193.74 102.232 197.499C102.458 199.862 101.08 201.457 101.189 203.126C101.447 207.078 100.929 216.27 108.046 222.296C115.201 228.354 120.832 232.506 120.832 232.506L134.177 224.017Z" fill="white"/>
<path d="M120.832 234.568C120.392 234.568 119.964 234.427 119.61 234.166C119.553 234.124 113.84 229.903 106.716 223.87C99.6982 217.928 99.3737 209.329 99.1992 204.709C99.179 204.171 99.1608 203.684 99.1333 203.26C99.0578 202.103 99.4039 201.087 99.7092 200.189C100.007 199.315 100.264 198.559 100.181 197.695C99.7408 193.107 100.912 191.589 104.119 188.72C104.378 188.489 104.689 188.323 105.025 188.236C105.361 188.149 105.713 188.144 106.051 188.221C107.443 188.54 107.909 189.674 109.456 193.431C110.533 196.047 112.008 199.63 113.633 202.266C113.786 202.514 113.943 202.758 114.107 202.999C113.997 202.702 113.916 202.396 113.863 202.085C113.43 199.467 113.854 197.427 115.121 196.021C116.711 194.257 118.916 194.341 119.163 194.353C119.654 194.383 120.119 194.588 120.472 194.931C120.688 195.141 125.776 200.104 128.033 204.426C132.346 212.688 133.812 216.538 136.128 223.354C136.277 223.791 136.274 224.266 136.121 224.702C135.968 225.138 135.673 225.509 135.283 225.757L121.938 234.246C121.608 234.456 121.225 234.568 120.833 234.568H120.832ZM105.043 193.55C104.165 194.58 104.097 195.361 104.283 197.302C104.451 199.049 103.985 200.418 103.611 201.518C103.412 202.103 103.224 202.655 103.246 202.992C103.276 203.449 103.296 203.973 103.318 204.553C103.479 208.818 103.748 215.955 109.378 220.722C114.542 225.095 118.945 228.496 120.929 230.001L131.702 223.149C129.701 217.345 128.25 213.749 124.379 206.336C122.898 203.499 119.779 200.121 118.348 198.644C118.283 198.685 118.22 198.736 118.167 198.799C117.999 198.997 117.637 199.648 117.929 201.412C118.007 201.881 118.648 202.672 119.116 203.25C120.029 204.377 121.063 205.654 120.577 207.263C120.271 208.277 119.458 208.997 118.161 209.403C112.325 211.228 108.464 201.85 105.645 195.002C105.453 194.535 105.244 194.028 105.043 193.55Z" fill="black"/>
<path d="M247.729 206.564C236.453 206.219 226.896 208.477 220.507 210.998C207.143 216.273 192.91 226.202 174.474 234.09C157.15 227.25 137.366 219.901 132.111 218.156C129.589 221.252 124.352 228.382 120.832 232.506C124.419 235.581 156.709 264.61 172.199 265.838C191.799 267.391 228.494 253.736 233.75 250.918" fill="white"/>
<path d="M175.399 268.019C174.232 268.019 173.11 267.978 172.036 267.893C159.487 266.898 137.084 249.429 120.5 234.949C120.165 234.655 119.828 234.363 119.491 234.071C119.077 233.716 118.82 233.211 118.778 232.666C118.735 232.121 118.911 231.582 119.265 231.167C121.372 228.699 124.114 225.124 126.532 221.969C128.129 219.887 129.508 218.089 130.515 216.853C130.778 216.529 131.135 216.293 131.536 216.176C131.937 216.059 132.364 216.067 132.761 216.199C137.732 217.85 156.748 224.889 174.44 231.861C183.419 227.967 191.255 223.672 198.841 219.516C206.163 215.504 213.079 211.714 219.752 209.08C224.525 207.196 234.514 204.096 247.792 204.503C248.064 204.509 248.332 204.569 248.581 204.68C248.829 204.79 249.053 204.949 249.241 205.146C249.428 205.344 249.574 205.576 249.671 205.83C249.767 206.085 249.813 206.356 249.805 206.628C249.796 206.9 249.734 207.167 249.622 207.415C249.51 207.663 249.35 207.886 249.151 208.072C248.952 208.257 248.718 208.402 248.464 208.497C248.209 208.592 247.938 208.635 247.666 208.625C235.128 208.245 225.742 211.148 221.263 212.916C214.831 215.455 208.025 219.184 200.82 223.132C193.298 227.254 184.773 231.926 175.284 235.986C174.785 236.199 174.222 236.207 173.717 236.008C157.201 229.486 139.354 222.846 132.817 220.575C131.952 221.675 130.899 223.048 129.802 224.479C127.82 227.063 125.625 229.925 123.706 232.275C154.089 258.728 167.226 263.375 172.361 263.782C191.481 265.295 227.434 251.965 232.776 249.1C233.015 248.972 233.276 248.893 233.545 248.866C233.815 248.839 234.087 248.865 234.346 248.944C234.605 249.022 234.846 249.151 235.055 249.322C235.265 249.494 235.438 249.705 235.566 249.944C235.824 250.426 235.88 250.99 235.722 251.514C235.564 252.037 235.204 252.476 234.723 252.735C229.498 255.536 195.877 268.017 175.399 268.018L175.399 268.019Z" fill="black"/>
<path d="M173.731 243.337C173.346 243.336 172.969 243.229 172.641 243.027C172.314 242.824 172.049 242.535 171.877 242.19C170.749 239.933 171.584 235.265 172.631 233.169C172.752 232.927 172.919 232.711 173.124 232.533C173.328 232.356 173.566 232.22 173.822 232.135C174.079 232.049 174.35 232.015 174.62 232.034C174.89 232.053 175.153 232.125 175.395 232.246C175.637 232.367 175.853 232.535 176.031 232.739C176.208 232.944 176.343 233.181 176.429 233.438C176.515 233.695 176.549 233.966 176.53 234.236C176.51 234.506 176.438 234.77 176.317 235.012C175.534 236.58 175.268 239.619 175.57 240.361C176.079 241.38 175.663 242.61 174.645 243.119C174.361 243.262 174.048 243.336 173.731 243.336V243.337Z" fill="black"/>
</g>
<g clip-path="url(#clip1_628_257)">
<path d="M326.753 348.386C369.953 353.743 417.462 291.835 420.769 282.85C424.797 297.05 469.856 325.208 474.438 328.076L496.731 320.623C483.238 294.307 458.434 264.371 441.891 246.508C429.823 234.176 413.556 236.852 400.386 244.412C380.261 255.965 354.201 282.862 338.922 296.702C337.566 297.93 310.197 300.185 304.627 316.661C299.056 333.137 306.329 345.854 326.753 348.386Z" fill="#C04040"/>
<path d="M332.121 350.777C330.247 350.777 328.373 350.666 326.498 350.433C315.836 349.111 308.045 344.984 303.966 338.499C300.178 332.475 299.73 324.696 302.67 316.001C307.51 301.685 326.761 297.45 334.982 295.641C336.059 295.404 337.264 295.139 337.743 294.985C341.135 291.906 345.115 288.134 349.323 284.145C364.58 269.685 383.567 251.688 399.357 242.624C416.294 232.902 432.335 233.792 443.368 245.067C443.381 245.08 443.394 245.094 443.407 245.108C452.302 254.712 482.567 288.473 498.569 319.683C498.705 319.947 498.782 320.238 498.794 320.534C498.807 320.831 498.756 321.127 498.643 321.402C498.531 321.677 498.361 321.924 498.144 322.128C497.927 322.331 497.668 322.485 497.386 322.579L475.093 330.032C474.804 330.129 474.497 330.16 474.194 330.124C473.891 330.088 473.599 329.986 473.341 329.824L473.282 329.787C459.584 321.213 429.087 301.141 420.649 287.44C415.994 294.963 404.569 309.502 390.104 322.529C375.427 335.745 353.935 350.777 332.121 350.777L332.121 350.777ZM327.007 346.34C349.154 349.083 372.039 333.241 387.338 319.465C404.859 303.687 417.354 286.149 418.83 282.138C418.981 281.73 419.258 281.379 419.62 281.137C419.982 280.895 420.412 280.773 420.847 280.788C421.283 280.805 421.702 280.959 422.045 281.228C422.388 281.498 422.637 281.868 422.755 282.287C425.523 292.044 451.259 311.069 474.708 325.81L493.781 319.434C477.774 289.32 449.022 257.247 440.395 247.93C426.748 234.01 408.59 242.081 401.415 246.2C386.053 255.019 367.264 272.828 352.166 287.137C347.854 291.225 343.781 295.085 340.31 298.229C339.634 298.841 338.686 299.05 335.871 299.669C328.332 301.328 310.678 305.212 306.583 317.321C304.054 324.802 304.359 331.366 307.464 336.305C310.861 341.705 317.619 345.176 327.008 346.34L327.007 346.34Z" fill="#C04040"/>
<path d="M475.238 329.45C475.238 329.45 478.318 336.503 481.537 344.194L483.55 350.759L529.53 350.077C529.53 350.077 529.897 346.593 529.668 344.175C529.363 340.962 527.792 338.893 519.654 337.122C502.266 333.34 497.532 321.997 497.532 321.997L475.238 329.45Z" fill="white"/>
<path d="M483.55 352.821C483.108 352.821 482.677 352.679 482.322 352.417C481.967 352.154 481.705 351.785 481.575 351.363L479.593 344.896C477.542 340.008 475.46 335.135 473.345 330.275C473.231 330.013 473.172 329.729 473.173 329.443C473.174 329.157 473.235 328.874 473.351 328.613C473.468 328.351 473.637 328.117 473.849 327.924C474.061 327.732 474.311 327.585 474.583 327.495L496.843 320.179C497.338 320.014 497.877 320.042 498.352 320.257C498.828 320.473 499.203 320.86 499.404 321.341C499.583 321.756 504.08 331.624 520.093 335.107C528.226 336.877 531.27 339.199 531.724 343.981C531.97 346.573 531.6 350.142 531.584 350.292C531.531 350.794 531.296 351.259 530.923 351.599C530.551 351.939 530.066 352.131 529.561 352.139L483.581 352.821C483.57 352.821 483.56 352.821 483.55 352.821ZM478.028 330.692C479.857 334.917 481.662 339.153 483.443 343.398C483.469 343.461 483.492 343.525 483.512 343.59L485.07 348.673L527.615 348.042C527.679 346.927 527.719 345.5 527.611 344.37C527.449 342.661 527.281 340.893 519.214 339.138C504.911 336.026 498.661 328.045 496.53 324.507L478.028 330.692Z" fill="black"/>
<path d="M529.695 346.566H529.668L481.889 345.947C481.346 345.937 480.828 345.714 480.448 345.326C480.068 344.937 479.857 344.415 479.861 343.872C479.864 343.329 480.082 342.809 480.466 342.425C480.851 342.041 481.372 341.825 481.916 341.822H481.943L529.721 342.441C530.265 342.451 530.783 342.674 531.163 343.063C531.542 343.451 531.754 343.974 531.75 344.517C531.747 345.06 531.529 345.58 531.144 345.963C530.76 346.347 530.239 346.564 529.695 346.566Z" fill="black"/>
<path d="M495.553 345.57C495.077 345.569 494.616 345.404 494.248 345.103C493.879 344.802 493.626 344.384 493.531 343.918C493.14 341.997 492.24 340.63 490.782 339.736C486.797 337.295 480.135 339.091 480.068 339.11C479.541 339.256 478.977 339.186 478.5 338.917C478.024 338.648 477.674 338.201 477.527 337.675C477.38 337.148 477.449 336.585 477.717 336.11C477.986 335.634 478.432 335.284 478.959 335.136C479.301 335.041 487.398 332.837 492.927 336.21C495.389 337.713 496.954 340.029 497.579 343.095C497.64 343.395 497.634 343.704 497.56 344.001C497.487 344.299 497.348 344.576 497.154 344.813C496.96 345.049 496.716 345.24 496.439 345.371C496.162 345.502 495.859 345.57 495.553 345.57ZM519.57 345.845C519.022 345.845 518.497 345.627 518.109 345.24C517.722 344.854 517.504 344.329 517.504 343.782V337.123C517.504 336.575 517.722 336.051 518.109 335.664C518.497 335.277 519.022 335.06 519.57 335.06C520.117 335.06 520.643 335.277 521.03 335.664C521.417 336.051 521.635 336.575 521.635 337.123V343.782C521.635 344.329 521.417 344.854 521.03 345.24C520.643 345.627 520.117 345.845 519.57 345.845Z" fill="black"/>
<path d="M495.025 330.826C494.615 330.826 494.214 330.704 493.874 330.476C493.533 330.248 493.269 329.923 493.113 329.544C492.906 329.038 492.908 328.47 493.12 327.966C493.331 327.461 493.735 327.061 494.242 326.854L497.879 325.366C498.386 325.159 498.954 325.161 499.46 325.372C499.965 325.584 500.365 325.987 500.573 326.493C500.78 326.999 500.778 327.567 500.567 328.072C500.355 328.576 499.951 328.976 499.444 329.184L495.807 330.671C495.559 330.773 495.293 330.826 495.025 330.826Z" fill="black"/>
<path d="M499.526 336.836C499.12 336.836 498.723 336.716 498.385 336.492C498.046 336.268 497.781 335.949 497.624 335.575C497.466 335.201 497.422 334.789 497.497 334.39C497.573 333.992 497.764 333.624 498.048 333.334L501.813 329.475C502.197 329.091 502.717 328.874 503.261 328.87C503.804 328.866 504.327 329.077 504.716 329.456C505.106 329.834 505.329 330.351 505.34 330.894C505.35 331.437 505.145 331.962 504.771 332.355L501.005 336.213C500.813 336.411 500.583 336.568 500.329 336.675C500.075 336.782 499.802 336.836 499.526 336.836Z" fill="black"/>
<path d="M505.769 339.233C505.415 339.233 505.066 339.141 504.757 338.967C504.447 338.793 504.188 338.542 504.005 338.239C503.821 337.936 503.718 337.591 503.707 337.236C503.695 336.882 503.776 336.531 503.94 336.217L505.975 332.316C506.098 332.073 506.268 331.856 506.476 331.678C506.684 331.501 506.925 331.367 507.185 331.283C507.445 331.2 507.72 331.168 507.992 331.191C508.265 331.215 508.53 331.291 508.772 331.418C509.014 331.544 509.229 331.717 509.404 331.926C509.579 332.136 509.711 332.379 509.791 332.639C509.872 332.9 509.9 333.175 509.873 333.446C509.847 333.718 509.766 333.982 509.637 334.222L507.602 338.123C507.428 338.458 507.165 338.738 506.841 338.934C506.518 339.13 506.147 339.233 505.769 339.233ZM420.451 288.361C420.106 288.361 419.767 288.275 419.464 288.11C419.161 287.946 418.905 287.708 418.717 287.42C417.375 285.35 416.234 282.63 415.232 279.105C415.157 278.844 415.135 278.572 415.167 278.302C415.198 278.033 415.282 277.773 415.414 277.537C415.546 277.3 415.724 277.092 415.937 276.924C416.149 276.756 416.393 276.631 416.654 276.557C416.915 276.483 417.188 276.461 417.457 276.492C417.727 276.523 417.987 276.607 418.224 276.739C418.461 276.871 418.669 277.048 418.838 277.261C419.006 277.473 419.131 277.717 419.205 277.977C419.675 279.629 420.168 281.066 420.694 282.307C421.176 281.337 421.507 280.422 421.644 279.965C421.801 279.441 422.16 279.001 422.642 278.742C423.124 278.482 423.69 278.424 424.215 278.581C424.475 278.659 424.717 278.787 424.927 278.958C425.137 279.129 425.312 279.34 425.44 279.578C425.569 279.817 425.65 280.078 425.677 280.347C425.705 280.617 425.679 280.889 425.601 281.149C425.473 281.576 424.282 285.389 421.911 287.757C421.523 288.143 420.998 288.36 420.451 288.361Z" fill="black"/>
<path d="M519.295 353.307C519.295 353.307 537.003 353.783 547.284 353.574L554.57 353.623L556.624 299.605C556.624 299.605 551.676 298.98 548.979 299.09C545.395 299.235 542.867 300.89 540.208 309.736C535.421 325.665 520.534 327.279 520.534 327.279L519.295 353.307Z" fill="white"/>
<path d="M541.193 355.689C531.281 355.689 519.384 355.373 519.239 355.369C518.964 355.361 518.694 355.299 518.443 355.186C518.193 355.073 517.968 354.911 517.781 354.71C517.594 354.509 517.449 354.273 517.355 354.015C517.26 353.757 517.218 353.483 517.231 353.209L518.471 327.18C518.494 326.689 518.693 326.223 519.03 325.865C519.367 325.507 519.822 325.281 520.311 325.228C520.858 325.165 533.913 323.508 538.23 309.143C540.821 300.522 543.711 297.239 548.895 297.029C551.729 296.913 556.673 297.533 556.883 297.558C557.395 297.623 557.864 297.877 558.198 298.271C558.532 298.664 558.707 299.168 558.687 299.683L556.633 353.701C556.613 354.234 556.387 354.739 556.002 355.109C555.617 355.479 555.104 355.686 554.57 355.686H554.555L547.297 355.636C545.457 355.674 543.372 355.689 541.193 355.689ZM521.457 351.297C526.457 351.414 539.211 351.676 547.241 351.512H547.297L552.582 351.547L554.487 301.443C552.866 301.28 550.557 301.091 549.063 301.151C547.108 301.23 544.893 301.32 542.186 310.329C538.017 324.201 526.878 328.031 522.519 329.015L521.457 351.298V351.297Z" fill="black"/>
<path d="M547.285 355.636C547.258 355.636 547.232 355.636 547.206 355.635C546.935 355.625 546.668 355.561 546.422 355.448C546.175 355.335 545.954 355.175 545.769 354.976C545.585 354.777 545.442 354.544 545.347 354.29C545.253 354.036 545.21 353.766 545.22 353.496L547.281 299.001C547.324 297.863 548.285 296.978 549.423 297.018C549.694 297.028 549.96 297.092 550.207 297.205C550.453 297.318 550.675 297.478 550.859 297.677C551.044 297.875 551.187 298.108 551.281 298.362C551.375 298.616 551.419 298.886 551.408 299.157L549.347 353.651C549.327 354.184 549.101 354.689 548.717 355.059C548.332 355.429 547.819 355.636 547.285 355.636Z" fill="black"/>
<path d="M533.908 355.193C533.615 355.193 533.324 355.131 533.057 355.01C532.789 354.89 532.55 354.714 532.356 354.493C532.162 354.273 532.017 354.014 531.931 353.734C531.845 353.453 531.82 353.157 531.858 352.867C531.879 352.707 532.387 348.919 534.425 344.886C537.23 339.335 541.572 335.979 546.981 335.179C547.249 335.139 547.523 335.153 547.786 335.219C548.049 335.284 548.297 335.401 548.514 335.563C548.732 335.724 548.916 335.927 549.055 336.159C549.195 336.392 549.287 336.65 549.326 336.918C549.366 337.185 549.353 337.459 549.287 337.721C549.221 337.984 549.103 338.231 548.942 338.449C548.78 338.666 548.577 338.85 548.345 338.989C548.112 339.128 547.854 339.22 547.586 339.26C543.537 339.858 540.367 342.344 538.163 346.645C536.415 350.059 535.958 353.367 535.954 353.4C535.888 353.895 535.644 354.35 535.268 354.68C534.892 355.009 534.409 355.191 533.908 355.193Z" fill="black"/>
<path d="M548.741 312.352C548.703 312.352 548.666 312.351 548.628 312.349L540.092 311.888C539.545 311.859 539.032 311.614 538.666 311.207C538.3 310.8 538.111 310.264 538.141 309.718C538.202 308.58 539.182 307.707 540.314 307.769L548.85 308.23C549.387 308.259 549.891 308.496 550.255 308.891C550.62 309.286 550.816 309.807 550.801 310.344C550.787 310.881 550.564 311.391 550.179 311.766C549.795 312.141 549.278 312.351 548.741 312.352Z" fill="black"/>
<path d="M528.765 334.759C528.336 334.759 527.918 334.625 527.569 334.377C527.219 334.129 526.956 333.778 526.815 333.373L524.343 326.278C524.163 325.761 524.196 325.194 524.435 324.702C524.673 324.209 525.098 323.831 525.615 323.652C526.132 323.472 526.7 323.505 527.193 323.743C527.686 323.981 528.064 324.405 528.244 324.922L530.716 332.018C530.824 332.328 530.857 332.661 530.81 332.987C530.764 333.313 530.64 333.623 530.449 333.891C530.258 334.159 530.005 334.378 529.713 334.529C529.42 334.68 529.095 334.759 528.765 334.759Z" fill="black"/>
<path d="M535.707 330.133C535.421 330.134 535.139 330.075 534.877 329.96C534.615 329.846 534.38 329.678 534.187 329.468L529.47 324.352C529.099 323.949 528.903 323.416 528.925 322.87C528.948 322.323 529.187 321.808 529.59 321.437C529.789 321.254 530.023 321.111 530.278 321.018C530.532 320.924 530.803 320.882 531.074 320.893C531.345 320.904 531.611 320.969 531.857 321.083C532.103 321.197 532.324 321.358 532.508 321.557L537.226 326.673C537.497 326.968 537.677 327.335 537.743 327.731C537.81 328.126 537.759 328.532 537.598 328.899C537.437 329.266 537.172 329.578 536.836 329.797C536.501 330.016 536.108 330.133 535.707 330.133Z" fill="black"/>
<path d="M540.371 323.391C540.002 323.391 539.639 323.292 539.322 323.103L534.607 320.317C534.145 320.034 533.813 319.581 533.682 319.056C533.552 318.53 533.633 317.974 533.909 317.508C534.185 317.042 534.634 316.703 535.158 316.565C535.682 316.426 536.24 316.499 536.711 316.767L541.425 319.553C541.815 319.783 542.118 320.135 542.288 320.555C542.457 320.974 542.485 321.437 542.365 321.874C542.245 322.31 541.985 322.695 541.625 322.969C541.265 323.243 540.824 323.391 540.371 323.391Z" fill="black"/>
<path d="M336.973 296.749C354.293 295.436 404.622 301.887 418.436 302.823C430.501 303.641 511.03 326.601 520.534 327.278L519.294 353.307C497.779 353.069 439.84 352.085 415.621 340.508C400.026 343.38 337.083 362.203 301.332 347.299C289.086 342.193 282.974 325.366 284.445 309.597C285.99 293.045 302.849 288.841 336.973 296.749Z" fill="#C04040"/>
<path d="M519.295 355.369H519.271C467.369 354.795 432.415 350.52 415.349 342.659C413.046 343.11 409.848 343.853 405.893 344.773C389.704 348.537 361.786 355.028 335.832 355.029C323.044 355.029 310.737 353.455 300.536 349.202C294.213 346.566 289.132 341.049 285.841 333.247C282.844 326.14 281.618 317.673 282.389 309.406C282.951 303.377 285.428 298.742 289.75 295.628C298.151 289.575 313.653 289.261 337.135 294.669C349.866 293.791 378.549 296.76 399.538 298.933C407.659 299.774 414.673 300.501 418.576 300.765C425.188 301.213 450.688 307.838 475.349 314.246C495.542 319.492 516.423 324.917 520.68 325.221C521.218 325.259 521.72 325.506 522.078 325.909C522.436 326.312 522.622 326.838 522.596 327.376L521.357 353.405C521.331 353.934 521.103 354.434 520.719 354.799C520.335 355.165 519.825 355.369 519.294 355.369H519.295ZM415.621 338.446C415.929 338.446 416.234 338.515 416.512 338.648C432.588 346.333 466.499 350.561 517.326 351.221L518.381 329.069C511.553 327.915 494.137 323.39 474.309 318.238C450.972 312.175 424.522 305.303 418.296 304.881C414.321 304.612 407.273 303.882 399.112 303.037C378.101 300.861 349.326 297.881 337.129 298.806C336.92 298.822 336.71 298.806 336.506 298.758C314.394 293.634 299.476 293.707 292.166 298.973C288.808 301.393 286.954 304.931 286.501 309.789C285.203 323.704 290.153 340.404 302.127 345.395C331.802 357.767 381.211 346.276 404.956 340.755C409.348 339.734 412.816 338.927 415.246 338.48C415.369 338.457 415.495 338.446 415.62 338.445L415.621 338.446Z" fill="#C04040"/>
<path d="M495.686 319.505C495.504 319.505 495.323 319.481 495.147 319.433C494.788 319.337 459.055 309.708 437.921 304.719C437.388 304.593 436.927 304.261 436.639 303.796C436.351 303.33 436.26 302.77 436.386 302.238C436.448 301.974 436.562 301.725 436.721 301.505C436.879 301.286 437.08 301.099 437.31 300.957C437.541 300.815 437.798 300.719 438.065 300.676C438.333 300.633 438.607 300.642 438.871 300.705C460.069 305.709 495.864 315.354 496.223 315.451C496.706 315.581 497.125 315.883 497.403 316.299C497.68 316.715 497.797 317.217 497.731 317.713C497.665 318.208 497.422 318.663 497.046 318.993C496.67 319.322 496.187 319.504 495.686 319.505ZM410.475 300.343C410.386 300.343 410.297 300.338 410.206 300.326C391.769 297.929 346.479 296.585 344.041 296.864C342.911 297.021 341.873 296.23 341.717 295.102C341.562 293.973 342.356 292.932 343.486 292.776C346.584 292.349 393.363 293.976 410.739 296.235C411.259 296.303 411.734 296.565 412.068 296.97C412.401 297.374 412.568 297.89 412.534 298.413C412.501 298.936 412.269 299.426 411.887 299.785C411.504 300.143 411 300.343 410.475 300.344V300.343ZM519.223 342.515C513.167 342.515 469.455 336.285 427.43 330.181C421.053 329.254 416.445 328.585 414.872 328.37C410.361 327.755 400.933 328.567 387.885 329.692C378.581 330.495 367.001 331.494 354.252 332.193C323.493 333.88 311.807 324.266 311.325 323.857C310.908 323.503 310.649 322.998 310.605 322.454C310.56 321.91 310.733 321.37 311.087 320.953C311.44 320.536 311.944 320.276 312.489 320.23C313.034 320.184 313.575 320.356 313.993 320.708C314.145 320.832 325.198 329.656 354.026 328.074C366.711 327.379 378.254 326.383 387.53 325.583C400.844 324.434 410.464 323.604 415.432 324.283C417.022 324.5 421.637 325.171 428.025 326.098C453.39 329.783 512.644 338.39 519.187 338.39C519.225 338.39 519.26 338.389 519.295 338.39C519.843 338.387 520.369 338.601 520.759 338.985C521.148 339.37 521.369 339.893 521.372 340.44C521.376 340.987 521.161 341.513 520.776 341.902C520.391 342.291 519.867 342.512 519.32 342.515H519.223V342.515Z" fill="black"/>
<path d="M345.279 332.157C344.968 332.157 344.661 332.087 344.381 331.953C344.102 331.818 343.856 331.622 343.662 331.38C343.468 331.137 343.332 330.854 343.263 330.551C343.194 330.249 343.195 329.934 343.264 329.632C343.494 327.946 340.483 318.09 332.457 312.935C331.996 312.639 331.672 312.173 331.555 311.638C331.439 311.104 331.54 310.545 331.836 310.085C332.132 309.625 332.6 309.301 333.135 309.185C333.67 309.069 334.23 309.17 334.69 309.465C343.994 315.441 348.063 327.194 347.29 330.556C347.185 331.011 346.929 331.416 346.564 331.707C346.199 331.998 345.746 332.156 345.279 332.157V332.157Z" fill="black"/>
<path d="M433.379 195.274C434.667 190.595 435.345 188.517 436.742 183.175C438.107 177.956 444.606 173.803 444.606 173.803C444.606 173.803 448.574 173.667 448.017 179.303C447.763 181.87 443.891 184.033 447.001 184.784C452.992 186.232 457.342 168.429 458.52 169.081C461.519 170.742 463.957 173.144 462.507 176.633C461.6 178.815 462.376 180.668 461.618 182.16C459.871 185.594 461.433 188.506 454.504 197.957C449.308 205.045 446.454 207.98 443.592 210.467L433.379 195.273V195.274Z" fill="white"/>
<path d="M443.592 212.53C443.253 212.53 442.919 212.447 442.62 212.288C442.321 212.128 442.066 211.898 441.877 211.617L431.665 196.423C431.499 196.177 431.389 195.898 431.341 195.605C431.293 195.312 431.309 195.013 431.388 194.727C431.886 192.92 432.291 191.503 432.683 190.134C433.303 187.967 433.889 185.92 434.743 182.654C436.295 176.722 443.199 172.253 443.493 172.066C443.805 171.866 444.165 171.754 444.535 171.742C444.77 171.732 446.868 171.713 448.477 173.426C449.795 174.83 450.331 176.876 450.071 179.506C449.986 180.366 449.673 181.142 449.299 181.823C449.76 181.351 450.252 180.717 450.751 179.942C452.251 177.614 453.535 174.544 454.566 172.076C455.939 168.793 456.453 167.565 457.72 167.125C458.014 167.023 458.326 166.983 458.637 167.009C458.947 167.036 459.248 167.127 459.521 167.277C465.964 170.847 465.352 175.166 464.414 177.424C464.093 178.197 464.082 178.942 464.07 179.804C464.055 180.812 464.038 181.955 463.458 183.095C463.034 183.929 462.846 184.786 462.609 185.872C462.013 188.592 461.198 192.317 456.17 199.176C450.964 206.278 448.016 209.357 444.947 212.023C444.571 212.35 444.09 212.53 443.591 212.53H443.592ZM435.622 194.91L443.971 207.331C446.296 205.104 448.863 202.161 452.837 196.739C457.35 190.584 458.028 187.483 458.574 184.991C458.851 183.727 459.112 182.532 459.776 181.227C459.922 180.939 459.931 180.385 459.94 179.744C459.955 178.676 459.975 177.346 460.6 175.842C460.901 175.117 461.479 173.729 459.12 171.916C458.879 172.467 458.615 173.098 458.378 173.666C455.96 179.449 452.306 188.186 446.515 186.79C445.162 186.463 444.286 185.795 443.91 184.807C443.33 183.28 444.248 181.965 444.985 180.908C445.398 180.315 445.914 179.577 445.961 179.1C446.092 177.773 445.925 176.769 445.489 176.275C445.376 176.148 445.236 176.046 445.079 175.978C443.156 177.364 439.58 180.482 438.74 183.696C437.873 187.008 437.281 189.077 436.654 191.267C436.333 192.388 436.004 193.539 435.622 194.91L435.622 194.91Z" fill="black"/>
<path d="M326.487 201.123C333.578 199.162 338.583 199.206 345.283 200.781C359.298 204.077 375.555 212.858 394.978 218.011C411.174 208.742 428.42 197.759 433.379 195.274C435.683 198.348 442.115 205.504 443.591 210.468C440.477 214.03 413.645 246.438 398.459 249.886C379.244 254.248 343.525 244.243 337.906 242.211" fill="white"/>
<path d="M387.053 253.035C366.874 253.036 341.199 245.595 337.203 244.15C336.688 243.964 336.268 243.581 336.036 243.085C335.803 242.59 335.778 242.023 335.964 241.508C336.151 240.994 336.534 240.575 337.03 240.343C337.526 240.111 338.094 240.085 338.609 240.271C346.193 243.014 380.321 251.887 398.001 247.874C403.035 246.731 415.321 240.324 441.057 210.249L441.243 210.032C439.802 206.574 436.155 202.05 433.663 198.959C433.365 198.589 433.083 198.239 432.819 197.91C430.03 199.458 425.358 202.289 419.701 205.717C412.803 209.897 404.218 215.1 396.006 219.8C395.534 220.07 394.974 220.143 394.449 220.004C384.338 217.321 374.927 213.609 366.625 210.334C358.83 207.259 351.468 204.354 344.81 202.789C338.183 201.23 333.533 201.314 327.039 203.111C326.514 203.246 325.957 203.171 325.488 202.9C325.018 202.63 324.674 202.186 324.53 201.664C324.385 201.143 324.451 200.585 324.715 200.112C324.978 199.639 325.416 199.288 325.936 199.135C333.091 197.156 338.463 197.058 345.757 198.773C352.706 200.408 360.204 203.365 368.142 206.497C376.502 209.795 385.139 213.202 394.691 215.797C402.634 211.235 410.888 206.233 417.559 202.19C424.47 198.003 429.928 194.695 432.454 193.43C432.887 193.213 433.382 193.155 433.854 193.266C434.325 193.377 434.743 193.651 435.033 194.038C435.49 194.648 436.135 195.448 436.881 196.373C440.006 200.249 444.287 205.56 445.571 209.881C445.671 210.214 445.684 210.567 445.609 210.907C445.535 211.247 445.376 211.562 445.147 211.824C444.937 212.065 444.617 212.44 444.197 212.93C423.98 236.555 408.746 249.666 398.917 251.897C395.386 252.699 391.342 253.035 387.053 253.035L387.053 253.035Z" fill="black"/>
<path d="M395.216 227.751C394.915 227.751 394.619 227.686 394.346 227.561C394.074 227.435 393.832 227.251 393.638 227.023C393.444 226.794 393.302 226.526 393.222 226.237C393.142 225.948 393.126 225.645 393.176 225.349C393.631 222.62 393.502 219.744 393.1 218.869C392.872 218.372 392.852 217.804 393.042 217.292C393.233 216.779 393.62 216.363 394.118 216.135C394.365 216.022 394.631 215.959 394.902 215.949C395.173 215.939 395.444 215.983 395.698 216.077C395.952 216.171 396.185 216.315 396.384 216.499C396.583 216.684 396.743 216.905 396.856 217.152C397.801 219.212 397.723 223.197 397.25 226.027C397.17 226.508 396.922 226.945 396.549 227.261C396.177 227.577 395.704 227.75 395.216 227.751H395.216Z" fill="black"/>
<path d="M301.557 196.41C296.446 201.216 271.976 208.601 267.999 260.341C265.289 295.606 276.743 329.339 287.607 336.836C297.576 327.595 315.953 303.164 346.846 294.748C354.887 292.557 347.097 287.652 348.001 275.741C349.187 260.121 351.536 247.37 340.784 222.228C340.584 221.76 332.784 205.733 332.574 205.256L301.557 196.41Z" fill="white"/>
<path d="M317.151 172.194C317.151 172.194 311.88 169.942 311.064 163.965C310.525 160.012 313.634 157.127 317.183 157.477C320.577 157.812 323.329 162.751 323.329 162.751C323.717 144.382 340.268 142.711 340.268 142.711C340.268 142.711 341.726 141.954 343.002 140.663C344.277 139.371 345.768 137.146 345.768 137.146C345.768 137.146 351.992 130.005 344.363 120.112C344.363 120.112 343.8 129.004 332.978 133.883L332.944 133.84C332.944 133.84 319.528 124.738 305.107 132.791C294.891 138.497 284.741 149.946 290.471 165.934C294.583 177.406 302.088 182.229 307.138 184.234C316.517 182.604 317.151 172.194 317.151 172.194Z" fill="#1FC59D"/>
<path d="M307.138 186.296C306.877 186.296 306.618 186.247 306.375 186.15C300.604 183.86 292.822 178.614 288.526 166.629C285.712 158.776 286.208 151.333 290.003 144.506C292.936 139.229 297.942 134.429 304.099 130.991C317.334 123.599 329.603 129.5 333.12 131.528C341.747 127.151 342.297 120.055 342.302 119.981C342.328 119.563 342.482 119.162 342.743 118.833C343.003 118.503 343.358 118.261 343.76 118.139C344.161 118.016 344.591 118.019 344.991 118.147C345.391 118.274 345.743 118.521 345.999 118.853C352.771 127.635 349.93 135.408 347.414 138.397C347.087 138.877 345.718 140.85 344.471 142.112C343.009 143.591 341.4 144.449 341.221 144.541C340.989 144.662 340.736 144.738 340.475 144.764C339.88 144.828 325.736 146.535 325.393 162.795C325.383 163.248 325.224 163.685 324.941 164.039C324.658 164.393 324.266 164.644 323.825 164.753C323.385 164.862 322.921 164.823 322.505 164.643C322.089 164.462 321.744 164.15 321.523 163.754C320.791 162.452 318.714 159.701 316.979 159.53C315.86 159.42 314.788 159.801 314.038 160.578C313.274 161.37 312.944 162.474 313.11 163.686C313.75 168.38 317.803 170.227 317.975 170.303C318.763 170.652 319.264 171.459 319.212 172.319C318.958 176.483 316.182 184.756 307.491 186.266C307.374 186.286 307.255 186.296 307.137 186.296H307.138ZM317.801 131.505C314.222 131.505 310.219 132.299 306.114 134.592C301.289 137.286 286.042 147.46 292.415 165.239C296.052 175.387 302.43 179.997 307.345 182.089C312.841 180.824 314.456 175.708 314.915 173.306C312.983 172.064 309.702 169.259 309.017 164.244C308.683 161.79 309.429 159.411 311.064 157.715C312.696 156.024 315 155.187 317.385 155.425C319.087 155.592 320.594 156.507 321.816 157.594C323.279 150.452 327.339 146.369 330.819 144.113C334.579 141.676 338.301 140.922 339.591 140.722C340.004 140.473 340.813 139.941 341.531 139.214C342.464 138.269 343.666 136.573 344.051 135.999C344.099 135.926 344.152 135.857 344.21 135.791C344.374 135.597 347.757 131.452 345.027 125.184C343.51 128.515 340.358 132.819 333.827 135.763C333.47 135.924 333.074 135.98 332.686 135.925C332.298 135.87 331.934 135.706 331.636 135.451C330.636 134.813 325.102 131.505 317.8 131.505H317.801Z" fill="#1FC59D"/>
<path d="M317.151 172.194C317.151 172.194 316.517 182.604 307.138 184.233C302.578 192.712 299.37 197.413 299.37 197.413C299.37 197.413 325.112 209.76 333.131 199.801C332.677 194.966 333.414 190.999 333.878 190.017L333.875 190.014C338.062 189.795 343.257 188.468 347.696 184.14C354.412 177.589 353.309 169.753 353.309 169.753C355.214 169.026 357.247 167.048 356.207 165.265C354.995 163.186 351.403 162.49 348.582 156.97C348.213 153.605 347.674 145.166 340.268 142.711C340.268 142.711 323.717 144.382 323.328 162.751C323.328 162.751 320.577 157.812 317.183 157.477C313.634 157.126 310.525 160.011 311.064 163.965C311.88 169.942 317.151 172.194 317.151 172.194L317.151 172.194Z" fill="white"/>
<path d="M332.585 192.13C328.588 192.13 325.713 191.263 325.46 191.185C324.937 191.022 324.5 190.659 324.245 190.175C323.99 189.691 323.938 189.125 324.101 188.603C324.263 188.08 324.627 187.644 325.112 187.389C325.597 187.135 326.163 187.083 326.686 187.245C327.148 187.386 338.095 190.619 346.253 182.664C352.089 176.972 351.299 170.311 351.262 170.03C351.139 169.085 351.679 168.168 352.571 167.827C353.627 167.424 354.357 166.621 354.42 166.302C354.168 165.883 353.536 165.41 352.807 164.864C351.09 163.577 348.738 161.814 346.743 157.908C346.629 157.686 346.557 157.444 346.529 157.196L346.476 156.689C346.115 153.25 345.452 146.922 340.047 144.824C337.576 145.223 325.708 147.917 325.393 162.795C325.384 163.248 325.225 163.685 324.942 164.039C324.659 164.393 324.266 164.644 323.826 164.753C323.386 164.862 322.922 164.823 322.506 164.643C322.09 164.462 321.745 164.15 321.524 163.754C320.792 162.452 318.715 159.701 316.98 159.53C315.86 159.419 314.788 159.802 314.039 160.578C313.275 161.371 312.945 162.474 313.11 163.687C313.751 168.381 317.803 170.227 317.975 170.303C318.764 170.653 319.265 171.46 319.213 172.32C318.959 176.483 316.183 184.756 307.492 186.266C306.952 186.359 306.397 186.235 305.949 185.92C305.501 185.606 305.197 185.126 305.103 184.587C305.057 184.32 305.063 184.047 305.123 183.783C305.182 183.518 305.293 183.268 305.449 183.047C305.605 182.825 305.803 182.637 306.032 182.492C306.261 182.347 306.517 182.248 306.784 182.202C312.734 181.168 314.442 175.788 314.916 173.307C312.983 172.064 309.702 169.259 309.018 164.244C308.683 161.79 309.429 159.411 311.065 157.716C312.697 156.025 315.002 155.192 317.386 155.425C319.088 155.593 320.594 156.507 321.817 157.594C323.28 150.453 327.34 146.37 330.82 144.113C335.373 141.162 339.872 140.679 340.061 140.66C340.35 140.63 340.643 140.663 340.919 140.754C349.249 143.515 350.184 152.446 350.584 156.26L350.595 156.363C352.112 159.184 353.795 160.446 355.287 161.564C356.34 162.353 357.334 163.098 357.992 164.228C358.611 165.288 358.722 166.523 358.305 167.703C357.8 169.132 356.626 170.248 355.442 170.982C355.456 173.822 354.769 180.125 349.139 185.615C343.725 190.895 337.356 192.13 332.586 192.13L332.585 192.13ZM345.767 139.208C345.372 139.208 344.985 139.094 344.653 138.881C344.32 138.668 344.056 138.364 343.891 138.006C343.726 137.647 343.668 137.249 343.723 136.858C343.778 136.467 343.944 136.101 344.202 135.801C344.395 135.57 347.752 131.427 345.023 125.174C344.426 126.481 343.684 127.716 342.811 128.857C339.856 132.726 333.802 137.587 321.747 138.779C321.201 138.832 320.657 138.668 320.234 138.321C319.81 137.974 319.542 137.473 319.488 136.929C319.434 136.385 319.599 135.841 319.946 135.418C320.293 134.995 320.795 134.727 321.34 134.673C341.27 132.703 342.294 120.108 342.302 119.981C342.328 119.563 342.482 119.162 342.742 118.833C343.003 118.503 343.357 118.261 343.759 118.138C344.161 118.016 344.591 118.018 344.991 118.146C345.391 118.274 345.743 118.52 345.999 118.852C352.85 127.737 349.863 135.589 347.326 138.499C347.132 138.722 346.893 138.9 346.624 139.023C346.355 139.145 346.063 139.208 345.767 139.208V139.208Z" fill="black"/>
<path d="M299.372 199.477C298.903 199.477 298.448 199.318 298.081 199.026C297.715 198.734 297.459 198.326 297.355 197.87C297.252 197.413 297.307 196.935 297.512 196.514C297.716 196.092 298.058 195.753 298.482 195.552C298.671 195.456 303.616 192.869 305.101 183.898C305.19 183.358 305.49 182.876 305.935 182.557C306.38 182.239 306.934 182.11 307.475 182.199C308.015 182.288 308.498 182.588 308.817 183.032C309.136 183.477 309.265 184.03 309.176 184.57C307.319 195.796 300.546 199.139 300.259 199.275C299.982 199.408 299.679 199.477 299.372 199.477ZM333.129 201.864C332.638 201.864 332.164 201.689 331.791 201.371C331.418 201.053 331.17 200.612 331.092 200.129C330.037 193.571 331.805 189.572 332.01 189.137C332.125 188.892 332.288 188.672 332.489 188.49C332.69 188.308 332.924 188.167 333.18 188.075C333.435 187.984 333.706 187.943 333.977 187.956C334.248 187.969 334.513 188.035 334.759 188.151C335.004 188.266 335.224 188.429 335.406 188.629C335.589 188.83 335.73 189.064 335.822 189.319C335.913 189.574 335.954 189.845 335.941 190.115C335.928 190.386 335.862 190.651 335.746 190.896C335.732 190.927 334.298 194.049 335.171 199.474C335.218 199.769 335.201 200.071 335.12 200.358C335.039 200.646 334.897 200.913 334.703 201.14C334.509 201.367 334.267 201.55 333.996 201.675C333.724 201.8 333.428 201.864 333.129 201.864L333.129 201.864Z" fill="black"/>
<path d="M340.597 164.259C342.322 164.155 343.605 162.15 343.461 159.781C343.318 157.412 341.803 155.576 340.078 155.68C338.353 155.784 337.071 157.789 337.214 160.158C337.358 162.527 338.872 164.363 340.597 164.259Z" fill="black"/>
<path d="M287.606 338.899C287.187 338.899 286.778 338.771 286.433 338.533C280.482 334.426 274.756 323.866 270.725 309.56C266.378 294.134 264.679 276.598 265.94 260.183C267.425 240.857 271.966 225.318 279.435 213.998C285.724 204.467 292.795 199.867 297.02 197.118C298.361 196.246 299.52 195.493 300.142 194.908C300.542 194.542 301.07 194.349 301.612 194.369C302.154 194.389 302.667 194.622 303.038 195.016C303.41 195.411 303.612 195.935 303.6 196.477C303.587 197.019 303.362 197.534 302.973 197.911C302.083 198.748 300.843 199.554 299.274 200.575C290.866 206.045 273.368 217.426 270.058 260.498C268.833 276.443 270.482 293.47 274.7 308.442C278.05 320.329 282.846 329.899 287.481 334.1C288.938 332.671 290.554 330.977 292.359 329.085C303.234 317.687 319.668 300.462 346.271 292.766C347.934 292.285 348.291 291.828 348.36 291.699C348.65 291.164 348.145 289.51 347.656 287.91C346.76 284.98 345.533 280.967 345.942 275.585C346.05 274.169 346.167 272.776 346.283 271.395C347.476 257.195 348.507 244.932 338.278 221.639C338.169 221.391 338.11 221.124 338.105 220.853C338.099 220.582 338.147 220.313 338.246 220.061C338.344 219.808 338.492 219.578 338.679 219.382C338.867 219.187 339.092 219.03 339.34 218.922C339.588 218.813 339.856 218.754 340.127 218.748C340.398 218.743 340.668 218.791 340.92 218.889C341.173 218.987 341.404 219.135 341.6 219.322C341.795 219.51 341.952 219.734 342.061 219.982C352.71 244.234 351.587 257.595 350.398 271.741C350.283 273.11 350.167 274.492 350.06 275.898C349.71 280.506 350.762 283.944 351.606 286.706C352.411 289.338 353.106 291.612 351.993 293.664C350.989 295.516 348.902 296.301 347.42 296.729C321.889 304.114 305.918 320.854 295.349 331.931C292.951 334.446 290.879 336.617 289.011 338.348C288.63 338.702 288.127 338.899 287.606 338.899L287.606 338.899Z" fill="black"/>
<path d="M288.611 340.453C289.482 351.184 290.689 351.896 285.33 359.131C282.59 362.831 276.84 366.884 276.84 366.884C276.84 366.884 272.777 366.499 274.559 361.122C275.37 358.673 279.945 357.171 277.075 355.758C271.548 353.033 254.825 363.306 250.821 363.631C246.491 363.981 243.564 363.618 245.514 360.381C249.179 354.299 248.5 350.44 256.039 346.883C260.736 344.667 268.09 340.908 268.09 340.908L288.611 340.454V340.453Z" fill="white"/>
<path d="M276.841 368.946C276.776 368.946 276.71 368.943 276.645 368.937C276.399 368.914 274.203 368.652 272.903 366.662C271.866 365.076 271.763 362.994 272.598 360.474C273.042 359.136 274.038 358.143 274.922 357.337C271.359 357.188 264.038 360.472 259.439 362.536C255.157 364.458 252.653 365.551 250.988 365.686C247.258 365.987 244.526 365.792 243.322 363.851C242.545 362.599 242.687 361.074 243.745 359.317C244.729 357.685 245.377 356.227 246.003 354.818C247.657 351.097 249.085 347.883 255.158 345.018C259.771 342.842 267.076 339.109 267.149 339.072C267.427 338.93 267.733 338.852 268.045 338.845L288.566 338.391C288.582 338.391 288.597 338.391 288.613 338.391C289.132 338.391 289.631 338.586 290.012 338.937C290.394 339.289 290.629 339.77 290.67 340.287C290.806 341.953 290.949 343.374 291.075 344.628C291.809 351.902 291.799 353.866 286.991 360.358C284.086 364.279 278.278 368.396 278.032 368.569C277.684 368.815 277.267 368.947 276.841 368.947L276.841 368.946ZM274.718 353.234C275.954 353.234 277.048 353.444 277.99 353.908C279.211 354.509 279.904 355.347 280.05 356.397C280.281 358.063 279.059 359.165 277.98 360.137C277.427 360.635 276.669 361.318 276.519 361.769C275.957 363.468 276.213 364.167 276.349 364.389C276.393 364.459 276.446 364.519 276.505 364.57C278.151 363.332 281.764 360.477 283.67 357.903C287.712 352.447 287.627 351.603 286.965 345.04C286.881 344.213 286.8 343.385 286.722 342.557L268.608 342.959C266.971 343.792 260.947 346.848 256.921 348.747C252.237 350.957 251.311 353.04 249.777 356.491C249.132 357.944 248.4 359.591 247.284 361.444C247.25 361.499 247.22 361.551 247.194 361.599C247.742 361.677 248.769 361.726 250.654 361.574C251.69 361.49 254.907 360.046 257.746 358.773C264.653 355.673 270.502 353.234 274.718 353.234L274.718 353.234Z" fill="black"/>
<path d="M307.289 238.886C303.225 254.76 292.399 271.63 286.04 284.19C290.577 306.713 288.426 324.676 288.611 340.453C281.29 341.519 272.484 341.736 268.09 340.907C261.273 318.153 257.953 298.28 257.953 286.964C257.953 270.635 264.379 244.316 272.246 221.849C275 213.985 282.289 204.728 301.557 196.409" fill="white"/>
<path d="M275.404 343.477C272.346 343.477 269.642 343.299 267.707 342.934C267.335 342.864 266.989 342.693 266.708 342.44C266.426 342.187 266.22 341.861 266.111 341.499C259.805 320.448 255.888 299.552 255.888 286.964C255.888 268.792 263.331 241.061 270.297 221.168C274.047 210.458 284.005 201.74 300.738 194.516C301.239 194.308 301.802 194.305 302.305 194.509C302.808 194.712 303.211 195.105 303.426 195.603C303.642 196.1 303.652 196.663 303.456 197.168C303.259 197.673 302.872 198.081 302.377 198.303C286.762 205.044 277.544 212.968 274.196 222.53C265.583 247.126 260.018 272.418 260.018 286.965C260.018 298.934 263.716 318.804 269.697 339.068C273.737 339.567 280.437 339.402 286.535 338.651C286.53 335.23 286.616 331.729 286.707 328.056C287.016 315.483 287.367 301.233 284.015 284.597C283.924 284.143 283.988 283.672 284.197 283.259C285.82 280.054 287.718 276.595 289.726 272.933C295.628 262.176 302.316 249.984 305.288 238.375C305.432 237.853 305.774 237.409 306.242 237.137C306.711 236.866 307.267 236.789 307.792 236.923C308.316 237.057 308.767 237.391 309.047 237.854C309.327 238.317 309.415 238.871 309.29 239.397C306.188 251.51 299.367 263.945 293.349 274.915C291.489 278.305 289.726 281.519 288.205 284.489C291.497 301.272 291.146 315.545 290.836 328.157C290.73 332.448 290.63 336.502 290.677 340.429C290.682 340.929 290.507 341.414 290.182 341.793C289.857 342.173 289.405 342.422 288.909 342.494C284.459 343.142 279.599 343.477 275.404 343.477V343.477Z" fill="black"/>
<path d="M280.029 290.423C279.591 290.423 279.164 290.285 278.811 290.027C278.457 289.769 278.194 289.406 278.061 288.989C277.927 288.573 277.93 288.125 278.068 287.71C278.206 287.295 278.472 286.934 278.829 286.68L281.267 284.945C280.156 284.85 278.843 284.838 277.359 284.997C276.224 285.122 275.207 284.299 275.085 283.165C275.056 282.896 275.081 282.624 275.157 282.364C275.234 282.104 275.361 281.862 275.531 281.651C275.701 281.44 275.912 281.265 276.15 281.135C276.388 281.006 276.649 280.924 276.919 280.895C283.061 280.238 286.929 282.018 287.09 282.095C287.416 282.248 287.696 282.484 287.903 282.779C288.109 283.074 288.234 283.418 288.266 283.777C288.299 284.135 288.236 284.496 288.086 284.823C287.935 285.15 287.701 285.431 287.408 285.64L281.225 290.04C280.876 290.29 280.458 290.423 280.029 290.423H280.029ZM323.02 205.933C322.924 205.933 322.829 205.933 322.733 205.932C313.711 205.843 302.119 201.553 299.763 197.432C299.492 196.957 299.42 196.393 299.565 195.866C299.709 195.338 300.057 194.889 300.533 194.618C301.009 194.347 301.573 194.275 302.101 194.419C302.63 194.563 303.079 194.911 303.351 195.386C304.56 197.503 314.103 201.721 322.774 201.806C325.836 201.842 329.812 201.33 331.358 198.744C331.639 198.274 332.095 197.935 332.626 197.801C333.157 197.667 333.72 197.75 334.19 198.03C334.661 198.311 335 198.766 335.134 199.297C335.268 199.827 335.185 200.389 334.904 200.859C332.918 204.181 328.811 205.933 323.02 205.933H323.02Z" fill="black"/>
</g>
<g clip-path="url(#clip2_628_257)">
<path d="M247.887 132.326C265.085 141.447 281.966 113.05 263.407 99.5529C245.706 86.6794 225.255 109.607 237.968 126.565L237.979 126.571C241.706 127.651 245.108 129.627 247.887 132.326Z" fill="#1FC59D"/>
<path d="M232.993 121.573C230.184 113.269 233.317 104.945 238.348 99.8717C241.548 96.5852 245.766 94.4693 250.317 93.8665C255.244 93.2756 260.191 94.6671 264.625 97.8932C269.645 101.543 272.678 106.492 273.397 112.202C273.995 117.335 272.799 122.519 270.011 126.881C267.555 130.781 264.074 133.719 260.206 135.153C255.823 136.777 251.227 136.428 246.916 134.142C246.747 134.053 246.592 133.94 246.454 133.808C243.925 131.343 240.824 129.538 237.425 128.552C237.251 128.504 237.084 128.434 236.929 128.342C236.69 128.202 236.482 128.017 236.315 127.797C234.883 125.911 233.762 123.81 232.993 121.573ZM268.583 109.604C267.55 106.548 265.513 103.632 262.189 101.215C253.88 95.1712 245.732 98.2697 241.279 102.759C236.294 107.786 233.607 116.749 239.231 124.795C242.921 125.977 246.294 127.974 249.1 130.637C256.261 134.268 262.992 130.301 266.518 124.7C269.187 120.46 270.35 114.829 268.583 109.604Z" fill="#1FC59D"/>
<path d="M235 126.971C234.884 126.626 234.861 126.256 234.936 125.899C235.01 125.541 235.179 125.21 235.423 124.939C235.668 124.668 235.981 124.466 236.33 124.355C236.678 124.244 237.05 124.227 237.407 124.306C246.223 126.261 251.227 132.886 251.435 133.168C251.597 133.384 251.713 133.63 251.779 133.892C251.845 134.154 251.858 134.426 251.818 134.693C251.778 134.96 251.686 135.217 251.547 135.449C251.408 135.681 251.224 135.883 251.006 136.044C250.789 136.205 250.541 136.322 250.279 136.388C250.016 136.454 249.743 136.468 249.475 136.429C249.207 136.389 248.95 136.298 248.717 136.159C248.485 136.021 248.283 135.838 248.121 135.622C248.062 135.543 243.764 129.93 236.505 128.319C236.159 128.243 235.839 128.079 235.575 127.842C235.311 127.606 235.113 127.306 235 126.971ZM239.231 120.839C239.188 120.714 239.158 120.584 239.141 120.453C238.218 113.569 239.521 108.313 243.012 104.825C248.302 99.5407 256.534 100.549 256.882 100.595C257.424 100.665 257.916 100.947 258.249 101.379C258.582 101.812 258.729 102.358 258.657 102.899C258.586 103.439 258.302 103.93 257.868 104.263C257.434 104.595 256.885 104.743 256.343 104.672C256.229 104.659 249.728 103.911 245.913 107.743C243.391 110.277 242.488 114.367 243.229 119.901C243.297 120.408 243.174 120.921 242.883 121.343C242.591 121.764 242.153 122.062 241.654 122.179C241.155 122.296 240.63 122.224 240.182 121.976C239.734 121.728 239.395 121.323 239.231 120.839L239.231 120.839ZM252.456 126.556C252.357 126.262 252.325 125.949 252.364 125.641C252.403 125.333 252.511 125.037 252.681 124.777C252.851 124.516 253.077 124.297 253.344 124.136C253.611 123.975 253.91 123.877 254.22 123.847C258.052 123.487 260.548 121.79 261.852 118.66C262.487 117.071 262.789 115.37 262.738 113.661C262.718 113.392 262.752 113.121 262.837 112.865C262.923 112.608 263.058 112.371 263.235 112.167C263.412 111.962 263.628 111.794 263.87 111.673C264.112 111.551 264.376 111.478 264.646 111.458C265.191 111.418 265.73 111.595 266.144 111.951C266.349 112.127 266.517 112.342 266.638 112.583C266.76 112.824 266.833 113.087 266.852 113.356C266.948 115.647 266.566 117.933 265.73 120.07C264.429 123.306 261.442 127.298 254.603 127.942C254.141 127.986 253.677 127.873 253.287 127.621C252.898 127.37 252.605 126.994 252.456 126.556Z" fill="black"/>
</g>
<g clip-path="url(#clip3_628_257)">
<path d="M71.2966 122.167H158.373L169.814 135.603V67.7998H71.2966V122.167Z" fill="white"/>
<path d="M169.815 137.667C169.516 137.667 169.221 137.602 168.949 137.477C168.678 137.351 168.437 137.169 168.244 136.941L157.42 124.23H71.2966C70.7494 124.23 70.2246 124.013 69.8376 123.626C69.4507 123.238 69.2333 122.713 69.2333 122.166V67.7997C69.2333 67.2523 69.4507 66.7274 69.8376 66.3403C70.2246 65.9533 70.7494 65.7358 71.2966 65.7358H169.814C170.362 65.7358 170.886 65.9533 171.273 66.3403C171.66 66.7274 171.878 67.2523 171.878 67.7997V135.603C171.878 136.15 171.66 136.675 171.274 137.062C170.887 137.449 170.362 137.667 169.815 137.667ZM73.3599 120.102H158.373C158.978 120.102 159.552 120.367 159.944 120.828L167.751 129.996V69.8635H73.3599V120.102Z" fill="black"/>
<path d="M147.159 88.6958H93.5129C92.9657 88.6958 92.4409 88.4784 92.0539 88.0913C91.667 87.7043 91.4496 87.1793 91.4496 86.632C91.4496 86.0846 91.667 85.5597 92.0539 85.1726C92.4409 84.7856 92.9657 84.5681 93.5129 84.5681H147.159C147.706 84.5681 148.231 84.7856 148.618 85.1726C149.005 85.5597 149.222 86.0846 149.222 86.632C149.222 87.1793 149.005 87.7043 148.618 88.0913C148.231 88.4784 147.706 88.6958 147.159 88.6958ZM120.336 106.239H93.5129C92.9657 106.239 92.4409 106.021 92.0539 105.634C91.667 105.247 91.4496 104.722 91.4496 104.175C91.4496 103.627 91.667 103.102 92.0539 102.715C92.4409 102.328 92.9657 102.111 93.5129 102.111H120.336C120.883 102.111 121.408 102.328 121.795 102.715C122.182 103.102 122.399 103.627 122.399 104.175C122.399 104.722 122.182 105.247 121.795 105.634C121.408 106.021 120.883 106.239 120.336 106.239Z" fill="black"/>
</g>
<g clip-path="url(#clip4_628_257)">
<path d="M453.637 53.7828H366.56L355.119 67.1276V25.1089H453.637V53.7828Z" fill="white"/>
<path d="M355.119 69.1771C354.848 69.1772 354.579 69.1243 354.329 69.0213C354.078 68.9183 353.851 68.7674 353.659 68.577C353.468 68.3866 353.316 68.1606 353.212 67.9118C353.109 67.6631 353.055 67.3965 353.056 67.1273V25.1089C353.056 24.5652 353.273 24.0439 353.66 23.6595C354.047 23.275 354.572 23.0591 355.119 23.0591H453.637C454.184 23.0591 454.709 23.275 455.096 23.6595C455.483 24.0439 455.7 24.5652 455.7 25.1089V53.7828C455.7 54.3264 455.483 54.8478 455.096 55.2322C454.709 55.6166 454.184 55.8326 453.637 55.8326H367.513L356.69 68.4566C356.496 68.6826 356.255 68.864 355.984 68.9884C355.713 69.1128 355.417 69.1772 355.119 69.1771ZM357.182 27.1587V61.5597L364.989 52.4538C365.183 52.228 365.424 52.0466 365.695 51.9222C365.966 51.7978 366.261 51.7333 366.56 51.7333H451.573V27.1587H357.182Z" fill="black"/>
<path d="M431.918 40.7358H378.273C377.725 40.7358 377.2 40.5199 376.814 40.1354C376.427 39.751 376.209 39.2297 376.209 38.686C376.209 38.1424 376.427 37.621 376.814 37.2366C377.2 36.8522 377.725 36.6362 378.273 36.6362H431.918C432.466 36.6362 432.99 36.8522 433.377 37.2366C433.764 37.621 433.982 38.1424 433.982 38.686C433.982 39.2297 433.764 39.751 433.377 40.1354C432.99 40.5199 432.466 40.7358 431.918 40.7358Z" fill="black"/>
</g>
<g clip-path="url(#clip5_628_257)">
<path d="M502.892 132.835H415.816L404.374 146.272V78.4688H502.892V132.835Z" fill="white"/>
<path d="M404.374 148.336C404.103 148.336 403.835 148.282 403.584 148.179C403.334 148.075 403.106 147.923 402.915 147.731C402.723 147.54 402.571 147.312 402.468 147.062C402.364 146.811 402.311 146.543 402.311 146.272V78.4686C402.311 77.9213 402.528 77.3963 402.915 77.0093C403.302 76.6222 403.827 76.4048 404.374 76.4048H502.892C503.439 76.4048 503.964 76.6222 504.351 77.0093C504.738 77.3963 504.956 77.9213 504.956 78.4686V132.835C504.956 133.383 504.738 133.908 504.351 134.295C503.964 134.682 503.439 134.899 502.892 134.899H416.769L405.945 147.61C405.751 147.838 405.511 148.02 405.239 148.146C404.968 148.271 404.673 148.336 404.374 148.336ZM406.438 80.5325V140.666L414.245 131.497C414.439 131.27 414.679 131.087 414.951 130.962C415.222 130.836 415.517 130.772 415.816 130.772H500.829V80.5325H406.438Z" fill="black"/>
<path d="M480.403 98.326H426.757C426.21 98.326 425.685 98.1085 425.298 97.7215C424.911 97.3344 424.693 96.8095 424.693 96.2621C424.693 95.7147 424.911 95.1898 425.298 94.8027C425.685 94.4157 426.21 94.1982 426.757 94.1982H480.403C480.95 94.1982 481.475 94.4157 481.862 94.8027C482.248 95.1898 482.466 95.7147 482.466 96.2621C482.466 96.8095 482.248 97.3344 481.862 97.7215C481.475 98.1085 480.95 98.326 480.403 98.326ZM480.403 115.869H426.757C426.21 115.869 425.685 115.651 425.298 115.264C424.911 114.877 424.693 114.352 424.693 113.805C424.693 113.257 424.911 112.733 425.298 112.345C425.685 111.958 426.21 111.741 426.757 111.741H480.403C480.95 111.741 481.475 111.958 481.862 112.345C482.248 112.733 482.466 113.257 482.466 113.805C482.466 114.352 482.248 114.877 481.862 115.264C481.475 115.651 480.95 115.869 480.403 115.869Z" fill="black"/>
</g>
<g clip-path="url(#clip6_628_257)">
<path d="M136.033 42.4594H181.92L193.256 55.7747V2.04517H136.033V42.4594Z" fill="white"/>
<path d="M193.256 57.82C192.96 57.8201 192.667 57.7558 192.399 57.6317C192.13 57.5076 191.891 57.3265 191.699 57.1011L180.975 44.5051H136.033C135.491 44.505 134.971 44.2894 134.588 43.9058C134.204 43.5222 133.989 43.0019 133.989 42.4595V2.04525C133.989 1.50282 134.204 0.9826 134.588 0.599041C134.971 0.215481 135.491 0 136.033 0L193.256 0C193.798 0 194.318 0.215481 194.701 0.599041C195.085 0.9826 195.3 1.50282 195.3 2.04525V55.7747C195.3 56.3171 195.085 56.8373 194.701 57.2208C194.318 57.6044 193.798 57.8199 193.256 57.82ZM138.078 40.4142H181.92C182.519 40.4142 183.088 40.677 183.476 41.1331L191.212 50.2188V4.09051H138.078V40.4142Z" fill="black"/>
<path d="M164.645 34.4571C171.309 34.4571 176.712 29.0519 176.712 22.3843C176.712 15.7167 171.309 10.3115 164.645 10.3115C157.98 10.3115 152.577 15.7167 152.577 22.3843C152.577 29.0519 157.98 34.4571 164.645 34.4571Z" fill="#C04040"/>
<path d="M164.645 36.5022C156.863 36.5022 150.533 30.1691 150.533 22.3842C150.533 14.5992 156.863 8.26611 164.645 8.26611C172.426 8.26611 178.757 14.5992 178.757 22.3842C178.757 30.1691 172.426 36.5022 164.645 36.5022ZM164.645 12.3566C159.118 12.3566 154.621 16.8548 154.621 22.3842C154.621 27.9135 159.118 32.4117 164.645 32.4117C170.172 32.4117 174.668 27.9135 174.668 22.3842C174.668 16.8548 170.172 12.3566 164.645 12.3566Z" fill="#C04040"/>
<path d="M159.998 21.0463C159.456 21.0463 158.936 20.8308 158.552 20.4472C158.169 20.0637 157.953 19.5435 157.953 19.001V16.274C157.953 15.7316 158.169 15.2114 158.552 14.8278C158.936 14.4442 159.456 14.2288 159.998 14.2288C160.54 14.2288 161.06 14.4442 161.443 14.8278C161.827 15.2114 162.042 15.7316 162.042 16.274V19.001C162.042 19.5435 161.827 20.0637 161.443 20.4472C161.06 20.8308 160.54 21.0463 159.998 21.0463ZM169.197 21.0463C168.655 21.0463 168.135 20.8308 167.752 20.4472C167.368 20.0637 167.153 19.5435 167.153 19.001V16.274C167.153 15.7316 167.368 15.2114 167.752 14.8278C168.135 14.4442 168.655 14.2288 169.197 14.2288C169.74 14.2288 170.26 14.4442 170.643 14.8278C171.026 15.2114 171.242 15.7316 171.242 16.274V19.001C171.242 19.5435 171.026 20.0637 170.643 20.4472C170.26 20.8308 169.74 21.0463 169.197 21.0463ZM164.645 31.503C160.765 31.503 157.11 29.273 156.143 26.3155C155.974 25.7999 156.017 25.2385 156.263 24.7547C156.508 24.2709 156.935 23.9044 157.45 23.7358C157.966 23.5672 158.527 23.6103 159.011 23.8556C159.494 24.101 159.861 24.5285 160.029 25.0441C160.395 26.1642 162.381 27.4125 164.645 27.4125C166.925 27.4125 168.927 26.1615 169.297 25.0389C169.474 24.5324 169.842 24.1155 170.323 23.8782C170.804 23.6409 171.359 23.6021 171.869 23.7702C172.378 23.9383 172.801 24.2998 173.046 24.7769C173.291 25.254 173.34 25.8084 173.18 26.3206C172.206 29.275 168.536 31.503 164.645 31.503H164.645Z" fill="white"/>
</g>
<g clip-path="url(#clip7_628_257)">
<path d="M466.921 153.914C467.283 153.187 466.992 152.302 466.269 151.938C465.546 151.573 464.666 151.866 464.303 152.593L443.102 195.07C442.739 195.797 443.031 196.682 443.754 197.047C444.476 197.412 445.357 197.118 445.719 196.391L466.921 153.914Z" fill="black"/>
<path d="M444.405 199.272C443.874 199.272 443.336 199.151 442.831 198.895C441.095 198.019 440.392 195.887 441.263 194.142L462.465 151.665C462.672 151.249 462.958 150.878 463.308 150.574C463.658 150.269 464.064 150.038 464.504 149.892C465.397 149.595 466.351 149.665 467.192 150.089C468.927 150.965 469.63 153.097 468.759 154.842L447.557 197.319C446.94 198.556 445.695 199.272 444.405 199.272Z" fill="black"/>
</g>
<defs>
<clipPath id="clip0_628_257">
<rect width="285.544" height="229.903" fill="white" transform="translate(0 124.588)"/>
</clipPath>
<clipPath id="clip1_628_257">
<rect width="315.856" height="250.898" fill="white" transform="translate(242.833 118.049)"/>
</clipPath>
<clipPath id="clip2_628_257">
<rect width="42.6884" height="41.6661" fill="white" transform="matrix(0.320428 0.947273 -0.947441 0.319929 265.72 88.2419)"/>
</clipPath>
<clipPath id="clip3_628_257">
<rect width="102.644" height="71.9308" fill="white" transform="translate(69.2333 65.7358)"/>
</clipPath>
<clipPath id="clip4_628_257">
<rect width="102.644" height="46.1183" fill="white" transform="translate(353.056 23.0591)"/>
</clipPath>
<clipPath id="clip5_628_257">
<rect width="102.644" height="71.9308" fill="white" transform="translate(402.311 76.4048)"/>
</clipPath>
<clipPath id="clip6_628_257">
<rect width="61.3111" height="57.82" fill="white" transform="translate(133.989)"/>
</clipPath>
<clipPath id="clip7_628_257">
<rect width="28.2444" height="49.56" fill="white" transform="translate(440.889 149.712)"/>
</clipPath>
</defs>
</svg>
