<svg width="40" height="35" viewBox="0 0 40 35" fill="none" xmlns="http://www.w3.org/2000/svg">
<path d="M21.64 34L19.912 26.848H10.216L8.536 34H0.376L10.408 0.735999H19.96L29.992 34H21.64ZM11.56 21.136H18.568L15.064 6.448L11.56 21.136ZM35.4475 26.128C36.6315 26.128 37.6395 26.56 38.4715 27.424C39.3355 28.256 39.7675 29.264 39.7675 30.448C39.7675 31.664 39.3355 32.704 38.4715 33.568C37.6395 34.4 36.6315 34.816 35.4475 34.816C34.2315 34.816 33.1915 34.4 32.3275 33.568C31.4955 32.704 31.0795 31.664 31.0795 30.448C31.0795 29.264 31.4955 28.256 32.3275 27.424C33.1915 26.56 34.2315 26.128 35.4475 26.128Z" fill="black"/>
</svg>
