<svg width="25" height="25" viewBox="0 0 25 25" fill="none" xmlns="http://www.w3.org/2000/svg">
<path d="M12.5 6.25C15.9519 6.25 18.75 9.04808 18.75 12.5C18.75 15.9519 15.9519 18.75 12.5 18.75C9.04808 18.75 6.25 15.9519 6.25 12.5C6.25 9.04808 9.04808 6.25 12.5 6.25ZM12.5 16.8269C14.8899 16.8269 16.8269 14.8899 16.8269 12.5C16.8269 10.1101 14.8899 8.17308 12.5 8.17308C10.1101 8.17308 8.17308 10.1101 8.17308 12.5C8.17308 14.8899 10.1101 16.8269 12.5 16.8269ZM13.4615 0.961538C13.4615 1.1375 13.4615 3.67019 13.4615 3.84615C13.4615 4.3774 13.0312 4.80769 12.5 4.80769C11.9688 4.80769 11.5385 4.3774 11.5385 3.84615C11.5385 3.67019 11.5385 1.1375 11.5385 0.961538C11.5385 0.430288 11.9688 0 12.5 0C13.0312 0 13.4615 0.430288 13.4615 0.961538ZM21.3389 5.02115C21.2144 5.14567 19.4236 6.93654 19.299 7.06106C18.9236 7.43654 18.3149 7.43654 17.9394 7.06106C17.5639 6.68558 17.5639 6.07692 17.9394 5.70144C18.0639 5.57692 19.8548 3.78606 19.9793 3.66154C20.3548 3.28606 20.9635 3.28606 21.3389 3.66154C21.7144 4.03702 21.7144 4.64567 21.3389 5.02115ZM24.0385 13.4615C23.8625 13.4615 21.3298 13.4615 21.1538 13.4615C20.6226 13.4615 20.1923 13.0312 20.1923 12.5C20.1923 11.9688 20.6226 11.5385 21.1538 11.5385C21.3298 11.5385 23.8625 11.5385 24.0385 11.5385C24.5697 11.5385 25 11.9688 25 12.5C25 13.0312 24.5697 13.4615 24.0385 13.4615ZM19.9788 21.3389C19.8543 21.2144 18.0635 19.4236 17.9389 19.299C17.5635 18.9236 17.5635 18.3149 17.9389 17.9394C18.3144 17.5639 18.9231 17.5639 19.2986 17.9394C19.4231 18.0639 21.2139 19.8548 21.3385 19.9793C21.7139 20.3548 21.7139 20.9635 21.3385 21.3389C20.963 21.7144 20.3543 21.7144 19.9788 21.3389ZM11.5385 24.0385C11.5385 23.8625 11.5385 21.3298 11.5385 21.1538C11.5385 20.6226 11.9688 20.1923 12.5 20.1923C13.0312 20.1923 13.4615 20.6226 13.4615 21.1538C13.4615 21.3298 13.4615 23.8625 13.4615 24.0385C13.4615 24.5697 13.0312 25 12.5 25C11.9688 25 11.5385 24.5697 11.5385 24.0385ZM3.66106 19.9788C3.78558 19.8543 5.57644 18.0635 5.70096 17.9389C6.07644 17.5635 6.6851 17.5635 7.06058 17.9389C7.43606 18.3144 7.43606 18.9231 7.06058 19.2986C6.93606 19.4231 5.14519 21.2139 5.02067 21.3385C4.64519 21.7139 4.03654 21.7139 3.66106 21.3385C3.28558 20.963 3.28558 20.3543 3.66106 19.9788ZM0.961538 11.5385C1.1375 11.5385 3.67019 11.5385 3.84615 11.5385C4.3774 11.5385 4.80769 11.9688 4.80769 12.5C4.80769 13.0312 4.3774 13.4615 3.84615 13.4615C3.67019 13.4615 1.1375 13.4615 0.961538 13.4615C0.430288 13.4615 0 13.0312 0 12.5C0 11.9688 0.430288 11.5385 0.961538 11.5385ZM5.02115 3.66106C5.14567 3.78558 6.93654 5.57644 7.06106 5.70096C7.43654 6.07644 7.43654 6.6851 7.06106 7.06058C6.68558 7.43606 6.07692 7.43606 5.70144 7.06058C5.57692 6.93606 3.78606 5.14519 3.66154 5.02067C3.28606 4.64519 3.28606 4.03654 3.66154 3.66106C4.03702 3.28558 4.64567 3.28558 5.02115 3.66106Z" fill="#646464"/>
</svg>
