<svg width="617" height="957" viewBox="0 0 617 957" fill="none" xmlns="http://www.w3.org/2000/svg">
<g filter="url(#filter0_d_250_153)">
<circle cx="304.5" cy="310.5" r="277.5" fill="#FFD037"/>
</g>
<g filter="url(#filter1_d_250_153)">
<circle cx="581.5" cy="453.5" r="277.5" fill="#1FC59D"/>
</g>
<g filter="url(#filter2_d_250_153)">
<circle cx="430.5" cy="668.5" r="277.5" fill="#DD4444"/>
</g>
<g clip-path="url(#clip0_250_153)">
<path d="M532.034 317.219C534.91 311.498 536.885 304.297 536.684 295.384C536.176 272.914 523.379 263.346 508.562 252.269C497.065 243.674 483.891 232.518 477.028 216.734C468.91 198.063 474.042 180.095 476.672 173.662C480.561 164.148 492.179 152.58 511.234 164.02C514.732 166.12 526.276 174.52 526.276 174.52L560.179 185.618L532.108 187.306L559.917 195.771L522.08 196.569C515.433 199.719 511.886 200.101 510.719 200.414C507.857 201.181 499.658 202.761 502.335 212.177C504.693 220.468 513.211 226.417 522.617 233.449C539.001 245.699 559.392 260.942 560.157 294.853C560.429 306.86 558.275 317.154 554.98 325.788C546.009 349.292 515.477 351.432 515.477 351.432L532.034 317.219Z" fill="white"/>
<path d="M515.476 353.533C515.121 353.533 514.771 353.443 514.46 353.271C514.149 353.098 513.887 352.85 513.698 352.549C513.509 352.247 513.4 351.903 513.381 351.548C513.361 351.192 513.433 350.838 513.587 350.518L530.144 316.304L530.158 316.276C533.268 310.09 534.758 303.077 534.585 295.432C534.363 285.62 531.741 277.807 526.332 270.842C521.39 264.481 514.549 259.366 507.306 253.951C495.301 244.977 482.089 233.636 475.103 217.572C465.954 196.53 473.186 176.641 474.729 172.867C477.606 165.828 483.136 160.358 489.519 158.234C496.417 155.939 504.087 157.28 512.315 162.219C515.594 164.188 525.444 171.319 527.244 172.627L560.833 183.623C561.297 183.775 561.694 184.084 561.955 184.497C562.215 184.911 562.324 185.402 562.261 185.887C562.199 186.371 561.97 186.819 561.613 187.153C561.256 187.486 560.794 187.685 560.306 187.715L543.903 188.701L560.529 193.762C561.007 193.908 561.417 194.219 561.686 194.639C561.955 195.06 562.066 195.563 561.997 196.058C561.929 196.553 561.687 197.008 561.314 197.34C560.941 197.672 560.462 197.86 559.962 197.871L522.569 198.66C517.042 201.236 513.603 201.95 511.929 202.297C511.649 202.355 511.427 202.399 511.262 202.443C511.112 202.483 510.947 202.526 510.772 202.571C508.923 203.049 505.828 203.848 504.542 206.092C503.764 207.45 503.702 209.304 504.355 211.603C506.384 218.735 513.744 224.219 522.267 230.57L523.874 231.768C532.135 237.944 541.498 244.944 548.919 254.763C557.543 266.173 561.906 279.272 562.256 294.807C562.508 305.96 560.72 316.637 556.939 326.539C553.056 336.713 544.652 344.611 532.637 349.378C527.187 351.55 521.46 352.947 515.622 353.528C515.574 353.532 515.525 353.533 515.476 353.533ZM533.916 318.148L519.067 348.832C523.217 348.115 527.282 346.975 531.199 345.429C542.188 341.042 549.53 334.182 553.019 325.039C556.603 315.648 558.299 305.509 558.059 294.901C557.729 280.278 553.644 267.977 545.571 257.295C538.509 247.95 529.399 241.141 521.364 235.132L519.762 233.937C510.627 227.131 502.737 221.253 500.319 212.752C499.344 209.322 499.54 206.379 500.902 204.002C503.068 200.222 507.399 199.105 509.726 198.504C509.888 198.462 510.041 198.423 510.178 198.386C510.431 198.318 510.718 198.259 511.08 198.183C512.635 197.861 515.872 197.189 521.184 194.671C521.451 194.545 521.742 194.476 522.038 194.47L546.725 193.948L531.502 189.314C531.03 189.171 530.625 188.867 530.355 188.454C530.086 188.042 529.97 187.548 530.028 187.059C530.085 186.569 530.313 186.116 530.671 185.778C531.03 185.44 531.495 185.238 531.987 185.209L549.051 184.183L525.627 176.516C525.418 176.448 525.222 176.347 525.045 176.218C524.93 176.135 513.536 167.849 510.157 165.821C503.027 161.54 496.53 160.328 490.848 162.219C483.086 164.802 479.524 172.239 478.618 174.457C477.187 177.957 470.48 196.402 478.956 215.897C485.55 231.062 498.259 241.943 509.822 250.588C517.299 256.177 524.361 261.457 529.65 268.266C535.639 275.978 538.542 284.581 538.785 295.338C538.97 303.671 537.333 311.346 533.917 318.149L533.916 318.148Z" fill="black"/>
<path d="M360.115 498.968C354.518 504.218 348.65 507.659 341.924 510.518C339.213 511.671 325.778 534.458 325.778 534.458C325.778 534.458 421.313 503.953 430.77 501.915C442.402 499.41 449.438 502.607 455.265 512.267C467.508 532.567 481.683 551.126 478.353 552.167C474.075 553.505 462.261 549.017 448.269 529.417C443.721 533.967 443.837 540.797 445.82 544.467C447.803 548.137 436.69 546.876 435.675 535.717C435.325 531.867 435.832 529.362 433.926 526.967C430.959 523.24 425.635 524.018 413.123 527.597C397.696 532.011 332.907 552.878 332.907 552.878C332.907 552.878 324.283 561.706 315.046 561.23C305.715 560.749 298.14 549.782 306.015 532.3L332.872 461.68H382.896C372.052 489.333 360.115 498.968 360.115 498.968Z" fill="white"/>
<path d="M315.771 563.352C315.494 563.352 315.216 563.345 314.938 563.33C310.14 563.083 305.904 560.507 303.315 556.263C301.085 552.607 298.223 544.533 304.075 531.498L312.327 509.773C312.423 509.513 312.569 509.274 312.758 509.071C312.947 508.867 313.174 508.703 313.426 508.588C313.679 508.473 313.952 508.41 314.229 508.401C314.506 508.392 314.782 508.438 315.042 508.536C315.301 508.635 315.538 508.784 315.74 508.975C315.941 509.166 316.103 509.395 316.215 509.648C316.327 509.902 316.388 510.176 316.395 510.453C316.401 510.731 316.352 511.006 316.251 511.265L307.977 533.049C307.962 533.088 307.946 533.127 307.929 533.166C304.208 541.426 303.832 549.048 306.899 554.075C307.75 555.535 308.95 556.761 310.391 557.644C311.831 558.527 313.468 559.04 315.154 559.136C323.346 559.56 331.326 551.495 331.406 551.414C331.645 551.169 331.939 550.987 332.264 550.882C332.912 550.672 397.265 529.954 412.547 525.581C425.258 521.944 431.673 520.766 435.569 525.661C437.428 527.996 437.522 530.421 437.621 532.986C437.652 533.791 437.684 534.622 437.767 535.529C438.175 540.017 440.405 542.218 441.698 543.13C442.193 543.484 442.733 543.769 443.305 543.978C441.555 539.238 442.29 532.431 446.786 527.934C447.001 527.718 447.261 527.552 447.547 527.447C447.833 527.342 448.139 527.301 448.443 527.326C448.747 527.351 449.041 527.442 449.306 527.593C449.571 527.744 449.801 527.95 449.978 528.199C457.582 538.85 464.029 544.239 468.098 546.885C471.963 549.397 474.797 550.188 476.459 550.275C475.222 547.148 470.247 539.542 465.791 532.73C461.957 526.867 457.611 520.222 453.469 513.354C448.023 504.324 441.785 501.694 431.213 503.971C421.961 505.963 327.371 536.156 326.417 536.461C326.012 536.59 325.577 536.593 325.17 536.47C324.763 536.347 324.403 536.103 324.138 535.77C323.872 535.437 323.714 535.032 323.685 534.607C323.655 534.183 323.755 533.759 323.971 533.393C324.006 533.336 327.389 527.6 331.062 521.798C338.808 509.563 340.245 508.953 341.104 508.586C348.3 505.527 353.721 502.089 358.68 497.437C358.88 497.246 359.117 497.096 359.376 496.996C359.635 496.896 359.91 496.849 360.188 496.856C360.465 496.864 360.738 496.927 360.991 497.04C361.244 497.154 361.471 497.317 361.661 497.519C361.851 497.722 361.998 497.96 362.096 498.22C362.193 498.479 362.238 498.756 362.227 499.033C362.217 499.31 362.152 499.583 362.036 499.835C361.92 500.087 361.755 500.313 361.551 500.501C356.239 505.484 350.465 509.16 342.842 512.411C341.301 513.56 335.792 521.939 330.431 530.772C350.805 524.282 422.066 501.644 430.33 499.864C442.678 497.204 450.673 500.59 457.063 511.184C461.166 517.986 465.489 524.597 469.304 530.43C479.274 545.676 481.703 549.831 480.76 552.463C480.617 552.868 480.382 553.233 480.072 553.53C479.763 553.827 479.389 554.047 478.98 554.173C478.241 554.395 477.473 554.504 476.702 554.495C470.3 554.495 459.604 548.088 448.204 532.886C445.966 536.612 446.418 541.159 447.667 543.47C448.374 544.78 448.307 546.16 447.486 547.162C446.461 548.412 444.518 548.75 442.287 548.064C438.682 546.956 434.24 543.109 433.586 535.909C433.493 534.894 433.458 533.966 433.426 533.148C433.332 530.708 433.243 529.482 432.285 528.277C430.261 525.735 426.268 526.023 413.701 529.619C399.177 533.775 339.943 552.824 334.023 554.728C332.213 556.461 324.465 563.351 315.771 563.352Z" fill="black"/>
<path d="M148.825 372.268C96.3528 360.018 65.2988 406.081 63.8198 428.968C63.2118 438.373 75.736 422.859 92.5048 422.483C81.685 442.042 82.5315 463.228 92.5048 457.668C95.877 455.788 97.4456 449.082 109.646 442.968C109.646 442.968 113.529 441.21 119.679 440.208C115.32 446.836 112.861 455.295 114.616 465.981C116.388 476.771 132.034 450.318 171.214 448.568C171.214 448.568 183.501 448.032 218.132 452.932V402.775C168.109 376.283 148.825 372.268 148.825 372.268Z" fill="white"/>
<path d="M65.3726 434.097C64.6806 434.107 64.001 433.912 63.4195 433.537C61.5011 432.299 61.6705 429.69 61.725 428.833C62.1756 421.863 65.0665 413.505 69.866 405.296C75.2197 396.131 82.3551 388.134 90.8504 381.776C102.628 373.03 122.329 363.926 149.302 370.223C149.571 370.285 149.825 370.4 150.05 370.56C150.275 370.721 150.465 370.924 150.611 371.159C150.757 371.393 150.856 371.654 150.901 371.927C150.946 372.199 150.937 372.478 150.874 372.747C150.811 373.016 150.696 373.27 150.535 373.494C150.374 373.718 150.171 373.909 149.936 374.054C149.701 374.2 149.44 374.298 149.168 374.342C148.895 374.387 148.617 374.377 148.348 374.313C122.94 368.383 104.417 376.932 93.3523 385.148C76.3918 397.745 66.7096 416.796 65.9141 429.105C65.8974 429.339 65.8933 429.574 65.9018 429.808C66.9964 429.496 69.1177 428.363 70.8776 427.423C75.9909 424.693 83.7187 420.565 92.5044 420.382C93.061 420.371 93.5995 420.581 94.0013 420.966C94.4032 421.352 94.6354 421.882 94.647 422.439C94.6586 422.996 94.4486 423.534 94.0632 423.936C93.6778 424.338 93.1485 424.571 92.5918 424.582C84.8098 424.744 77.8995 428.434 72.8545 431.127C69.6827 432.823 67.2966 434.097 65.3726 434.097Z" fill="black"/>
<path d="M89.5355 460.678C88.1002 460.681 86.7185 460.133 85.6752 459.146C80.7054 454.527 81.9028 439.941 88.4007 425.938C91.8754 418.449 98.3551 407.917 109.491 400.27C120.469 392.73 133.316 389.792 147.679 391.536C148.232 391.603 148.735 391.887 149.078 392.326C149.421 392.764 149.577 393.321 149.509 393.874C149.442 394.427 149.158 394.931 148.72 395.274C148.282 395.618 147.725 395.773 147.173 395.706C133.856 394.088 121.977 396.789 111.866 403.733C101.514 410.842 95.4621 420.694 92.2067 427.707C85.8246 441.463 85.7644 453.496 88.5305 456.068C88.79 456.309 89.4802 456.951 91.4815 455.835C92.249 455.407 93.0732 454.365 94.1167 453.043C96.5336 449.984 100.186 445.36 108.704 441.091C108.951 440.968 109.219 440.894 109.494 440.874C109.769 440.855 110.045 440.889 110.306 440.976C110.568 441.063 110.81 441.201 111.018 441.382C111.227 441.562 111.397 441.782 111.521 442.029C111.644 442.275 111.718 442.544 111.738 442.819C111.757 443.094 111.723 443.37 111.636 443.632C111.549 443.894 111.411 444.136 111.231 444.344C111.05 444.553 110.83 444.723 110.584 444.847C102.9 448.697 99.7267 452.714 97.4095 455.647C96.1288 457.268 95.0231 458.668 93.5244 459.503C92.3177 460.231 90.9439 460.636 89.5355 460.678ZM116.722 470.664C116.161 470.668 115.606 470.551 115.095 470.322C113.05 469.403 112.67 467.084 112.545 466.323C109.945 450.486 115.944 436.869 129.896 426.944C136.501 422.328 143.854 418.891 151.631 416.784C152.171 416.656 152.74 416.748 153.213 417.039C153.686 417.329 154.024 417.796 154.154 418.336C154.284 418.876 154.195 419.445 153.906 419.92C153.618 420.394 153.153 420.735 152.614 420.867C152.509 420.892 141.914 423.515 132.233 430.435C119.569 439.487 114.338 451.332 116.687 465.642C116.726 465.92 116.796 466.194 116.897 466.456C118.027 466.324 121.162 464.341 123.71 462.73C132.711 457.039 147.774 447.514 171.12 446.471C171.396 446.458 171.672 446.499 171.932 446.593C172.192 446.687 172.431 446.831 172.635 447.017C172.839 447.203 173.004 447.428 173.121 447.678C173.239 447.928 173.305 448.199 173.318 448.475C173.33 448.751 173.288 449.027 173.193 449.287C173.099 449.547 172.954 449.785 172.767 449.989C172.58 450.192 172.355 450.357 172.105 450.473C171.854 450.59 171.583 450.656 171.307 450.667C149.075 451.66 134.601 460.812 125.953 466.281C121.833 468.886 119.02 470.664 116.722 470.664ZM544.945 334.847C540.687 334.322 543.17 323.066 543.17 323.066C543.17 323.066 534.844 333.19 531.672 330.976C528.499 328.762 532.034 317.221 532.034 317.221C524.128 333.934 504.188 341.403 495.38 341.403C484.959 341.403 473.82 335.651 461.603 341.403C449.386 347.155 429.728 318.342 392.066 312.147C319.48 300.206 280.402 331.509 234.181 352.318C192.203 371.218 152.162 357.443 156.171 365.618C167.409 388.532 201.442 389.782 199.199 395.018C193.952 407.268 157.655 396.051 160.719 402.368C172.263 426.168 213.646 427.603 212.142 432.118C209.344 440.518 180.309 433.868 180.659 439.468C181.008 445.068 200.598 468.518 300.646 485.668C300.646 485.668 393.47 495.496 431.573 482.253C490.047 461.93 483.45 419.312 482.779 407.208C482.217 397.072 486.909 394.812 495.383 389.23C497.686 387.714 500.34 386.095 503.366 384.338C535.854 365.478 548.003 341.629 554.98 325.788C554.98 325.788 549.204 335.373 544.945 334.847Z" fill="black"/>
<path d="M368.892 491.283C363.445 491.283 357.734 491.198 351.76 491.027C324.032 490.232 300.658 487.782 300.425 487.758C300.38 487.753 300.335 487.747 300.291 487.739C257.223 480.356 224.264 471.063 202.329 460.117C180.241 449.095 178.657 441.092 178.563 439.6C178.53 439.123 178.596 438.645 178.757 438.195C178.919 437.745 179.173 437.334 179.502 436.988C181.409 434.943 185.637 434.815 192.947 434.763C198.782 434.723 207.326 434.663 209.646 432.26C208.124 431.56 204.77 430.626 201.746 429.785C188.748 426.168 166.994 420.116 158.831 403.286C158.071 401.72 158.573 400.572 158.94 400.027C160.418 397.832 164.047 397.98 172.114 398.522C180.855 399.109 193.926 399.988 197.007 394.713C195.838 393.894 192.391 392.683 189.559 391.691C179.196 388.056 161.853 381.971 154.287 366.544C153.445 364.829 153.832 363.589 154.305 362.852C155.892 360.377 160.007 360.486 169.018 360.727C183.628 361.117 208.08 361.768 233.32 350.405C242.049 346.474 250.697 342.079 259.06 337.828C295.373 319.373 332.923 300.289 392.407 310.073C413.062 313.471 428.595 323.644 439.937 331.073C449.327 337.223 456.111 341.668 460.71 339.502C469.56 335.336 477.948 336.807 485.348 338.105C488.86 338.721 492.178 339.303 495.38 339.303C503.449 339.303 522.549 332.364 530.137 316.322C530.364 315.843 530.764 315.467 531.257 315.27C531.749 315.074 532.298 315.071 532.793 315.263C533.287 315.455 533.691 315.826 533.922 316.304C534.154 316.781 534.196 317.328 534.041 317.836C533.504 319.666 533.078 321.527 532.766 323.408C532.097 327.605 532.661 328.91 532.836 329.195C534.219 329.14 538.367 325.601 541.549 321.731C541.849 321.367 542.262 321.115 542.723 321.014C543.183 320.914 543.664 320.972 544.088 321.178C544.512 321.384 544.854 321.727 545.059 322.152C545.264 322.577 545.321 323.058 545.219 323.518C544.27 327.846 544.409 332.22 545.19 332.764L544.945 334.847L545.203 332.763C546.911 332.974 550.779 328.685 553.184 324.703C553.459 324.246 553.898 323.912 554.412 323.767C554.926 323.622 555.475 323.679 555.948 323.925C556.422 324.171 556.784 324.588 556.961 325.092C557.138 325.595 557.116 326.147 556.901 326.636C553.232 334.966 548.403 344.875 540.4 355.217C531.03 367.327 518.924 377.735 504.42 386.157C501.3 387.968 498.722 389.548 496.538 390.987C495.937 391.384 495.355 391.764 494.792 392.129C487.456 396.908 484.418 398.885 484.875 407.093C484.91 407.752 484.966 408.503 485.027 409.337C485.561 416.726 486.558 430.479 480.286 444.936C472.621 462.604 456.464 475.827 432.261 484.24C418.783 488.923 397.508 491.283 368.892 491.283ZM300.932 483.588C302.321 483.732 325.061 486.061 351.909 486.829C377.241 487.554 411.507 487.004 430.884 480.27C453.931 472.26 469.259 459.809 476.435 443.262C482.296 429.752 481.349 416.669 480.84 409.64C480.781 408.869 480.729 408.097 480.684 407.325C480.094 396.692 485.029 393.476 492.5 388.608C493.058 388.245 493.634 387.868 494.229 387.478C496.48 385.995 499.124 384.374 502.313 382.523C526.302 368.596 539.084 352.119 547.451 336.533C546.578 336.898 545.627 337.034 544.687 336.93C544.086 336.857 543.507 336.657 542.99 336.341C542.472 336.026 542.029 335.604 541.688 335.102C540.636 333.613 540.332 331.328 540.35 329.102C540.242 329.203 540.132 329.304 540.022 329.404C538.489 330.798 533.826 335.039 530.472 332.696C528.97 331.646 528.24 329.744 528.249 326.816C524.504 331.086 520.044 334.671 515.071 337.41C509.806 340.354 501.869 343.5 495.381 343.5C491.813 343.5 488.159 342.859 484.624 342.24C477.506 340.992 470.145 339.701 462.498 343.301C455.778 346.466 448.169 341.481 437.639 334.586C425.996 326.961 411.508 317.471 391.727 314.216C365.663 309.929 341.614 310.961 318.206 317.376C297.301 323.103 278.827 332.493 260.961 341.573C252.554 345.846 243.861 350.264 235.042 354.235C208.928 365.992 183.875 365.325 168.907 364.926C164.727 364.815 160.061 364.691 158.258 365.101C165.172 378.686 180.663 384.121 190.948 387.73C196.866 389.806 200.126 390.95 201.124 393.219C201.306 393.633 201.401 394.081 201.402 394.533C201.402 394.986 201.309 395.433 201.128 395.848C197.449 404.437 182.644 403.443 171.832 402.714C168.868 402.515 165.018 402.255 163.116 402.445C170.868 416.837 190.833 422.39 202.871 425.739C209.984 427.718 212.911 428.598 213.938 430.529C214.123 430.872 214.236 431.249 214.27 431.637C214.303 432.025 214.257 432.415 214.133 432.785C212.119 438.831 201.949 438.902 192.976 438.965C189.482 438.989 184.323 439.025 182.822 439.711C183.425 441.875 188.09 448.321 204.202 456.36C231.046 469.753 271.606 478.558 300.932 483.588Z" fill="black"/>
<path d="M506.974 181.731C508.991 181.731 510.626 180.094 510.626 178.076C510.626 176.058 508.991 174.422 506.974 174.422C504.957 174.422 503.321 176.058 503.321 178.076C503.321 180.094 504.957 181.731 506.974 181.731Z" fill="black"/>
<path d="M265.664 492.668C278.706 475.763 284.329 458.093 287.689 453.209C308.842 422.461 376.802 428.044 376.802 428.044C376.802 428.044 386.863 458.603 350.93 480.533C314.998 502.463 289.452 508.068 289.452 508.068L237.657 546.822C237.657 546.822 238.125 554.487 231.778 561.616C224.452 569.841 214.303 571.906 214.303 571.906C214.303 571.906 155.122 644.568 138.25 675.395C131.904 686.989 112.094 696.369 101.039 725.57C99.2571 730.276 93.9154 718.729 95.5162 708.181C97.8306 692.932 112.762 675.029 112.762 675.029C112.762 675.029 103.336 675.761 99.438 679.023C96.6702 681.339 93.6398 664.484 115.637 656.694C124.355 653.607 129.752 656.016 136.58 646.669C143.407 637.321 196.337 561.121 196.337 561.121C196.337 561.121 196.521 549.276 203.841 541.953C211.161 534.629 220.887 532.723 220.887 532.723C220.887 532.723 250.272 512.618 265.664 492.668Z" fill="white"/>
<path d="M99.9541 728.748C99.7062 728.748 99.4593 728.716 99.2195 728.653C96.557 727.955 94.9839 723.532 94.2828 720.957C93.1216 716.695 92.836 712.242 93.4433 707.867C95.1556 696.585 103.28 684.193 107.915 677.875C105.251 678.435 102.353 679.326 100.788 680.635C100.367 681.005 99.8442 681.241 99.2878 681.313C98.7314 681.385 98.1663 681.289 97.6645 681.038C96.0847 680.236 95.2567 677.976 95.4498 674.992C95.5817 672.954 96.3352 668.885 99.9026 664.527C103.331 660.336 108.392 657.037 114.94 654.717C117.335 653.906 119.792 653.292 122.286 652.88C127.104 651.976 130.586 651.323 134.889 645.432C141.334 636.608 189.662 567.054 194.268 560.425C194.424 557.695 195.467 547.366 202.359 540.47C209.222 533.604 217.947 531.247 220.036 530.763C223.308 528.483 249.867 509.713 264.005 491.388C272.785 480.006 278.19 468.178 281.767 460.35C283.527 456.497 284.799 453.712 285.964 452.02C291.026 444.663 299.028 438.72 309.752 434.361C318.19 430.931 328.342 428.457 339.924 427.011C352.218 425.532 364.621 425.177 376.979 425.95C377.39 425.983 377.782 426.138 378.106 426.393C378.43 426.648 378.672 426.993 378.801 427.385C378.91 427.718 381.462 435.665 379.408 446.456C377.525 456.344 371.247 470.594 352.029 482.323C318.37 502.866 294.05 509.139 290.359 510.014L239.748 547.881C239.631 550.488 238.758 556.934 233.346 563.013C226.74 570.433 218.09 573.115 215.484 573.784C209.982 580.569 155.91 647.506 140.092 676.404C137.714 680.752 133.679 684.691 129.008 689.253C120.543 697.519 110.011 707.806 103.003 726.315C102.315 728.127 101.054 728.748 99.9541 728.748ZM112.765 672.929C113.164 672.929 113.554 673.043 113.891 673.258C114.228 673.472 114.496 673.778 114.665 674.139C114.835 674.501 114.897 674.903 114.846 675.299C114.795 675.695 114.632 676.068 114.376 676.375C114.23 676.55 99.7886 694.015 97.5918 708.496C96.6588 714.642 98.2987 720.742 99.6294 723.399C106.953 704.921 117.532 694.589 126.076 686.246C130.505 681.92 134.331 678.184 136.41 674.386C153.181 643.744 210.256 573.551 212.677 570.58C212.983 570.203 213.411 569.945 213.886 569.848C213.977 569.829 223.466 567.794 230.211 560.219C235.852 553.884 235.566 547.01 235.563 546.941C235.546 546.595 235.613 546.25 235.759 545.936C235.906 545.622 236.127 545.349 236.403 545.141L288.194 506.388C288.434 506.209 288.71 506.083 289.002 506.018C297.74 504.093 321.702 495.913 349.838 478.741C364.132 470.017 372.678 458.961 375.239 445.882C376.281 440.65 376.252 435.261 375.154 430.04C363.546 429.423 351.907 429.808 340.366 431.19C308.732 435.148 295.2 445.997 289.418 454.401C288.462 455.791 287.192 458.572 285.582 462.095C281.926 470.097 276.401 482.189 267.325 493.953L265.664 492.67L267.325 493.953C251.908 513.938 223.283 533.629 222.072 534.458C221.836 534.619 221.571 534.73 221.291 534.785C221.202 534.802 212.078 536.682 205.325 543.439C198.714 550.053 198.437 561.047 198.434 561.157C198.426 561.573 198.296 561.978 198.059 562.32C197.53 563.082 145.038 638.648 138.275 647.908C132.991 655.143 128.166 656.049 123.058 657.008C120.777 657.381 118.53 657.939 116.34 658.676C105.013 662.687 101.404 668.91 100.262 672.263C99.785 673.57 99.5718 674.958 99.6343 676.348C104.268 673.659 111.68 673.009 112.602 672.938C112.656 672.931 112.711 672.929 112.765 672.929ZM516.669 181.112C516.379 181.113 516.092 181.053 515.826 180.936C515.56 180.82 515.321 180.649 515.125 180.436C510.26 175.151 508.452 175.641 508.377 175.662C508.031 175.77 507.568 176.537 507.367 177.962C507.288 178.512 506.994 179.008 506.55 179.342C506.105 179.675 505.547 179.819 504.997 179.742C504.448 179.664 503.951 179.372 503.616 178.929C503.281 178.486 503.135 177.928 503.21 177.378C503.786 173.28 505.911 172.032 507.128 171.653C510.064 170.737 513.691 172.678 518.213 177.59C518.489 177.89 518.672 178.264 518.74 178.666C518.807 179.069 518.755 179.482 518.592 179.855C518.428 180.229 518.159 180.547 517.818 180.77C517.477 180.993 517.078 181.112 516.67 181.112H516.669ZM532.112 189.406C532.067 189.406 532.021 189.406 531.975 189.401L523.693 188.866C523.138 188.83 522.619 188.574 522.252 188.156C521.885 187.738 521.698 187.19 521.734 186.634C521.77 186.079 522.026 185.56 522.444 185.192C522.862 184.825 523.409 184.638 523.964 184.674L532.246 185.21C532.79 185.245 533.299 185.49 533.666 185.893C534.033 186.297 534.228 186.828 534.211 187.373C534.194 187.918 533.965 188.435 533.573 188.815C533.182 189.194 532.658 189.406 532.112 189.406ZM530.478 180.469C530.369 180.469 530.261 180.46 530.153 180.444L526.4 179.86C526.125 179.821 525.861 179.727 525.622 179.585C525.383 179.443 525.175 179.255 525.01 179.031C524.845 178.808 524.725 178.554 524.659 178.284C524.592 178.014 524.58 177.734 524.622 177.459C524.665 177.184 524.762 176.921 524.907 176.684C525.052 176.447 525.243 176.241 525.468 176.078C525.693 175.916 525.949 175.799 526.219 175.736C526.49 175.673 526.77 175.664 527.044 175.71L530.797 176.293C531.32 176.374 531.793 176.649 532.122 177.064C532.451 177.478 532.611 178.001 532.571 178.529C532.53 179.057 532.292 179.55 531.904 179.909C531.516 180.269 531.007 180.469 530.478 180.469Z" fill="black"/>
<path d="M402.568 456.576C395.752 456.576 393.877 454.49 393.081 452.786C390.41 447.063 398.672 438.421 412.596 424.867C414.642 422.875 416.574 420.995 418.425 419.143C426.792 410.772 426.285 407.715 425.931 406.978C425.536 406.157 423.177 403.597 409.378 405.141C403.655 405.78 400.183 404.608 399.058 401.655C396.285 394.383 411.325 381.806 415.504 378.835C415.729 378.676 415.983 378.562 416.251 378.5C416.52 378.439 416.798 378.431 417.07 378.477C417.342 378.523 417.602 378.622 417.835 378.769C418.069 378.915 418.271 379.106 418.431 379.331C418.59 379.556 418.704 379.81 418.766 380.079C418.827 380.348 418.835 380.626 418.789 380.898C418.743 381.17 418.644 381.43 418.498 381.664C418.351 381.897 418.16 382.1 417.935 382.259C409.109 388.532 402.028 397.659 402.98 400.158C403.18 400.683 404.655 401.443 408.912 400.966C421.075 399.606 427.685 400.937 429.714 405.157C431.626 409.132 428.982 414.52 421.394 422.112C419.523 423.984 417.49 425.962 415.524 427.877C410.398 432.866 405.099 438.027 401.415 442.463C396.356 448.559 396.669 450.545 396.885 451.008C397.325 451.951 400.174 452.813 406.752 452.138C432.719 449.473 448.851 426.68 449.01 426.448C449.329 425.995 449.815 425.686 450.36 425.59C450.906 425.493 451.468 425.616 451.923 425.932C452.378 426.248 452.69 426.732 452.79 427.277C452.891 427.822 452.771 428.385 452.459 428.843C452.284 429.095 448.088 435.095 440.428 441.497C433.331 447.429 421.803 454.814 407.18 456.315C405.648 456.48 404.109 456.567 402.568 456.576Z" fill="white"/>
</g>
<g clip-path="url(#clip1_250_153)">
<path d="M428.913 317.269C422.946 355.263 377.829 335.599 365.034 338.183C344.327 342.366 338.327 344.741 312.388 347.246C261.847 352.126 230.961 319.36 228.153 292.52C225.782 269.863 243.78 291.517 300.381 304.699C333.513 312.416 373.425 306.129 393.004 303.301C422.36 299.059 430.998 303.989 428.913 317.269Z" fill="white"/>
<path d="M302.282 349.833C278.113 349.833 261.319 341.213 251.09 333.438C236.958 322.7 227.601 307.482 226.058 292.736C225.618 288.532 225.565 283.939 228.504 281.743C232.316 278.895 238.455 281.363 250.686 286.282C262.393 290.989 278.428 297.436 300.86 302.661C332.374 310.001 370.144 304.509 390.437 301.557L392.699 301.229C411.941 298.449 422.807 299.502 427.93 304.642C430.892 307.614 431.893 311.849 430.992 317.589C428.903 330.892 421.855 339.075 410.044 341.909C400.213 344.268 388.704 342.602 379.459 341.263C373.484 340.398 368.324 339.651 365.452 340.231C360.287 341.274 355.97 342.22 352.161 343.054C340.552 345.599 332.164 347.435 312.59 349.325C309.164 349.661 305.724 349.83 302.282 349.833ZM232.517 284.725C231.997 284.687 231.478 284.814 231.035 285.087C230.5 285.486 229.688 286.954 230.247 292.302C231.672 305.926 240.421 320.061 253.65 330.115C264.674 338.494 283.779 347.904 312.184 345.163C331.506 343.297 339.79 341.482 351.255 338.97C355.081 338.132 359.416 337.182 364.615 336.132C368.206 335.406 373.703 336.202 380.068 337.124C388.955 338.411 400.016 340.013 409.056 337.843C419.19 335.411 425.005 328.575 426.832 316.945C427.522 312.548 426.92 309.574 424.938 307.585C420.96 303.593 410.613 302.868 393.306 305.369L391.049 305.696C370.482 308.689 332.194 314.257 299.9 306.735C277.15 301.437 260.274 294.651 249.106 290.16C241.945 287.28 235.59 284.725 232.517 284.725Z" fill="black"/>
</g>
<g clip-path="url(#clip2_250_153)">
<path d="M401.333 306.453H409.491V327.421H401.333V306.453Z" fill="white"/>
<path d="M409.491 329.452H401.333C400.794 329.452 400.277 329.238 399.895 328.857C399.514 328.476 399.3 327.96 399.3 327.421V306.453C399.3 305.914 399.514 305.398 399.895 305.017C400.277 304.636 400.794 304.423 401.333 304.423H409.491C410.03 304.423 410.547 304.636 410.928 305.017C411.309 305.398 411.524 305.914 411.524 306.453V327.421C411.524 327.96 411.309 328.476 410.928 328.857C410.547 329.238 410.03 329.452 409.491 329.452ZM403.366 325.391H407.458V308.483H403.366V325.391Z" fill="black"/>
</g>
<g clip-path="url(#clip3_250_153)">
<path d="M431.086 158.836C432.495 155.666 436.369 147.917 431.086 141.93C431.086 141.93 415.587 134.886 405.772 150.949C405.772 150.949 405.885 145.159 403.057 143.115C400.098 140.977 395.861 141.93 394.3 145.708C391.94 151.42 395.44 156.128 395.44 156.128C395.44 156.128 391.757 166.109 384.384 165.698C384.384 165.698 381.48 167.195 380.404 173.331C379.71 180.034 381.169 186.255 384.622 191.32C390.673 200.195 396.281 201.081 398.275 201.08L398.671 198.946C401.7 184.924 407.881 181.285 407.881 181.285C407.881 181.285 410.655 183.137 416.291 182.433C425.824 181.241 428.673 172.587 428.673 172.587C430.733 172.924 433.551 172.219 433.551 170.106C433.551 167.641 430.733 165.175 431.086 158.836Z" fill="white"/>
<path d="M440.23 117.606C440.23 117.606 437.997 125.818 427.801 127.977C426.651 125.819 420.276 115.307 405.106 115.041C393.13 114.832 378.249 119.742 375.073 136.847C371.426 156.485 383.181 165.164 383.181 165.164L384.384 165.697C391.757 166.107 395.44 156.127 395.44 156.127C395.44 156.127 391.939 151.419 394.3 145.706C395.861 141.929 400.099 140.976 403.056 143.113C405.885 145.156 405.772 150.947 405.772 150.947C415.587 134.885 431.086 141.929 431.086 141.929H432.142C432.142 141.929 438.655 141.601 442.357 134.532C446.232 127.138 440.23 117.606 440.23 117.606Z" fill="#17ADFF"/>
<path d="M384.84 167.824C384.651 167.824 384.461 167.819 384.267 167.808C384.011 167.794 383.761 167.735 383.527 167.632L382.324 167.099C382.182 167.037 382.048 166.959 381.923 166.867C381.4 166.479 369.149 157.163 372.993 136.463C374.555 128.059 378.833 121.727 385.709 117.635C391.024 114.473 397.925 112.8 405.143 112.928C419.224 113.175 426.324 121.705 428.811 125.543C436.318 123.304 438.117 117.308 438.194 117.038C438.306 116.646 438.528 116.294 438.835 116.025C439.142 115.756 439.52 115.582 439.924 115.523C440.328 115.464 440.74 115.523 441.111 115.692C441.483 115.862 441.797 116.135 442.017 116.479C442.288 116.91 448.616 127.136 444.228 135.513C440.013 143.558 432.562 144.024 432.247 144.04C432.212 144.04 432.176 144.042 432.141 144.042H431.084C430.783 144.042 430.485 143.978 430.21 143.853C429.65 143.603 416.261 137.83 407.574 152.049C407.332 152.446 406.966 152.751 406.533 152.919C406.1 153.086 405.624 153.106 405.178 152.976C404.733 152.846 404.342 152.573 404.067 152.199C403.792 151.825 403.648 151.371 403.657 150.907C403.681 149.377 403.263 145.87 401.817 144.826C401.373 144.496 400.859 144.272 400.314 144.171C399.77 144.069 399.21 144.093 398.676 144.24C398.124 144.407 397.619 144.7 397.198 145.094C396.778 145.488 396.454 145.974 396.252 146.514C394.398 151 397.03 154.72 397.143 154.877C397.348 155.16 397.48 155.488 397.528 155.833C397.577 156.179 397.54 156.531 397.421 156.859C397.254 157.317 393.277 167.823 384.84 167.824ZM384.277 163.34L384.857 163.597C389.231 163.565 392.075 158.428 393.066 156.299C391.997 154.34 390.252 149.967 392.346 144.901C392.793 143.772 393.492 142.759 394.389 141.94C395.287 141.122 396.359 140.518 397.524 140.175C398.672 139.852 399.878 139.794 401.051 140.007C402.224 140.22 403.334 140.697 404.295 141.402C405.714 142.427 406.574 144.013 407.095 145.605C412.071 140.035 417.768 138.511 422.008 138.305C425.243 138.161 428.474 138.675 431.505 139.817H432.071C432.568 139.774 437.523 139.209 440.486 133.553C442.402 129.895 441.371 125.434 440.187 122.367C438.232 125.215 434.622 128.693 428.24 130.045C427.791 130.14 427.324 130.086 426.909 129.893C426.494 129.699 426.152 129.376 425.937 128.972C424.908 127.041 419.065 117.399 405.07 117.154C399.408 117.055 380.684 118.211 377.152 137.233C374.001 154.195 382.885 162.204 384.278 163.34H384.277Z" fill="#17ADFF"/>
<path d="M425.101 158.7C426.203 156.533 425.818 154.126 424.241 153.325C422.664 152.524 420.493 153.632 419.392 155.8C418.29 157.967 418.675 160.374 420.252 161.175C421.829 161.976 424 160.868 425.101 158.7Z" fill="black"/>
<path d="M384.84 167.824C384.651 167.824 384.461 167.819 384.267 167.808C383.71 167.772 383.191 167.518 382.821 167.101C382.451 166.684 382.261 166.138 382.292 165.582C382.323 165.025 382.573 164.503 382.986 164.13C383.4 163.757 383.945 163.562 384.502 163.588C389.033 163.842 392.039 158.473 393.065 156.294C391.994 154.333 390.255 149.962 392.347 144.901C392.794 143.772 393.493 142.759 394.39 141.94C395.287 141.122 396.359 140.518 397.525 140.175C398.672 139.852 399.879 139.794 401.052 140.007C402.225 140.22 403.334 140.697 404.296 141.402C405.715 142.427 406.575 144.013 407.095 145.605C412.071 140.035 417.768 138.511 422.009 138.305C425.41 138.142 428.806 138.722 431.96 140.006C432.471 140.237 432.869 140.661 433.066 141.186C433.264 141.711 433.245 142.292 433.014 142.803C432.783 143.313 432.358 143.711 431.834 143.909C431.309 144.107 430.727 144.088 430.216 143.857C429.65 143.604 416.262 137.832 407.574 152.05C407.332 152.447 406.967 152.752 406.534 152.92C406.101 153.087 405.624 153.107 405.179 152.977C404.733 152.847 404.343 152.574 404.068 152.2C403.793 151.826 403.649 151.372 403.658 150.908C403.682 149.378 403.264 145.871 401.818 144.828C401.373 144.498 400.859 144.274 400.315 144.172C399.77 144.07 399.21 144.094 398.676 144.241C398.125 144.408 397.619 144.7 397.199 145.095C396.778 145.489 396.455 145.975 396.253 146.515C394.398 151.001 397.03 154.721 397.143 154.878C397.348 155.161 397.48 155.489 397.529 155.834C397.577 156.18 397.54 156.532 397.422 156.86C397.254 157.317 393.277 167.823 384.84 167.824Z" fill="black"/>
<path d="M398.673 201.06C398.357 201.06 398.045 200.989 397.76 200.854C397.476 200.718 397.225 200.52 397.026 200.274C396.828 200.029 396.687 199.742 396.614 199.435C396.541 199.128 396.538 198.808 396.605 198.5C399.793 183.743 406.524 179.632 406.809 179.464C407.144 179.251 407.536 179.143 407.933 179.153C408.33 179.162 408.716 179.289 409.041 179.518C409.275 179.656 411.533 180.898 416.029 180.336C424.141 179.322 426.642 172 426.667 171.926C426.824 171.448 427.148 171.041 427.578 170.78C428.009 170.519 428.518 170.42 429.015 170.501C430.157 170.688 431.217 170.353 431.438 170.102C431.43 169.602 431.116 168.858 430.753 167.999C429.898 165.975 428.727 163.204 428.976 158.718C428.99 158.463 429.051 158.212 429.155 157.979L429.368 157.503C430.861 154.189 433.64 148.019 429.501 143.33C429.131 142.909 428.942 142.359 428.977 141.799C429.012 141.24 429.268 140.717 429.688 140.347C430.108 139.976 430.659 139.787 431.219 139.822C431.778 139.857 432.301 140.113 432.672 140.533C438.614 147.268 434.836 155.656 433.223 159.238L433.18 159.335C433.066 162.614 433.904 164.598 434.647 166.356C435.171 167.597 435.666 168.768 435.666 170.107C435.668 170.725 435.533 171.336 435.271 171.896C435.009 172.455 434.627 172.95 434.151 173.345C432.999 174.324 431.439 174.713 430.041 174.77C428.652 177.612 424.819 183.498 416.556 184.531C412.511 185.036 409.72 184.36 408.161 183.756C407.326 184.546 406.578 185.424 405.93 186.373C404.358 188.625 402.182 192.713 400.739 199.393C400.637 199.865 400.376 200.288 400 200.591C399.624 200.894 399.156 201.06 398.673 201.06ZM442.003 137.352C441.622 137.352 441.248 137.248 440.921 137.053C440.594 136.857 440.325 136.577 440.145 136.242C439.964 135.906 439.877 135.528 439.893 135.148C439.91 134.767 440.029 134.398 440.238 134.079C440.396 133.833 443.283 129.154 440.308 122.177C439.267 123.732 437.988 125.115 436.518 126.273C432.522 129.422 425.054 132.479 412.17 129.154C411.901 129.085 411.649 128.963 411.427 128.796C411.205 128.629 411.018 128.42 410.877 128.181C410.737 127.942 410.644 127.678 410.605 127.403C410.567 127.128 410.582 126.848 410.652 126.58C410.721 126.311 410.843 126.059 411.01 125.837C411.177 125.615 411.386 125.429 411.625 125.288C411.864 125.147 412.128 125.054 412.403 125.015C412.678 124.977 412.958 124.992 413.226 125.062C434.109 130.451 438.038 117.589 438.196 117.039C438.306 116.649 438.526 116.299 438.83 116.031C439.133 115.762 439.508 115.586 439.908 115.524C440.309 115.462 440.719 115.515 441.09 115.679C441.46 115.843 441.776 116.11 442 116.448C449.387 127.723 443.999 136.061 443.766 136.41C443.573 136.701 443.311 136.939 443.003 137.103C442.695 137.267 442.352 137.353 442.003 137.352Z" fill="black"/>
<path d="M413.246 290.18C411.361 289.507 397.45 286.68 397.45 286.68L381.06 260.203C380.728 259.667 380.507 259.069 380.41 258.446C380.312 257.822 380.341 257.186 380.494 256.573L390.047 218.367L356.209 226.259C356.209 226.259 350.308 256.681 355.303 265.142C362.819 277.877 384.239 294.812 389.796 299.086C390.661 299.751 391.623 300.28 392.649 300.653L412.618 307.928L416.146 308.069C417.067 308.105 417.974 307.838 418.729 307.309C419.484 306.781 420.044 306.019 420.325 305.141C420.55 304.47 420.67 303.768 420.681 303.06C420.681 300.502 415.131 290.852 413.246 290.18Z" fill="white"/>
<path d="M418.795 310.29C418.404 310.289 418.021 310.181 417.688 309.976C417.355 309.771 417.086 309.478 416.909 309.129C416.733 308.78 416.657 308.389 416.69 308C416.723 307.61 416.863 307.237 417.095 306.923C417.502 306.363 418.568 304.566 418.568 303.061C418.494 301.259 414.024 293.336 412.418 292.131C410.798 291.618 402.21 289.804 397.029 288.75C396.746 288.693 396.478 288.578 396.242 288.413C396.005 288.248 395.805 288.037 395.653 287.791L379.263 261.314C378.784 260.537 378.465 259.672 378.324 258.769C378.184 257.867 378.224 256.946 378.444 256.06L380.426 248.133C380.562 247.589 380.908 247.121 381.389 246.833C381.869 246.545 382.445 246.459 382.989 246.595C383.532 246.731 384 247.077 384.288 247.558C384.577 248.038 384.662 248.614 384.527 249.158L382.544 257.085C382.461 257.423 382.445 257.775 382.499 258.119C382.553 258.463 382.675 258.794 382.857 259.09L398.767 284.791C402.35 285.523 412.209 287.564 413.956 288.189C414.485 288.378 416.099 288.954 419.501 294.858C420.491 296.576 422.794 300.814 422.794 303.06C422.794 306.221 420.733 309.11 420.498 309.429C420.302 309.696 420.045 309.913 419.749 310.063C419.453 310.212 419.126 310.29 418.795 310.29Z" fill="black"/>
<path d="M349.013 297.954C338.24 283.599 324.455 269.54 323.494 268.565C320.378 267.748 314.477 265.628 305.728 260.148C300.171 256.666 295.151 250.531 291.858 246.154C290.269 244.041 287.608 240.318 285.962 237.376C284.197 234.221 283.109 231.419 282.091 229.18C280.465 225.603 280.111 221.578 281.089 217.772L281.086 217.77C281.086 217.77 252.232 230.154 251.879 258.682C251.622 279.511 268.083 292.493 294.501 310.807C314.99 325.012 315.635 325.6 315.635 325.6C315.635 325.6 280.417 342.725 253.646 358.926L263.11 382.999C263.11 382.999 302.463 372.985 331.838 360.467C353.325 351.31 362.637 339.551 361.427 324.543C360.564 313.842 355.268 306.288 349.013 297.954Z" fill="#FF002A"/>
<path d="M263.109 385.112C262.685 385.112 262.27 384.984 261.92 384.745C261.569 384.505 261.299 384.166 261.143 383.771L251.679 359.699C251.497 359.235 251.485 358.721 251.644 358.249C251.804 357.776 252.125 357.376 252.552 357.118C274.443 343.869 302.26 329.862 311.54 325.261C308.853 323.364 303.589 319.679 293.296 312.543C281.088 304.08 269.479 295.766 261.621 287.108C253.405 278.053 249.638 269.013 249.766 258.655C249.918 246.394 255.249 235.091 265.185 225.971C269.656 221.836 274.738 218.415 280.252 215.828C280.615 215.672 281.015 215.621 281.406 215.681C281.796 215.741 282.162 215.908 282.462 216.165C282.763 216.422 282.985 216.758 283.104 217.135C283.223 217.512 283.234 217.914 283.136 218.297C282.284 221.636 282.595 225.166 284.017 228.306C284.274 228.872 284.537 229.475 284.813 230.11C285.702 232.238 286.702 234.319 287.807 236.344C289.551 239.301 291.468 242.152 293.548 244.883C298.469 251.424 302.821 255.831 306.852 258.356C315.591 263.831 321.367 265.823 324.032 266.52C324.4 266.617 324.735 266.811 325.002 267.082C326.502 268.606 339.972 282.385 350.705 296.685C357.433 305.648 362.648 313.379 363.534 324.372C364.84 340.56 354.743 353.002 332.668 362.409C303.481 374.848 264.028 384.944 263.632 385.045C263.462 385.089 263.286 385.112 263.109 385.112ZM256.267 359.814L264.391 380.48C272.427 378.359 305.668 369.322 331.01 358.523C341.313 354.132 348.882 349.031 353.506 343.363C357.987 337.869 359.889 331.77 359.318 324.713C358.521 314.827 353.843 307.913 347.321 299.222C337.441 286.058 324.818 272.951 322.382 270.453C318.777 269.437 312.902 267.137 304.603 261.938C300.127 259.133 295.405 254.386 290.167 247.424C289.245 246.2 286.086 241.932 284.115 238.408C282.939 236.261 281.877 234.054 280.932 231.796C280.665 231.183 280.413 230.602 280.164 230.054C278.95 227.374 278.361 224.452 278.443 221.511C274.669 223.668 271.147 226.239 267.942 229.176C258.822 237.59 254.128 247.525 253.99 258.708C253.743 278.541 269.585 290.966 295.702 309.073C301.897 313.368 316.378 323.424 317.056 324.041C317.311 324.274 317.505 324.565 317.622 324.89C317.738 325.215 317.773 325.563 317.724 325.905C317.675 326.246 317.543 326.57 317.339 326.849C317.136 327.128 316.867 327.352 316.557 327.503C316.215 327.667 282.451 344.12 256.267 359.814Z" fill="#FF002A"/>
<path d="M258.147 372.076C257.654 372.077 257.177 371.905 256.798 371.592C256.418 371.278 256.16 370.842 256.068 370.359C255.976 369.875 256.056 369.375 256.293 368.943C256.531 368.512 256.911 368.178 257.369 367.997C257.737 367.852 294.284 353.412 308.494 347.593C311.235 346.471 313.803 345.454 316.067 344.557C329.216 339.352 335.216 336.976 337.592 329.489C340.704 319.684 331.045 312.523 319.071 304.836L318.029 304.166C301.398 293.494 285.688 283.412 276.886 273.604C270.089 266.032 273.137 256.016 275.698 251.779C275.841 251.542 276.03 251.334 276.253 251.17C276.477 251.005 276.73 250.886 277 250.819C277.269 250.752 277.549 250.739 277.823 250.78C278.098 250.822 278.361 250.917 278.599 251.06C278.837 251.203 279.044 251.392 279.209 251.615C279.374 251.839 279.493 252.092 279.56 252.362C279.626 252.631 279.639 252.911 279.598 253.185C279.557 253.46 279.462 253.723 279.318 253.961C279.084 254.354 273.644 263.663 280.032 270.781C288.45 280.164 303.927 290.096 320.312 300.613L321.355 301.282C327.089 304.963 333.028 308.941 337.097 313.538C341.978 319.051 343.5 324.849 341.622 330.77C338.638 340.17 331.174 343.124 317.623 348.489C315.369 349.382 312.812 350.393 310.094 351.506C295.861 357.333 259.29 371.782 258.922 371.928C258.675 372.026 258.412 372.076 258.147 372.076Z" fill="black"/>
<path d="M311.758 327.008C311.291 327.008 310.837 326.853 310.467 326.568C310.097 326.282 309.833 325.882 309.714 325.43C309.596 324.979 309.631 324.5 309.813 324.07C309.995 323.64 310.315 323.283 310.722 323.054L320.603 317.489C321.091 317.214 321.669 317.144 322.209 317.295C322.749 317.446 323.207 317.805 323.482 318.293C323.757 318.782 323.827 319.359 323.676 319.899C323.525 320.439 323.166 320.897 322.677 321.172L321.456 321.859C323.18 321.77 324.939 321.725 326.564 321.766C326.841 321.773 327.115 321.835 327.369 321.947C327.622 322.06 327.851 322.222 328.043 322.423C328.234 322.624 328.384 322.861 328.483 323.12C328.583 323.379 328.631 323.655 328.624 323.933C328.617 324.211 328.555 324.484 328.442 324.738C328.329 324.991 328.168 325.22 327.967 325.412C327.765 325.603 327.528 325.752 327.269 325.852C327.01 325.952 326.734 326 326.456 325.992C320.457 325.842 312.133 326.979 312.05 326.99C311.953 327.002 311.855 327.009 311.758 327.008ZM321.861 285.166C321.404 285.167 320.958 285.018 320.591 284.744C320.225 284.469 319.958 284.083 319.83 283.644C319.702 283.204 319.72 282.735 319.882 282.306C320.043 281.878 320.34 281.514 320.727 281.269C322.012 280.453 323.638 279.555 325.211 278.733C319.875 278.457 316.337 280.321 316.142 280.426C315.651 280.689 315.076 280.748 314.543 280.59C314.009 280.432 313.559 280.07 313.29 279.582C313.022 279.094 312.957 278.52 313.11 277.985C313.263 277.449 313.62 276.996 314.105 276.723C314.428 276.545 322.109 272.404 332.422 275.852C332.823 275.986 333.175 276.238 333.431 276.574C333.688 276.91 333.838 277.315 333.862 277.737C333.885 278.16 333.782 278.579 333.565 278.942C333.347 279.305 333.026 279.594 332.643 279.772C332.58 279.802 326.354 282.702 322.993 284.836C322.655 285.052 322.262 285.166 321.861 285.166ZM281.621 269.111C278.402 269.111 276.465 268.264 276.275 268.177C275.765 267.946 275.367 267.522 275.169 266.997C274.971 266.473 274.99 265.891 275.221 265.381C275.452 264.87 275.877 264.472 276.401 264.274C276.926 264.077 277.507 264.095 278.018 264.326C278.431 264.502 287.176 268.008 299.721 255.466C300.118 255.075 300.654 254.857 301.212 254.859C301.769 254.861 302.303 255.084 302.698 255.478C303.092 255.872 303.314 256.406 303.317 256.964C303.319 257.521 303.101 258.057 302.71 258.454C293.891 267.272 286.365 269.111 281.621 269.111Z" fill="black"/>
<path d="M253.173 357.721C253.173 357.721 236.147 361.842 228.481 364.603C220.814 367.363 218.062 368.302 218.062 368.302L229.329 434.439C229.329 434.439 234.967 434.509 239.501 432.876C244.035 431.243 247.273 428.741 247.877 416.338C249.167 389.839 263.489 383.967 263.489 383.967L253.173 357.721Z" fill="white"/>
<path d="M229.45 436.552H229.303C228.809 436.546 228.332 436.367 227.956 436.046C227.58 435.725 227.329 435.282 227.246 434.794L215.978 368.657C215.894 368.162 215.988 367.653 216.245 367.222C216.502 366.79 216.904 366.464 217.379 366.302C217.406 366.293 220.209 365.335 227.763 362.614C235.451 359.846 251.976 355.836 252.676 355.667C253.172 355.547 253.695 355.61 254.148 355.846C254.602 356.081 254.954 356.473 255.141 356.948L265.457 383.194C265.66 383.711 265.652 384.286 265.434 384.797C265.216 385.307 264.806 385.712 264.292 385.922C264.274 385.93 261.009 387.358 257.642 391.764C254.498 395.877 250.619 403.497 249.989 416.441C249.372 429.13 245.938 432.804 240.219 434.864C235.744 436.476 230.42 436.552 229.45 436.552ZM220.445 369.709L231.104 432.271C233.009 432.162 236.139 431.84 238.783 430.887C242.518 429.542 245.206 427.704 245.764 416.236C246.839 394.163 256.663 385.651 260.84 383.011L251.881 360.216C247.324 361.348 235.217 364.422 229.193 366.59C224.825 368.165 222.033 369.153 220.445 369.709Z" fill="black"/>
<path d="M238.712 435.254C238.211 435.253 237.726 435.074 237.344 434.749C236.962 434.424 236.709 433.974 236.629 433.479L225.526 365.158C225.436 364.604 225.57 364.038 225.897 363.583C226.225 363.129 226.72 362.823 227.273 362.733C227.826 362.643 228.393 362.777 228.848 363.104C229.302 363.432 229.608 363.927 229.698 364.48L240.801 432.8C240.85 433.103 240.832 433.412 240.749 433.707C240.667 434.002 240.521 434.276 240.323 434.509C240.124 434.742 239.877 434.929 239.599 435.058C239.321 435.186 239.018 435.253 238.712 435.253V435.254Z" fill="black"/>
<path d="M230.409 384.139C229.926 384.139 229.457 383.974 229.08 383.67C228.704 383.366 228.443 382.943 228.342 382.47C228.24 381.998 228.303 381.505 228.521 381.073C228.739 380.641 229.098 380.298 229.539 380.099C234.124 378.031 237.174 374.239 238.603 368.829C239.278 366.249 239.542 363.579 239.385 360.918C239.333 360.361 239.503 359.807 239.859 359.376C240.215 358.945 240.727 358.673 241.283 358.619C241.84 358.564 242.395 358.732 242.827 359.086C243.26 359.44 243.535 359.951 243.591 360.507C243.8 363.619 243.508 366.744 242.728 369.763C241.002 376.445 237.042 381.35 231.277 383.95C231.004 384.074 230.709 384.138 230.409 384.139ZM236.326 420.569C235.799 420.568 235.292 420.37 234.904 420.014C234.515 419.658 234.274 419.17 234.226 418.646C234.179 418.122 234.329 417.598 234.648 417.179C234.966 416.759 235.429 416.474 235.947 416.378L247.495 414.26C247.771 414.203 248.055 414.202 248.332 414.256C248.608 414.31 248.87 414.419 249.104 414.577C249.338 414.734 249.537 414.936 249.691 415.172C249.846 415.407 249.951 415.671 250.002 415.948C250.053 416.225 250.048 416.509 249.987 416.784C249.927 417.059 249.812 417.319 249.649 417.549C249.487 417.779 249.28 417.974 249.041 418.123C248.802 418.272 248.536 418.371 248.258 418.416L236.709 420.533C236.583 420.557 236.454 420.569 236.326 420.569ZM257.289 390.985C256.955 390.985 256.625 390.906 256.327 390.754C256.029 390.602 255.771 390.381 255.575 390.11L250.945 383.708C250.779 383.483 250.659 383.228 250.592 382.957C250.526 382.686 250.513 382.404 250.556 382.128C250.599 381.852 250.696 381.587 250.842 381.349C250.988 381.111 251.18 380.904 251.406 380.74C251.632 380.577 251.889 380.459 252.161 380.395C252.433 380.332 252.715 380.322 252.99 380.368C253.266 380.413 253.529 380.513 253.766 380.661C254.003 380.81 254.208 381.003 254.369 381.231L259 387.633C259.228 387.948 259.365 388.32 259.395 388.709C259.425 389.097 259.347 389.485 259.17 389.832C258.993 390.179 258.724 390.47 258.392 390.673C258.06 390.877 257.678 390.984 257.289 390.985ZM253.114 397.059C252.716 397.059 252.326 396.946 251.99 396.734L245.187 392.452C244.952 392.304 244.748 392.111 244.588 391.885C244.428 391.658 244.313 391.402 244.252 391.132C244.19 390.861 244.183 390.581 244.229 390.308C244.276 390.034 244.376 389.772 244.524 389.538C244.672 389.303 244.864 389.099 245.091 388.939C245.317 388.778 245.573 388.664 245.844 388.603C246.114 388.541 246.395 388.533 246.668 388.58C246.942 388.627 247.203 388.727 247.438 388.875L254.241 393.157C254.629 393.401 254.928 393.765 255.091 394.193C255.254 394.622 255.274 395.092 255.146 395.532C255.019 395.973 254.752 396.36 254.385 396.635C254.019 396.911 253.573 397.06 253.114 397.059ZM250.313 403.854C250.09 403.854 249.87 403.818 249.658 403.749L243.063 401.605C242.535 401.428 242.097 401.049 241.847 400.552C241.596 400.054 241.552 399.477 241.724 398.947C241.897 398.417 242.272 397.977 242.767 397.722C243.263 397.467 243.839 397.418 244.371 397.586L250.966 399.731C251.445 399.887 251.852 400.208 252.115 400.637C252.379 401.066 252.48 401.575 252.401 402.072C252.322 402.569 252.069 403.022 251.686 403.348C251.303 403.675 250.816 403.855 250.313 403.854Z" fill="black"/>
<path d="M376.84 244.772C395.509 229.627 398.67 198.946 398.67 198.946C398.67 198.946 392.955 199.791 386.368 190.129C382.487 184.435 382.019 178.264 382.507 173.548C382.507 173.548 382.758 171.481 383.149 169.812C384.007 166.157 384.382 165.698 384.382 165.698C384.382 165.698 355.466 161.478 331.047 176.798C313.083 188.068 310.265 199.338 294.062 204.974C291.98 205.695 289.995 206.667 288.149 207.87C281.133 212.449 278.624 221.551 282.089 229.178C283.106 231.417 284.195 234.219 285.96 237.374C287.606 240.316 290.267 244.04 291.856 246.153C295.149 250.529 300.169 256.664 305.727 260.146C319.383 268.702 326.116 269.072 326.116 269.072C326.116 269.072 335.75 262.656 350.396 257.44C372.153 249.692 376.84 244.772 376.84 244.772Z" fill="white"/>
<path d="M326.12 271.187C326.069 271.187 326.018 271.185 325.967 271.182C325.665 271.16 318.432 270.554 304.611 261.941C299.611 258.825 295.013 254.199 290.139 247.383C289.813 246.927 289.681 246.36 289.773 245.807C289.865 245.254 290.173 244.761 290.629 244.435C291.085 244.109 291.652 243.977 292.205 244.069C292.758 244.161 293.252 244.469 293.578 244.925C298.118 251.275 302.334 255.542 306.847 258.354C319.582 266.291 326.205 266.961 326.269 266.966C326.815 267.004 327.325 267.254 327.691 267.661C328.057 268.068 328.251 268.601 328.232 269.148C328.212 269.695 327.981 270.214 327.587 270.594C327.193 270.974 326.667 271.187 326.12 271.187ZM376.841 246.885C376.405 246.885 375.979 246.75 375.622 246.498C375.265 246.247 374.995 245.89 374.849 245.479C374.703 245.067 374.688 244.621 374.806 244.2C374.924 243.78 375.17 243.406 375.509 243.131C390.525 230.95 395.176 207.893 396.278 200.834C393.584 200.206 389.233 198.081 384.622 191.32C381.17 186.255 379.71 180.034 380.404 173.331C380.433 173.055 380.516 172.787 380.648 172.543C380.78 172.299 380.959 172.083 381.174 171.908C381.389 171.733 381.637 171.602 381.903 171.523C382.169 171.444 382.448 171.417 382.724 171.446C383 171.475 383.268 171.557 383.512 171.689C383.756 171.821 383.972 172 384.147 172.216C384.322 172.431 384.453 172.679 384.532 172.945C384.612 173.211 384.638 173.49 384.609 173.766C384.01 179.544 385.19 184.649 388.115 188.939C391.088 193.3 393.769 195.221 395.495 196.065C397.138 196.869 398.198 196.861 398.389 196.85C398.702 196.79 399.025 196.806 399.331 196.896C399.636 196.986 399.916 197.148 400.147 197.368C400.385 197.597 400.567 197.878 400.675 198.19C400.784 198.502 400.818 198.835 400.773 199.163C400.013 205.17 398.67 211.089 396.765 216.836C393.827 225.832 388.216 238.265 378.172 246.413C377.796 246.719 377.326 246.886 376.841 246.885ZM285.963 239.489C285.567 239.49 285.178 239.379 284.842 239.168C284.505 238.958 284.235 238.658 284.061 238.301C282.602 235.306 281.291 232.531 280.166 230.053C276.272 221.481 279.208 211.184 286.995 206.101C288.986 204.805 291.127 203.757 293.371 202.979C301.93 200.002 306.644 195.278 312.103 189.807C316.628 185.272 321.758 180.132 329.926 175.007C337.087 170.514 349.28 164.854 366.698 163.397C377.101 162.526 384.385 163.562 384.69 163.608C384.966 163.647 385.232 163.739 385.471 163.881C385.711 164.022 385.921 164.21 386.088 164.433C386.255 164.656 386.376 164.91 386.445 165.179C386.514 165.449 386.529 165.73 386.488 166.006C386.448 166.281 386.354 166.546 386.211 166.785C386.068 167.024 385.879 167.233 385.655 167.399C385.431 167.564 385.177 167.684 384.906 167.752C384.636 167.819 384.355 167.832 384.08 167.79C383.724 167.739 355.583 163.901 332.173 178.588C324.41 183.459 319.461 188.418 315.094 192.793C309.267 198.632 304.235 203.676 294.759 206.97C292.84 207.636 291.009 208.532 289.307 209.64C283.252 213.593 280.978 221.617 284.016 228.307C285.126 230.75 286.42 233.49 287.863 236.451C288.02 236.773 288.092 237.13 288.074 237.488C288.055 237.846 287.945 238.193 287.756 238.497C287.566 238.801 287.302 239.051 286.988 239.225C286.675 239.399 286.323 239.49 285.964 239.49L285.963 239.489Z" fill="black"/>
<path d="M386.247 307.433C386.247 307.433 397.374 314.256 401.009 314.256C401.009 314.256 402.292 308.086 409.49 310.734V317.778C409.49 317.778 418.375 318.94 418.375 309.926C418.375 307.099 414.254 297.564 409.254 296.219C406.876 295.58 402.511 296.376 394.841 294.514" fill="white"/>
<path d="M410.424 319.937C410.02 319.94 409.617 319.919 409.216 319.873C408.707 319.807 408.24 319.558 407.902 319.172C407.563 318.787 407.376 318.291 407.376 317.778V312.313C406.27 312.086 405.361 312.16 404.664 312.536C403.44 313.196 403.079 314.695 403.075 314.71C402.976 315.182 402.716 315.606 402.339 315.909C401.963 316.211 401.493 316.374 401.01 316.369C396.983 316.369 387.087 310.426 385.144 309.235C384.666 308.942 384.324 308.471 384.193 307.926C384.063 307.381 384.154 306.806 384.447 306.328C384.74 305.851 385.211 305.509 385.756 305.378C386.301 305.247 386.875 305.339 387.353 305.632C391.599 308.234 396.927 311.009 399.682 311.871C400.337 310.606 401.346 309.558 402.587 308.856C404.681 307.693 407.25 307.658 410.222 308.75C410.627 308.899 410.978 309.169 411.225 309.524C411.473 309.879 411.606 310.301 411.605 310.733V315.641C412.731 315.532 413.8 315.093 414.677 314.379C415.728 313.447 416.262 311.949 416.262 309.926C416.262 307.83 412.513 299.283 408.707 298.26C407.696 298.079 406.671 297.993 405.645 298.003C401.836 297.945 398.045 297.463 394.343 296.567C394.072 296.503 393.816 296.386 393.59 296.223C393.364 296.06 393.172 295.853 393.026 295.616C392.881 295.378 392.783 295.114 392.74 294.839C392.697 294.564 392.708 294.282 392.774 294.012C392.84 293.741 392.958 293.486 393.123 293.261C393.288 293.036 393.495 292.846 393.734 292.702C393.973 292.558 394.237 292.462 394.513 292.421C394.788 292.379 395.07 292.392 395.34 292.46C398.764 293.284 402.268 293.727 405.789 293.779C407.409 293.834 408.687 293.878 409.804 294.178C415.865 295.808 420.49 306.192 420.49 309.926C420.49 313.228 419.468 315.8 417.451 317.569C415.115 319.619 412.082 319.937 410.424 319.937Z" fill="black"/>
<path d="M373.67 202.156C373.67 202.156 377.493 220.414 370.5 240.193C366.585 251.267 368.386 260.269 368.386 260.269L394.84 294.514L386.245 307.433C341.783 284.098 338.645 271.127 338.223 262.324C337.617 249.693 331.753 237.025 332.106 211.667" fill="white"/>
<path d="M386.246 309.547C385.904 309.547 385.567 309.464 385.265 309.304C365.185 298.766 351.731 289.451 344.134 280.825C337.498 273.293 336.357 267.53 336.112 262.424C335.894 257.864 334.955 253.248 333.868 247.903C332.042 238.922 329.768 227.743 329.993 211.636C329.997 211.358 330.056 211.084 330.165 210.829C330.275 210.574 330.434 210.344 330.633 210.15C330.832 209.957 331.067 209.804 331.325 209.702C331.583 209.599 331.859 209.548 332.136 209.552C332.414 209.556 332.688 209.614 332.943 209.724C333.198 209.834 333.428 209.993 333.622 210.192C333.815 210.391 333.968 210.626 334.071 210.884C334.173 211.142 334.224 211.417 334.22 211.695C334.002 227.347 336.225 238.277 338.011 247.061C339.132 252.576 340.101 257.338 340.336 262.221C340.544 266.559 341.534 271.476 347.307 278.032C354.348 286.025 366.868 294.749 385.547 304.673L392.243 294.606L366.715 261.56C366.517 261.303 366.38 261.002 366.316 260.683C366.238 260.292 364.447 250.978 368.509 239.489C375.226 220.487 371.639 202.767 371.601 202.589C371.487 202.04 371.594 201.469 371.901 200.999C372.208 200.53 372.688 200.202 373.237 200.087C373.786 199.973 374.358 200.08 374.827 200.387C375.296 200.694 375.624 201.174 375.739 201.723C375.9 202.492 379.602 220.792 372.493 240.898C369.319 249.875 370.111 257.494 370.386 259.4L396.513 293.222C396.783 293.572 396.937 293.998 396.953 294.439C396.968 294.881 396.845 295.316 396.6 295.684L388.006 308.603C387.813 308.893 387.551 309.131 387.244 309.296C386.937 309.46 386.594 309.547 386.246 309.547Z" fill="black"/>
<path d="M355.025 266.906C354.478 266.906 353.952 266.694 353.558 266.314C353.165 265.934 352.933 265.417 352.913 264.87C352.893 264.323 353.086 263.79 353.451 263.383C353.816 262.975 354.325 262.725 354.871 262.685C364.524 261.969 366.56 259.204 366.579 259.176C366.553 259.212 366.531 259.25 366.513 259.29L370.26 261.247C369.848 262.035 367.188 266.009 355.184 266.9C355.131 266.903 355.078 266.906 355.025 266.906Z" fill="black"/>
</g>
<g clip-path="url(#clip4_250_153)">
<path d="M176.555 198.663C167.928 184.88 179.992 135.578 204.853 128.971C223.467 124.024 236.689 151.159 257.959 165.647L240.464 228.386L176.555 198.663Z" fill="white"/>
<path d="M240.464 230.454C240.162 230.454 239.863 230.388 239.59 230.261L175.68 200.537C175.317 200.369 175.011 200.098 174.799 199.759C173.035 196.941 171.098 191.386 171.886 180.921C172.479 173.051 174.535 164.344 177.674 156.403C180.538 149.159 184.239 142.748 188.377 137.863C193.201 132.167 198.565 128.503 204.319 126.974C217.455 123.484 227.968 134.352 239.102 145.859C245.293 152.259 251.697 158.876 259.127 163.939C259.484 164.182 259.756 164.531 259.905 164.937C260.053 165.343 260.071 165.785 259.955 166.201L242.46 228.941C242.339 229.376 242.078 229.759 241.718 230.033C241.358 230.306 240.918 230.454 240.465 230.454H240.464ZM178.014 197.061L239.126 225.483L255.571 166.504C248.32 161.34 242.125 154.936 236.124 148.732C225.414 137.663 216.166 128.103 205.385 130.969C196.008 133.461 187.312 143.285 181.525 157.921C175.585 172.945 174.098 189.899 178.014 197.061Z" fill="black"/>
<path d="M240.464 228.386C207.266 209.001 193.463 175.232 178.971 184.191C173.184 187.768 174.76 195.569 176.447 198.648C191.228 225.606 240.464 228.386 240.464 228.386Z" fill="white"/>
<path d="M240.465 230.454C240.426 230.454 240.387 230.453 240.347 230.451C231.233 229.75 222.213 228.129 213.427 225.613C194.089 220.061 181.036 211.322 174.631 199.641C172.121 195.063 171.418 186.428 177.881 182.433C187.367 176.569 196.228 185.861 207.448 197.623C216.167 206.764 227.017 218.139 241.509 226.602C241.902 226.831 242.208 227.183 242.38 227.603C242.552 228.023 242.581 228.488 242.463 228.927C242.344 229.365 242.084 229.752 241.723 230.028C241.362 230.304 240.92 230.454 240.465 230.454ZM183.94 184.782C182.562 184.794 181.217 185.199 180.061 185.949C175.379 188.844 177.106 195.542 178.264 197.655C188.637 216.573 217.338 223.164 231.888 225.332C220.607 217.415 211.788 208.169 204.45 200.475C195.131 190.706 189.182 184.782 183.94 184.782ZM310.479 179.606H310.395C272.876 178.128 257.424 167.791 256.785 167.351C256.561 167.198 256.369 167.001 256.221 166.774C256.073 166.546 255.971 166.292 255.921 166.025C255.871 165.758 255.875 165.484 255.931 165.218C255.988 164.952 256.096 164.7 256.25 164.477C256.404 164.253 256.6 164.061 256.828 163.913C257.056 163.765 257.311 163.664 257.578 163.614C257.846 163.565 258.12 163.568 258.386 163.624C258.652 163.681 258.904 163.789 259.129 163.942C259.346 164.089 274.493 174.053 310.559 175.474C311.108 175.485 311.63 175.713 312.011 176.108C312.392 176.503 312.6 177.033 312.589 177.581C312.578 178.13 312.35 178.651 311.954 179.032C311.559 179.412 311.028 179.619 310.479 179.609V179.606Z" fill="black"/>
<path d="M309.197 247.366C272.934 247.366 258.977 240.207 239.518 230.225C239.03 229.975 238.661 229.541 238.493 229.019C238.325 228.497 238.372 227.929 238.623 227.442C238.874 226.954 239.308 226.586 239.831 226.418C240.354 226.25 240.922 226.297 241.41 226.547C264.965 238.63 279.183 245.923 333.647 242.342C334.193 242.308 334.731 242.492 335.142 242.854C335.553 243.215 335.804 243.724 335.84 244.27C335.876 244.815 335.694 245.353 335.334 245.765C334.974 246.177 334.465 246.43 333.919 246.468C324.634 247.079 316.466 247.366 309.197 247.366Z" fill="black"/>
</g>
<g clip-path="url(#clip5_250_153)">
<path d="M381.954 120.804C377.586 111.509 363.939 87.7537 339.934 91.5403C318.124 94.9809 317.249 114.001 300.885 120.78C299.397 120.474 297.989 119.511 297.402 119.121C292.491 115.849 288.529 112.207 274.834 114.375C263.2 116.215 250.052 126.042 250.052 126.042C250.052 126.042 267.261 127.502 282.965 136.519C324.646 160.452 344.632 141.266 353.557 132.39C356.931 129.034 368.502 124.488 374.862 129.534C376.572 126.153 378.99 123.177 381.954 120.804Z" fill="#17ADFF"/>
<path d="M319.764 150.165C308.329 150.165 295.652 146.203 281.92 138.319C266.795 129.634 250.042 128.126 249.874 128.112C249.453 128.076 249.052 127.914 248.725 127.646C248.398 127.379 248.161 127.019 248.044 126.614C247.928 126.21 247.937 125.779 248.072 125.38C248.206 124.981 248.46 124.632 248.798 124.379C249.352 123.964 262.499 114.221 274.508 112.321C287.988 110.188 292.815 113.478 297.483 116.659C297.842 116.904 298.202 117.15 298.568 117.393L298.629 117.434C299.286 117.894 299.993 118.278 300.738 118.577C306.904 115.815 310.691 111.104 314.693 106.126C320.446 98.9695 326.397 91.5695 339.608 89.4856C350.627 87.7482 360.77 91.2064 369.755 99.7639C377.033 106.695 381.709 115.369 383.849 119.923C384.047 120.344 384.097 120.819 383.992 121.272C383.886 121.726 383.63 122.13 383.266 122.422C380.535 124.601 378.308 127.34 376.737 130.453C376.599 130.731 376.4 130.975 376.154 131.167C375.909 131.359 375.623 131.493 375.318 131.561C375.014 131.628 374.698 131.627 374.393 131.557C374.089 131.487 373.805 131.35 373.561 131.157C368.271 126.961 357.842 131.066 355.036 133.859C350.891 137.982 343.178 145.653 331.071 148.77C327.377 149.71 323.578 150.179 319.764 150.165ZM255.713 124.742C262.174 125.889 273.363 128.605 284.01 134.719C301.461 144.739 316.942 148.113 330.021 144.746C341.028 141.913 347.945 135.031 352.079 130.92C355.942 127.078 366.783 123.041 374.093 126.608C375.536 124.25 377.316 122.112 379.376 120.262C365.866 92.7955 347.583 92.4387 340.261 93.5948C328.647 95.4264 323.454 101.886 317.956 108.725C313.668 114.061 309.234 119.575 301.689 122.7C301.301 122.861 300.873 122.902 300.461 122.817C298.621 122.438 296.994 121.352 296.299 120.888L296.241 120.849C295.865 120.598 295.491 120.345 295.118 120.09C290.762 117.118 286.999 114.555 275.164 116.427C268.154 117.536 260.421 121.788 255.713 124.742Z" fill="#17ADFF"/>
<path d="M337.184 136.201C336.831 136.2 336.483 136.111 336.174 135.94C335.865 135.77 335.605 135.525 335.417 135.227C335.229 134.93 335.12 134.59 335.1 134.239C335.08 133.888 335.15 133.538 335.303 133.221C340.366 122.754 346.335 116.911 353.046 115.855C360.778 114.638 366.332 120.319 366.564 120.561C366.936 120.962 367.135 121.491 367.119 122.036C367.102 122.58 366.871 123.097 366.476 123.474C366.08 123.851 365.551 124.058 365.003 124.051C364.456 124.044 363.932 123.824 363.546 123.437C363.5 123.39 359.214 119.072 353.661 119.966C348.474 120.804 343.428 126.01 339.07 135.023C338.899 135.376 338.632 135.674 338.298 135.882C337.964 136.091 337.578 136.201 337.184 136.201Z" fill="black"/>
<path d="M304.205 132.513C292.91 132.513 282.464 125.076 281.967 124.718C281.742 124.559 281.551 124.357 281.405 124.124C281.259 123.891 281.161 123.631 281.116 123.36C281.072 123.089 281.082 122.812 281.145 122.545C281.209 122.277 281.325 122.025 281.488 121.803C281.65 121.581 281.855 121.393 282.091 121.25C282.326 121.107 282.588 121.012 282.861 120.97C283.134 120.928 283.413 120.941 283.681 121.007C283.949 121.073 284.201 121.191 284.423 121.354C284.545 121.442 296.915 130.223 308 127.992C312.807 127.024 316.751 124.062 319.724 119.186C327.471 106.483 336.452 99.724 346.418 99.0969C362.327 98.0954 374.536 113.134 375.048 113.775C375.221 113.988 375.351 114.234 375.428 114.497C375.506 114.76 375.531 115.037 375.501 115.309C375.471 115.582 375.386 115.847 375.253 116.087C375.12 116.327 374.94 116.539 374.724 116.71C374.507 116.881 374.259 117.007 373.994 117.082C373.728 117.157 373.451 117.179 373.176 117.147C372.902 117.114 372.637 117.028 372.397 116.893C372.156 116.759 371.945 116.578 371.775 116.361C369.552 113.749 367.033 111.402 364.268 109.364C360.148 106.323 353.749 102.793 346.664 103.246C338.15 103.79 330.289 109.878 323.298 121.342C319.691 127.257 314.816 130.866 308.81 132.07C307.294 132.369 305.751 132.518 304.205 132.513ZM374.146 133.188C373.804 133.188 373.466 133.104 373.164 132.944C372.861 132.783 372.603 132.552 372.412 132.269C372.221 131.986 372.103 131.661 372.068 131.322C372.033 130.983 372.082 130.641 372.211 130.325C374.371 125.154 378.045 120.748 382.755 117.68C383.231 117.398 383.8 117.315 384.338 117.45C384.875 117.585 385.336 117.928 385.62 118.401C385.904 118.875 385.987 119.441 385.851 119.975C385.715 120.51 385.371 120.969 384.895 121.251C380.978 123.869 377.915 127.568 376.082 131.893C375.925 132.276 375.658 132.603 375.313 132.834C374.968 133.065 374.562 133.188 374.146 133.188Z" fill="black"/>
</g>
<g clip-path="url(#clip6_250_153)">
<path d="M150.555 177.86L195.133 160.459L205.672 187.68L161.094 205.082L150.555 177.86Z" fill="#FF002A"/>
<path d="M161.095 207.218C160.666 207.218 160.247 207.088 159.893 206.845C159.539 206.601 159.267 206.257 159.112 205.855L148.572 178.634C148.369 178.106 148.382 177.519 148.609 177.001C148.836 176.482 149.259 176.076 149.784 175.871L194.363 158.468C194.889 158.263 195.474 158.276 195.99 158.504C196.507 158.732 196.911 159.157 197.116 159.685L207.655 186.905C207.756 187.167 207.805 187.445 207.799 187.726C207.793 188.006 207.732 188.283 207.619 188.54C207.507 188.796 207.345 189.028 207.143 189.222C206.941 189.416 206.703 189.568 206.443 189.67L161.865 207.072C161.619 207.168 161.358 207.218 161.095 207.218ZM153.308 179.077L162.306 202.317L202.919 186.463L193.922 163.223L153.308 179.077Z" fill="#FF002A"/>
<path d="M175.245 184.287C174.716 184.287 174.189 184.24 173.67 184.147L150.183 179.964C149.628 179.865 149.134 179.549 148.811 179.084C148.489 178.62 148.363 178.046 148.461 177.488C148.56 176.93 148.875 176.435 149.338 176.111C149.8 175.786 150.372 175.66 150.928 175.759L174.412 179.942C175.255 180.094 176.124 180.009 176.923 179.698C177.722 179.386 178.42 178.859 178.939 178.174L193.445 159.16C193.615 158.938 193.827 158.751 194.068 158.61C194.31 158.47 194.577 158.379 194.854 158.342C195.131 158.305 195.413 158.324 195.683 158.396C195.952 158.468 196.206 158.593 196.427 158.764C196.649 158.935 196.835 159.148 196.975 159.39C197.115 159.633 197.206 159.901 197.242 160.179C197.279 160.457 197.261 160.74 197.189 161.011C197.116 161.282 196.992 161.536 196.822 161.759L182.317 180.772C181.487 181.865 180.417 182.75 179.19 183.36C177.964 183.97 176.613 184.287 175.245 184.287Z" fill="black"/>
</g>
<g clip-path="url(#clip7_250_153)">
<path d="M55.9238 97.0286L111.363 119.606L91.9219 167.813L36.4824 145.235L55.9238 97.0286Z" fill="#FF002A"/>
<path d="M91.9219 169.964C91.6462 169.964 91.3732 169.911 91.1177 169.807L35.6786 147.229C35.4179 147.123 35.1806 146.966 34.9801 146.768C34.7797 146.57 34.6202 146.334 34.5106 146.074C34.401 145.813 34.3435 145.534 34.3414 145.251C34.3393 144.969 34.3926 144.688 34.4983 144.426L53.9393 96.2204C54.1526 95.6917 54.5661 95.2697 55.0889 95.0474C55.6118 94.825 56.2011 94.8205 56.7272 95.0347L112.167 117.613C112.693 117.827 113.113 118.242 113.334 118.768C113.555 119.293 113.56 119.885 113.347 120.414L93.9056 168.621C93.7456 169.018 93.4713 169.358 93.1179 169.597C92.7645 169.836 92.3481 169.964 91.9219 169.964ZM39.2703 144.05L90.742 165.011L108.575 120.792L57.1043 99.8301L39.2703 144.05Z" fill="#FF002A"/>
<path d="M73.923 134.572C73.5286 134.572 73.1419 134.463 72.8055 134.256C72.4691 134.049 72.1962 133.753 72.0167 133.4L54.0175 98.0074C53.7591 97.4993 53.7121 96.9089 53.8869 96.3661C54.0617 95.8232 54.444 95.3724 54.9496 95.1128C55.4551 94.8531 56.0426 94.8059 56.5828 94.9816C57.123 95.1573 57.5717 95.5414 57.83 96.0494L74.9858 129.784L110.673 117.57C110.939 117.477 111.222 117.438 111.503 117.455C111.785 117.472 112.06 117.545 112.313 117.67C112.567 117.794 112.793 117.968 112.98 118.18C113.166 118.393 113.309 118.641 113.4 118.909C113.491 119.177 113.528 119.461 113.51 119.744C113.491 120.027 113.417 120.303 113.292 120.557C113.167 120.811 112.993 121.038 112.78 121.224C112.568 121.41 112.321 121.553 112.053 121.643L74.613 134.457C74.3908 134.533 74.1577 134.572 73.923 134.572Z" fill="black"/>
</g>
<g clip-path="url(#clip8_250_153)">
<path d="M13.2487 2.15125L45.563 20.2451L34.4808 39.7578L2.1665 21.6639L13.2487 2.15125Z" fill="#FF002A"/>
<path d="M34.4809 41.9093C34.108 41.9094 33.7414 41.8138 33.4167 41.6318L1.10243 23.5379C0.854575 23.3992 0.636676 23.2133 0.461178 22.9909C0.28568 22.7685 0.156019 22.514 0.0795996 22.2418C0.00318028 21.9697 -0.0185007 21.6852 0.0157948 21.4048C0.0500903 21.1243 0.13969 20.8533 0.279479 20.6072L11.3617 1.09493C11.644 0.598004 12.1135 0.232753 12.6669 0.0795163C13.2204 -0.0737207 13.8125 -0.00239402 14.313 0.277807L46.6273 18.3717C47.1277 18.6519 47.4956 19.1181 47.6499 19.6677C47.8043 20.2172 47.7324 20.8051 47.4502 21.3021L36.368 40.8147C36.1794 41.1468 35.9052 41.4232 35.5736 41.6156C35.242 41.8079 34.8649 41.9093 34.4809 41.9093ZM5.11824 20.8471L33.6579 36.8273L42.61 21.0626L14.0718 5.08229L5.11824 20.8471Z" fill="#FF002A"/>
<path d="M26.8933 23.0038C25.5711 23.0058 24.2724 22.6568 23.1317 21.9928C21.991 21.3289 21.0499 20.3742 20.4058 19.2276L11.3587 3.20323C11.2196 2.95679 11.1307 2.68555 11.0972 2.405C11.0636 2.12445 11.086 1.84009 11.1631 1.56815C11.2403 1.2962 11.3706 1.042 11.5466 0.820064C11.7227 0.598125 11.9411 0.412792 12.1893 0.274646C12.4375 0.1365 12.7106 0.0482462 12.9932 0.0149246C13.2757 -0.018397 13.5621 0.00386558 13.836 0.0804413C14.1099 0.157017 14.3659 0.286406 14.5894 0.461222C14.813 0.636037 14.9996 0.852854 15.1387 1.09929L24.1858 17.1237C24.4633 17.6183 24.8729 18.0273 25.3695 18.3056C25.866 18.5839 26.4303 18.7209 27.0002 18.7013L45.4915 18.0968C45.7759 18.0875 46.0594 18.1339 46.3257 18.2333C46.592 18.3328 46.836 18.4834 47.0437 18.6765C47.2514 18.8695 47.4188 19.1014 47.5362 19.3587C47.6537 19.616 47.719 19.8938 47.7284 20.1761C47.7377 20.4585 47.691 20.7399 47.5908 21.0044C47.4906 21.2688 47.339 21.511 47.1445 21.7173C46.9501 21.9235 46.7166 22.0897 46.4574 22.2063C46.1983 22.323 45.9185 22.3878 45.6342 22.3971L27.1429 22.9998C27.0596 23.0025 26.9764 23.0038 26.8933 23.0038Z" fill="black"/>
</g>
<g clip-path="url(#clip9_250_153)">
<path d="M172.165 53.8705L189.413 87.9397L159.616 102.706L142.367 68.637L172.165 53.8705Z" fill="white"/>
<path d="M159.616 104.772C159.228 104.772 158.848 104.666 158.518 104.464C158.188 104.263 157.922 103.974 157.748 103.631L140.5 69.5618C140.377 69.3192 140.304 69.055 140.284 68.7843C140.265 68.5136 140.299 68.2418 140.386 67.9843C140.472 67.7268 140.609 67.4887 140.789 67.2836C140.968 67.0785 141.187 66.9104 141.432 66.7889L171.229 52.0226C171.474 51.9011 171.741 51.8286 172.015 51.8091C172.288 51.7897 172.563 51.8238 172.823 51.9094C173.084 51.9951 173.324 52.1306 173.532 52.3083C173.739 52.4859 173.909 52.7022 174.032 52.9449L191.28 87.0145C191.528 87.5045 191.569 88.0718 191.394 88.5918C191.22 89.1117 190.843 89.5417 190.348 89.7871L160.552 104.553C160.262 104.697 159.941 104.772 159.616 104.772ZM145.17 69.5583L160.548 99.9324L186.61 87.0183L171.232 56.6442L145.17 69.5583Z" fill="black"/>
<path d="M189.412 90.0067C189.137 90.0069 188.865 89.9531 188.611 89.8486L165.09 80.1971C164.626 80.0068 164.248 79.6577 164.023 79.2137C163.798 78.7697 163.742 78.2605 163.866 77.7792L170.14 53.3628C170.207 53.0985 170.325 52.8496 170.489 52.6307C170.652 52.4117 170.858 52.227 171.095 52.0871C171.331 51.9471 171.593 51.8548 171.865 51.8154C172.137 51.7759 172.415 51.7902 172.682 51.8573C172.949 51.9244 173.2 52.043 173.42 52.2063C173.64 52.3697 173.826 52.5745 173.966 52.809C174.106 53.0436 174.197 53.3032 174.236 53.5729C174.274 53.8427 174.258 54.1172 174.188 54.3808L168.36 77.0646L190.213 86.0312C190.66 86.2141 191.028 86.5446 191.256 86.9664C191.484 87.3882 191.557 87.8751 191.463 88.3442C191.368 88.8132 191.112 89.2353 190.738 89.5385C190.364 89.8417 189.896 90.0071 189.412 90.0067H189.412Z" fill="black"/>
</g>
<g clip-path="url(#clip10_250_153)">
<path d="M28.865 95.0716L71.6362 75.4478L83.4746 101.669L40.7037 121.293L28.865 95.0716Z" fill="white"/>
<path d="M40.7048 123.399C40.3035 123.4 39.9107 123.283 39.5732 123.064C39.2357 122.845 38.9679 122.533 38.8018 122.165L26.963 95.9439C26.7335 95.4353 26.7138 94.8557 26.9081 94.3325C27.1025 93.8094 27.4951 93.3854 27.9995 93.154L70.7704 73.5299C71.0201 73.4152 71.2899 73.3513 71.5641 73.3418C71.8384 73.3322 72.1119 73.3772 72.3689 73.4742C72.6259 73.5712 72.8615 73.7183 73.0621 73.9071C73.2628 74.0958 73.4245 74.3226 73.5382 74.5744L85.3766 100.797C85.4904 101.049 85.5538 101.32 85.5632 101.597C85.5727 101.873 85.528 102.149 85.4318 102.408C85.3356 102.667 85.1897 102.905 85.0025 103.107C84.8152 103.309 84.5903 103.472 84.3405 103.587L41.5704 123.211C41.2986 123.336 41.0034 123.4 40.7048 123.399ZM31.6326 96.1159L41.74 118.502L80.7071 100.623L70.5997 78.2374L31.6326 96.1159Z" fill="black"/>
<path d="M52.9424 100.038C52.5892 100.038 52.2363 100.016 51.8857 99.9739L28.616 97.163C28.3435 97.13 28.0801 97.0433 27.8409 96.9078C27.6017 96.7723 27.3912 96.5906 27.2216 96.373C27.0521 96.1555 26.9266 95.9065 26.8525 95.6401C26.7784 95.3737 26.7571 95.0953 26.7898 94.8206C26.8224 94.5459 26.9084 94.2804 27.0429 94.0392C27.1773 93.798 27.3576 93.5859 27.5733 93.4149C27.7891 93.244 28.0362 93.1176 28.3004 93.0429C28.5646 92.9682 28.8409 92.9466 29.1134 92.9796L52.383 95.7905C53.2191 95.8934 54.0671 95.7618 54.8337 95.4101C55.6003 95.0584 56.2558 94.5003 56.728 93.7973L69.908 74.2623C70.2197 73.8004 70.7008 73.4822 71.2453 73.3777C71.7897 73.2733 72.3531 73.3912 72.8113 73.7055C73.2696 74.0197 73.5853 74.5047 73.6888 75.0535C73.7924 75.6024 73.6755 76.1703 73.3637 76.6323L60.183 96.1669C59.382 97.3597 58.3031 98.3363 57.0408 99.0111C55.7785 99.686 54.3713 100.038 52.9424 100.038Z" fill="black"/>
</g>
<path d="M512.889 649.576L428.518 639.558L446.449 637.051L512.889 649.576Z" fill="white"/>
<path d="M427.722 642.083C427.149 641.902 426.655 641.532 426.32 641.033C425.985 640.535 425.83 639.938 425.879 639.34C425.929 638.742 426.18 638.179 426.592 637.742C427.004 637.306 427.553 637.023 428.147 636.939L446.079 634.429C446.365 634.39 446.655 634.397 446.938 634.45L513.379 646.974C514.064 647.091 514.676 647.473 515.083 648.036C515.489 648.599 515.658 649.299 515.553 649.986C515.448 650.672 515.077 651.289 514.521 651.704C513.964 652.12 513.267 652.3 512.578 652.206L428.207 642.187C428.042 642.167 427.88 642.133 427.722 642.083Z" fill="black"/>
<path d="M446.449 637.051L442.6 658.171L512.889 649.575L446.449 637.051Z" fill="white"/>
<path d="M441.804 660.696C441.188 660.502 440.664 660.09 440.331 659.537C439.997 658.985 439.877 658.33 439.992 657.695L443.841 636.575C443.904 636.232 444.034 635.905 444.224 635.613C444.414 635.32 444.66 635.068 444.947 634.87C445.235 634.673 445.559 634.535 445.901 634.463C446.242 634.391 446.595 634.387 446.938 634.452L513.379 646.974C514 647.092 514.559 647.427 514.955 647.919C515.351 648.412 515.558 649.03 515.538 649.661C515.518 650.292 515.273 650.895 514.847 651.361C514.42 651.827 513.841 652.126 513.214 652.203L442.923 660.799C442.547 660.845 442.166 660.81 441.804 660.696ZM448.578 640.146L445.852 655.107L495.642 649.017L448.578 640.146Z" fill="black"/>
<path d="M451.502 649.662L442.6 658.171L512.889 649.576L451.502 649.662Z" fill="white"/>
<path d="M441.805 660.696C441.366 660.558 440.97 660.308 440.657 659.97C440.344 659.633 440.124 659.22 440.019 658.772C439.914 658.324 439.928 657.857 440.059 657.416C440.19 656.975 440.434 656.576 440.766 656.258L449.669 647.749C450.161 647.279 450.815 647.016 451.496 647.015L512.884 646.928C513.558 646.928 514.208 647.185 514.7 647.646C515.192 648.108 515.49 648.74 515.532 649.412C515.574 650.085 515.357 650.748 514.927 651.267C514.496 651.785 513.883 652.12 513.214 652.202L442.924 660.799C442.548 660.845 442.166 660.81 441.805 660.696ZM452.567 652.309L450.195 654.577L468.923 652.284L452.567 652.309Z" fill="black"/>
<path d="M451.502 649.662L447.823 677.152L512.889 649.576L451.502 649.662Z" fill="white"/>
<path d="M447.027 679.677C446.432 679.489 445.921 679.098 445.587 678.571C445.252 678.045 445.113 677.417 445.196 676.799L448.876 649.31C448.961 648.675 449.273 648.093 449.755 647.671C450.237 647.249 450.856 647.016 451.497 647.016L512.884 646.928C513.495 646.927 514.088 647.138 514.562 647.524C515.036 647.91 515.362 648.448 515.485 649.046C515.608 649.645 515.52 650.267 515.236 650.807C514.951 651.348 514.489 651.773 513.926 652.012L448.86 679.589C448.279 679.835 447.629 679.866 447.027 679.677ZM453.822 652.306L451.066 672.901L499.813 652.241L453.822 652.306Z" fill="black"/>
<path d="M408.269 24.9205L337.619 21.7191L352.358 18.5383L408.269 24.9205Z" fill="white"/>
<path d="M337.109 23.8701C336.622 23.7541 336.19 23.4759 335.882 23.0812C335.575 22.6865 335.41 22.1986 335.416 21.6976C335.421 21.1966 335.596 20.7121 335.913 20.3237C336.229 19.9352 336.667 19.6658 337.156 19.5597L351.896 16.3771C352.131 16.3266 352.372 16.3147 352.61 16.3417L408.521 22.7239C409.097 22.7798 409.628 23.0601 409.999 23.5045C410.37 23.9488 410.552 24.5216 410.505 25.0994C410.459 25.6772 410.188 26.2138 409.75 26.5937C409.313 26.9735 408.744 27.1661 408.167 27.1301L337.517 23.9273C337.379 23.9208 337.243 23.9017 337.109 23.8701Z" fill="black"/>
<path d="M352.358 18.5383L350.417 36.3626L408.269 24.9204L352.358 18.5383Z" fill="white"/>
<path d="M349.907 38.5136C349.384 38.3895 348.925 38.0784 348.615 37.6386C348.305 37.1988 348.166 36.6606 348.224 36.1251L350.165 18.3009C350.197 18.0114 350.286 17.731 350.426 17.4757C350.566 17.2205 350.755 16.9955 350.982 16.8137C351.209 16.6318 351.47 16.4967 351.75 16.416C352.029 16.3354 352.321 16.3108 352.61 16.3438L408.521 22.7242C409.044 22.784 409.528 23.0291 409.886 23.4153C410.244 23.8015 410.452 24.3033 410.473 24.8301C410.494 25.3569 410.326 25.8741 410 26.2882C409.674 26.7024 409.211 26.9863 408.695 27.0886L350.843 38.531C350.533 38.5925 350.214 38.5866 349.907 38.5136ZM354.311 20.9861L352.936 33.6123L393.915 25.5067L354.311 20.9861Z" fill="black"/>
<path d="M357.304 28.7334L350.418 36.3626L408.269 24.9205L357.304 28.7334Z" fill="white"/>
<path d="M349.908 38.5137C349.535 38.4254 349.191 38.2413 348.911 37.9794C348.631 37.7174 348.424 37.3869 348.31 37.0202C348.197 36.6535 348.18 36.2634 348.263 35.8882C348.345 35.5131 348.524 35.1659 348.781 34.8809L355.668 27.2518C356.048 26.8303 356.576 26.5716 357.141 26.5294L408.107 22.716C408.667 22.6747 409.222 22.8491 409.658 23.2035C410.094 23.558 410.378 24.0658 410.453 24.6235C410.528 25.1812 410.388 25.7468 410.061 26.2048C409.734 26.6629 409.245 26.9789 408.694 27.0885L350.843 38.5311C350.533 38.5926 350.215 38.5867 349.908 38.5137ZM358.345 30.8731L356.51 32.9059L371.924 29.8557L358.345 30.8731Z" fill="black"/>
<path d="M357.304 28.7335L355.883 51.8525L408.269 24.9205L357.304 28.7335Z" fill="white"/>
<path d="M355.372 54.0034C354.866 53.8834 354.42 53.5884 354.11 53.1704C353.801 52.7524 353.649 52.2383 353.681 51.7186L355.102 28.6C355.135 28.0662 355.36 27.5623 355.735 27.1816C356.11 26.8009 356.61 26.5693 357.143 26.5296L408.107 22.7161C408.615 22.6782 409.12 22.8174 409.536 23.11C409.953 23.4025 410.256 23.8306 410.393 24.3215C410.531 24.8123 410.494 25.3359 410.291 25.8034C410.087 26.2709 409.728 26.6536 409.275 26.8866L356.888 53.8186C356.421 54.0591 355.883 54.1246 355.372 54.0034ZM359.388 30.794L358.323 48.1146L397.57 27.9371L359.388 30.794Z" fill="black"/>
<path d="M341.427 37.4217C341.469 37.2766 341.433 37.1378 341.344 37.0465C341.292 36.9925 341.223 36.9548 341.139 36.943C341.115 36.9394 341.092 36.9358 341.068 36.9322C341.068 36.9322 341.068 36.9322 341.068 36.9322C340.398 36.8309 339.725 36.7374 339.05 36.6517L341.427 37.4217ZM341.427 37.4217C341.371 37.6229 341.184 37.9551 340.988 38.0136M341.427 37.4217L340.988 38.0136M340.988 38.0136C340.984 38.0148 340.98 38.0159 340.976 38.0169M340.988 38.0136L340.976 38.0169M340.976 38.0169C340.951 38.0227 340.927 38.0242 340.902 38.0204L340.976 38.0169ZM290.95 44.3764L290.948 44.3731L290.95 44.3764ZM279.084 50.2819C278.871 50.4064 278.617 50.3469 278.523 50.1488L279.084 50.2819ZM234.235 101.129C234.233 101.128 234.232 101.128 234.23 101.127L234.235 101.129Z" fill="#112C41" stroke="#112C41" stroke-width="5"/>
<defs>
<filter id="filter0_d_250_153" x="20" y="30" width="569" height="569" filterUnits="userSpaceOnUse" color-interpolation-filters="sRGB">
<feFlood flood-opacity="0" result="BackgroundImageFix"/>
<feColorMatrix in="SourceAlpha" type="matrix" values="0 0 0 0 0 0 0 0 0 0 0 0 0 0 0 0 0 0 127 0" result="hardAlpha"/>
<feMorphology radius="2" operator="dilate" in="SourceAlpha" result="effect1_dropShadow_250_153"/>
<feOffset dy="4"/>
<feGaussianBlur stdDeviation="2.5"/>
<feComposite in2="hardAlpha" operator="out"/>
<feColorMatrix type="matrix" values="0 0 0 0 0 0 0 0 0 0 0 0 0 0 0 0 0 0 0.25 0"/>
<feBlend mode="normal" in2="BackgroundImageFix" result="effect1_dropShadow_250_153"/>
<feBlend mode="normal" in="SourceGraphic" in2="effect1_dropShadow_250_153" result="shape"/>
</filter>
<filter id="filter1_d_250_153" x="297" y="173" width="569" height="569" filterUnits="userSpaceOnUse" color-interpolation-filters="sRGB">
<feFlood flood-opacity="0" result="BackgroundImageFix"/>
<feColorMatrix in="SourceAlpha" type="matrix" values="0 0 0 0 0 0 0 0 0 0 0 0 0 0 0 0 0 0 127 0" result="hardAlpha"/>
<feMorphology radius="2" operator="dilate" in="SourceAlpha" result="effect1_dropShadow_250_153"/>
<feOffset dy="4"/>
<feGaussianBlur stdDeviation="2.5"/>
<feComposite in2="hardAlpha" operator="out"/>
<feColorMatrix type="matrix" values="0 0 0 0 0 0 0 0 0 0 0 0 0 0 0 0 0 0 0.25 0"/>
<feBlend mode="normal" in2="BackgroundImageFix" result="effect1_dropShadow_250_153"/>
<feBlend mode="normal" in="SourceGraphic" in2="effect1_dropShadow_250_153" result="shape"/>
</filter>
<filter id="filter2_d_250_153" x="146" y="388" width="569" height="569" filterUnits="userSpaceOnUse" color-interpolation-filters="sRGB">
<feFlood flood-opacity="0" result="BackgroundImageFix"/>
<feColorMatrix in="SourceAlpha" type="matrix" values="0 0 0 0 0 0 0 0 0 0 0 0 0 0 0 0 0 0 127 0" result="hardAlpha"/>
<feMorphology radius="2" operator="dilate" in="SourceAlpha" result="effect1_dropShadow_250_153"/>
<feOffset dy="4"/>
<feGaussianBlur stdDeviation="2.5"/>
<feComposite in2="hardAlpha" operator="out"/>
<feColorMatrix type="matrix" values="0 0 0 0 0 0 0 0 0 0 0 0 0 0 0 0 0 0 0.25 0"/>
<feBlend mode="normal" in2="BackgroundImageFix" result="effect1_dropShadow_250_153"/>
<feBlend mode="normal" in="SourceGraphic" in2="effect1_dropShadow_250_153" result="shape"/>
</filter>
<clipPath id="clip0_250_153">
<rect width="500.58" height="571.593" fill="white" transform="translate(61.6995 157.159)"/>
</clipPath>
<clipPath id="clip1_250_153">
<rect width="205.471" height="69.2663" fill="white" transform="translate(225.843 280.558)"/>
</clipPath>
<clipPath id="clip2_250_153">
<rect width="12.2235" height="25.029" fill="white" transform="translate(399.3 304.423)"/>
</clipPath>
<clipPath id="clip3_250_153">
<rect width="229.918" height="323.631" fill="white" transform="translate(215.948 112.922)"/>
</clipPath>
<clipPath id="clip4_250_153">
<rect width="164.144" height="121.071" fill="white" transform="translate(171.711 126.309)"/>
</clipPath>
<clipPath id="clip5_250_153">
<rect width="137.951" height="61.1173" fill="white" transform="translate(247.962 89.0567)"/>
</clipPath>
<clipPath id="clip6_250_153">
<rect width="59.3711" height="48.8939" fill="white" transform="translate(148.428 158.323)"/>
</clipPath>
<clipPath id="clip7_250_153">
<rect width="79.1615" height="75.087" fill="white" transform="translate(34.342 94.8774)"/>
</clipPath>
<clipPath id="clip8_250_153">
<rect width="47.7297" height="41.909" fill="white"/>
</clipPath>
<clipPath id="clip9_250_153">
<rect width="51.2222" height="52.9684" fill="white" transform="translate(140.279 51.8042)"/>
</clipPath>
<clipPath id="clip10_250_153">
<rect width="58.7891" height="50.058" fill="white" transform="translate(26.7751 73.3408)"/>
</clipPath>
</defs>
</svg>
