<svg width="18" height="29" viewBox="0 0 18 29" fill="none" xmlns="http://www.w3.org/2000/svg">
<path d="M5.46266 0C3.93584 0 2.62314 1.10604 2.34203 2.62854L1.94393 4.74837C0.787058 5.38516 0 6.62906 0 8.05556V20.9444C0 22.3709 0.787058 23.6148 1.94393 24.2516L2.34203 26.3715C2.62314 27.8945 3.93531 29 5.46266 29H11.4785C13.0053 29 14.318 27.894 14.5992 26.3715L14.9972 24.2516C16.1541 23.6148 16.9412 22.3709 16.9412 20.9444V18.7963C17.5262 18.7963 18 18.3156 18 17.7222V15.037C18 14.4436 17.5262 13.963 16.9412 13.963V12.8889C17.5262 12.8889 18 12.4082 18 11.8148V9.12963C18 8.5362 17.5262 8.05556 16.9412 8.05556C16.9412 6.62906 16.1541 5.38516 14.9972 4.74837L14.5992 2.62854C14.318 1.10551 13.0048 0 11.4775 0H5.46266ZM5.46266 2.14815H11.4785C11.9873 2.14815 12.4245 2.51648 12.5177 3.02398L12.7565 4.2963H4.18463L4.42245 3.02398C4.51616 2.51648 4.9539 2.14815 5.46266 2.14815ZM3.70588 6.44444H13.2353C14.1109 6.44444 14.8235 7.1673 14.8235 8.05556V20.9444C14.8235 21.8327 14.1109 22.5556 13.2353 22.5556H3.70588C2.83024 22.5556 2.11765 21.8327 2.11765 20.9444V8.05556C2.11765 7.1673 2.83024 6.44444 3.70588 6.44444ZM4.18463 24.7037H12.7565L12.5177 25.976C12.424 26.4835 11.9862 26.8519 11.4775 26.8519H5.46266C4.9539 26.8519 4.51666 26.4835 4.42348 25.976L4.18463 24.7037Z" fill="#646464"/>
</svg>
