<svg width="372" height="319" viewBox="0 0 372 319" fill="none" xmlns="http://www.w3.org/2000/svg">
<g clip-path="url(#clip0_196_16)">
<path d="M109.324 315.671C115.295 310.616 118.923 302.631 117.971 294.857C117.02 287.084 111.128 279.937 103.486 278.286C95.8432 276.636 87.1311 281.205 84.8098 288.684C83.5323 274.265 82.0602 259.243 74.4077 246.964C67.4786 235.846 55.4771 227.89 42.4703 226.467C29.4635 225.044 15.769 230.419 7.65709 240.703C-0.454796 250.987 -2.44095 265.938 3.2404 277.745C7.42565 286.443 15.1364 292.916 23.2153 298.182C49.3211 315.055 80.6316 321.917 111.386 317.505" fill="#F2F2F2"/>
<path d="M20.519 230.717C31.2512 239.474 41.0969 249.268 49.9136 259.957C63.7118 276.628 74.8775 295.32 83.0216 315.38C83.6177 316.844 81.2455 317.481 80.6559 316.034C75.4769 303.35 69.0694 291.206 61.5254 279.775C49.7613 261.917 35.3488 245.961 18.7842 232.455C17.5595 231.456 19.3043 229.726 20.519 230.717V230.717Z" fill="white"/>
<path d="M113.448 315.671C107.476 310.616 103.849 302.631 104.8 294.857C105.752 287.084 111.643 279.937 119.286 278.286C126.928 276.636 135.641 281.205 137.962 288.684C139.239 274.265 140.711 259.243 148.364 246.964C155.293 235.846 167.295 227.89 180.301 226.467C193.308 225.044 207.003 230.419 215.115 240.703C223.226 250.987 225.213 265.938 219.531 277.745C215.346 286.443 207.635 292.916 199.556 298.182C173.451 315.055 142.14 321.917 111.386 317.505" fill="#F2F2F2"/>
<path d="M202.252 230.717C191.52 239.474 181.674 249.268 172.858 259.957C159.059 276.628 147.894 295.32 139.75 315.38C139.153 316.844 141.526 317.481 142.115 316.034C155.44 283.431 176.713 254.695 203.987 232.455C205.212 231.456 203.467 229.726 202.252 230.717V230.717Z" fill="white"/>
<path d="M131.17 143.502C142.217 143.502 151.173 134.53 151.173 123.463C151.173 112.396 142.217 103.425 131.17 103.425C120.122 103.425 111.166 112.396 111.166 123.463C111.166 134.53 120.122 143.502 131.17 143.502Z" fill="#F2F2F2"/>
<path d="M69.4929 54.3869H207.311V61.9403H87.0866C80.0179 61.9403 73.0183 63.335 66.4876 66.0448C59.9569 68.7546 54.023 72.7265 49.0246 77.7336C44.0262 82.7407 40.0613 88.685 37.3562 95.2272C34.6511 101.769 33.2588 108.781 33.2588 115.862V201.678H18.1784C17.5118 201.678 16.8726 201.413 16.4012 200.94C15.9299 200.468 15.6651 199.828 15.665 199.16V108.309C15.665 101.228 17.0573 94.2159 19.7624 87.6737C22.4675 81.1316 26.4325 75.1873 31.4309 70.1802C36.4292 65.1731 42.3632 61.2012 48.8939 58.4914C55.4246 55.7816 62.4241 54.3869 69.4929 54.3869V54.3869Z" fill="#F2F2F2"/>
<path d="M96.002 316.091V201.355H129.556V316.091C129.555 316.862 129.249 317.602 128.705 318.147C128.16 318.692 127.422 318.999 126.652 319H98.9057C98.1358 318.999 97.3978 318.692 96.8534 318.147C96.309 317.602 96.0028 316.862 96.002 316.091Z" fill="#272727"/>
<path d="M8.56738 199.092V105.794C8.58412 90.9414 14.4814 76.7021 24.9653 66.1998C35.4492 55.6974 49.6637 49.7899 64.4902 49.773H206.667V202.324H11.7938C10.9384 202.323 10.1183 201.982 9.51346 201.377C8.90861 200.771 8.56836 199.949 8.56738 199.092V199.092ZM205.376 51.0659H64.4902C50.0059 51.0823 36.1194 56.8536 25.8774 67.1135C15.6354 77.3735 9.87431 91.2842 9.85793 105.794V199.092C9.85849 199.606 10.0626 200.099 10.4255 200.463C10.7885 200.826 11.2805 201.031 11.7938 201.031H205.376V51.0659Z" fill="#272727"/>
<path d="M131.169 133.805C128.09 133.802 125.137 132.575 122.96 130.394C120.782 128.212 119.557 125.255 119.554 122.17V38.7842C119.553 38.2701 119.349 37.7771 118.986 37.4136C118.624 37.05 118.131 36.8455 117.618 36.845H72.449C71.5936 36.844 70.7736 36.5032 70.1687 35.8973C69.5639 35.2913 69.2236 34.4698 69.2227 33.613V3.23202C69.2236 2.37514 69.5639 1.55363 70.1687 0.947728C70.7736 0.341822 71.5936 0.000992255 72.449 0H139.558C140.413 0.000980304 141.233 0.34181 141.838 0.947718C142.443 1.55363 142.783 2.37513 142.784 3.23202V122.17C142.78 125.255 141.556 128.212 139.378 130.394C137.201 132.575 134.248 133.802 131.169 133.805Z" fill="#C04040"/>
<path d="M211.828 48.4802C221.563 48.4598 230.907 52.3139 237.804 59.1948C244.702 66.0757 248.589 75.4196 248.609 85.171V191.381H320.88C323.783 191.375 326.57 192.525 328.627 194.577C330.684 196.629 331.843 199.416 331.849 202.324H175.048V85.171C175.068 75.4196 178.955 66.0757 185.853 59.1948C192.75 52.3139 202.094 48.4598 211.828 48.4802Z" fill="#272727"/>
<path d="M203.002 108.963L210.618 140.479L359.6 104.35L351.984 72.8341C351.892 72.4487 351.704 72.0929 351.438 71.7997C351.172 71.5064 350.836 71.2852 350.462 71.1566C350.186 71.0593 349.894 71.0153 349.601 71.0268L263.484 26.3591C262.979 26.101 262.399 26.0321 261.848 26.1647C261.297 26.2974 260.812 26.6229 260.479 27.0826L218.975 85.061L203.329 106.924C203.3 106.962 203.28 107.006 203.27 107.053C203.261 107.1 203.261 107.148 203.271 107.194C202.953 107.725 202.856 108.361 203.002 108.963V108.963Z" fill="white"/>
<path d="M203.272 107.194C203.279 107.235 203.294 107.275 203.317 107.31C203.339 107.345 203.369 107.375 203.403 107.399C203.443 107.426 203.489 107.446 203.537 107.455C203.585 107.465 203.634 107.464 203.682 107.454C203.76 107.433 203.828 107.386 203.875 107.32L203.929 107.245L204.744 106.104L219.539 85.4423L261.031 27.4773C261.267 27.1488 261.614 26.9163 262.007 26.8218C262.4 26.7274 262.815 26.7773 263.174 26.9626L348.625 71.2843L349.392 71.683C349.423 71.696 349.454 71.7072 349.487 71.7164C349.545 71.7059 349.603 71.7002 349.662 71.6996C349.742 71.6727 349.809 71.6161 349.849 71.5414C349.87 71.502 349.883 71.4589 349.887 71.4146C349.891 71.3703 349.886 71.3255 349.873 71.283C349.86 71.2404 349.839 71.2009 349.81 71.1666C349.782 71.1324 349.747 71.104 349.708 71.0833L349.602 71.0269L263.484 26.3591C262.979 26.101 262.399 26.0321 261.848 26.1647C261.297 26.2974 260.812 26.6229 260.48 27.0826L218.976 85.061L203.329 106.924C203.301 106.962 203.281 107.006 203.271 107.053C203.261 107.1 203.261 107.148 203.272 107.194V107.194Z" fill="#272727"/>
<path d="M248.016 110.408L251.332 110.777L275.944 113.508L292.26 115.317L293.224 115.425L313.584 99.4943L314.364 98.8841L319.173 95.1219L336.281 81.7373L336.384 80.7972L342.469 25.7791C342.552 25.0216 342.332 24.2619 341.857 23.6668C341.381 23.0717 340.69 22.6896 339.934 22.6043L258.722 13.5923C257.966 13.5096 257.208 13.7304 256.614 14.2065C256.02 14.6825 255.639 15.375 255.553 16.1322L251.262 54.9406L248.881 76.4567L246.752 95.7056L245.765 104.645L245.477 107.234C245.395 107.992 245.616 108.752 246.092 109.347C246.567 109.942 247.259 110.323 248.016 110.408V110.408Z" fill="#E6E6E6"/>
<path d="M270.332 62.1825L305.51 66.0856L317.986 67.4693C318.537 67.5304 319.094 67.4823 319.626 67.3276C320.158 67.1729 320.655 66.9147 321.088 66.5677C321.52 66.2208 321.88 65.7919 322.148 65.3055C322.415 64.8192 322.584 64.2848 322.645 63.7331C322.706 63.1813 322.658 62.6229 322.503 62.0898C322.349 61.5566 322.091 61.0592 321.745 60.6258C321.398 60.1925 320.97 59.8317 320.485 59.5641C319.999 59.2965 319.466 59.1273 318.915 59.0661L303.398 57.3446L271.264 53.7753C270.151 53.6521 269.035 53.9766 268.161 54.6775C267.288 55.3783 266.727 56.398 266.604 57.5125C266.48 58.627 266.804 59.745 267.503 60.6208C268.202 61.4965 269.22 62.0583 270.332 62.1825Z" fill="white"/>
<path d="M268.33 77.7712C268.42 77.7875 268.511 77.8037 268.604 77.8126L309.44 82.3445L316.258 83.1027C317.371 83.226 318.487 82.9014 319.361 82.2003C320.235 81.4993 320.795 80.4792 320.918 79.3644C321.041 78.2496 320.717 77.1315 320.017 76.2561C319.317 75.3806 318.299 74.8195 317.186 74.6962L307.328 73.6036L274.98 70.0129L269.536 69.4086C268.447 69.287 267.354 69.5942 266.487 70.2653C265.621 70.9365 265.049 71.9189 264.892 73.0049C264.735 74.091 265.006 75.1955 265.648 76.085C266.289 76.9744 267.251 77.5791 268.33 77.7712V77.7712Z" fill="white"/>
<path d="M263.708 91.5938C264.042 92.1503 264.5 92.6221 265.047 92.9725C265.593 93.3229 266.212 93.5424 266.857 93.614L283.594 95.471L313.404 98.7793L313.411 98.7777L314.364 98.8841L319.173 95.1219C319.202 94.8361 319.203 94.5481 319.173 94.2622C319.072 93.3026 318.647 92.4063 317.968 91.7217C317.289 91.0372 316.397 90.6054 315.439 90.4977L311.298 90.0368L294.872 88.2158L283.052 86.9026L267.785 85.2076C267.003 85.1208 266.211 85.255 265.501 85.595C264.791 85.935 264.19 86.4673 263.766 87.1316C263.341 87.796 263.111 88.5659 263.101 89.3544C263.091 90.1429 263.301 90.9186 263.708 91.5937L263.708 91.5938Z" fill="white"/>
<path d="M287.217 43.1277L295.97 44.0988L299.836 44.5289L305.676 45.1764C306.789 45.2997 307.905 44.9751 308.779 44.274C309.653 43.573 310.213 42.5528 310.336 41.4381C310.459 40.3233 310.135 39.2052 309.435 38.3298C308.735 37.4543 307.717 36.8932 306.604 36.7699L288.15 34.7237C287.037 34.5999 285.921 34.9238 285.047 35.6242C284.173 36.3247 283.612 37.3443 283.489 38.4587C283.365 39.5731 283.688 40.6911 284.388 41.5667C285.087 42.4424 286.105 43.0039 287.217 43.1277V43.1277Z" fill="white"/>
<path d="M215.647 66.5355L226.318 110.694L244.128 114.086L260.603 117.228L278.28 120.598L283.928 121.674C284.258 121.737 284.598 121.728 284.925 121.649C285.253 121.57 285.559 121.421 285.824 121.214L290.356 117.669L293.225 115.425L313.584 99.4943L300.639 45.9246C300.511 45.3916 300.232 44.907 299.836 44.5289C299.489 44.1944 299.063 43.9529 298.597 43.8267C298.132 43.7005 297.643 43.6936 297.174 43.8068L217.761 63.0648C217.021 63.2447 216.383 63.7112 215.987 64.3619C215.59 65.0127 215.468 65.7944 215.647 66.5355V66.5355Z" fill="#C04040"/>
<path d="M240.115 101.665C240.379 102.754 241.064 103.694 242.019 104.278C242.974 104.862 244.122 105.042 245.21 104.779L291.808 93.4791C292.895 93.2139 293.833 92.5277 294.415 91.5709C294.998 90.6142 295.178 89.465 294.917 88.3753C294.905 88.3212 294.89 88.268 294.871 88.2158C294.574 87.1652 293.882 86.2708 292.94 85.7199C291.999 85.1691 290.882 85.0046 289.822 85.2609L243.224 96.5611C242.136 96.8258 241.198 97.5119 240.615 98.4688C240.032 99.4257 239.852 100.575 240.115 101.665Z" fill="white"/>
<path d="M244.128 114.086L260.603 117.228L295.502 108.765C296.59 108.501 297.529 107.815 298.112 106.858C298.695 105.901 298.875 104.751 298.611 103.661C298.348 102.571 297.663 101.631 296.708 101.047C295.752 100.463 294.604 100.283 293.516 100.547L246.918 111.847C245.945 112.081 245.087 112.657 244.5 113.47C244.359 113.665 244.234 113.871 244.128 114.086Z" fill="white"/>
<path d="M278.279 120.598L283.927 121.674C284.258 121.737 284.598 121.728 284.925 121.649C285.252 121.57 285.559 121.421 285.824 121.214L290.355 117.669L278.279 120.598Z" fill="white"/>
<path d="M249.504 77.9864C249.768 79.0757 250.453 80.0154 251.409 80.5993C252.364 81.1832 253.511 81.3636 254.599 81.1008L272.648 76.7239C273.735 76.4587 274.672 75.7725 275.255 74.8157C275.838 73.859 276.018 72.7098 275.757 71.6201C275.616 71.0345 275.351 70.4863 274.979 70.013C274.48 69.3731 273.807 68.8908 273.042 68.6235C272.276 68.3562 271.45 68.3153 270.662 68.5057L252.613 72.8825C251.525 73.1465 250.587 73.8324 250.004 74.7896C249.421 75.7467 249.241 76.8966 249.504 77.9864V77.9864Z" fill="white"/>
<path d="M260.601 117.228L278.28 120.598L283.927 121.675C284.257 121.737 284.597 121.728 284.924 121.649C285.251 121.57 285.557 121.422 285.823 121.216L290.357 117.669L288.766 118.055L285.407 120.68C285.217 120.828 284.998 120.933 284.765 120.99C284.531 121.047 284.289 121.053 284.052 121.009L279.872 120.212L262.192 116.842L260.601 117.228ZM313.409 98.7803L313.581 99.4925L314.365 98.8818L313.409 98.7803ZM260.601 117.228L278.28 120.598L283.927 121.675C284.257 121.737 284.597 121.728 284.924 121.649C285.251 121.57 285.557 121.422 285.823 121.216L290.357 117.669L288.766 118.055L285.407 120.68C285.217 120.828 284.998 120.933 284.765 120.99C284.531 121.047 284.289 121.053 284.052 121.009L279.872 120.212L262.192 116.842L260.601 117.228ZM260.601 117.228L278.28 120.598L283.927 121.675C284.257 121.737 284.597 121.728 284.924 121.649C285.251 121.57 285.557 121.422 285.823 121.216L290.357 117.669L288.766 118.055L285.407 120.68C285.217 120.828 284.998 120.933 284.765 120.99C284.531 121.047 284.289 121.053 284.052 121.009L279.872 120.212L262.192 116.842L260.601 117.228ZM203.002 108.963L222.951 191.515C223.099 192.125 223.483 192.651 224.018 192.978C224.553 193.305 225.195 193.406 225.805 193.259L370.192 158.245C370.801 158.097 371.326 157.712 371.653 157.176C371.979 156.64 372.08 155.997 371.933 155.386L351.984 72.8341C351.892 72.4487 351.704 72.0929 351.438 71.7997C351.172 71.5064 350.836 71.2852 350.462 71.1566C350.186 71.0593 349.894 71.0153 349.601 71.0268C349.26 71.0367 348.926 71.1248 348.624 71.2843C348.485 71.3505 348.354 71.4323 348.233 71.528L336.383 80.7973L319.173 94.2641L313.408 98.7754L313.409 98.7803L313.404 98.7815L292.261 115.315L288.766 118.055L285.407 120.68C285.217 120.828 284.998 120.933 284.765 120.99C284.531 121.047 284.289 121.053 284.052 121.009L279.872 120.212L262.192 116.842L244.498 113.471L205.742 106.083C205.411 106.017 205.07 106.024 204.743 106.104C204.302 106.212 203.902 106.444 203.589 106.774C203.47 106.903 203.363 107.044 203.271 107.194C202.953 107.725 202.856 108.361 203.002 108.963V108.963ZM260.601 117.228L278.28 120.598L283.927 121.675C284.257 121.737 284.597 121.728 284.924 121.649C285.251 121.57 285.557 121.422 285.823 121.216L290.357 117.669L288.766 118.055L285.407 120.68C285.217 120.828 284.998 120.933 284.765 120.99C284.531 121.047 284.289 121.053 284.052 121.009L279.872 120.212L262.192 116.842L260.601 117.228ZM260.601 117.228L278.28 120.598L283.927 121.675C284.257 121.737 284.597 121.728 284.924 121.649C285.251 121.57 285.557 121.422 285.823 121.216L290.357 117.669L288.766 118.055L285.407 120.68C285.217 120.828 284.998 120.933 284.765 120.99C284.531 121.047 284.289 121.053 284.052 121.009L279.872 120.212L262.192 116.842L260.601 117.228ZM260.601 117.228L278.28 120.598L283.927 121.675C284.257 121.737 284.597 121.728 284.924 121.649C285.251 121.57 285.557 121.422 285.823 121.216L290.357 117.669L288.766 118.055L285.407 120.68C285.217 120.828 284.998 120.933 284.765 120.99C284.531 121.047 284.289 121.053 284.052 121.009L279.872 120.212L262.192 116.842L260.601 117.228Z" fill="white"/>
<path d="M260.601 117.228L278.28 120.598L283.927 121.675C284.257 121.737 284.597 121.728 284.924 121.649C285.251 121.57 285.557 121.422 285.823 121.216L290.357 117.669L288.766 118.055L285.407 120.68C285.217 120.828 284.998 120.933 284.765 120.99C284.531 121.047 284.289 121.053 284.052 121.009L279.872 120.212L262.192 116.842L260.601 117.228ZM313.409 98.7803L313.581 99.4925L314.365 98.8818L313.409 98.7803ZM260.601 117.228L278.28 120.598L283.927 121.675C284.257 121.737 284.597 121.728 284.924 121.649C285.251 121.57 285.557 121.422 285.823 121.216L290.357 117.669L288.766 118.055L285.407 120.68C285.217 120.828 284.998 120.933 284.765 120.99C284.531 121.047 284.289 121.053 284.052 121.009L279.872 120.212L262.192 116.842L260.601 117.228ZM260.601 117.228L278.28 120.598L283.927 121.675C284.257 121.737 284.597 121.728 284.924 121.649C285.251 121.57 285.557 121.422 285.823 121.216L290.357 117.669L288.766 118.055L285.407 120.68C285.217 120.828 284.998 120.933 284.765 120.99C284.531 121.047 284.289 121.053 284.052 121.009L279.872 120.212L262.192 116.842L260.601 117.228ZM203.928 107.245L204.016 107.311C204.031 107.287 204.056 107.266 204.076 107.24C204.271 107.037 204.514 106.885 204.783 106.798C205.051 106.711 205.337 106.693 205.615 106.744L244.128 114.083L260.601 117.228L278.28 120.598L283.927 121.675C284.257 121.737 284.597 121.728 284.924 121.649C285.251 121.57 285.557 121.422 285.823 121.216L290.357 117.669L288.766 118.055L285.407 120.68C285.217 120.828 284.998 120.933 284.765 120.99C284.531 121.047 284.289 121.053 284.052 121.009L279.872 120.212L262.192 116.842L244.498 113.471L205.742 106.083C205.411 106.017 205.07 106.024 204.743 106.104L203.928 107.245ZM203.002 108.963L222.951 191.515C223.099 192.125 223.483 192.651 224.018 192.978C224.553 193.305 225.195 193.406 225.805 193.259L370.192 158.245C370.801 158.097 371.326 157.712 371.653 157.176C371.979 156.64 372.08 155.997 371.933 155.386L351.984 72.8341C351.892 72.4487 351.704 72.0929 351.438 71.7997C351.172 71.5064 350.836 71.2852 350.462 71.1566C350.186 71.0593 349.894 71.0153 349.601 71.0268C349.26 71.0367 348.926 71.1248 348.624 71.2843C348.485 71.3505 348.354 71.4323 348.233 71.5281L336.383 80.7973L319.173 94.2641L313.408 98.7754L313.409 98.7803L313.404 98.7815L292.261 115.315L288.766 118.055L285.407 120.68C285.217 120.828 284.998 120.933 284.765 120.99C284.531 121.047 284.289 121.053 284.052 121.009L279.872 120.212L262.192 116.842L244.498 113.471L205.742 106.083C205.411 106.017 205.07 106.024 204.743 106.104C204.302 106.212 203.902 106.444 203.589 106.774C203.47 106.903 203.363 107.044 203.271 107.194C202.953 107.725 202.856 108.361 203.002 108.963V108.963ZM203.66 108.803C203.601 108.56 203.597 108.306 203.649 108.061C203.7 107.816 203.806 107.586 203.958 107.387C203.971 107.358 203.991 107.332 204.016 107.311C204.031 107.287 204.056 107.266 204.076 107.24C204.271 107.037 204.514 106.885 204.783 106.798C205.051 106.711 205.337 106.693 205.615 106.744L244.128 114.083L260.601 117.228L278.28 120.598L283.927 121.675C284.257 121.737 284.597 121.728 284.924 121.649C285.251 121.57 285.557 121.422 285.823 121.216L290.357 117.669L293.225 115.425L313.581 99.4925L314.365 98.8818L319.17 95.1213L336.282 81.7347L348.652 72.0571C348.84 71.9102 349.058 71.805 349.289 71.7487C349.354 71.7328 349.42 71.722 349.486 71.7164C349.544 71.7058 349.603 71.7002 349.661 71.6996C349.859 71.6977 350.056 71.7298 350.243 71.7945C350.509 71.8875 350.749 72.0459 350.939 72.2551C351.129 72.4643 351.263 72.7177 351.331 72.9924L371.28 155.545C371.332 155.761 371.342 155.986 371.308 156.206C371.273 156.426 371.196 156.637 371.08 156.827C370.965 157.017 370.813 157.182 370.633 157.313C370.453 157.444 370.25 157.539 370.034 157.591L225.647 192.605C225.211 192.71 224.752 192.637 224.37 192.403C223.987 192.168 223.714 191.792 223.609 191.355L203.66 108.803ZM260.601 117.228L278.28 120.598L283.927 121.675C284.257 121.737 284.597 121.728 284.924 121.649C285.251 121.57 285.557 121.422 285.823 121.216L290.357 117.669L288.766 118.055L285.407 120.68C285.217 120.828 284.998 120.933 284.765 120.99C284.531 121.047 284.289 121.053 284.052 121.009L279.872 120.212L262.192 116.842L260.601 117.228ZM260.601 117.228L278.28 120.598L283.927 121.675C284.257 121.737 284.597 121.728 284.924 121.649C285.251 121.57 285.557 121.422 285.823 121.216L290.357 117.669L288.766 118.055L285.407 120.68C285.217 120.828 284.998 120.933 284.765 120.99C284.531 121.047 284.289 121.053 284.052 121.009L279.872 120.212L262.192 116.842L260.601 117.228ZM260.601 117.228L278.28 120.598L283.927 121.675C284.257 121.737 284.597 121.728 284.924 121.649C285.251 121.57 285.557 121.422 285.823 121.216L290.357 117.669L288.766 118.055L285.407 120.68C285.217 120.828 284.998 120.933 284.765 120.99C284.531 121.047 284.289 121.053 284.052 121.009L279.872 120.212L262.192 116.842L260.601 117.228Z" fill="#272727"/>
<path d="M332.561 142.026C332.236 140.673 332.459 139.247 333.183 138.059C333.906 136.871 335.071 136.019 336.42 135.69L354.644 131.271C355.992 130.949 357.413 131.176 358.595 131.901C359.777 132.627 360.624 133.792 360.95 135.142C361.277 136.491 361.055 137.915 360.335 139.102C359.615 140.289 358.455 141.141 357.109 141.473L338.885 145.892C337.535 146.218 336.111 145.994 334.925 145.269C333.74 144.544 332.889 143.378 332.561 142.026Z" fill="#C04040"/>
<path d="M131.169 126.695C133.664 126.695 135.686 124.669 135.686 122.17C135.686 119.671 133.664 117.645 131.169 117.645C128.675 117.645 126.652 119.671 126.652 122.17C126.652 124.669 128.675 126.695 131.169 126.695Z" fill="white"/>
</g>
<defs>
<clipPath id="clip0_196_16">
<rect width="372" height="319" fill="white"/>
</clipPath>
</defs>
</svg>
