<svg width="859" height="469" viewBox="0 0 859 469" fill="none" xmlns="http://www.w3.org/2000/svg">
<path d="M87.9609 44.6876C145.342 18.692 178.042 90.855 243.75 97.3586C304.664 103.388 341.614 96.7629 399.539 80.7637C468.121 61.8206 482.916 5.69229 555.327 0.674915C619.726 -3.78727 659.377 14.2139 711.116 44.6876C789.879 91.078 824 144.45 824 221.821C824 299.192 782.021 345.299 711.116 398.954C664.992 433.857 633.911 456.096 571.159 466.055C504.477 476.638 465.288 456.326 399.539 442.606C337.112 429.58 307.45 407.345 243.75 398.954C183.747 391.05 117.585 440.732 87.9609 398.954C65.6616 367.506 118.447 344.44 112.281 308.764C105.628 270.269 65.7135 258.856 50.7918 221.821C37.1062 187.853 29.7828 166.5 36.5666 131.27C43.6707 94.3773 46.8385 63.3175 87.9609 44.6876Z" fill="#DBDBDB"/>
<g clip-path="url(#clip0_122_57)">
<path d="M429.5 409.857C666.706 409.857 859 404.476 859 397.838C859 391.201 666.706 385.82 429.5 385.82C192.294 385.82 0 391.201 0 397.838C0 404.476 192.294 409.857 429.5 409.857Z" fill="#E6E6E6"/>
<path d="M658.393 267.612C657.851 267.619 657.309 267.627 656.759 267.627C656.209 267.627 655.667 267.619 655.125 267.612C626.374 266.958 605.535 248.988 610.84 230.133L623.774 184.138L627.042 172.499L684.99 173.488L688.511 184.873L702.374 229.687C708.243 248.646 687.404 266.958 658.393 267.612Z" fill="#2D2D2D"/>
<path opacity="0.2" d="M688.511 184.873C678.631 190.523 667.422 193.434 656.042 193.304C644.662 193.175 633.523 190.011 623.773 184.138L627.042 172.499L684.99 173.488L688.511 184.873Z" fill="black"/>
<path d="M686.065 231.659C688.568 222.327 696.796 208.864 719.868 192.631C760.107 164.318 736.103 143.088 735.063 142.199C732.881 140.333 733.203 138.238 735.812 137.522C737.328 137.219 738.891 137.244 740.396 137.594C741.901 137.945 743.315 138.613 744.541 139.555C745.843 140.633 775.902 166.311 730.495 198.255C689.631 227.009 698.32 245.778 698.419 245.958C699.514 247.966 697.758 249.572 694.494 249.551C691.229 249.529 687.693 247.886 686.594 245.88C686.363 245.456 683.734 240.348 686.065 231.659Z" fill="#2D2D2D"/>
<path d="M630.014 274.315C629.136 274.315 628.266 274.142 627.455 273.806C626.644 273.47 625.907 272.977 625.286 272.356C624.665 271.735 624.173 270.998 623.837 270.186C623.501 269.375 623.328 268.505 623.328 267.627V238.643C623.328 236.869 624.032 235.167 625.286 233.913C626.54 232.659 628.241 231.954 630.014 231.954C631.787 231.954 633.488 232.659 634.742 233.913C635.996 235.167 636.7 236.869 636.7 238.643V267.627C636.7 268.505 636.527 269.375 636.191 270.186C635.855 270.998 635.363 271.735 634.742 272.356C634.121 272.977 633.384 273.47 632.573 273.806C631.761 274.142 630.892 274.315 630.014 274.315V274.315Z" fill="#2D2D2D"/>
<path d="M635.876 205.506C635.509 206.304 634.989 207.022 634.344 207.618C633.7 208.215 632.945 208.679 632.121 208.984C631.297 209.288 630.422 209.428 629.545 209.394C628.667 209.36 627.805 209.154 627.007 208.786L600.686 196.672C599.077 195.929 597.828 194.578 597.215 192.915C596.601 191.252 596.672 189.413 597.413 187.803C598.154 186.192 599.503 184.942 601.165 184.326C602.826 183.711 604.665 183.78 606.275 184.519L632.597 196.634C633.394 197.001 634.112 197.522 634.708 198.166C635.305 198.811 635.769 199.566 636.073 200.39C636.378 201.214 636.517 202.09 636.483 202.968C636.449 203.845 636.243 204.708 635.876 205.506V205.506Z" fill="#2D2D2D"/>
<path d="M677.641 205.506C678.008 206.304 678.529 207.022 679.173 207.618C679.818 208.215 680.573 208.679 681.397 208.984C682.22 209.288 683.096 209.428 683.973 209.394C684.85 209.36 685.713 209.154 686.51 208.786L712.832 196.672C714.443 195.93 715.693 194.579 716.308 192.915C716.923 191.252 716.852 189.411 716.111 187.8C715.37 186.188 714.019 184.937 712.356 184.322C710.693 183.707 708.853 183.778 707.242 184.519L680.921 196.634C680.123 197.001 679.406 197.522 678.809 198.166C678.213 198.811 677.749 199.566 677.444 200.39C677.14 201.214 677 202.09 677.034 202.968C677.068 203.845 677.274 204.708 677.641 205.506V205.506Z" fill="#2D2D2D"/>
<path d="M683.504 274.315C684.382 274.315 685.251 274.142 686.062 273.806C686.874 273.47 687.611 272.977 688.232 272.356C688.852 271.735 689.345 270.998 689.681 270.186C690.017 269.375 690.19 268.505 690.19 267.627V238.643C690.19 236.869 689.485 235.167 688.231 233.913C686.978 232.659 685.277 231.954 683.504 231.954C681.73 231.954 680.03 232.659 678.776 233.913C677.522 235.167 676.817 236.869 676.817 238.643V267.627C676.817 268.505 676.99 269.375 677.326 270.186C677.662 270.998 678.155 271.735 678.776 272.356C679.397 272.977 680.134 273.47 680.945 273.806C681.756 274.142 682.626 274.315 683.504 274.315V274.315Z" fill="#2D2D2D"/>
<path d="M711.446 86.6728C712.024 85.9447 712.441 85.1024 712.67 84.2014C712.898 83.3004 712.934 82.3611 712.773 81.4454L709.134 60.0302L705.495 38.615C705.299 37.4587 704.801 36.3746 704.053 35.4715C703.305 34.5684 702.333 33.8782 701.233 33.4703C700.134 33.0624 698.947 32.9511 697.791 33.1477C696.635 33.3442 695.551 33.8417 694.649 34.59L677.929 48.4502L667.856 56.8005C661.138 55.6055 654.271 55.5019 647.52 56.4938L637.817 48.4502L621.097 34.59C620.195 33.8417 619.111 33.3442 617.955 33.1477C616.799 32.9511 615.612 33.0624 614.513 33.4703C613.413 33.8782 612.441 34.5684 611.693 35.4715C610.945 36.3746 610.447 37.4588 610.251 38.615L606.612 60.0302L602.973 81.4454C602.779 82.571 602.879 83.7276 603.264 84.8029C597.028 94.3667 593.467 105.427 592.952 116.834C592.437 128.242 594.987 139.578 600.337 149.665C605.686 159.752 613.64 168.221 623.37 174.191C633.1 180.161 644.252 183.414 655.665 183.611C667.077 183.809 678.335 180.943 688.265 175.313C698.196 169.683 706.437 161.494 712.132 151.598C717.826 141.701 720.766 130.46 720.646 119.042C720.525 107.624 717.348 96.4464 711.446 86.6728V86.6728Z" fill="#2D2D2D"/>
<path d="M619.422 43.3657C619.025 43.3663 618.632 43.4377 618.26 43.5766C617.714 43.7755 617.231 44.1162 616.86 44.5639C616.489 45.0115 616.244 45.5499 616.15 46.1236L611.737 72.0937C611.64 72.6661 611.695 73.2541 611.897 73.7985C612.099 74.343 612.44 74.8246 612.887 75.1951C613.334 75.5656 613.871 75.8119 614.443 75.9092C615.016 76.0064 615.603 75.9513 616.148 75.7493L640.836 66.5873C641.38 66.3853 641.862 66.0437 642.232 65.5966C642.603 65.1496 642.849 64.6129 642.946 64.0405C643.043 63.4681 642.988 62.8802 642.786 62.3359C642.585 61.7915 642.243 61.3099 641.796 60.9394L641.796 60.9387L621.52 44.1311C620.932 43.638 620.189 43.3672 619.422 43.3657V43.3657Z" fill="#E6E6E6"/>
<path d="M696.324 43.3657C695.557 43.3672 694.814 43.638 694.226 44.1311L673.95 60.9394C673.503 61.3099 673.162 61.7915 672.96 62.3359C672.758 62.8802 672.703 63.4681 672.8 64.0405C672.897 64.6129 673.144 65.1496 673.514 65.5966C673.884 66.0437 674.366 66.3853 674.91 66.5873L699.599 75.7493C700.143 75.9513 700.731 76.0064 701.303 75.9092C701.875 75.8119 702.412 75.5656 702.859 75.1951C703.306 74.8246 703.647 74.343 703.849 73.7985C704.051 73.2541 704.106 72.6661 704.009 72.0937L699.596 46.1236C699.502 45.5499 699.257 45.0115 698.886 44.5639C698.515 44.1162 698.032 43.7755 697.486 43.5766C697.114 43.4377 696.721 43.3663 696.324 43.3657Z" fill="#E6E6E6"/>
<path d="M656.759 137.57C661.682 137.57 665.674 133.577 665.674 128.652C665.674 123.726 661.682 119.734 656.759 119.734C651.835 119.734 647.844 123.726 647.844 128.652C647.844 133.577 651.835 137.57 656.759 137.57Z" fill="#E6E6E6"/>
<path d="M656.759 126.422C660.041 126.422 662.702 125.424 662.702 124.193C662.702 122.961 660.041 121.963 656.759 121.963C653.476 121.963 650.815 122.961 650.815 124.193C650.815 125.424 653.476 126.422 656.759 126.422Z" fill="#2D2D2D"/>
<path d="M652.301 133.854H660.473V143.887C660.473 144.424 660.368 144.955 660.162 145.451C659.957 145.947 659.656 146.398 659.277 146.777C658.897 147.157 658.447 147.458 657.951 147.663C657.455 147.869 656.924 147.974 656.387 147.974V147.974C655.304 147.974 654.264 147.544 653.498 146.777C652.732 146.011 652.301 144.971 652.301 143.887V133.854H652.301Z" fill="#FF6584"/>
<path d="M657.255 32.6972C656.826 33.5862 656.41 34.4848 656.019 35.4018C651.408 46.1583 649.853 57.9788 651.525 69.5623C652.362 68.3483 653.241 67.0835 654.135 65.8047C652.22 54.6875 653.297 43.2607 657.255 32.6972V32.6972Z" fill="#2D2D2D"/>
<path d="M663.941 40.8722C663.512 41.7612 663.096 42.6598 662.705 43.5768C658.094 54.3333 656.539 66.1538 658.211 77.7374C659.048 76.5233 659.927 75.2585 660.821 73.9798C658.906 62.8625 659.983 51.4357 663.941 40.8722V40.8722Z" fill="#2D2D2D"/>
<path d="M684.555 201.364L683.613 189.381L682.672 177.398C682.621 176.751 682.4 176.129 682.033 175.594C681.666 175.059 681.164 174.63 680.578 174.351C679.993 174.071 679.344 173.951 678.697 174.002C678.05 174.053 677.428 174.273 676.894 174.641L666.991 181.448L659.759 186.419C659.297 185.878 658.723 185.443 658.077 185.145C657.431 184.847 656.728 184.693 656.016 184.693C655.304 184.693 654.601 184.847 653.955 185.145C653.309 185.443 652.735 185.878 652.272 186.419L645.041 181.448L635.138 174.641C634.604 174.273 633.982 174.053 633.335 174.002C632.688 173.951 632.039 174.071 631.454 174.351C630.868 174.63 630.366 175.059 629.999 175.594C629.632 176.129 629.411 176.751 629.361 177.398L628.419 189.381L627.477 201.364C627.426 202.011 627.546 202.66 627.826 203.246C628.105 203.832 628.533 204.333 629.068 204.701C629.603 205.069 630.225 205.289 630.872 205.34C631.518 205.391 632.167 205.27 632.753 204.991L643.597 199.815L652.508 195.563C652.966 196.028 653.513 196.397 654.115 196.648C654.717 196.9 655.363 197.03 656.016 197.03C656.669 197.03 657.315 196.9 657.917 196.648C658.519 196.397 659.065 196.028 659.524 195.563L668.435 199.815L679.279 204.991C679.865 205.27 680.514 205.391 681.16 205.34C681.807 205.289 682.429 205.069 682.964 204.701C683.499 204.333 683.927 203.832 684.207 203.246C684.486 202.66 684.606 202.011 684.555 201.364V201.364Z" fill="#C04040"/>
<path d="M644.872 121.22C646.103 121.22 647.101 120.222 647.101 118.99C647.101 117.759 646.103 116.761 644.872 116.761C643.641 116.761 642.644 117.759 642.644 118.99C642.644 120.222 643.641 121.22 644.872 121.22Z" fill="#E6E6E6"/>
<path d="M668.645 121.22C669.876 121.22 670.874 120.222 670.874 118.99C670.874 117.759 669.876 116.761 668.645 116.761C667.414 116.761 666.417 117.759 666.417 118.99C666.417 120.222 667.414 121.22 668.645 121.22Z" fill="#E6E6E6"/>
<path d="M225.529 247.915C226.071 247.922 226.614 247.93 227.164 247.93C227.713 247.93 228.256 247.922 228.798 247.915C257.549 247.261 278.387 229.291 273.083 210.436L260.149 164.44L256.88 152.802L198.933 153.791L195.411 165.176L181.549 209.99C175.68 228.949 196.518 247.261 225.529 247.915Z" fill="#2D2D2D"/>
<path opacity="0.2" d="M195.411 165.176C205.291 170.826 216.5 173.737 227.88 173.607C239.26 173.478 250.399 170.313 260.149 164.44L256.88 152.802L198.933 153.791L195.411 165.176Z" fill="black"/>
<path d="M190.819 206.511C184.564 199.147 171.37 190.5 143.573 185.706C95.0927 177.34 107.708 147.877 108.267 146.627C109.441 144.007 108.254 142.251 105.59 142.721C104.09 143.096 102.688 143.787 101.477 144.748C100.266 145.71 99.2752 146.919 98.5697 148.294C97.8534 149.827 81.6695 185.902 136.373 195.338C185.607 203.834 185.782 224.517 185.769 224.723C185.638 227.006 187.912 227.706 190.854 226.289C193.795 224.872 196.289 221.873 196.424 219.59C196.451 219.108 196.643 213.365 190.819 206.511Z" fill="#2D2D2D"/>
<path d="M253.908 254.618C254.786 254.618 255.656 254.445 256.467 254.109C257.278 253.773 258.015 253.28 258.636 252.659C259.257 252.038 259.75 251.301 260.086 250.489C260.422 249.678 260.595 248.808 260.595 247.93V218.945C260.592 217.173 259.887 215.474 258.633 214.221C257.38 212.968 255.68 212.265 253.908 212.265C252.136 212.265 250.437 212.968 249.183 214.221C247.93 215.474 247.224 217.173 247.222 218.945V247.93C247.222 248.808 247.395 249.678 247.731 250.489C248.067 251.301 248.56 252.038 249.18 252.659C249.801 253.28 250.538 253.773 251.35 254.109C252.161 254.445 253.03 254.618 253.908 254.618V254.618Z" fill="#2D2D2D"/>
<path d="M248.046 185.809C248.413 186.607 248.934 187.324 249.578 187.921C250.222 188.518 250.978 188.982 251.801 189.286C252.625 189.591 253.5 189.73 254.378 189.697C255.255 189.663 256.117 189.456 256.915 189.089L283.236 176.975C284.035 176.608 284.754 176.088 285.351 175.443C285.948 174.799 286.413 174.043 286.718 173.219C287.023 172.394 287.163 171.518 287.13 170.64C287.096 169.761 286.89 168.898 286.522 168.1C286.155 167.301 285.634 166.583 284.989 165.986C284.344 165.389 283.588 164.925 282.764 164.621C281.94 164.316 281.063 164.177 280.185 164.212C279.308 164.246 278.445 164.454 277.647 164.822L251.326 176.937C250.528 177.304 249.81 177.824 249.214 178.469C248.617 179.113 248.154 179.869 247.849 180.693C247.545 181.517 247.405 182.393 247.439 183.27C247.473 184.148 247.679 185.011 248.046 185.809V185.809Z" fill="#2D2D2D"/>
<path d="M206.281 185.809C205.914 186.607 205.394 187.324 204.749 187.921C204.105 188.518 203.349 188.982 202.526 189.286C201.702 189.591 200.827 189.73 199.95 189.697C199.072 189.663 198.21 189.456 197.412 189.089L171.091 176.975C170.292 176.608 169.574 176.088 168.976 175.443C168.379 174.799 167.914 174.043 167.609 173.219C167.304 172.394 167.164 171.518 167.198 170.64C167.231 169.761 167.438 168.898 167.805 168.1C168.172 167.301 168.693 166.583 169.338 165.986C169.983 165.389 170.739 164.925 171.563 164.621C172.388 164.316 173.264 164.177 174.142 164.212C175.02 164.246 175.882 164.454 176.68 164.822L203.002 176.937C203.799 177.304 204.517 177.824 205.113 178.469C205.71 179.113 206.174 179.869 206.478 180.693C206.783 181.517 206.922 182.393 206.888 183.27C206.854 184.148 206.648 185.011 206.281 185.809Z" fill="#2D2D2D"/>
<path d="M200.419 254.618C199.541 254.618 198.671 254.445 197.86 254.109C197.049 253.773 196.312 253.28 195.691 252.659C195.07 252.038 194.577 251.301 194.241 250.489C193.905 249.678 193.732 248.808 193.732 247.93V218.945C193.735 217.173 194.44 215.474 195.694 214.221C196.947 212.968 198.647 212.265 200.419 212.265C202.191 212.265 203.89 212.968 205.144 214.221C206.397 215.474 207.103 217.173 207.105 218.945V247.93C207.105 248.808 206.932 249.678 206.596 250.489C206.26 251.301 205.767 252.038 205.147 252.659C204.526 253.28 203.789 253.773 202.977 254.109C202.166 254.445 201.297 254.618 200.419 254.618V254.618Z" fill="#2D2D2D"/>
<path d="M280.658 65.1056C281.043 64.0304 281.143 62.8737 280.949 61.7482L277.31 40.333L273.671 18.9178C273.475 17.7615 272.977 16.6773 272.229 15.7743C271.481 14.8712 270.509 14.181 269.409 13.7731C268.31 13.3652 267.123 13.2539 265.967 13.4504C264.811 13.647 263.728 14.1444 262.825 14.8928L246.105 28.753L236.402 36.7965C229.651 35.8046 222.784 35.9082 216.067 37.1032L205.993 28.7529L189.273 14.8928C188.371 14.1444 187.287 13.6469 186.131 13.4504C184.975 13.2538 183.788 13.3651 182.689 13.773C181.589 14.1809 180.617 14.8711 179.869 15.7742C179.121 16.6773 178.623 17.7615 178.427 18.9177L174.788 40.333L171.149 61.7482C170.988 62.6638 171.024 63.6031 171.252 64.5042C171.481 65.4052 171.898 66.2475 172.476 66.9755C166.566 76.7514 163.383 87.9331 163.259 99.3569C163.134 110.781 166.072 122.029 171.767 131.932C177.463 141.834 185.707 150.029 195.642 155.663C205.577 161.297 216.84 164.165 228.258 163.968C239.677 163.77 250.834 160.515 260.569 154.541C270.303 148.567 278.259 140.092 283.609 129.999C288.959 119.905 291.507 108.562 290.988 97.1492C290.469 85.7364 286.902 74.6714 280.658 65.1056H280.658Z" fill="#2D2D2D"/>
<path d="M262.402 24.4338L242.126 41.2414L242.126 41.2421C241.679 41.6126 241.337 42.0942 241.136 42.6386C240.934 43.183 240.879 43.7709 240.976 44.3433C241.073 44.9156 241.319 45.4523 241.69 45.8994C242.06 46.3464 242.541 46.6881 243.086 46.89L267.774 56.0521C268.319 56.2541 268.906 56.3092 269.479 56.2119C270.051 56.1146 270.588 55.8683 271.035 55.4978C271.482 55.1274 271.823 54.6457 272.025 54.1013C272.227 53.5569 272.282 52.9689 272.185 52.3964L267.772 26.4264C267.678 25.8526 267.433 25.3143 267.062 24.8666C266.691 24.419 266.208 24.0782 265.661 23.8793C265.29 23.7405 264.897 23.6691 264.5 23.6685C263.733 23.6699 262.99 23.9408 262.402 24.4338V24.4338Z" fill="#E6E6E6"/>
<path d="M186.437 23.8793C185.891 24.0782 185.407 24.419 185.036 24.8666C184.665 25.3143 184.42 25.8526 184.326 26.4264L179.913 52.3964C179.816 52.9689 179.871 53.5569 180.073 54.1013C180.275 54.6457 180.617 55.1274 181.064 55.4978C181.511 55.8683 182.047 56.1146 182.619 56.2119C183.192 56.3092 183.78 56.2541 184.324 56.0521L209.013 46.89C209.557 46.6881 210.038 46.3464 210.408 45.8994C210.779 45.4523 211.025 44.9156 211.122 44.3433C211.22 43.7709 211.164 43.183 210.963 42.6386C210.761 42.0942 210.419 41.6126 209.972 41.2421L189.696 24.4338C189.108 23.9408 188.365 23.6699 187.598 23.6685C187.201 23.6691 186.808 23.7405 186.437 23.8793Z" fill="#E6E6E6"/>
<path d="M227.163 117.873C232.087 117.873 236.078 113.88 236.078 108.954C236.078 104.029 232.087 100.036 227.163 100.036C222.24 100.036 218.249 104.029 218.249 108.954C218.249 113.88 222.24 117.873 227.163 117.873Z" fill="#E6E6E6"/>
<path d="M227.164 106.725C230.446 106.725 233.107 105.727 233.107 104.495C233.107 103.264 230.446 102.266 227.164 102.266C223.881 102.266 221.22 103.264 221.22 104.495C221.22 105.727 223.881 106.725 227.164 106.725Z" fill="#2D2D2D"/>
<path d="M227.535 128.277C226.998 128.277 226.467 128.171 225.971 127.966C225.476 127.761 225.025 127.46 224.646 127.08C224.266 126.7 223.965 126.25 223.76 125.754C223.555 125.258 223.449 124.726 223.449 124.19V114.157H231.621V124.19C231.621 124.726 231.515 125.258 231.31 125.754C231.105 126.25 230.804 126.7 230.424 127.08C230.045 127.46 229.594 127.761 229.099 127.966C228.603 128.171 228.072 128.277 227.535 128.277V128.277Z" fill="#FF6584"/>
<path d="M226.667 13C227.096 13.889 227.512 14.7875 227.903 15.7045C232.514 26.4611 234.069 38.2815 232.397 49.8651C231.56 48.651 230.681 47.3862 229.787 46.1075C231.702 34.9902 230.625 23.5635 226.667 13V13Z" fill="#2D2D2D"/>
<path d="M219.981 21.175C220.41 22.064 220.826 22.9626 221.217 23.8795C225.828 34.6361 227.383 46.4565 225.711 58.0401C224.874 56.8261 223.995 55.5613 223.101 54.2825C225.016 43.1652 223.939 31.7385 219.981 21.175V21.175Z" fill="#2D2D2D"/>
<path d="M199.367 51.6099L200.309 39.6269L201.251 27.6439C201.302 26.9969 201.522 26.3747 201.89 25.8398C202.257 25.3049 202.759 24.8762 203.344 24.5968C203.93 24.3173 204.579 24.197 205.225 24.2479C205.872 24.2988 206.494 24.5191 207.029 24.8866L216.932 31.6941L224.163 36.6652C224.625 36.1239 225.199 35.6892 225.846 35.3912C226.492 35.0931 227.195 34.9388 227.907 34.9388C228.618 34.9388 229.321 35.0931 229.968 35.3912C230.614 35.6892 231.188 36.1239 231.65 36.6652L238.882 31.6941L248.784 24.8866C249.319 24.5191 249.941 24.2988 250.588 24.2479C251.235 24.197 251.883 24.3173 252.469 24.5968C253.055 24.8762 253.556 25.3049 253.924 25.8398C254.291 26.3747 254.511 26.9969 254.562 27.6439L255.504 39.6269L256.446 51.6099C256.497 52.2569 256.377 52.9059 256.097 53.4917C255.818 54.0774 255.389 54.5793 254.855 54.9469C254.32 55.3144 253.698 55.5347 253.051 55.5856C252.404 55.6365 251.756 55.5161 251.17 55.2367L240.325 50.0612L231.415 45.8087C230.956 46.2735 230.41 46.6425 229.808 46.8943C229.206 47.1462 228.559 47.2759 227.907 47.2759C227.254 47.2759 226.608 47.1462 226.006 46.8943C225.403 46.6425 224.857 46.2735 224.399 45.8087L215.488 50.0612L204.643 55.2367C204.058 55.5162 203.409 55.6365 202.762 55.5856C202.115 55.5348 201.493 55.3145 200.959 54.9469C200.424 54.5793 199.995 54.0774 199.716 53.4917C199.437 52.9059 199.316 52.2569 199.367 51.6099V51.6099Z" fill="#C04040"/>
<path d="M236.821 99.2931C236.821 100.524 237.819 99.2931 239.05 99.2931C240.281 99.2931 241.279 100.524 241.279 99.2931C241.278 98.7026 241.042 98.1367 240.624 97.7195C240.207 97.3024 239.64 97.0682 239.05 97.0682C238.46 97.0682 237.894 97.3024 237.476 97.7195C237.058 98.1367 236.823 98.7026 236.821 99.2931V99.2931Z" fill="#E6E6E6"/>
<path d="M217.506 99.2931C217.506 100.524 216.508 99.2931 215.277 99.2931C214.046 99.2931 213.048 100.524 213.048 99.2931C213.05 98.7026 213.285 98.1367 213.703 97.7195C214.121 97.3024 214.687 97.0682 215.277 97.0682C215.867 97.0682 216.434 97.3024 216.851 97.7195C217.269 98.1367 217.505 98.7026 217.506 99.2931V99.2931Z" fill="#E6E6E6"/>
<path d="M464.777 267.631V253.459H393.943V254.345V267.631V381.892V396.064H408.11H464.777V381.892H408.11V267.631H464.777Z" fill="#2D2D2D"/>
<path d="M499.309 253.459V396.064H570.143V253.459H499.309ZM555.976 381.892H513.475V267.631H555.976V381.892Z" fill="#C04040"/>
<path d="M302.744 381.892V254.345H288.577V381.892V396.064H302.744H359.411V381.892H302.744Z" fill="#C04040"/>
<path d="M256.702 267.631V253.459H185.868V254.345V267.631V317.233V331.405V381.892V396.064H200.035H256.702V381.892H200.035V331.405H256.702V317.233H200.035V267.631H256.702Z" fill="#2D2D2D"/>
<path d="M810.978 267.631V253.459H740.144V254.345V267.631V317.233V331.405V381.892V396.064H754.311H810.978V381.892H754.311V331.405H810.978V317.233H754.311V267.631H810.978Z" fill="#C04040"/>
<path d="M138.055 254.345V371.473L100.702 334.107L100.617 334.193L100.538 334.114L62.352 372.314V253.902H48.1851V395.622H62.352V392.356L100.624 354.07L138.055 391.516V396.064H152.222V254.345H138.055Z" fill="#2D2D2D"/>
<path d="M693.217 254.345V257.61L654.945 295.896L617.513 258.451V253.902H603.346V395.622H617.513V278.493L654.866 315.859L654.952 315.773L655.03 315.852L693.217 277.652V396.064H707.383V254.345H693.217Z" fill="#2D2D2D"/>
<path d="M323.74 167.044C328.543 167.044 332.436 163.149 332.436 158.345C332.436 153.541 328.543 149.646 323.74 149.646C318.938 149.646 315.045 153.541 315.045 158.345C315.045 163.149 318.938 167.044 323.74 167.044Z" fill="#C04040"/>
<path d="M109.25 263.696C114.053 263.696 117.946 259.801 117.946 254.997C117.946 250.193 114.053 246.298 109.25 246.298C104.448 246.298 100.555 250.193 100.555 254.997C100.555 259.801 104.448 263.696 109.25 263.696Z" fill="#C04040"/>
<path d="M281.229 457C286.032 457 289.925 453.105 289.925 448.301C289.925 443.497 286.032 439.603 281.229 439.603C276.427 439.603 272.534 443.497 272.534 448.301C272.534 453.105 276.427 457 281.229 457Z" fill="#C04040"/>
<path d="M499.584 193.14C504.387 193.14 508.28 189.245 508.28 184.441C508.28 179.637 504.387 175.742 499.584 175.742C494.782 175.742 490.889 179.637 490.889 184.441C490.889 189.245 494.782 193.14 499.584 193.14Z" fill="#C04040"/>
<path d="M755.619 449.268C760.422 449.268 764.315 445.373 764.315 440.569C764.315 435.765 760.422 431.87 755.619 431.87C750.817 431.87 746.924 435.765 746.924 440.569C746.924 445.373 750.817 449.268 755.619 449.268Z" fill="#C04040"/>
<path d="M764.315 221.169C769.118 221.169 773.011 217.274 773.011 212.47C773.011 207.666 769.118 203.771 764.315 203.771C759.513 203.771 755.62 207.666 755.62 212.47C755.62 217.274 759.513 221.169 764.315 221.169Z" fill="#C04040"/>
<path d="M654.172 377.745C658.974 377.745 662.867 373.851 662.867 369.047C662.867 364.242 658.974 360.348 654.172 360.348C649.369 360.348 645.476 364.242 645.476 369.047C645.476 373.851 649.369 377.745 654.172 377.745Z" fill="#C04040"/>
</g>
<defs>
<clipPath id="clip0_122_57">
<rect width="859" height="444" fill="white" transform="translate(0 13)"/>
</clipPath>
</defs>
</svg>
