<svg width="230" height="273" viewBox="0 0 230 273" fill="none" xmlns="http://www.w3.org/2000/svg">
<g clip-path="url(#clip0_170_22)">
<path d="M57.7236 75.6517C71.8101 75.6517 83.2294 64.2574 83.2294 50.2018C83.2294 36.1463 71.8101 24.752 57.7236 24.752C43.6371 24.752 32.2178 36.1463 32.2178 50.2018C32.2178 64.2574 43.6371 75.6517 57.7236 75.6517Z" fill="#3F3D56"/>
<path d="M204.047 84.135C218.133 84.135 229.553 72.7407 229.553 58.6851C229.553 44.6295 218.133 33.2352 204.047 33.2352C189.96 33.2352 178.541 44.6295 178.541 58.6851C178.541 72.7407 189.96 84.135 204.047 84.135Z" fill="#3F3D56"/>
<path d="M204.494 32.3423C199.595 32.3424 194.8 33.7504 190.681 36.398C186.563 39.0456 183.296 42.8208 181.271 47.2721C185.637 43.3913 191.207 41.1256 197.048 40.8545C202.889 40.5834 208.646 42.3233 213.355 45.7829C218.063 49.2424 221.437 54.2114 222.912 59.8573C224.386 65.5033 223.871 71.4833 221.453 76.7956C225.315 73.3656 228.041 68.8453 229.27 63.834C230.498 58.8226 230.171 53.5571 228.332 48.7355C226.492 43.914 223.228 39.7642 218.97 36.8365C214.713 33.9088 209.665 32.3414 204.494 32.3423Z" fill="#BBBBBB"/>
<path d="M57.2764 23.8589C62.1755 23.859 66.971 25.267 71.0894 27.9146C75.2077 30.5622 78.4747 34.3374 80.4997 38.7887C76.1334 34.9079 70.5632 32.6422 64.7222 32.3711C58.8812 32.1 53.1243 33.8399 48.4158 37.2995C43.7073 40.759 40.3333 45.728 38.859 51.3739C37.3847 57.0199 37.8997 62.9999 40.3176 68.3122C36.4554 64.8822 33.7293 60.3619 32.5008 55.3506C31.2723 50.3393 31.5995 45.0737 33.4389 40.2521C35.2783 35.4306 38.543 31.2808 42.8002 28.3531C47.0574 25.4254 52.106 23.858 57.2764 23.8589Z" fill="#BBBBBB"/>
<path d="M131.557 177.005C131.567 190.001 127.714 202.709 120.484 213.519C113.255 224.33 102.974 232.757 90.9422 237.736C78.9108 242.714 65.6698 244.019 52.8946 241.486C40.1194 238.954 28.3843 232.696 19.1743 223.507C9.96434 214.317 3.69336 202.607 1.15493 189.86C-1.38349 177.113 -0.075278 163.901 4.91405 151.896C9.90339 139.891 18.3496 129.633 29.1838 122.419C40.0181 115.205 52.7534 111.36 65.7784 111.371C74.4247 111.342 82.9914 113.019 90.9852 116.307C98.9789 119.596 106.242 124.429 112.356 130.529C118.47 136.63 123.314 143.877 126.609 151.853C129.904 159.83 131.586 168.377 131.557 177.005Z" fill="#3F3D56"/>
<path d="M131.557 177.005C131.569 186.4 129.553 195.688 125.645 204.236C114.382 204.086 103.286 201.5 93.121 196.658C82.9559 191.816 73.9639 184.832 66.7648 176.188C59.5656 167.544 54.3304 157.445 51.4201 146.587C48.5097 135.729 47.9933 124.371 49.9065 113.295C59.6008 110.901 69.714 110.739 79.4804 112.821C89.2468 114.903 98.4105 119.175 106.278 125.314C114.145 131.452 120.509 139.296 124.889 148.252C129.268 157.207 131.548 167.04 131.557 177.005Z" fill="#BBBBBB"/>
<path d="M126.634 194.418C169.635 194.418 204.494 159.635 204.494 116.729C204.494 73.8222 169.635 39.0396 126.634 39.0396C83.6335 39.0396 48.7744 73.8222 48.7744 116.729C48.7744 159.635 83.6335 194.418 126.634 194.418Z" fill="#3F3D56"/>
<path d="M145.555 119.386C149.588 113.984 155.602 110.397 162.281 109.412C168.959 108.427 175.756 110.124 181.183 114.131C184.199 110.092 185.945 105.25 186.201 100.219C186.458 95.1887 185.212 90.1953 182.622 85.8715C180.033 81.5476 176.215 78.0878 171.654 75.93C167.092 73.7723 161.991 73.0137 156.998 73.7503C152.004 74.4869 147.341 76.6855 143.6 80.0679C139.859 83.4502 137.209 87.864 135.983 92.7506C134.758 97.6371 135.014 102.776 136.718 107.518C138.422 112.259 141.497 116.39 145.555 119.386Z" fill="#E1E1E1"/>
<path d="M86.0415 124.298C90.0741 118.895 96.0887 115.308 102.767 114.323C109.445 113.338 116.243 115.035 121.669 119.043C124.685 115.003 126.431 110.161 126.688 105.131C126.944 100.1 125.698 95.1067 123.109 90.7828C120.519 86.459 116.702 82.9992 112.14 80.8414C107.578 78.6837 102.478 77.9251 97.4839 78.6617C92.49 79.3983 87.8274 81.5969 84.0866 84.9792C80.3457 88.3615 77.6949 92.7754 76.4697 97.6619C75.2445 102.548 75.5 107.688 77.2039 112.429C78.9078 117.171 81.9835 121.301 86.0415 124.298Z" fill="#E1E1E1"/>
<path d="M102.918 108.245C108.108 108.245 112.315 104.048 112.315 98.8692C112.315 93.6908 108.108 89.4929 102.918 89.4929C97.7286 89.4929 93.5215 93.6908 93.5215 98.8692C93.5215 104.048 97.7286 108.245 102.918 108.245Z" fill="#3F3D56"/>
<path d="M163.774 101.102C168.964 101.102 173.171 96.9036 173.171 91.7253C173.171 86.5469 168.964 82.349 163.774 82.349C158.585 82.349 154.377 86.5469 154.377 91.7253C154.377 96.9036 158.585 101.102 163.774 101.102Z" fill="#3F3D56"/>
<path d="M132.451 124.319C135.17 124.319 137.374 122.12 137.374 119.408C137.374 116.695 135.17 114.496 132.451 114.496C129.733 114.496 127.529 116.695 127.529 119.408C127.529 122.12 129.733 124.319 132.451 124.319Z" fill="#FF6584"/>
<path d="M58.6189 258.432V236.834H51.4593V258.432C49.3656 259.171 47.5529 260.539 46.2708 262.348C44.9886 264.158 44.3001 266.319 44.2998 268.535V268.535H65.7784V268.535C65.7782 266.319 65.0896 264.158 63.8074 262.348C62.5253 260.539 60.7126 259.171 58.6189 258.432Z" fill="#3F3D56"/>
<path d="M85.0193 258.432V236.834H77.8597V258.432C75.766 259.171 73.9533 260.539 72.6712 262.348C71.389 264.158 70.7004 266.319 70.7002 268.535V268.535H92.1788V268.535C92.1785 266.319 91.49 264.158 90.2078 262.348C88.9257 260.539 87.113 259.171 85.0193 258.432Z" fill="#3F3D56"/>
<path d="M94.802 46.49C91.5579 41.2785 89.3789 35.1567 90.0541 29.0588C90.7293 22.961 94.7325 17.0108 100.626 15.2633C106.52 13.5158 113.821 17.1361 114.932 23.1701C120.835 12.9862 130.172 5.22651 141.278 1.27582C146.429 -0.535299 153.275 -0.946003 156.253 3.6218C157.727 5.8825 157.885 8.95619 159.859 10.798C162.955 13.6852 167.919 11.6516 172.149 11.8984C178.098 12.2455 182.887 17.7851 183.636 23.6837C184.385 29.5823 181.767 35.5101 177.902 40.0359C174.038 44.5616 169.01 47.9191 164.052 51.2165" fill="#3F3D56"/>
<path d="M141.011 137.391C141.331 137.053 141.662 136.725 142.008 136.413C142.16 136.275 142.316 136.139 142.474 136.007C142.572 135.924 142.671 135.842 142.772 135.762C142.945 135.622 143 135.588 142.79 135.744C143.55 135.176 144.352 134.664 145.187 134.213C145.572 134.007 145.963 133.814 146.361 133.634C146.455 133.592 146.549 133.551 146.643 133.509C146.221 133.697 146.552 133.548 146.661 133.505C146.9 133.409 147.14 133.318 147.383 133.231C148.282 132.911 149.202 132.653 150.137 132.46C150.568 132.37 151.002 132.301 151.436 132.232C151.729 132.185 151.068 132.272 151.362 132.242C151.491 132.229 151.62 132.211 151.748 132.198C152.006 132.171 152.264 132.149 152.522 132.132C153.453 132.068 154.386 132.065 155.317 132.122C155.783 132.15 156.246 132.197 156.708 132.252C156.242 132.197 156.776 132.264 156.94 132.291C157.195 132.333 157.449 132.379 157.702 132.43C158.612 132.613 159.508 132.858 160.384 133.163C160.602 133.239 160.819 133.319 161.035 133.403C161.154 133.45 161.273 133.498 161.392 133.546C161.332 133.522 161 133.372 161.337 133.524C161.758 133.715 162.175 133.911 162.583 134.128C163.42 134.579 164.223 135.09 164.986 135.656C165.218 135.826 164.725 135.44 164.945 135.626C165.043 135.71 165.146 135.788 165.245 135.871C165.403 136.003 165.56 136.139 165.714 136.277C166.107 136.631 166.485 137.003 166.848 137.388C167.18 137.739 167.499 138.102 167.806 138.476C167.801 138.471 168.151 138.903 167.965 138.67C167.809 138.475 168.029 138.756 168.064 138.802C168.25 139.05 168.43 139.301 168.604 139.556C169.173 140.391 169.687 141.261 170.143 142.162C170.359 142.588 170.564 143.02 170.756 143.458C170.798 143.554 170.945 143.909 170.786 143.522C170.829 143.627 170.872 143.732 170.914 143.836C171.02 144.099 171.121 144.364 171.219 144.63C171.924 146.583 172.465 148.591 172.835 150.633C172.933 151.152 173.022 151.672 173.103 152.193C173.139 152.426 173.174 152.659 173.207 152.892C173.206 152.886 173.284 153.461 173.244 153.151C173.208 152.875 173.27 153.359 173.276 153.411C173.412 154.498 173.519 155.589 173.606 156.682C173.776 158.824 173.867 160.972 173.933 163.12C174.099 168.57 174.24 174.02 174.393 179.47L175.331 212.851L176.27 246.233L176.386 250.377C176.386 250.909 176.598 251.421 176.976 251.797C177.354 252.174 177.866 252.386 178.4 252.386C178.934 252.386 179.446 252.174 179.824 251.797C180.201 251.421 180.414 250.909 180.414 250.377L179.449 216.074L178.492 182.002L178.009 164.851C177.88 160.259 177.695 155.671 176.987 151.125C175.682 142.752 171.892 134.048 163.79 130.246C156.222 126.695 146.857 127.518 140.227 132.682C139.493 133.252 138.803 133.876 138.163 134.549C137.785 134.926 137.573 135.437 137.573 135.97C137.573 136.503 137.785 137.014 138.163 137.391C138.541 137.767 139.053 137.979 139.587 137.979C140.121 137.979 140.633 137.767 141.011 137.391L141.011 137.391Z" fill="#BBBBBB"/>
<path d="M156.168 200.669C155.574 200.669 155.006 200.905 154.586 201.323C154.167 201.742 153.931 202.309 153.93 202.901L158.404 270.738C158.402 271.034 158.458 271.327 158.569 271.6C158.68 271.874 158.844 272.123 159.052 272.333C159.26 272.543 159.508 272.71 159.781 272.825C160.053 272.939 160.346 272.999 160.642 273H197.335C197.928 272.999 198.497 272.764 198.916 272.345C199.336 271.927 199.572 271.359 199.572 270.768L204.048 202.872C204.041 202.285 203.802 201.724 203.382 201.311C202.963 200.899 202.398 200.668 201.81 200.669H156.168Z" fill="#E6E6E6"/>
<path d="M159.709 204.017C159.403 204.017 159.1 204.08 158.819 204.202C158.538 204.324 158.285 204.502 158.075 204.725C157.866 204.948 157.705 205.212 157.602 205.5C157.499 205.788 157.457 206.094 157.477 206.399L161.591 267.568C161.631 268.132 161.883 268.661 162.297 269.047C162.711 269.434 163.256 269.65 163.823 269.651H194.153C194.72 269.65 195.265 269.434 195.679 269.047C196.093 268.661 196.345 268.132 196.385 267.568L200.499 206.399C200.519 206.094 200.477 205.788 200.374 205.5C200.271 205.212 200.11 204.948 199.901 204.725C199.691 204.502 199.438 204.324 199.157 204.202C198.876 204.08 198.573 204.017 198.267 204.017H159.709Z" fill="#30332E"/>
<path d="M173.171 214.51C172.934 214.51 172.707 214.604 172.539 214.772C172.371 214.939 172.277 215.166 172.276 215.403V220.314C172.277 220.551 172.371 220.778 172.539 220.945C172.707 221.113 172.934 221.207 173.171 221.207H180.778C181.016 221.207 181.243 221.113 181.411 220.945C181.579 220.778 181.673 220.551 181.673 220.314V215.403C181.673 215.166 181.579 214.939 181.411 214.772C181.243 214.604 181.016 214.51 180.778 214.51H173.171Z" fill="#E6E6E6"/>
<path d="M181.673 227.458C181.436 227.458 181.209 227.553 181.041 227.72C180.873 227.887 180.779 228.114 180.778 228.351V233.262C180.779 233.499 180.873 233.726 181.041 233.894C181.209 234.061 181.436 234.155 181.673 234.155H189.28C189.518 234.155 189.745 234.061 189.913 233.894C190.081 233.726 190.175 233.499 190.175 233.262V228.351C190.175 228.114 190.081 227.887 189.913 227.72C189.745 227.553 189.518 227.458 189.28 227.458H181.673Z" fill="#E6E6E6"/>
<path d="M173.619 238.174C173.381 238.174 173.154 238.268 172.986 238.436C172.818 238.603 172.724 238.83 172.724 239.067V243.978C172.724 244.215 172.818 244.442 172.986 244.609C173.154 244.777 173.381 244.871 173.619 244.871H181.226C181.463 244.871 181.69 244.777 181.858 244.609C182.026 244.442 182.12 244.215 182.121 243.978V239.067C182.12 238.83 182.026 238.603 181.858 238.436C181.69 238.268 181.463 238.174 181.226 238.174H173.619Z" fill="#E6E6E6"/>
<path d="M29.0985 212.349C31.4269 213.119 33.0668 215.096 34.4312 217.033C35.8376 219.031 37.1267 221.2 39.0489 222.76C39.856 223.46 40.8032 223.981 41.8275 224.288C42.8519 224.595 43.9299 224.682 44.9903 224.542C47.0978 224.225 48.8844 222.755 49.2049 220.587C49.627 217.731 47.6242 215.088 45.8673 213.057L45.3927 214.2C48.1921 214.502 50.6258 216.094 53.1891 217.119C55.6451 218.101 58.5502 218.637 61.0037 217.357C62.8862 216.374 64.0601 214.409 64.4578 212.372C64.8648 210.149 64.5244 207.855 63.4897 205.845C62.1836 203.18 60.0419 201.027 57.9644 198.953L57.3113 200.073C60.4 200.535 63.8437 200.967 66.5237 198.986C67.5956 198.233 68.36 197.119 68.6771 195.85C68.9503 194.447 68.7178 192.992 68.0207 191.744C66.6115 189.005 63.9517 187.075 61.5671 185.238C56.0043 180.947 49.9768 177.291 43.5977 174.339C42.8192 173.978 42.1366 175.133 42.9201 175.496C48.385 178.028 53.5949 181.075 58.479 184.596C60.8287 186.291 63.3119 188.039 65.2699 190.19C66.9322 192.015 68.4462 194.808 66.6308 197.064C64.4953 199.719 60.6312 199.225 57.6682 198.781C57.5264 198.747 57.3773 198.759 57.2432 198.816C57.109 198.873 56.9968 198.972 56.9234 199.098C56.85 199.223 56.8193 199.37 56.8359 199.514C56.8524 199.659 56.9153 199.794 57.0152 199.9C60.1116 202.991 63.7888 206.702 63.2503 211.459C63.0461 213.263 62.1886 215.105 60.5802 216.059C58.3938 217.355 55.6594 216.688 53.4572 215.791C50.7837 214.703 48.3205 213.176 45.3927 212.861C44.7618 212.793 44.579 213.612 44.9181 214.004C46.3386 215.647 48.0426 217.784 47.9164 220.087C47.8108 222.013 46.1271 223.166 44.3214 223.275C39.7282 223.552 37.4093 218.781 35.0805 215.652C33.6067 213.671 31.8577 211.852 29.4554 211.057C28.6335 210.785 28.2811 212.078 29.0985 212.349H29.0985Z" fill="#BBBBBB"/>
</g>
<defs>
<clipPath id="clip0_170_22">
<rect width="230" height="273" fill="white"/>
</clipPath>
</defs>
</svg>
