<svg width="666" height="445" viewBox="0 0 666 445" fill="none" xmlns="http://www.w3.org/2000/svg">
<path d="M73.2949 34.7366C102.691 -1.1038 147.306 -4.91679 195.981 4.21023C249 14.1519 250.327 78.3071 299.141 87.0675C347.954 95.828 371.963 97.1708 416.294 87.0675C461.936 76.6656 472.267 20.7817 521.732 34.7366C571.197 48.6915 535.725 57.7041 604.716 131.549C673.706 205.394 681.987 269.089 639.536 343.78C611.927 392.358 579.714 418.474 521.732 435.359C475.696 448.765 444.169 447.65 397.745 435.359C354.231 423.838 342.545 392.257 299.141 380.411C250.038 367.01 216.537 366.345 167.668 380.411C125.797 392.464 112.95 452.373 73.2949 435.359C31.4806 417.418 86.0908 369.076 73.2949 329.243C59.1185 285.113 -2.42622 277.416 0.0740576 231.559C2.40756 188.761 73.2949 171.378 73.2949 143.469C73.2949 115.559 45.2018 68.9882 73.2949 34.7366Z" fill="#272727"/>
<g clip-path="url(#clip0_77_111)">
<path opacity="0.1" d="M98.4985 233.358C106.059 262.518 122.051 287.725 147.322 299.944C199.858 325.338 318.341 312.241 406.769 297.207C452.511 289.432 492.716 267.974 521.922 237.776L98.4985 233.358Z" fill="#C04040"/>
<path opacity="0.1" d="M562.21 96.0988H513.691C511.388 96.0988 509.499 94.396 509.499 92.3154C509.499 90.2347 511.388 88.5276 513.691 88.5276H522.083C519.776 88.5276 517.891 86.8248 517.891 84.7398C517.891 82.6548 519.776 80.9564 522.083 80.9564H516.094C513.787 80.9564 511.898 79.2536 511.898 77.1686C511.898 75.0836 513.787 73.3851 516.094 73.3851H541.417C535.798 71.0265 529.23 69.3498 521.661 68.468C452.606 60.4624 427.953 65.7575 419.256 71.2002C408.417 78.0688 396.376 82.8348 383.765 85.248C341.162 93.1841 261.487 102.732 189.272 82.2074C153.381 71.9864 126.703 89.2356 110.716 118.07H570.636C570.036 109.691 568.238 101.95 564.939 95.1779C564.157 95.78 563.197 96.1041 562.21 96.0988V96.0988Z" fill="#C04040"/>
<path opacity="0.1" d="M94.3852 172.493C92.5216 189.452 93.1551 206.592 96.2656 223.367L522.248 237.437C533.974 225.3 543.937 211.582 551.846 196.684L94.3852 172.493ZM262.867 208.785H254.479C256.786 208.785 258.675 210.492 258.675 212.573C258.675 214.654 256.786 216.357 254.479 216.357H205.96C203.658 216.357 201.769 214.654 201.769 212.573C201.769 210.492 203.658 208.785 205.96 208.785H214.352C212.045 208.785 210.161 207.083 210.161 205.002C210.161 202.921 212.045 201.214 214.352 201.214H208.359C206.052 201.214 204.163 199.511 204.163 197.431C204.163 195.35 206.052 193.643 208.359 193.643H256.877C259.184 193.643 261.069 195.346 261.069 197.431C261.069 199.516 259.184 201.214 256.877 201.214H262.867C265.174 201.214 267.058 202.917 267.058 205.002C267.058 207.087 265.174 208.785 262.867 208.785Z" fill="#C04040"/>
<path opacity="0.1" d="M570.654 118.33L105.585 128.538C99.9262 141.669 96.1743 156.517 94.4463 171.902H562.506C565.552 162.901 567.812 153.653 569.261 144.263C570.658 135.223 571.215 126.479 570.654 118.33ZM188.872 151.799H180.485C182.792 151.799 184.681 153.506 184.681 155.587C184.681 157.668 182.792 159.375 180.485 159.375H131.966C129.663 159.375 127.774 157.668 127.774 155.587C127.774 153.506 129.663 151.799 131.966 151.799H140.358C138.051 151.799 136.166 150.096 136.166 148.016C136.166 145.935 138.051 144.228 140.358 144.228H134.364C132.057 144.228 130.168 142.525 130.168 140.445C130.168 138.364 132.057 136.657 134.364 136.657H182.883C185.19 136.657 187.074 138.36 187.074 140.445C187.074 142.53 185.19 144.228 182.883 144.228H188.872C191.179 144.228 193.064 145.935 193.064 148.016C193.064 150.096 191.179 151.799 188.872 151.799Z" fill="#C04040"/>
<path opacity="0.1" d="M330.598 403.661C438.047 403.661 525.151 395.664 525.151 385.799C525.151 375.934 438.047 367.937 330.598 367.937C223.149 367.937 136.044 375.934 136.044 385.799C136.044 395.664 223.149 403.661 330.598 403.661Z" fill="#C04040"/>
<path d="M528.886 238.267C528.884 238.236 528.884 238.206 528.886 238.175C528.886 238.128 528.886 238.084 528.886 238.041C528.799 237.543 528.611 237.069 528.333 236.646C527.337 235.055 525.95 233.745 524.303 232.841C521.43 231.269 517.482 230.596 516.333 227.594C515.981 226.664 515.972 225.652 515.798 224.679C515.493 223.163 514.794 221.754 513.771 220.593C512.748 219.432 511.437 218.559 509.97 218.064C508.603 217.608 507.127 217.482 505.8 216.917C502.831 215.657 501.264 212.551 499.937 209.68C498.219 205.973 496.501 202.265 494.783 198.556C493.478 199.212 491.789 198.903 490.566 198.082C489.387 197.207 488.449 196.049 487.837 194.716C486.065 191.284 485.303 187.397 483.223 184.13C481.142 180.863 476.985 178.283 473.312 179.704C472.595 180.061 471.853 180.368 471.092 180.62C467.945 181.354 464.463 177.766 461.769 179.508C461.321 179.795 460.956 180.193 460.711 180.664C460.709 180.635 460.709 180.606 460.711 180.577C460.36 181.283 460.165 182.056 460.136 182.844V182.844C460.136 183.005 460.136 183.161 460.136 183.313C460.136 183.339 460.136 183.366 460.136 183.392C460.136 184.017 460.176 184.651 460.184 185.285C460.194 185.818 460.153 186.35 460.062 186.875V186.832C460.011 187.127 459.936 187.418 459.836 187.701C459.135 189.577 457.194 190.806 456.284 192.57V192.483C456.182 192.675 456.093 192.874 456.019 193.078C455.857 193.541 455.773 194.026 455.771 194.516C455.692 197.83 459.214 200.949 459.623 204.507C459.914 207.026 460.493 207.834 462.639 209.259L463.109 209.572C462.922 209.572 462.731 209.598 462.517 209.602C462.434 209.604 462.351 209.612 462.269 209.628C461.891 209.524 461.493 209.505 461.107 209.573C460.72 209.64 460.353 209.793 460.032 210.019C458.387 211.322 454.495 210.319 452.767 210.019C451.039 209.719 445.12 210.527 444.293 213.802C443.466 217.078 442.047 223.837 442.047 223.837C442.047 223.837 442.047 228.124 441.52 228.923C441.5 228.979 441.5 229.041 441.52 229.097C441.52 230.3 441.564 237.533 440.397 239.396C440.11 239.83 440.132 240.79 440.345 241.972C439.118 243.549 437.964 245.39 438.169 246.598C438.543 249.07 443.566 256.841 450.765 252.679C450.765 252.679 454.861 245.204 449.708 241.229L449.93 240.36C451.488 242.272 452.641 243.644 452.641 243.644C452.641 243.644 452.702 243.805 452.798 244.079H452.641C453.314 245.905 453.721 247.819 453.851 249.76C453.832 250.472 453.702 251.177 453.468 251.85H453.603C453.564 251.997 453.52 252.145 453.468 252.284C453.215 253.018 452.743 253.656 452.115 254.113C448.515 256.658 444.393 274.837 444.393 274.837C444.393 274.837 436.227 304.223 434.595 305.895C433.246 307.268 441.725 311.134 448.088 310.673C448.977 310.62 449.854 310.454 450.7 310.178C450.739 310.612 450.783 311.047 450.826 311.442C450.961 312.745 451.1 313.953 451.187 314.331C451.414 315.278 451.862 324.947 451.862 324.947C451.862 324.947 450.944 331.228 451.166 335.598C451.166 335.898 451.205 336.184 451.231 336.467L450.439 336.588C449.237 339.281 454.186 361.752 454.861 363.641C455.308 365.13 455.56 366.671 455.61 368.224C455.61 368.224 455.174 369.823 455.536 370.696C455.761 371.229 455.907 371.793 455.971 372.368C455.971 372.368 455.675 373.819 456.123 374.766C456.572 375.713 456.049 377.372 456.049 377.372C456.049 377.372 455.901 383.918 454.552 387.48C454.185 388.439 454.078 389.477 454.242 390.49C454.406 391.503 454.836 392.455 455.488 393.249C455.582 393.372 455.683 393.49 455.793 393.601C455.793 393.601 463.235 393.661 464.546 393.601H464.715C465.242 393.527 466.591 387.636 465.39 384.8C464.189 381.963 465.242 378.471 465.242 378.471V373.311C465.242 373.311 466.591 372.068 465.242 369.401C463.893 366.734 464.115 365.926 464.115 365.926C464.115 365.926 465.616 361.635 464.041 360.253C462.465 358.872 464.341 353.633 464.341 353.633L464.872 336.171C464.594 336.081 464.311 336.008 464.023 335.954C463.993 335.667 463.962 335.372 463.932 335.059C463.623 331.897 463.357 327.597 464.045 326.372C464.733 325.147 465.064 314.452 465.172 307.02L472.032 307.281C472.176 310.756 472.328 313.927 472.424 314.331C472.65 315.278 473.103 324.947 473.103 324.947C473.103 324.947 472.18 331.228 472.402 335.598C472.402 335.898 472.441 336.184 472.467 336.467L471.675 336.588C470.474 339.281 475.423 361.752 476.097 363.641C476.545 365.13 476.798 366.671 476.851 368.224C476.851 368.224 476.415 369.823 476.772 370.696C476.997 371.229 477.144 371.793 477.207 372.368C477.207 372.368 476.911 373.819 477.36 374.766C477.808 375.713 477.286 377.372 477.286 377.372C477.286 377.372 477.138 383.918 475.788 387.48C475.427 388.44 475.326 389.478 475.495 390.49C475.665 391.501 476.1 392.45 476.755 393.24C476.849 393.364 476.95 393.481 477.059 393.592C477.059 393.592 484.502 393.653 485.813 393.592H485.982C486.509 393.518 487.858 387.628 486.657 384.791C485.456 381.955 486.509 378.462 486.509 378.462V373.311C486.509 373.311 487.858 372.068 486.509 369.401C485.16 366.734 485.382 365.926 485.382 365.926C485.382 365.926 486.883 361.635 485.308 360.253C483.732 358.872 485.608 353.633 485.608 353.633L486.148 336.171C485.863 336.08 485.572 336.007 485.277 335.954C485.247 335.667 485.216 335.372 485.186 335.059C484.877 331.897 484.611 327.597 485.299 326.372C485.852 325.368 486.169 318.905 486.313 312.593C486.313 312.159 486.313 311.724 486.348 311.29C489.5 311.159 492.638 310.808 495.741 310.239C495.741 310.239 492.072 297.29 493.195 295.183C493.678 294.275 492.981 289.441 492.028 284.233C493.358 285.306 495.01 285.903 496.72 285.927C498.361 289.076 503.354 296.321 506.165 297.438C509.465 298.741 506.988 287.186 505.417 285.514C504.673 284.601 504.047 283.598 503.554 282.53C503.597 282.478 503.645 282.434 503.689 282.386C503.732 282.339 503.767 270.094 503.014 270.315C502.261 270.537 501.364 268.495 501.364 268.495L499.04 248.136L498.065 239.613C498.879 240.213 499.845 240.595 500.677 241.19C502.94 242.845 503.68 245.751 504.672 248.323C505.491 250.438 506.64 252.536 508.525 253.865C510.409 255.194 513.173 255.546 515.053 254.2C516.795 252.936 517.308 250.655 517.691 248.574C520.851 249.682 524.686 246.72 524.277 243.484C524.177 242.684 523.881 241.811 524.298 241.112C525.134 239.731 527.781 240.534 528.651 239.17C528.797 238.934 528.873 238.661 528.869 238.384C528.882 238.323 528.886 238.297 528.886 238.267ZM486.618 249.465C486.57 250.242 487.641 256.489 488.511 261.432C487.797 258.352 486.365 255.064 483.545 252.81C483.545 252.81 483.545 252.653 483.51 252.375H483.545C483.545 252.375 483.427 251.133 483.41 249.365C483.415 247.798 483.531 246.233 483.758 244.682V244.643H483.702C483.702 244.513 483.736 244.378 483.758 244.248C483.931 242.939 484.287 241.662 484.816 240.452C485.05 239.977 485.319 239.521 485.621 239.088C486.087 243.288 486.661 248.679 486.618 249.465V249.465ZM488.96 263.938C489.343 266.071 489.617 267.57 489.617 267.57L491.928 283.407V283.481C490.683 276.796 489.094 269.75 489.094 269.75C489.256 267.814 489.211 265.865 488.96 263.938V263.938Z" fill="url(#paint0_linear_77_111)"/>
<path d="M460.632 205.375C460.197 201.362 455.845 197.9 457.15 194.082C457.86 192.001 460.08 190.728 460.828 188.661C461.325 187.297 461.103 185.798 461.107 184.347C461.111 182.896 461.451 181.276 462.661 180.473C465.272 178.735 468.633 182.31 471.679 181.58C472.416 181.329 473.133 181.024 473.825 180.668C477.381 179.256 481.403 181.828 483.401 185.077C485.399 188.326 486.148 192.201 487.863 195.615C488.448 196.933 489.355 198.085 490.5 198.964C491.684 199.781 493.303 200.089 494.583 199.438L499.567 210.514C500.873 213.368 502.37 216.461 505.225 217.716C506.505 218.277 507.932 218.402 509.256 218.859C510.694 219.365 511.973 220.239 512.966 221.394C513.959 222.549 514.631 223.944 514.914 225.439C515.084 226.412 515.088 227.42 515.432 228.345C516.542 231.334 520.359 232.003 523.141 233.558C524.75 234.463 526.098 235.766 527.058 237.341C527.493 238.093 527.867 239.079 527.402 239.817C526.562 241.173 524.007 240.373 523.197 241.75C522.788 242.445 523.075 243.314 523.197 244.113C523.593 247.332 519.88 250.282 516.825 249.178C516.455 251.25 515.954 253.522 514.274 254.777C512.468 256.124 509.791 255.768 507.967 254.447C506.144 253.127 505.038 251.037 504.246 248.931C503.284 246.368 502.566 243.475 500.376 241.829C499.584 241.238 498.635 240.856 497.86 240.26C496.119 238.931 495.249 236.738 494.626 234.614C493.821 231.964 493.181 229.24 492.015 226.738C490.848 224.236 489.003 221.908 486.474 220.766C484.102 219.701 481.368 219.771 478.918 218.906C474.7 217.421 471.579 213.881 467.383 212.213C466.042 211.65 464.771 210.933 463.597 210.075C461.486 208.69 460.911 207.886 460.632 205.375Z" fill="#D98368"/>
<g opacity="0.1">
<path d="M461.024 187.809C461.114 187.639 461.192 187.464 461.259 187.284C461.751 185.92 461.533 184.421 461.538 182.97C461.538 182.486 461.583 182.004 461.673 181.528C461.271 182.386 461.076 183.326 461.103 184.273C461.098 185.442 461.237 186.667 461.024 187.809Z" fill="black"/>
<path d="M514.683 253.413C512.877 254.756 510.2 254.404 508.376 253.079C506.553 251.754 505.443 249.673 504.672 247.558C503.71 244.995 502.997 242.102 500.803 240.456C500.015 239.865 499.062 239.479 498.291 238.888C496.55 237.559 495.68 235.365 495.053 233.263C494.248 230.613 493.612 227.889 492.442 225.387C491.271 222.885 489.434 220.557 486.901 219.415C484.533 218.35 481.799 218.42 479.349 217.555C475.127 216.07 472.006 212.53 467.814 210.862C466.472 210.297 465.2 209.58 464.023 208.725C461.96 207.304 461.412 206.501 461.107 203.994C460.672 200.232 456.841 196.953 457.438 193.408C457.341 193.6 457.255 193.797 457.181 193.999C455.875 197.822 460.228 201.284 460.663 205.293C460.946 207.799 461.534 208.603 463.579 210.023C464.756 210.879 466.028 211.596 467.37 212.16C471.562 213.829 474.683 217.373 478.905 218.854C481.355 219.723 484.089 219.649 486.457 220.713C488.99 221.856 490.809 224.188 491.998 226.686C493.186 229.184 493.821 231.899 494.609 234.561C495.249 236.664 496.089 238.857 497.847 240.187C498.635 240.777 499.589 241.164 500.359 241.755C502.535 243.401 503.266 246.294 504.228 248.857C505.021 250.964 506.131 253.049 507.954 254.369C509.778 255.69 512.455 256.046 514.261 254.704C515.415 253.835 516.002 252.51 516.39 251.09C516.045 252.006 515.455 252.81 514.683 253.413V253.413Z" fill="black"/>
<path d="M523.628 240.386C523.462 240.698 523.389 241.051 523.419 241.403C524.403 240.434 526.623 241.003 527.398 239.757C527.577 239.448 527.648 239.089 527.598 238.736C526.588 239.691 524.368 239.122 523.628 240.386Z" fill="black"/>
<path d="M517.234 247.814C517.151 248.249 517.069 248.713 516.964 249.165C519.628 249.995 522.705 247.862 523.141 245.169C522.083 247.241 519.471 248.627 517.234 247.814Z" fill="black"/>
</g>
<path d="M466.256 207.465C466.256 207.465 467.705 210.384 463.427 210.445C459.148 210.506 466.182 229.401 466.182 229.401L473.294 238.436L482.143 233.658L482.652 220.479L483.305 212.517C483.305 212.517 475.035 209.837 476.559 206.292C478.082 202.747 466.256 207.465 466.256 207.465Z" fill="#FBBEBE"/>
<path d="M491.941 284.506C491.941 284.506 497.164 289.636 503.258 282.83L498.579 277.873H492.659L491.941 284.506Z" fill="#4F9F8C"/>
<path opacity="0.1" d="M492.507 277.873L491.789 284.506C491.789 284.506 497.012 289.636 503.105 282.83" fill="black"/>
<path d="M501.295 278.777C501.295 278.777 503.397 284.28 504.92 285.944C506.444 287.608 508.838 299.119 505.647 297.816C502.457 296.513 496.363 286.813 495.998 285.149C495.632 283.485 495.493 278.777 495.493 278.777H501.295Z" fill="#FBBEBE"/>
<path d="M455.666 307.011L483.81 308.097L480.546 296.221L466.369 295.935L455.666 307.011Z" fill="#4F9F8C"/>
<path opacity="0.1" d="M459.579 307.011L487.728 308.097L484.463 296.221L470.282 295.935L459.579 307.011Z" fill="black"/>
<path d="M464.876 326.615C464.21 327.853 464.467 332.136 464.768 335.303C464.959 337.318 465.168 338.869 465.168 338.869C465.168 338.869 454.648 342.127 453.055 339.303C452.65 338.586 452.45 337.331 452.38 335.859C452.162 331.515 453.055 325.255 453.055 325.255C453.055 325.255 452.619 315.63 452.402 314.687C452.315 314.309 452.18 313.11 452.049 311.811C451.858 309.883 451.675 307.737 451.675 307.737L466.038 300.135C466.038 300.135 466.038 301.56 466.012 303.754C465.934 310.643 465.703 325.095 464.876 326.615Z" fill="#FBBEBE"/>
<path opacity="0.1" d="M465.168 338.869C465.168 338.869 454.648 342.127 453.055 339.303C452.65 338.586 452.45 337.331 452.38 335.859C454.556 335.528 461.181 334.616 464.767 335.303C464.959 337.318 465.168 338.869 465.168 338.869Z" fill="black"/>
<path d="M465.529 393.601H465.364C464.097 393.648 456.898 393.601 456.898 393.601C456.792 393.491 456.694 393.374 456.602 393.253C455.966 392.458 455.545 391.513 455.381 390.508C455.218 389.504 455.316 388.475 455.666 387.519C456.972 383.97 457.115 377.455 457.115 377.455C457.115 377.455 457.625 375.791 457.189 374.848C456.754 373.906 457.041 372.459 457.041 372.459C456.975 371.887 456.828 371.327 456.606 370.796C456.245 369.927 456.68 368.333 456.68 368.333C456.63 366.788 456.386 365.256 455.953 363.772C455.3 361.891 450.513 339.52 451.675 336.84C451.675 336.84 461.829 335.103 465.677 336.406L465.168 353.781C465.168 353.781 463.353 358.994 464.876 360.371C466.4 361.748 464.95 366.017 464.95 366.017C464.95 366.017 464.733 366.812 466.038 369.492C467.344 372.173 466.038 373.402 466.038 373.402V378.541C466.038 378.541 465.024 382.016 466.182 384.839C467.34 387.663 466.038 393.509 465.529 393.601Z" fill="#403D63"/>
<path d="M485.46 326.615C484.794 327.853 485.051 332.136 485.351 335.303C485.542 337.318 485.751 338.869 485.751 338.869C485.751 338.869 475.231 342.127 473.638 339.303C473.233 338.586 473.033 337.331 472.963 335.859C472.746 331.515 473.638 325.255 473.638 325.255C473.638 325.255 473.203 315.63 472.985 314.687C472.868 314.179 472.663 309.331 472.502 304.983C472.367 301.273 472.258 297.92 472.258 297.92L486.622 300.135C486.622 300.135 486.622 306.438 486.443 312.915C486.287 319.196 485.995 325.633 485.46 326.615Z" fill="#FBBEBE"/>
<path opacity="0.1" d="M485.751 338.869C485.751 338.869 475.231 342.127 473.638 339.303C473.233 338.586 473.033 337.331 472.963 335.859C475.14 335.528 481.764 334.616 485.351 335.303C485.542 337.318 485.751 338.869 485.751 338.869Z" fill="black"/>
<path d="M486.113 393.601H485.947C484.681 393.648 477.481 393.601 477.481 393.601C477.376 393.491 477.277 393.374 477.185 393.253C476.549 392.458 476.129 391.513 475.965 390.508C475.801 389.504 475.899 388.475 476.25 387.519C477.555 383.953 477.686 377.437 477.686 377.437C477.686 377.437 478.195 375.774 477.76 374.831C477.325 373.888 477.612 372.442 477.612 372.442C477.545 371.87 477.399 371.31 477.177 370.778C476.816 369.909 477.251 368.315 477.251 368.315C477.201 366.771 476.957 365.238 476.524 363.754C475.871 361.873 471.083 339.503 472.245 336.823C472.245 336.823 482.4 335.085 486.248 336.388L485.738 353.764C485.738 353.764 483.923 358.976 485.447 360.353C486.97 361.73 485.521 366 485.521 366C485.521 366 485.303 366.795 486.609 369.475C487.915 372.155 486.609 373.385 486.609 373.385V378.523C486.609 378.523 485.595 381.998 486.753 384.822C487.91 387.645 486.622 393.509 486.113 393.601Z" fill="#403D63"/>
<path opacity="0.1" d="M471.914 210.879C477.564 210.879 482.143 206.309 482.143 200.671C482.143 195.033 477.564 190.463 471.914 190.463C466.265 190.463 461.686 195.033 461.686 200.671C461.686 206.309 466.265 210.879 471.914 210.879Z" fill="black"/>
<path d="M471.914 210.445C477.564 210.445 482.143 205.874 482.143 200.237C482.143 194.599 477.564 190.029 471.914 190.029C466.265 190.029 461.686 194.599 461.686 200.237C461.686 205.874 466.265 210.445 471.914 210.445Z" fill="#FBBEBE"/>
<path opacity="0.1" d="M451.675 307.737L466.038 300.135C466.038 300.135 466.038 301.56 466.012 303.754C463.914 305.005 460.75 306.885 457.708 308.662C456.054 309.631 454.439 310.569 453.055 311.355C452.733 311.529 452.397 311.675 452.049 311.79C451.858 309.883 451.675 307.737 451.675 307.737Z" fill="black"/>
<path opacity="0.1" d="M486.622 300.118C486.622 300.118 486.622 306.421 486.444 312.897H486.391C485.318 312.935 484.244 312.902 483.175 312.797C481.299 312.598 479.797 312.102 479.257 311.121C478.165 309.209 475.105 306.777 472.52 304.965C472.385 301.256 472.276 297.903 472.276 297.903L486.622 300.118Z" fill="black"/>
<path d="M483.95 244.913C483.586 247.74 483.516 250.598 483.741 253.439C490.339 258.869 489.107 270.306 489.107 270.306C489.107 270.306 494.187 293.476 493.099 295.574C492.011 297.672 495.562 310.56 495.562 310.56C492.535 311.133 489.47 311.484 486.391 311.612C485.318 311.65 484.244 311.616 483.175 311.512C481.299 311.312 479.797 310.817 479.257 309.835C477.229 306.29 468.45 301.004 468.45 301.004C468.45 301.004 462.887 304.331 457.708 307.359C456.054 308.328 454.439 309.266 453.055 310.052C451.931 310.647 450.69 310.986 449.42 311.047C443.261 311.503 435.057 307.654 436.362 306.29C437.96 304.622 445.868 275.376 445.868 275.376C445.868 275.376 449.855 257.275 453.338 254.743C453.948 254.282 454.403 253.648 454.643 252.923C455.836 249.617 453.842 244.318 453.842 244.318C453.842 244.318 442.6 230.491 443.105 229.692C443.609 228.893 443.614 224.627 443.614 224.627C443.614 224.627 444.994 217.894 445.79 214.636C446.587 211.379 452.319 210.579 453.986 210.87C455.653 211.161 459.423 212.174 461.016 210.87C462.609 209.567 465.299 211.379 465.299 211.379L471.906 213.194L477.847 209.719C477.847 209.719 483.802 210.023 484.311 210.818C484.82 211.613 492.655 213.138 492.655 213.138C496.642 215.814 496.498 228.558 496.498 228.558C496.498 228.558 486.922 236.881 484.964 241.155C484.456 242.356 484.115 243.62 483.95 244.913V244.913Z" fill="#4F9F8C"/>
<path d="M494.33 226.795L496.507 228.532L498.757 248.731L501.003 269.003C501.003 269.003 501.874 271.032 502.6 270.815C503.327 270.597 503.253 282.83 503.253 282.83C503.253 282.83 494.922 277.717 491.936 284.506L489.612 268.135C489.612 268.135 486.635 251.411 486.709 250.108C486.783 248.805 485.186 234.687 485.186 234.687L494.33 226.795Z" fill="#4F9F8C"/>
<path d="M444.711 227.737L443.113 229.692C443.113 229.692 443.261 238.089 442.025 240.117C440.789 242.146 445.437 254.017 447.178 253.292C448.92 252.566 452.837 234.036 452.837 233.819C452.837 233.601 444.711 227.737 444.711 227.737Z" fill="#4F9F8C"/>
<path d="M444.567 239.683C444.567 239.683 439.487 244.821 439.849 247.284C440.21 249.747 445.072 257.484 452.036 253.327C452.036 253.327 458.495 241.203 444.567 239.683Z" fill="#4F9F8C"/>
<path opacity="0.1" d="M465.364 393.614C464.097 393.661 456.898 393.614 456.898 393.614C456.793 393.504 456.694 393.388 456.602 393.266C458.443 392.641 462.422 391.702 465.364 393.614Z" fill="black"/>
<path opacity="0.1" d="M485.956 393.614C484.69 393.661 477.49 393.614 477.49 393.614C477.385 393.504 477.286 393.388 477.194 393.266C479.027 392.641 483.005 391.702 485.956 393.614Z" fill="black"/>
<path opacity="0.1" d="M458.221 266.284C457.111 276.909 457.477 297.994 457.708 307.359C456.054 308.328 454.439 309.266 453.055 310.052C451.931 310.647 450.69 310.986 449.42 311.047C448.959 308.215 455.348 279.124 458.221 266.284Z" fill="black"/>
<path opacity="0.1" d="M459.579 260.255C459.549 260.407 459.022 262.718 458.221 266.284C458.535 263.239 458.97 261.054 459.579 260.255Z" fill="black"/>
<path opacity="0.1" d="M477.251 259.108C477.251 259.108 483.418 297.768 465.155 302.546C465.15 302.529 477.79 300.613 477.251 259.108Z" fill="black"/>
<path opacity="0.1" d="M486.391 311.612C485.318 311.65 484.244 311.616 483.175 311.512L478.248 258.652C481.39 260.702 485.151 298.215 486.391 311.612Z" fill="black"/>
<path opacity="0.1" d="M464.298 194.234C464.624 194.208 464.953 194.242 465.268 194.334C465.73 194.563 466.146 194.875 466.496 195.254C467.063 195.728 467.742 196.05 468.468 196.19C469.194 196.331 469.944 196.285 470.648 196.058C471.144 195.837 471.671 195.69 472.211 195.624C473.042 195.624 473.76 196.232 474.191 196.927C474.622 197.622 474.844 198.447 475.214 199.19C475.584 199.933 476.176 200.636 476.99 200.819C477.38 200.834 477.764 200.922 478.121 201.079C478.341 201.257 478.509 201.489 478.609 201.753C479.288 203.217 479.828 204.945 481.277 205.662C481.81 205.909 482.391 206.035 482.979 206.031C483.576 206.075 484.175 205.968 484.72 205.719C485.256 205.42 485.699 204.98 486 204.446C486.905 202.952 487.01 201.101 486.796 199.368C486.53 197.182 485.75 195.089 484.52 193.261C483.223 191.412 481.458 189.939 479.405 188.994C477.352 188.048 475.084 187.663 472.833 187.879C472.047 187.967 471.269 188.112 470.504 188.313C467.736 189.052 465.02 190.433 463.34 192.748C462.934 193.326 462.487 193.875 462.004 194.39C462.765 194.316 463.531 194.251 464.298 194.234Z" fill="black"/>
<path d="M464.298 193.799C464.624 193.773 464.953 193.807 465.268 193.899C465.73 194.129 466.146 194.441 466.496 194.82C467.063 195.293 467.742 195.616 468.468 195.756C469.194 195.897 469.944 195.851 470.648 195.624C471.144 195.402 471.671 195.256 472.211 195.189C473.042 195.189 473.76 195.797 474.191 196.492C474.622 197.187 474.844 198.013 475.214 198.756C475.584 199.498 476.176 200.202 476.99 200.384C477.38 200.4 477.764 200.488 478.121 200.645C478.341 200.823 478.509 201.055 478.609 201.318C479.288 202.782 479.828 204.511 481.277 205.228C481.81 205.474 482.391 205.6 482.979 205.597C483.576 205.641 484.175 205.533 484.72 205.284C485.256 204.986 485.699 204.545 486 204.012C486.905 202.517 487.01 200.667 486.796 198.934C486.53 196.747 485.75 194.655 484.52 192.826C483.223 190.977 481.458 189.505 479.405 188.559C477.352 187.614 475.084 187.229 472.833 187.444C472.047 187.533 471.269 187.678 470.504 187.879C467.736 188.617 465.02 189.998 463.34 192.314C462.934 192.892 462.487 193.44 462.004 193.956C462.765 193.882 463.531 193.817 464.298 193.799Z" fill="#D98368"/>
<path opacity="0.1" d="M453.198 218.107C453.198 218.107 453.708 222.164 451.967 223.176C450.225 224.188 453.198 218.107 453.198 218.107Z" fill="black"/>
<path opacity="0.1" d="M490.122 249.53C490.122 249.53 494.257 243.449 494.84 245.186C495.423 246.924 490.122 249.53 490.122 249.53Z" fill="black"/>
<path opacity="0.1" d="M490.413 251.554C490.413 251.554 494.492 246.559 494.883 248.514C495.275 250.468 490.413 251.554 490.413 251.554Z" fill="black"/>
<path opacity="0.1" d="M478.435 245.608C476.956 245.629 475.512 245.154 474.335 244.261H473.978C472.756 245.375 471.153 245.976 469.499 245.942C468.639 245.962 467.784 245.808 466.986 245.488C466.187 245.168 465.462 244.69 464.855 244.083H464.38C463.127 245.102 461.553 245.644 459.937 245.615C458.321 245.585 456.768 244.986 455.553 243.922L453.851 243.892C453.851 243.892 455.845 249.191 454.652 252.497L483.741 253.014C483.515 250.172 483.585 247.314 483.949 244.487V244.448L482.352 244.417C481.203 245.213 479.833 245.629 478.435 245.608Z" fill="black"/>
<path opacity="0.1" d="M478.435 246.476C476.956 246.497 475.512 246.023 474.335 245.13H473.978C472.756 246.243 471.153 246.845 469.499 246.811C468.639 246.831 467.784 246.676 466.986 246.357C466.187 246.037 465.462 245.559 464.855 244.952H464.38C463.127 245.97 461.553 246.513 459.937 246.484C458.321 246.454 456.768 245.854 455.553 244.791L453.851 244.761C453.851 244.761 455.845 250.06 454.652 253.366L483.741 253.883C483.515 251.041 483.585 248.183 483.949 245.356V245.317L482.352 245.286C481.203 246.082 479.833 246.498 478.435 246.476Z" fill="black"/>
<path d="M478.435 246.042C476.956 246.063 475.512 245.589 474.335 244.695H473.978C472.756 245.809 471.153 246.411 469.499 246.376C468.639 246.396 467.784 246.242 466.986 245.922C466.187 245.603 465.462 245.125 464.855 244.517H464.38C463.127 245.536 461.553 246.079 459.937 246.049C458.321 246.02 456.768 245.42 455.553 244.357L453.851 244.326C453.851 244.326 455.845 249.626 454.652 252.931L483.741 253.448C483.515 250.606 483.585 247.749 483.949 244.921V244.882L482.352 244.852C481.203 245.647 479.833 246.063 478.435 246.042V246.042Z" fill="#3F3D56"/>
<path opacity="0.1" d="M477.142 217.078C477.142 217.078 483.266 217.469 483.305 218.337C483.345 219.206 477.142 217.078 477.142 217.078Z" fill="black"/>
<path opacity="0.1" d="M462.265 213.372C462.265 213.372 456.141 213.763 456.102 214.632C456.062 215.501 462.265 213.372 462.265 213.372Z" fill="black"/>
<path opacity="0.1" d="M485.669 231.134C485.608 231.091 485.547 231.056 485.486 231.017C487.053 232.424 486.792 235.5 484.868 238.036C482.944 240.573 480.023 241.629 478.248 240.491C478.304 240.538 478.352 240.591 478.413 240.638C480.154 241.968 483.201 240.925 485.212 238.301C487.223 235.678 487.419 232.468 485.669 231.134Z" fill="black"/>
<path opacity="0.1" d="M452.027 237.711C450.478 234.922 450.678 231.842 452.432 230.674C452.367 230.704 452.297 230.73 452.232 230.765C450.308 231.833 450.056 235.035 451.649 237.919C453.242 240.803 456.115 242.263 458.038 241.212C458.102 241.175 458.163 241.135 458.221 241.09C456.302 241.959 453.577 240.499 452.027 237.711Z" fill="black"/>
<path opacity="0.1" d="M454.099 214.193L453.538 215.062L452.106 214.302L452.859 213.147C453.357 213.381 453.784 213.742 454.099 214.193V214.193Z" fill="black"/>
<path d="M445.002 246.342C445.002 246.342 446.277 240.356 444.567 238.453C442.856 236.551 443.405 226.578 446.016 226.795C448.628 227.012 452.545 234.9 451.892 236.568C451.239 238.236 448.771 246.776 448.771 246.776L445.002 246.342Z" fill="#FBBEBE"/>
<path opacity="0.1" d="M485.956 203.156C485.655 203.689 485.212 204.13 484.676 204.429C484.132 204.677 483.533 204.785 482.935 204.741C482.348 204.745 481.767 204.619 481.233 204.372C479.784 203.651 479.244 201.922 478.565 200.463C478.479 200.199 478.326 199.963 478.121 199.776C477.769 199.616 477.389 199.524 477.003 199.503C476.189 199.32 475.601 198.612 475.227 197.874C474.852 197.135 474.631 196.319 474.204 195.611C473.777 194.903 473.055 194.281 472.224 194.308C471.682 194.379 471.155 194.533 470.661 194.764C469.957 194.989 469.207 195.033 468.481 194.892C467.755 194.751 467.076 194.429 466.509 193.956C466.159 193.577 465.743 193.265 465.281 193.035C464.966 192.943 464.637 192.909 464.31 192.935C463.81 192.935 463.314 192.983 462.813 193.022C462.565 193.346 462.299 193.657 462.017 193.951C462.778 193.886 463.544 193.821 464.31 193.804C464.637 193.778 464.966 193.812 465.281 193.904C465.743 194.133 466.159 194.445 466.509 194.824C467.076 195.297 467.755 195.62 468.481 195.761C469.207 195.902 469.957 195.858 470.661 195.632C471.155 195.402 471.682 195.248 472.224 195.176C473.055 195.176 473.773 195.784 474.204 196.479C474.635 197.174 474.857 198 475.227 198.743C475.597 199.485 476.189 200.189 477.003 200.371C477.389 200.392 477.769 200.485 478.121 200.645C478.34 200.823 478.509 201.055 478.609 201.318C479.288 202.782 479.828 204.511 481.277 205.228C481.81 205.474 482.391 205.6 482.979 205.597C483.576 205.641 484.175 205.533 484.72 205.284C485.256 204.986 485.698 204.545 486 204.012C486.675 202.784 486.978 201.386 486.87 199.989C486.837 201.105 486.523 202.194 485.956 203.156V203.156Z" fill="black"/>
<path d="M446.931 251.089C449.094 251.089 450.848 249.903 450.848 248.44C450.848 246.976 449.094 245.79 446.931 245.79C444.767 245.79 443.013 246.976 443.013 248.44C443.013 249.903 444.767 251.089 446.931 251.089Z" fill="#4F9F8C"/>
<path d="M319.242 395.933C393.402 395.933 453.52 335.937 453.52 261.927C453.52 187.918 393.402 127.921 319.242 127.921C245.082 127.921 184.963 187.918 184.963 261.927C184.963 335.937 245.082 395.933 319.242 395.933Z" fill="#C04040"/>
<path d="M389.698 329.269C389.698 350.423 356.374 331.076 320.648 331.076C284.921 331.076 248.786 349.624 248.786 328.47C248.786 316.407 260.303 299.631 276.826 287.447C289.274 278.264 304.56 271.688 319.917 271.688C335.708 271.688 351.177 278.807 363.517 288.581C379.09 300.904 389.698 317.463 389.698 329.269Z" fill="#444053"/>
<path d="M363.512 288.572C344.522 285.718 310.175 282.239 276.825 287.438C289.274 278.256 304.56 271.679 319.916 271.679C335.703 271.679 351.173 278.799 363.512 288.572Z" fill="#F6F8FB"/>
<path opacity="0.05" d="M248.786 167.333C248.786 167.333 208.337 193.139 208.668 233.506C208.999 273.873 248.786 167.333 248.786 167.333Z" fill="black"/>
<path d="M453.468 94.4482C453.468 94.4482 416.819 92.2459 421.141 117.874C421.141 117.874 420.271 122.4 424.397 124.459C424.397 124.459 424.462 122.561 428.153 123.204C429.469 123.424 430.805 123.488 432.136 123.395C433.934 123.273 435.642 122.569 437.002 121.388V121.388C437.002 121.388 447.305 117.144 451.314 100.338C451.314 100.338 454.278 96.6722 454.16 95.7339L447.975 98.3663C447.975 98.3663 450.086 102.819 448.41 106.52C448.41 106.52 448.21 98.5313 447.022 98.7007C446.782 98.7398 443.81 100.243 443.81 100.243C443.81 100.243 447.444 108.001 444.68 113.635C444.68 113.635 445.72 104.078 442.652 100.803L438.299 103.34C438.299 103.34 442.547 111.35 439.666 117.887C439.666 117.887 440.406 107.862 437.385 103.957L433.437 107.028C433.437 107.028 437.429 114.925 434.996 120.346C434.996 120.346 434.678 108.674 432.584 107.792C432.584 107.792 429.133 110.833 428.606 112.08C428.606 112.08 431.339 117.809 429.646 120.832C429.646 120.832 428.606 113.057 427.753 113.014C427.753 113.014 424.314 118.165 423.953 121.701C423.953 121.701 424.105 116.445 426.917 112.523C426.917 112.523 423.592 113.092 421.655 115.246C421.655 115.246 422.19 111.602 427.748 111.285C427.748 111.285 430.591 107.375 431.352 107.141C431.352 107.141 425.803 106.676 422.438 108.166C422.438 108.166 425.398 104.73 432.367 106.289L436.284 103.118C436.284 103.118 428.98 102.119 425.881 103.223C425.881 103.223 429.446 100.182 437.333 102.397L441.577 99.8649C441.577 99.8649 435.348 98.527 431.635 98.9961C431.635 98.9961 435.553 96.8894 442.817 99.1742L445.864 97.8146C445.864 97.8146 441.298 96.9198 439.962 96.7808C438.626 96.6418 438.556 96.2682 438.556 96.2682C441.456 95.7977 444.429 96.1422 447.144 97.2629C447.144 97.2629 453.577 94.8521 453.468 94.4482Z" fill="#C04040"/>
<path d="M415.879 83.0544C415.879 83.0544 399.339 82.0553 401.271 93.6359C401.271 93.6359 400.884 95.6818 402.743 96.6114C402.743 96.6114 402.769 95.7426 404.44 96.0467C405.034 96.1442 405.637 96.1734 406.238 96.1336C407.051 96.0757 407.823 95.7572 408.44 95.2257V95.2257C408.44 95.2257 413.093 93.3058 414.904 85.7128C414.904 85.7128 416.244 84.0578 416.21 83.6321L413.415 84.8223C413.415 84.8223 414.373 86.8335 413.62 88.5059C413.62 88.5059 413.528 84.8962 412.993 84.9831C412.884 84.9831 411.539 85.6781 411.539 85.6781C411.539 85.6781 413.184 89.1835 411.944 91.729C411.944 91.729 412.414 87.4112 411.03 85.93L409.063 87.0768C409.063 87.0768 410.982 90.6995 409.681 93.6533C409.681 93.6533 410.011 89.1227 408.649 87.3591L406.864 88.7448C406.864 88.7448 408.666 92.311 407.57 94.7609C407.57 94.7609 407.426 89.4876 406.477 89.0879C406.477 89.0879 404.919 90.4606 404.679 91.0253C404.679 91.0253 405.916 93.6315 405.149 94.9825C405.149 94.9825 404.679 91.4683 404.279 91.4553C404.279 91.4553 402.725 93.7792 402.564 95.3647C402.639 93.8892 403.1 92.459 403.9 91.2164C403.005 91.3855 402.179 91.8129 401.524 92.4457C401.524 92.4457 401.763 90.7994 404.283 90.656C404.283 90.656 405.567 88.8925 405.911 88.7839C405.911 88.7839 403.404 88.5754 401.885 89.2487C401.885 89.2487 403.221 87.6936 406.373 88.3799L408.114 86.9508C408.114 86.9508 404.814 86.5164 403.413 86.9942C403.413 86.9942 405.023 85.6216 408.588 86.625L410.503 85.4782C410.503 85.4782 407.691 84.8745 406.011 85.0916C406.011 85.0916 407.783 84.1404 411.065 85.1742L412.436 84.5574C412.436 84.5574 410.373 84.1534 409.772 84.0926C409.171 84.0318 409.132 83.8624 409.132 83.8624C410.439 83.6454 411.78 83.7958 413.006 84.2967C413.006 84.2967 415.927 83.2368 415.879 83.0544Z" fill="#C04040"/>
<path opacity="0.1" d="M560.421 381.477C566.894 381.477 572.142 380.592 572.142 379.501C572.142 378.409 566.894 377.524 560.421 377.524C553.947 377.524 548.699 378.409 548.699 379.501C548.699 380.592 553.947 381.477 560.421 381.477Z" fill="#C04040"/>
<path opacity="0.1" d="M113.702 414.355C120.176 414.355 125.424 413.47 125.424 412.379C125.424 411.287 120.176 410.402 113.702 410.402C107.228 410.402 101.98 411.287 101.98 412.379C101.98 413.47 107.228 414.355 113.702 414.355Z" fill="#C04040"/>
<path opacity="0.1" d="M181.747 416.835C188.22 416.835 193.468 415.951 193.468 414.859C193.468 413.767 188.22 412.883 181.747 412.883C175.273 412.883 170.025 413.767 170.025 414.859C170.025 415.951 175.273 416.835 181.747 416.835Z" fill="#C04040"/>
<path d="M534.767 403.635C544.433 403.635 552.268 402.312 552.268 400.681C552.268 399.05 544.433 397.727 534.767 397.727C525.101 397.727 517.265 399.05 517.265 400.681C517.265 402.312 525.101 403.635 534.767 403.635Z" fill="#C04040"/>
<path d="M542.001 395.855C542.799 395.204 543.382 394.327 543.672 393.34C543.885 392.345 543.459 391.146 542.506 390.781C541.435 390.373 540.29 391.116 539.424 391.863C538.558 392.61 537.561 393.462 536.425 393.305C537.009 392.777 537.446 392.107 537.693 391.36C537.941 390.613 537.989 389.815 537.835 389.044C537.786 388.724 537.65 388.424 537.443 388.175C536.847 387.541 535.772 387.81 535.058 388.31C532.795 389.9 532.164 392.966 532.151 395.729C531.924 394.734 532.116 393.696 532.111 392.688C532.107 391.681 531.824 390.516 530.962 389.982C530.428 389.697 529.827 389.556 529.221 389.574C528.203 389.535 527.071 389.635 526.375 390.377C525.504 391.303 525.735 392.849 526.488 393.852C527.241 394.856 528.381 395.507 529.43 396.207C530.274 396.708 530.994 397.392 531.537 398.209C531.6 398.324 531.653 398.445 531.694 398.57H538.07C539.497 397.846 540.819 396.933 542.001 395.855V395.855Z" fill="#C04040"/>
<path d="M119.173 359.432C119.173 359.432 121.563 362.551 118.068 367.251C114.573 371.951 111.691 375.939 112.845 378.875C112.845 378.875 118.116 370.127 122.421 370.001C126.725 369.875 123.892 364.693 119.173 359.432Z" fill="#C04040"/>
<path opacity="0.1" d="M119.174 359.432C119.381 359.734 119.545 360.063 119.661 360.41C123.848 365.318 126.077 369.901 122.055 370.014C118.303 370.122 113.785 376.812 112.727 378.502C112.764 378.632 112.808 378.762 112.858 378.888C112.858 378.888 118.129 370.14 122.434 370.014C126.738 369.888 123.892 364.693 119.174 359.432Z" fill="black"/>
<path d="M123.617 363.407C123.617 364.506 123.491 365.396 123.339 365.396C123.187 365.396 123.065 364.528 123.065 363.407C123.065 362.286 123.217 362.825 123.374 362.825C123.53 362.825 123.617 362.308 123.617 363.407Z" fill="#FFD037"/>
<path d="M125.124 364.719C124.157 365.244 123.317 365.561 123.243 365.427C123.169 365.292 123.896 364.762 124.862 364.237C125.829 363.711 125.446 364.093 125.52 364.237C125.594 364.38 126.107 364.193 125.124 364.719Z" fill="#FFD037"/>
<path d="M106.542 359.432C106.542 359.432 104.153 362.551 107.643 367.251C111.134 371.951 114.02 375.939 112.867 378.875C112.867 378.875 107.591 370.127 103.291 370.001C98.9904 369.875 101.82 364.693 106.542 359.432Z" fill="#C04040"/>
<path opacity="0.1" d="M106.542 359.432C106.333 359.733 106.168 360.062 106.055 360.41C101.867 365.318 99.6345 369.901 103.661 370.014C107.408 370.122 111.931 376.812 112.984 378.502C112.949 378.632 112.906 378.761 112.858 378.888C112.858 378.888 107.582 370.14 103.282 370.014C98.9816 369.888 101.82 364.693 106.542 359.432Z" fill="black"/>
<path d="M102.098 363.407C102.098 364.506 102.22 365.396 102.372 365.396C102.525 365.396 102.647 364.528 102.647 363.407C102.647 362.286 102.494 362.825 102.342 362.825C102.19 362.825 102.098 362.308 102.098 363.407Z" fill="#FFD037"/>
<path d="M100.57 364.719C101.537 365.244 102.381 365.561 102.455 365.427C102.529 365.292 101.802 364.762 100.836 364.237C99.8696 363.711 100.248 364.093 100.179 364.237C100.109 364.38 99.604 364.193 100.57 364.719Z" fill="#FFD037"/>
<path d="M102.86 378.48C102.86 378.48 109.545 378.276 111.565 376.842C113.585 375.409 121.85 373.702 122.351 375.973C122.851 378.245 132.397 387.398 124.849 387.458C117.302 387.519 107.313 386.281 105.302 385.061C103.291 383.84 102.86 378.48 102.86 378.48Z" fill="#A8A8A8"/>
<path opacity="0.2" d="M124.976 386.681C117.428 386.742 107.439 385.504 105.428 384.283C103.896 383.354 103.286 380.013 103.082 378.471H102.86C102.86 378.471 103.295 383.853 105.293 385.074C107.291 386.294 117.293 387.532 124.841 387.471C127.017 387.471 127.77 386.677 127.731 385.534C127.426 386.233 126.599 386.668 124.976 386.681Z" fill="black"/>
<path d="M271.502 244.357C274.057 244.213 286.084 243.31 293.722 238.962C294.949 238.241 296.335 237.834 297.757 237.776C300.186 237.706 302.98 238.718 301.192 244.383C298.293 253.648 281.461 264.073 271.015 263.495C260.969 262.939 249.051 258.9 241.182 244.695C240.428 243.329 240.057 241.785 240.107 240.226C240.198 237.359 241.243 233.766 246.636 237.771C253.922 243.179 267.746 244.205 270.519 244.357C270.846 244.374 271.175 244.374 271.502 244.357V244.357Z" fill="#444053"/>
<path d="M368.13 244.357C370.685 244.213 382.712 243.31 390.351 238.962C391.577 238.241 392.963 237.834 394.385 237.776C396.814 237.706 399.609 238.718 397.82 244.383C394.921 253.648 378.089 264.073 367.643 263.495C357.597 262.939 345.68 258.9 337.81 244.695C337.056 243.329 336.685 241.785 336.735 240.226C336.826 237.359 337.871 233.766 343.264 237.771C350.55 243.179 364.374 244.205 367.147 244.357C367.474 244.374 367.803 244.374 368.13 244.357V244.357Z" fill="#444053"/>
</g>
<defs>
<linearGradient id="paint0_linear_77_111" x1="481.66" y1="393.631" x2="481.66" y2="179.03" gradientUnits="userSpaceOnUse">
<stop stop-color="#808080" stop-opacity="0.25"/>
<stop offset="0.54" stop-color="#808080" stop-opacity="0.12"/>
<stop offset="1" stop-color="#808080" stop-opacity="0.1"/>
</linearGradient>
<clipPath id="clip0_77_111">
<rect width="478.797" height="352.459" fill="white" transform="translate(93.345 64.3761)"/>
</clipPath>
</defs>
</svg>
