<svg width="26" height="26" viewBox="0 0 26 26" fill="none" xmlns="http://www.w3.org/2000/svg">
<path fill-rule="evenodd" clip-rule="evenodd" d="M13 0C5.82045 0 0 5.82045 0 13C0 20.1795 5.82045 26 13 26C20.1795 26 26 20.1795 26 13C26 5.82045 20.1795 0 13 0ZM18.6349 10.8018C18.7387 10.6832 18.8177 10.5451 18.8672 10.3955C18.9168 10.2459 18.936 10.0879 18.9236 9.9308C18.9112 9.7737 18.8675 9.62067 18.7951 9.4807C18.7227 9.34073 18.6231 9.21665 18.502 9.11577C18.3809 9.01488 18.2409 8.93923 18.0902 8.89326C17.9395 8.84728 17.7811 8.83192 17.6243 8.84807C17.4676 8.86422 17.3156 8.91155 17.1774 8.98729C17.0392 9.06303 16.9176 9.16564 16.8196 9.28909L11.7378 15.3861L9.10827 12.7554C8.88538 12.5401 8.58685 12.421 8.27698 12.4237C7.96711 12.4264 7.6707 12.5506 7.45158 12.7698C7.23246 12.9889 7.10817 13.2853 7.10548 13.5952C7.10278 13.905 7.2219 14.2036 7.43718 14.4265L10.9826 17.9719C11.0988 18.088 11.2378 18.1785 11.3909 18.2379C11.5439 18.2972 11.7077 18.324 11.8717 18.3166C12.0357 18.3091 12.1963 18.2676 12.3434 18.1946C12.4905 18.1216 12.6207 18.0188 12.7258 17.8927L18.6349 10.8018Z" fill="#62A539"/>
</svg>
