<svg width="270" height="270" viewBox="0 0 270 270" fill="none" xmlns="http://www.w3.org/2000/svg">
<path d="M180.037 8.03146C154.924 -0.874918 127.734 -2.13442 101.905 4.41224C76.0759 10.9589 52.7684 25.0177 34.9297 44.8108C17.0909 64.6038 5.52211 89.2422 1.68617 115.61C-2.14976 141.978 1.91946 168.892 13.3793 192.947C24.8391 217.002 43.1748 237.119 66.0677 250.754C88.9607 264.388 115.383 270.928 141.992 269.546C168.602 268.164 194.204 258.923 215.562 242.99C236.919 227.058 253.072 205.15 261.979 180.037C273.922 146.361 271.998 109.32 256.631 77.0632C241.264 44.806 213.712 19.9745 180.037 8.03146V8.03146ZM216.898 130.814C215.896 133.639 214.079 136.104 211.676 137.896C209.273 139.689 206.393 140.728 203.399 140.884C200.406 141.039 197.433 140.303 194.858 138.77C192.282 137.236 190.219 134.973 188.93 132.266C187.641 129.56 187.183 126.532 187.615 123.566C188.046 120.6 189.348 117.828 191.355 115.601C193.362 113.374 195.984 111.793 198.889 111.056C201.795 110.32 204.854 110.461 207.679 111.463C211.468 112.807 214.567 115.6 216.296 119.229C218.025 122.858 218.241 127.025 216.898 130.814V130.814ZM88.4292 101.334C85.604 100.332 83.1393 98.5143 81.3469 96.1116C79.5545 93.7089 78.5148 90.8286 78.3593 87.835C78.2039 84.8414 78.9396 81.869 80.4735 79.2935C82.0074 76.718 84.2705 74.6553 86.9768 73.3661C89.683 72.0768 92.7107 71.619 95.6771 72.0506C98.6435 72.4821 101.415 73.7836 103.642 75.7905C105.869 77.7973 107.45 80.4194 108.187 83.3252C108.923 86.2309 108.782 89.2898 107.78 92.115C107.105 94.0181 106.058 95.7672 104.698 97.2597C103.338 98.7522 101.694 99.958 99.8617 100.806C98.0295 101.654 96.0463 102.128 94.0286 102.199C92.0108 102.271 89.9992 101.938 88.1117 101.221L88.4292 101.334ZM178.338 200.493C179.004 202.625 178.795 204.933 177.759 206.911C176.722 208.889 174.942 210.375 172.811 211.04C170.679 211.706 168.37 211.498 166.392 210.461C164.414 209.424 162.929 207.644 162.263 205.513C159.512 196.647 154.706 188.556 148.236 181.9C141.766 175.243 133.816 170.209 125.032 167.207C116.248 164.205 106.879 163.32 97.6883 164.624C88.4976 165.929 79.7449 169.385 72.1431 174.713C70.314 175.995 68.0504 176.499 65.8502 176.112C63.6501 175.725 61.6936 174.481 60.4112 172.652C59.1288 170.823 58.6255 168.559 59.0121 166.359C59.3986 164.159 60.6434 162.202 62.4724 160.92C72.2444 154.07 83.4957 149.626 95.3104 147.947C107.125 146.269 119.169 147.404 130.462 151.261C141.755 155.118 151.977 161.588 160.297 170.143C168.616 178.698 174.798 189.097 178.338 200.493V200.493Z" fill="#CDCDCD" fill-opacity="0.5"/>
</svg>
