<svg width="165" height="165" viewBox="0 0 165 165" fill="none" xmlns="http://www.w3.org/2000/svg">
<path d="M119.712 9.30628C79.4061 -11.2638 29.8764 4.79353 9.30626 45.0994C-11.2638 85.4053 4.79351 134.935 45.0994 155.505C85.4053 176.075 134.935 160.018 155.505 119.712C176.075 79.4061 160.018 29.8764 119.712 9.30628ZM113.973 20.5524C148.076 37.9572 161.664 79.8689 144.259 113.973C134.479 133.136 116.957 145.804 97.4404 150.16L121.767 102.494C122.528 101.002 122.666 99.2698 122.149 97.6771C121.633 96.0844 120.505 94.7621 119.014 94.001C117.522 93.2399 115.79 93.1024 114.197 93.6187C112.604 94.1351 111.282 95.263 110.521 96.7543L82.4407 151.776C71.4583 151.824 60.6234 149.247 50.8388 144.259C40.7118 139.091 32.4436 131.724 26.2104 123.079L54.2905 68.0571C55.0516 66.5658 55.1891 64.8332 54.6728 63.2405C54.1564 61.6478 53.0285 60.3255 51.5372 59.5644C50.0459 58.8033 48.3133 58.6658 46.7206 59.1822C45.1279 59.6985 43.8056 60.8264 43.0445 62.3177L18.7179 109.984C10.7945 91.6235 10.7752 69.9965 20.5523 50.8389C37.9571 16.7352 79.8689 3.14753 113.973 20.5524ZM77.1319 37.1887C70.1593 33.6302 62.8935 34.8126 57.6579 36.3222C52.366 37.8032 48.5373 39.8892 48.5373 39.8892L54.7699 51.0081C54.7699 51.0081 57.4096 49.3076 61.0604 48.2648C64.7111 47.2221 68.8621 47.1434 71.3924 48.4347L88.2615 57.0439L94.001 45.7978L77.1319 37.1887V37.1887ZM105.247 51.5372L99.5076 62.7833L116.377 71.3924C118.907 72.6838 121.279 76.0914 122.576 79.6595C123.874 83.2276 124.046 86.363 124.046 86.363L136.706 84.8863C136.706 84.8863 136.149 80.562 134.244 75.4078C132.394 70.2822 129.089 63.7048 122.116 60.1464L105.247 51.5372ZM82.4057 82.4057C73.1052 77.6592 61.0311 82.6247 55.4926 93.4772C49.9541 104.33 53.0172 117.02 62.3177 121.767C71.6182 126.513 83.6923 121.548 89.2308 110.695C94.7693 99.843 91.7062 87.1522 82.4057 82.4057ZM76.6663 93.6518C79.6577 95.1785 80.2776 100.463 77.9847 104.956C75.6918 109.449 71.0486 112.048 68.0571 110.521C65.0657 108.994 64.4458 103.709 66.7387 99.2166C69.0316 94.7238 73.6748 92.1251 76.6663 93.6518Z" fill="#DFDEDF"/>
</svg>
