<svg width="14" height="15" viewBox="0 0 14 15" fill="none" xmlns="http://www.w3.org/2000/svg">
<path d="M12.9904 2.79255C11.9769 1.1543 10.2877 0.197806 8.10867 0.0248231C3.04113 -0.372019 0.713442 4.095 0.250607 5.86553C-0.108106 7.31684 -0.0813135 8.83723 0.32831 10.2749C0.949927 12.3337 2.41276 13.8567 4.59517 14.6843C5.36481 14.9003 6.1609 15.0065 6.96003 14.9997C8.32869 15.0113 9.67995 14.6914 10.8992 14.0669C11.0153 14.0036 11.1023 13.8974 11.142 13.7709C11.1817 13.6444 11.171 13.5073 11.112 13.3886C11.0502 13.2708 10.9445 13.1822 10.818 13.1422C10.6914 13.1022 10.5543 13.1139 10.4364 13.1749C8.72288 14.0087 6.7702 14.2046 4.92625 13.7278C-0.188579 11.7876 1.16952 6.35395 1.23033 6.12331C1.63236 4.5936 3.6391 0.696403 8.03096 1.03558C8.90934 1.10681 13.2742 1.71395 12.9701 6.97465C12.8519 9.03349 11.6188 10.5395 10.6053 10.4852C10.4885 10.4885 10.3724 10.4663 10.265 10.42C10.1577 10.3738 10.0617 10.3046 9.98365 10.2172C9.64582 9.82039 9.62893 9.05384 9.64582 8.80284L10.2235 4.12892C10.2251 4.10747 10.2251 4.08593 10.2235 4.06448C10.232 3.92954 10.1868 3.79674 10.0978 3.69528C10.0088 3.59383 9.88326 3.53203 9.74886 3.52348C9.61446 3.51494 9.48218 3.56034 9.38113 3.64971C9.28008 3.73908 9.21852 3.8651 9.21001 4.00003L9.15258 4.60378C8.89451 4.29694 8.57756 4.04541 8.2206 3.86418C7.86364 3.68295 7.474 3.57573 7.07489 3.54892C5.43639 3.515 3.52086 4.81746 3.16951 7.32401C2.79113 10.0375 4.85869 11.055 5.68301 11.2382C6.25075 11.3333 6.833 11.2885 7.3797 11.1077C7.9264 10.9269 8.42118 10.6155 8.8215 10.2003C8.90907 10.4481 9.04071 10.678 9.21001 10.8786C9.37926 11.0715 9.58706 11.2265 9.81988 11.3334C10.0527 11.4403 10.3053 11.4969 10.5614 11.4993H10.6458C12.335 11.4993 13.8451 9.46425 13.987 7.02892C14.0735 5.54943 13.727 4.07686 12.9904 2.79255ZM8.6492 8.6129C8.44571 9.16212 8.06052 9.62452 7.55809 9.92273C7.05566 10.2209 6.46647 10.3369 5.88909 10.2512C5.86882 10.2512 3.86207 9.79325 4.17626 7.47325C4.47355 5.34658 6.05125 4.57325 7.00394 4.57325H7.04786C8.04448 4.60038 8.70326 5.68576 8.71001 5.69594C8.77153 5.80319 8.8701 5.88405 8.98704 5.92319L8.6492 8.6129Z" fill="#646464"/>
</svg>
