<svg width="18" height="18" viewBox="0 0 18 18" fill="none" xmlns="http://www.w3.org/2000/svg">
<path d="M9 0C4.03407 0 0 4.03407 0 9C0 13.9659 4.03407 18 9 18C13.9659 18 18 13.9659 18 9C18 4.03407 13.9659 0 9 0ZM8.6087 2.34783L9.3913 2.73913L8.6087 3.52174L8.21739 4.69565L7.43478 3.91304L6.65217 4.30435L7.04348 4.69565V5.47826L5.86957 6.26087L6.26087 6.65217L5.86957 8.21739L5.08696 9.3913L4.30435 8.21739L3.13043 9.3913L2.34783 8.21739H1.95652L1.17391 8.6087L0.782609 9C0.782609 6.64959 1.77126 4.5371 3.34978 3.04025L4.65667 2.73913L5.47826 3.13043L8.6087 2.34783ZM10.9565 2.73913H12.1304L14.4783 3.52174L14.8008 3.17782C15.8814 4.25444 16.6623 5.63037 17.0118 7.17188L16.8261 7.43478L16.4348 8.21739L15.6522 7.82609H15.2609L14.8696 9L13.3043 6.73013V5.71289L12.5217 4.42204L12.1304 4.30435L10.9565 3.91304V2.73913ZM16.4348 9.43028L16.9828 10.3306L17.0852 10.4636C16.7964 12.0732 16.037 13.5147 14.9582 14.6517L14.087 14.8696L14.2436 13.8913L15.3786 12.2871L15.5742 11.7391L15.2609 11.3478L15.1042 10.2519L15.5345 10.1349L15.6912 9.70465L16.4348 9.43028ZM6.33882 9.54798L6.57422 9.78261L6.14317 10.1739H5.71289L5.63494 9.86056L6.33882 9.54798ZM4.5 9.78261L5.32159 10.7219L4.8913 10.9565L4.5 9.78261ZM8.41304 10.2916L9.1177 11.1132L9.58696 10.4475L10.2129 11.5435L10.5652 12.2871L10.0172 13.422L9.54798 13.539L8.72639 12.7564L8.25637 12.6394L7.31709 13.0697L6.92578 12.7174L6.80885 11.3868L8.41304 10.2916Z" fill="#646464"/>
</svg>
